<svg width="42" height="42" viewBox="0 0 42 42" fill="none" xmlns="http://www.w3.org/2000/svg">
<g clip-path="url(#clip0_642_2293)">
<path d="M41.7597 39.5428C40.3272 38.1103 37.9963 38.1103 36.5637 39.5428L36.1871 39.9194C35.6019 40.5047 34.6498 40.5047 34.0645 39.9194L33.3113 39.1662C32.718 38.5728 31.9291 38.2461 31.0899 38.2461C30.2507 38.2461 29.4618 38.5729 28.8685 39.1662L28.1152 39.9194C27.53 40.5047 26.5779 40.5047 25.9926 39.9194L25.2394 39.1662C24.0146 37.9414 22.0215 37.9413 20.7966 39.1662L20.0434 39.9194C19.4582 40.5047 18.506 40.5047 17.9207 39.9194L17.1675 39.1662C15.9426 37.9414 13.9496 37.9413 12.7247 39.1662L11.9714 39.9194C11.6879 40.2029 11.311 40.359 10.9101 40.359C10.5092 40.359 10.1323 40.2029 9.84889 39.9194L9.09568 39.1662C8.50227 38.5728 7.71338 38.2461 6.87428 38.2461C6.03511 38.2461 5.24622 38.5729 4.65289 39.1662L3.8996 39.9194C3.6161 40.2029 3.23917 40.359 2.83828 40.359C2.4374 40.359 2.06046 40.2029 1.77696 39.9194L1.40036 39.5428C1.08003 39.2223 0.560528 39.2224 0.240279 39.5428C-0.0801339 39.8633 -0.0800519 40.3826 0.240279 40.7029L0.616883 41.0795C1.21021 41.6729 1.9991 41.9997 2.83828 41.9997C3.67746 41.9997 4.46635 41.6729 5.0596 41.0795L5.81289 40.3263C6.39809 39.741 7.35023 39.741 7.93552 40.3263L8.68873 41.0795C9.28205 41.6729 10.071 41.9997 10.9101 41.9997C11.7492 41.9997 12.5382 41.6729 13.1314 41.0795L13.8846 40.3263C14.4699 39.741 15.422 39.741 16.0073 40.3263L16.7605 41.0795C17.9853 42.3043 19.9783 42.3045 21.2033 41.0795L21.9565 40.3263C22.5417 39.741 23.4938 39.741 24.0791 40.3263L24.8323 41.0795C26.0572 42.3043 28.0502 42.3045 29.2751 41.0795L30.0284 40.3263C30.3119 40.0428 30.6888 39.8867 31.0897 39.8867C31.4906 39.8867 31.8675 40.0428 32.151 40.3263L32.9043 41.0795C33.4977 41.6729 34.2866 41.9997 35.1257 41.9997C35.9648 41.9997 36.7537 41.6729 37.3472 41.0796L37.7237 40.703C38.5166 39.9101 39.8067 39.9101 40.5997 40.703C40.92 41.0232 41.4394 41.0232 41.7597 40.703C42.0802 40.3826 42.0801 39.8632 41.7597 39.5428Z" fill="#087BA8"/>
<path d="M13.1316 33.8844C12.8113 33.5641 12.2919 33.5641 11.9715 33.8844C11.688 34.1679 11.3112 34.324 10.9102 34.324C10.5092 34.324 10.1324 34.1679 9.8489 33.8844L9.09569 33.1311C8.50227 32.5377 7.71338 32.2109 6.87428 32.2109C6.0351 32.2109 5.24612 32.5378 4.65279 33.1311L3.89958 33.8844C3.61608 34.1679 3.23923 34.324 2.83826 34.324C2.43729 34.324 2.06044 34.1679 1.77694 33.8845L1.40033 33.5078C1.08 33.1874 0.560663 33.1874 0.240249 33.5077C-0.080083 33.8281 -0.080083 34.3474 0.240249 34.6678L0.616854 35.0445C1.21019 35.638 1.99916 35.9647 2.83826 35.9647C3.67736 35.9647 4.46633 35.6379 5.05967 35.0445L5.81288 34.2913C6.09638 34.0078 6.47323 33.8516 6.8742 33.8516C7.27517 33.8516 7.65202 34.0078 7.93552 34.2913L8.68873 35.0445C9.28206 35.638 10.071 35.9647 10.9101 35.9647C11.7492 35.9647 12.5382 35.6379 13.1316 35.0445C13.452 34.7241 13.452 34.2047 13.1316 33.8844Z" fill="#087BA8"/>
<path d="M41.7595 33.5077C40.327 32.0752 37.996 32.0753 36.5634 33.5078L36.1869 33.8844C35.9034 34.1679 35.5265 34.324 35.1256 34.324C34.7246 34.324 34.3477 34.1679 34.0642 33.8844L33.311 33.1311C32.7177 32.5377 31.9287 32.2109 31.0896 32.2109C30.2505 32.2109 29.4615 32.5378 28.8682 33.1311C28.5478 33.4515 28.5479 33.9709 28.8682 34.2913C29.1885 34.6115 29.708 34.6115 30.0283 34.2913C30.3118 34.0078 30.6886 33.8516 31.0896 33.8516C31.4906 33.8516 31.8674 34.0078 32.1509 34.2913L32.9041 35.0445C33.4976 35.638 34.2865 35.9647 35.1256 35.9647C35.9647 35.9647 36.7536 35.6379 37.347 35.0445L37.7235 34.6679C38.5164 33.8749 39.8065 33.8749 40.5994 34.6679C40.9197 34.9881 41.4392 34.9881 41.7595 34.6679C42.0799 34.3474 42.0798 33.828 41.7595 33.5077Z" fill="#087BA8"/>
<path d="M28.7519 7.43945H27.3096C26.8565 7.43945 26.4893 7.80671 26.4893 8.25977C26.4893 8.71282 26.8565 9.08008 27.3096 9.08008H28.7519C29.205 9.08008 29.5722 8.71282 29.5722 8.25977C29.5722 7.80671 29.205 7.43945 28.7519 7.43945Z" fill="#087BA8"/>
<path d="M28.7519 3.50195H27.3096C26.8565 3.50195 26.4893 3.86921 26.4893 4.32227C26.4893 4.77532 26.8565 5.14258 27.3096 5.14258H28.7519C29.205 5.14258 29.5722 4.77532 29.5722 4.32227C29.5722 3.86921 29.205 3.50195 28.7519 3.50195Z" fill="#087BA8"/>
<path d="M28.7519 11.377H27.3096C26.8565 11.377 26.4893 11.7442 26.4893 12.1973C26.4893 12.6503 26.8565 13.0176 27.3096 13.0176H28.7519C29.205 13.0176 29.5722 12.6503 29.5722 12.1973C29.5722 11.7442 29.205 11.377 28.7519 11.377Z" fill="#087BA8"/>
<path d="M28.7519 15.3145H27.3096C26.8565 15.3145 26.4893 15.6817 26.4893 16.1348C26.4893 16.5878 26.8565 16.9551 27.3096 16.9551H28.7519C29.205 16.9551 29.5722 16.5878 29.5722 16.1348C29.5722 15.6817 29.205 15.3145 28.7519 15.3145Z" fill="#087BA8"/>
<path d="M28.7519 19.252H27.3096C26.8565 19.252 26.4893 19.6192 26.4893 20.0723C26.4893 20.5253 26.8565 20.8926 27.3096 20.8926H28.7519C29.205 20.8926 29.5722 20.5253 29.5722 20.0723C29.5722 19.6192 29.205 19.252 28.7519 19.252Z" fill="#087BA8"/>
<path d="M24.8823 30.9139C24.5233 30.6377 24.0082 30.7045 23.7319 31.0635C23.0734 31.9187 22.0777 32.4092 21 32.4092C19.1002 32.4092 17.5547 30.8637 17.5547 28.9639C17.5547 27.0641 19.1002 25.5186 21 25.5186C22.1044 25.5186 23.1151 26.0288 23.7727 26.9184C24.042 27.2828 24.5556 27.3598 24.92 27.0904C25.2843 26.8212 25.3613 26.3075 25.092 25.9432C24.3007 24.8728 23.116 24.161 21.8203 23.947V4.10156C21.8203 3.6485 21.453 3.28125 21 3.28125C20.5469 3.28125 20.1797 3.6485 20.1797 4.10156V23.9452C17.764 24.3387 15.9141 26.4389 15.9141 28.964C15.9141 31.7684 18.1956 34.0499 21 34.0499C22.5908 34.0499 24.0603 33.3262 25.0318 32.0644C25.3082 31.7055 25.2412 31.1904 24.8823 30.9139Z" fill="#087BA8"/>
<path d="M25.2656 28.1436C24.8126 28.1436 24.4453 28.5109 24.4453 28.9639V28.976C24.4453 29.429 24.8126 29.7963 25.2656 29.7963C25.7187 29.7963 26.0859 29.4291 26.0859 28.976V28.9639C26.0859 28.5109 25.7187 28.1436 25.2656 28.1436Z" fill="#087BA8"/>
<path d="M25.1015 22.4332V4.10155C25.1015 1.83995 23.2616 0 21 0C18.7384 0 16.8984 1.83995 16.8984 4.10155V10.0898C16.8984 10.5429 17.2657 10.9101 17.7187 10.9101C18.1718 10.9101 18.539 10.5429 18.539 10.0898V4.10155C18.539 2.74459 19.643 1.64062 21 1.64062C22.3569 1.64062 23.4609 2.74459 23.4609 4.10155V22.9034C23.4609 23.2042 23.6255 23.4809 23.89 23.6244C25.8517 24.6887 27.0703 26.7346 27.0703 28.964C27.0703 32.3112 24.3472 35.0343 21 35.0343C17.6528 35.0343 14.9297 32.3112 14.9297 28.964C14.9297 26.7346 16.1483 24.6887 18.1099 23.6244C18.3743 23.4809 18.539 23.2042 18.539 22.9034V18.3374C18.539 17.8844 18.1718 17.5171 17.7187 17.5171C17.2657 17.5171 16.8984 17.8844 16.8984 18.3374V22.4332C14.6599 23.8399 13.2891 26.2987 13.2891 28.964C13.2891 33.2158 16.7481 36.6749 21 36.6749C25.2518 36.6749 28.7109 33.2158 28.7109 28.964C28.7109 26.2987 27.3401 23.8399 25.1015 22.4332Z" fill="#087BA8"/>
<path d="M17.7188 13.3301C17.2657 13.3301 16.8984 13.6973 16.8984 14.1504V14.2461C16.8984 14.6992 17.2657 15.0664 17.7188 15.0664C18.1718 15.0664 18.5391 14.6992 18.5391 14.2462V14.1504C18.5391 13.6973 18.1718 13.3301 17.7188 13.3301Z" fill="#087BA8"/>
</g>
<defs>
<clipPath id="clip0_642_2293">
<rect width="42" height="42" fill="white"/>
</clipPath>
</defs>
</svg>
