<svg width="42" height="42" viewBox="0 0 42 42" fill="none" xmlns="http://www.w3.org/2000/svg">
<g clip-path="url(#clip0_643_2360)">
<path d="M16.3864 36.144C12.3353 34.8844 9.61352 31.1851 9.61352 26.9385C9.61352 24.8629 10.2633 22.8854 11.4928 21.2197C11.5208 21.1817 11.5461 21.1402 11.5673 21.0979C11.7704 20.6917 11.6054 20.1983 11.1992 19.9952C10.8315 19.8111 10.3916 19.9293 10.1608 20.2545C8.72678 22.2027 7.96875 24.5137 7.96875 26.9385C7.96875 29.3941 8.74413 31.7289 10.211 33.6903C11.6289 35.586 13.6485 37.0153 15.898 37.7147C15.9793 37.74 16.0616 37.7521 16.1424 37.7521C16.493 37.7521 16.818 37.526 16.9275 37.1736C17.0624 36.7398 16.8201 36.2789 16.3864 36.144Z" fill="#087BA8"/>
<path d="M37.4678 19.2184C37.4678 17.6529 36.9799 16.1614 36.0567 14.9036L30.8506 7.17518C30.6977 6.94827 30.4421 6.81224 30.1685 6.81224C29.8949 6.81224 29.6393 6.94827 29.4864 7.17518L27.2926 10.4317L20.5097 0.362937C20.3569 0.136029 20.1012 0 19.8277 0C19.5542 0 19.2985 0.136029 19.1457 0.362937L7.50209 17.6473C5.55935 20.2874 4.53271 23.4188 4.53271 26.705C4.53271 35.1387 11.3941 42 19.8277 42C28.2614 42 35.1227 35.1387 35.1227 26.705C35.1227 26.0318 35.0777 25.3573 34.9903 24.6934C36.5083 23.3548 37.4678 21.3967 37.4678 19.2184ZM30.1685 9.10673L34.6922 15.8222C34.7013 15.8361 34.7108 15.8499 34.7208 15.8634C35.4418 16.8398 35.8229 18 35.8229 19.2183C35.8229 22.3361 33.2864 24.8726 30.1685 24.8726C27.0507 24.8726 24.5141 22.3361 24.5141 19.2183C24.5141 18 24.8953 16.8398 25.6163 15.8634C25.6258 15.8505 25.6349 15.8373 25.6437 15.8237L27.9731 12.3658C27.9774 12.3595 27.9818 12.3533 27.9859 12.3468L30.1685 9.10673ZM33.4778 26.705C33.4778 34.2318 27.3543 40.3551 19.8276 40.3551C12.3009 40.3551 6.17749 34.2318 6.17749 26.705C6.17749 23.7653 7.09778 20.9646 8.83902 18.6057C8.84897 18.5923 8.8586 18.5782 8.86789 18.5638L19.8277 2.29441L26.3011 11.9038L24.2803 14.9037C23.3572 16.1614 22.8693 17.653 22.8693 19.2184C22.8693 23.2432 26.1437 26.5176 30.1685 26.5176C31.3454 26.5176 32.4579 26.2372 33.4433 25.7404C33.4658 26.0611 33.4778 26.3832 33.4778 26.705Z" fill="#087BA8"/>
<path d="M27.2689 19.0174C27.2689 18.619 27.35 18.2344 27.5101 17.8744C27.6946 17.4593 27.5077 16.9733 27.0927 16.7888C26.6776 16.6045 26.1917 16.7911 26.0071 17.2062C25.7529 17.7779 25.624 18.3873 25.624 19.0174C25.624 20.51 26.3655 21.8975 27.6075 22.7285C27.7479 22.8225 27.9068 22.8674 28.0641 22.8674C28.3294 22.8674 28.5898 22.7392 28.7483 22.5023C29.0009 22.1247 28.8997 21.6139 28.5222 21.3613C27.7374 20.8362 27.2689 19.96 27.2689 19.0174Z" fill="#087BA8"/>
<path d="M19.4377 37.2841C19.2364 36.755 18.4852 36.6041 18.0963 37.0177C17.6334 37.4663 17.8826 38.29 18.5174 38.4051C19.1468 38.543 19.6954 37.8749 19.4377 37.2841Z" fill="#087BA8"/>
<path d="M29.7354 23.4783C30.2657 23.8456 31.0252 23.4395 31.0143 22.7949C31.0262 22.1502 30.2653 21.7433 29.7354 22.1106C29.2551 22.4116 29.2533 23.1783 29.7354 23.4783Z" fill="#087BA8"/>
</g>
<defs>
<clipPath id="clip0_643_2360">
<rect width="42" height="42" fill="white"/>
</clipPath>
</defs>
</svg>
