<svg width="42" height="42" viewBox="0 0 42 42" fill="none" xmlns="http://www.w3.org/2000/svg">
<g clip-path="url(#clip0_642_2179)">
<path d="M39.2766 20.5527H37.5801C37.1271 20.5527 36.7598 20.92 36.7598 21.373C36.7598 21.826 37.1271 22.1934 37.5801 22.1934H39.2766C39.7296 22.1934 40.097 21.826 40.097 21.373C40.097 20.92 39.7296 20.5527 39.2766 20.5527Z" fill="#087BA8"/>
<path d="M41.1799 16.6152H37.5801C37.1271 16.6152 36.7598 16.9825 36.7598 17.4355C36.7598 17.8886 37.1271 18.2559 37.5801 18.2559H41.1799C41.6328 18.2559 42.0002 17.8886 42.0002 17.4355C42.0002 16.9825 41.6328 16.6152 41.1799 16.6152Z" fill="#087BA8"/>
<path d="M37.5801 14.3184H39.2766C39.7296 14.3184 40.097 13.9511 40.097 13.498C40.097 13.045 39.7296 12.6777 39.2766 12.6777H37.5801C37.1271 12.6777 36.7598 13.045 36.7598 13.498C36.7598 13.9511 37.1271 14.3184 37.5801 14.3184Z" fill="#087BA8"/>
<path d="M37.5801 10.3809H41.1799C41.6328 10.3809 42.0002 10.0136 42.0002 9.56055C42.0002 9.10749 41.6328 8.74023 41.1799 8.74023H37.5801C37.1271 8.74023 36.7598 9.10749 36.7598 9.56055C36.7598 10.0136 37.1271 10.3809 37.5801 10.3809Z" fill="#087BA8"/>
<path d="M37.5801 6.44336H39.2766C39.7296 6.44336 40.097 6.07611 40.097 5.62305C40.097 5.16999 39.7296 4.80273 39.2766 4.80273H37.5801C37.1271 4.80273 36.7598 5.16999 36.7598 5.62305C36.7598 6.07611 37.1271 6.44336 37.5801 6.44336Z" fill="#087BA8"/>
<path d="M18.5806 9.7617C18.3541 9.36934 17.8525 9.23498 17.4601 9.46146L16.0109 10.2982L16.1696 9.70583C16.2869 9.2682 16.0272 8.81842 15.5895 8.70112C15.1516 8.58382 14.7022 8.84361 14.5849 9.28116L14.0016 11.4583L10.1657 13.6728V9.24367L11.7595 7.64989C12.0799 7.32956 12.0799 6.81014 11.7595 6.48981C11.4391 6.16948 10.9199 6.16948 10.5994 6.48981L10.1657 6.92343V5.25C10.1657 4.79694 9.79841 4.42969 9.34544 4.42969C8.89246 4.42969 8.52513 4.79694 8.52513 5.25V6.92351L8.09151 6.48989C7.77118 6.16956 7.25192 6.16956 6.93135 6.48989C6.61102 6.81022 6.61102 7.32964 6.93135 7.64998L8.52513 9.24375V13.6729L4.68928 11.4583L4.10604 9.28124C3.98873 8.84369 3.53929 8.58373 3.1014 8.7012C2.66377 8.81842 2.40406 9.26828 2.52136 9.70583L2.68009 10.2983L1.23077 9.46146C0.838336 9.23498 0.336799 9.36934 0.110229 9.7617C-0.11634 10.1541 0.0181086 10.6558 0.410462 10.8822L1.85978 11.719L1.26736 11.8778C0.829723 11.995 0.570013 12.4448 0.687317 12.8825C0.785508 13.249 1.11691 13.4907 1.47916 13.4907C1.54938 13.4907 1.62091 13.4816 1.69195 13.4625L3.86913 12.8791L7.7049 15.0937L3.86913 17.3083L1.69195 16.7249C1.2544 16.6076 0.804621 16.8674 0.687317 17.3049C0.570013 17.7426 0.829723 18.1923 1.26736 18.3096L1.85978 18.4684L0.410298 19.3052C0.0179445 19.5317 -0.116504 20.0334 0.110065 20.4257C0.262069 20.6889 0.537692 20.836 0.821273 20.836C0.960398 20.836 1.10149 20.8005 1.23061 20.726L2.67993 19.8892L2.5212 20.4816C2.4039 20.9191 2.66361 21.369 3.10124 21.4862C3.17236 21.5052 3.24373 21.5144 3.31403 21.5144C3.6762 21.5144 4.00768 21.2727 4.10587 20.9062L4.68911 18.7291L8.52496 16.5145V20.9437L6.93118 22.5374C6.61085 22.8578 6.61085 23.3772 6.93118 23.6976C7.2516 24.0179 7.77085 24.0179 8.09135 23.6976L8.52496 23.264V24.9374C8.52496 25.3904 8.8923 25.7577 9.34527 25.7577C9.79825 25.7577 10.1656 25.3904 10.1656 24.9374V23.264L10.5992 23.6976C10.7594 23.8577 10.9693 23.9379 11.1792 23.9379C11.3892 23.9379 11.5991 23.8577 11.7593 23.6976C12.0796 23.3773 12.0796 22.8579 11.7593 22.5374L10.1655 20.9437V16.5145L14.0013 18.7291L14.5847 20.9062C14.6829 21.2726 15.0143 21.5144 15.3765 21.5144C15.4467 21.5144 15.5183 21.5053 15.5893 21.4862C16.0269 21.3689 16.2866 20.9191 16.1693 20.4815L16.0106 19.8892L17.4599 20.7259C17.5891 20.8004 17.7301 20.8359 17.8692 20.8359C18.1527 20.8359 18.4284 20.6888 18.5804 20.4256C18.807 20.0333 18.6725 19.5316 18.2802 19.3051L16.8311 18.4684L17.4235 18.3096C17.8611 18.1924 18.1209 17.7426 18.0036 17.3049C17.8863 16.8674 17.4366 16.6074 16.9989 16.7249L14.8217 17.3083L10.986 15.0937L14.8217 12.8791L16.9989 13.4625C17.07 13.4816 17.1414 13.4907 17.2117 13.4907C17.5739 13.4907 17.9054 13.2489 18.0036 12.8825C18.1209 12.4448 17.8611 11.9951 17.4235 11.8778L16.8311 11.719L18.2804 10.8822C18.6728 10.6558 18.8071 10.1541 18.5806 9.7617Z" fill="#087BA8"/>
<path d="M28.5566 20.5527C27.1092 20.5527 25.9316 21.7303 25.9316 23.1777V26.8459C23.8492 27.8467 22.4863 29.9785 22.4863 32.3205C22.4863 35.6677 25.2094 38.3908 28.5566 38.3908C31.9038 38.3908 34.627 35.6677 34.627 32.3205C34.627 29.9785 33.2641 27.8467 31.1816 26.8459V23.1777C31.1816 21.7303 30.0041 20.5527 28.5566 20.5527ZM32.9863 32.3205C32.9863 34.763 30.9991 36.7502 28.5566 36.7502C26.1142 36.7502 24.127 34.763 24.127 32.3205C24.127 30.468 25.2952 28.7957 27.034 28.1592C27.3573 28.041 27.5723 27.7333 27.5723 27.3889V23.1777C27.5723 22.6349 28.0139 22.1933 28.5567 22.1933C29.0995 22.1933 29.5411 22.6349 29.5411 23.1777V27.3889C29.5411 27.7332 29.7561 28.0409 30.0795 28.1592C31.8181 28.7957 32.9863 30.468 32.9863 32.3205Z" fill="#087BA8"/>
<path d="M34.791 24.9194V6.23435C34.791 2.79668 31.9942 0 28.5566 0C25.119 0 22.3223 2.79668 22.3223 6.23435V12.0809C22.3223 12.5339 22.6896 12.9012 23.1426 12.9012C23.5955 12.9012 23.9629 12.5339 23.9629 12.0809V6.23435C23.9629 3.7014 26.0236 1.64062 28.5566 1.64062C31.0896 1.64062 33.1503 3.7014 33.1503 6.23435V25.3102C33.1503 25.5638 33.2676 25.803 33.4679 25.9584C35.4264 27.4777 36.5956 29.8559 36.5956 32.3202C36.5956 36.7529 32.9893 40.3592 28.5566 40.3592C24.1239 40.3592 20.5176 36.7529 20.5176 32.3202C20.5176 29.8559 21.6868 27.4777 23.6453 25.9584C23.8456 25.8029 23.9629 25.5637 23.9629 25.3102V19.4636C23.9629 19.0106 23.5955 18.6433 23.1426 18.6433C22.6896 18.6433 22.3223 19.0106 22.3223 19.4636V24.9194C20.1578 26.7521 18.877 29.4885 18.877 32.3202C18.877 37.6575 23.2193 41.9998 28.5566 41.9998C33.8939 41.9998 38.2363 37.6575 38.2363 32.3202C38.2363 29.4885 36.9554 26.7521 34.791 24.9194Z" fill="#087BA8"/>
<path d="M23.1426 16.5928C23.3583 16.5928 23.57 16.505 23.7225 16.3524C23.875 16.1998 23.9629 15.9882 23.9629 15.7725C23.9629 15.5567 23.8751 15.3451 23.7225 15.1925C23.57 15.0399 23.3583 14.9521 23.1426 14.9521C22.9259 14.9521 22.7152 15.0399 22.5626 15.1925C22.41 15.3451 22.3223 15.5567 22.3223 15.7725C22.3223 15.9882 22.41 16.1998 22.5626 16.3524C22.7153 16.505 22.9259 16.5928 23.1426 16.5928Z" fill="#087BA8"/>
</g>
<defs>
<clipPath id="clip0_642_2179">
<rect width="42" height="42" fill="white"/>
</clipPath>
</defs>
</svg>
