<svg width="42" height="42" viewBox="0 0 42 42" fill="none" xmlns="http://www.w3.org/2000/svg">
<g clip-path="url(#clip0_644_2390)">
<path d="M21.728 13.3544C21.581 13.1039 21.3127 12.9499 21.0222 12.9492C21.0216 12.9492 21.021 12.9492 21.0205 12.9492C20.7309 12.9492 20.4625 13.102 20.3148 13.3513L16.0566 20.5373C15.534 21.4188 15.2578 22.4297 15.2578 23.4607C15.2578 26.6269 17.8337 29.2029 21 29.2029C24.1663 29.2029 26.7422 26.6269 26.7422 23.4607C26.7422 22.4378 26.4699 21.4337 25.9551 20.5575L21.728 13.3544ZM21 27.5623C18.7384 27.5623 16.8984 25.7223 16.8984 23.4607C16.8984 22.7239 17.0953 22.0022 17.4679 21.3738V21.3737L21.0171 15.3845L24.5403 21.3883C24.9075 22.0131 25.1016 22.7298 25.1016 23.4607C25.1016 25.7223 23.2616 27.5623 21 27.5623Z" fill="#087BA8"/>
<path d="M39.4736 7.16625C39.9357 6.70409 39.6964 5.91035 39.0543 5.78197L34.8382 4.93877C31.2153 1.84341 26.0618 0 21 0C16.5446 0 11.936 1.43858 8.51427 3.87384L7.16617 2.5264C6.95231 2.31262 6.63789 2.23388 6.34848 2.32148C6.05899 2.40918 5.84112 2.64912 5.78189 2.94566L4.93877 7.16174C1.84341 10.7848 0 15.9383 0 21C0 25.4554 1.4385 30.0641 3.87393 33.4857L2.5264 34.8338C2.31254 35.0478 2.23379 35.362 2.32148 35.6515C2.40909 35.941 2.64904 36.1588 2.94566 36.2181L7.16034 37.061C9.84457 39.3547 13.3925 40.9848 17.1794 41.6587C17.6237 41.7377 18.0511 41.4425 18.1308 40.9948C18.2101 40.5487 17.9129 40.1228 17.4668 40.0435C15.2512 39.6491 13.128 38.9044 11.2427 37.8774L11.6459 37.9581C11.9136 38.0118 12.1922 37.9284 12.3868 37.7338C12.5807 37.5399 12.665 37.2619 12.6111 36.9929L12.1373 34.6233C14.4957 36.0889 17.3394 36.9411 20.3455 37.0578C24.1107 37.2039 27.7254 36.1878 30.5236 34.1964C30.9363 33.9027 30.9872 33.3071 30.6278 32.9478L30.1169 32.437L36.1079 31.2391L34.9098 37.2302L34.1446 36.4654C33.8522 36.1731 33.3878 36.144 33.0613 36.3978C30.7601 38.1866 27.732 39.4821 24.5347 40.0457C24.0886 40.1244 23.7907 40.5498 23.8693 40.9959C23.948 41.4421 24.3735 41.7401 24.8196 41.6614C28.0138 41.0983 31.0619 39.8515 33.4858 38.1264L34.8339 39.4738C35.2959 39.9357 36.0899 39.6966 36.2182 39.0545L37.0613 34.8384C40.1566 31.2152 42 26.0618 42 21C42 16.5446 40.5615 11.9359 38.1261 8.51427L39.4736 7.16625ZM7.09021 4.77003L7.85539 5.53489C8.14784 5.82725 8.6123 5.85613 8.9387 5.60241C12.13 3.12162 16.639 1.64062 21 1.64062C24.4054 1.64062 27.8505 2.5378 30.7588 4.12297L30.3541 4.04201C30.0851 3.9882 29.807 4.07236 29.6132 4.26628C29.4193 4.4602 29.335 4.73821 29.3889 5.00719L29.8627 7.37682C27.5043 5.91125 24.6606 5.05903 21.6544 4.94222C17.8895 4.7962 14.2747 5.81183 11.4763 7.80298C11.0637 8.09657 11.0126 8.69228 11.3719 9.05141L11.8835 9.56304L5.89206 10.7611L7.09021 4.77003ZM5.60241 33.0613C3.1217 29.87 1.64062 25.361 1.64062 21C1.64062 17.5945 2.5378 14.1492 4.12305 11.2409L4.04209 11.6459C3.92708 12.2204 4.43527 12.7259 5.00735 12.6112L7.37691 12.1373C5.91134 14.4958 5.05911 17.3395 4.94246 20.3456C4.79629 24.1108 5.81249 27.7255 7.80396 30.5237C8.0978 30.9364 8.69326 30.9871 9.05256 30.6279L9.56328 30.117L10.7613 36.1079L4.7702 34.9099L5.53506 34.1446C5.82725 33.8522 5.85621 33.3878 5.60241 33.0613ZM27.8726 32.5133L28.7541 33.3944C23.6454 36.4557 16.248 36.0125 11.6685 32.2787L10.8712 28.2918C10.8119 27.9951 10.594 27.7551 10.3044 27.6675C10.0152 27.58 9.70061 27.6587 9.48659 27.8727L8.60565 28.7542C5.54441 23.6458 5.98754 16.2484 9.7212 11.6686L13.7083 10.8714C14.0049 10.812 14.2449 10.5943 14.3326 10.3047C14.4202 10.0151 14.3414 9.70085 14.1275 9.48691L13.2457 8.60516C18.3545 5.54375 25.7518 5.98738 30.3315 9.72144L31.1287 13.7084C31.2564 14.3473 32.0486 14.5926 32.5133 14.1274L33.3943 13.246C36.4555 18.3545 36.0124 25.7518 32.2787 30.3315L28.2916 31.1288C27.995 31.1881 27.7549 31.4059 27.6673 31.6956C27.5797 31.9852 27.6586 32.2994 27.8726 32.5133ZM40.3594 21C40.3594 24.4055 39.4622 27.8508 37.8769 30.7591L37.9579 30.3541C38.0724 29.782 37.5679 29.2742 36.9926 29.3888L34.623 29.8627C36.0886 27.5042 36.9408 24.6605 37.0575 21.6544C37.2037 17.8892 36.1875 14.2745 34.196 11.4763C33.9033 11.0651 33.3084 11.0113 32.9474 11.3721L32.4367 11.883L31.2387 5.89206C32.8027 6.20476 36.4061 6.92541 37.2298 7.09013L36.4649 7.85539C36.1726 8.14784 36.1436 8.61222 36.3974 8.93878C38.8783 12.13 40.3594 16.639 40.3594 21Z" fill="#087BA8"/>
<path d="M21.122 41.99C21.5691 41.9175 21.8728 41.4963 21.8004 41.0491C21.7279 40.6019 21.3066 40.2982 20.8595 40.3707C20.4123 40.4432 20.1086 40.8644 20.1811 41.3116C20.2535 41.7588 20.6748 42.0625 21.122 41.99Z" fill="#087BA8"/>
</g>
<defs>
<clipPath id="clip0_644_2390">
<rect width="42" height="42" fill="white"/>
</clipPath>
</defs>
</svg>
