<svg width="42" height="42" viewBox="0 0 42 42" fill="none" xmlns="http://www.w3.org/2000/svg">
<path d="M29.317 7.90929L26.3882 3.63757C26.235 3.41455 25.9819 3.28125 25.7114 3.28125C25.441 3.28125 25.1878 3.41455 25.035 3.63757L23.3732 6.06102L19.462 0.356323C19.3088 0.133301 19.0557 0 18.7852 0C18.5148 0 18.2617 0.133301 18.1088 0.356323L11.4489 10.0697C9.02737 13.6012 9.46733 18.3622 12.4954 21.39C14.2293 23.1242 16.5073 23.9913 18.7852 23.9913C21.0632 23.9913 23.3412 23.1242 25.0754 21.39C26.9554 19.5103 27.884 16.9391 27.6456 14.301C28.0634 14.0953 28.4556 13.82 28.8027 13.4727C30.2908 11.9846 30.5071 9.64476 29.317 7.90929ZM23.9154 20.23C21.0866 23.0585 16.4839 23.0588 13.6554 20.23C11.1858 17.7604 10.8269 13.8777 12.8018 10.9973L18.7852 2.27092L22.3786 7.51131L22.1059 7.90929C20.9158 9.64476 21.1321 11.9846 22.6202 13.4727C23.4726 14.3247 24.5918 14.7509 25.7114 14.7509C25.8181 14.7509 25.9245 14.7458 26.0312 14.7381C26.1354 16.7876 25.3795 18.7659 23.9154 20.23ZM27.6427 12.3127C26.5779 13.3775 24.845 13.3775 23.7802 12.3127C22.8506 11.3831 22.7157 9.9213 23.4591 8.83694L25.7114 5.55185L27.9638 8.83694C28.7075 9.9213 28.5723 11.3831 27.6427 12.3127Z" fill="#087BA8"/>
<path d="M22.5897 42H14.981C14.5279 42 14.1606 41.6328 14.1606 41.1797V38.7585C13.0885 38.4396 12.0515 38.0096 11.0656 37.4748L9.3522 39.1882C9.19839 39.342 8.98979 39.4282 8.77222 39.4282C8.55464 39.4282 8.34604 39.342 8.19223 39.1882L2.81213 33.8078C2.65833 33.6539 2.57181 33.4453 2.57181 33.2278C2.57181 33.0102 2.65833 32.8016 2.81213 32.6478L4.5255 30.9344C3.99037 29.9484 3.56035 28.9118 3.24152 27.8393H0.820312C0.367218 27.8393 0 27.4721 0 27.019V20.999C0 20.5462 0.367218 20.1787 0.820312 20.1787H9.44641C9.69731 20.1787 9.93411 20.2934 10.0898 20.4902C10.2453 20.6869 10.3023 20.9439 10.2446 21.1881C10.0882 21.8482 10.0091 22.5301 10.0091 23.2148C10.0091 26.8245 12.2726 30.1183 15.6417 31.4115C16.0647 31.5737 16.2762 32.0482 16.1137 32.4712C15.9512 32.8942 15.477 33.1054 15.054 32.9429C13.108 32.1963 11.4453 30.8953 10.2456 29.1813C9.01767 27.4266 8.36847 25.3637 8.36847 23.2148C8.36847 22.7473 8.39987 22.2808 8.46172 21.8193H1.64062V26.199H3.86636C4.24127 26.199 4.56876 26.4535 4.66104 26.8172C5.00359 28.1633 5.53871 29.454 6.25232 30.6534C6.44394 30.9761 6.39267 31.3875 6.12735 31.6528L4.55209 33.2278L8.77222 37.4479L10.3475 35.8726C10.6128 35.6076 11.0242 35.556 11.3469 35.7477C12.5463 36.4613 13.837 36.9967 15.1832 37.3389C15.5468 37.4312 15.8013 37.7587 15.8013 38.1336V40.3594H21.7694V38.1336C21.7694 37.7587 22.0241 37.4312 22.3875 37.3389C23.7339 36.9964 25.0247 36.4613 26.224 35.7477C26.5467 35.556 26.9582 35.6073 27.2235 35.8726L28.7987 37.4479L33.0185 33.2278L31.4436 31.6528C31.1783 31.3875 31.1267 30.9758 31.3186 30.6534C32.0319 29.454 32.5674 28.1633 32.9096 26.8168C33.0019 26.4535 33.3294 26.1987 33.7046 26.1987H35.9303V21.8193H29.1089C29.1708 22.2808 29.2022 22.7473 29.2022 23.2148C29.2022 25.4838 28.485 27.641 27.1286 29.4524C25.8177 31.2036 23.9506 32.5225 21.8709 33.1666C21.4384 33.3008 20.9789 33.0586 20.8449 32.6257C20.711 32.1931 20.9529 31.7336 21.3858 31.5993C25.0795 30.4554 27.5612 27.0857 27.5612 23.2148C27.5612 22.5301 27.4821 21.8482 27.326 21.1881C27.268 20.9439 27.3251 20.6869 27.4808 20.4902C27.6362 20.2937 27.8733 20.1787 28.1242 20.1787H36.7503C37.2034 20.1787 37.5706 20.5462 37.5706 20.999V27.019C37.5706 27.4721 37.2034 27.8393 36.7503 27.8393H34.3288C34.0103 28.9115 33.5803 29.9484 33.0451 30.9344L34.7585 32.6478C35.0789 32.9682 35.0789 33.4876 34.7585 33.8081L29.3784 39.1882C29.2246 39.342 29.016 39.4285 28.7984 39.4285C28.5808 39.4285 28.3722 39.342 28.2184 39.1882L26.5051 37.4748C25.5191 38.0096 24.4822 38.44 23.41 38.7585V41.1797C23.41 41.6328 23.0428 42 22.5897 42Z" fill="#087BA8"/>
<path d="M18.7853 33.6318C18.3326 33.6318 17.9653 33.2643 17.9653 32.8115C17.9653 32.3584 18.3326 31.9912 18.7853 31.9912H18.8215H18.8267C19.2772 31.9912 19.6441 32.3552 19.6467 32.8064C19.6492 33.2595 19.2842 33.629 18.8315 33.6315L18.7853 33.6318Z" fill="#087BA8"/>
<path d="M18.7853 20.7116C18.3325 20.7116 17.9634 20.3444 17.9634 19.8913C17.9634 19.4385 18.329 19.0713 18.7821 19.0713H18.7853C19.2384 19.0713 19.6056 19.4385 19.6056 19.8913C19.6056 20.3444 19.2384 20.7116 18.7853 20.7116Z" fill="#087BA8"/>
<path d="M15.6982 19.5886C15.5113 19.5886 15.3239 19.5252 15.1698 19.3954C15.0474 19.2922 14.9282 19.1826 14.8154 19.0695C12.9043 17.1588 12.6265 14.154 14.1549 11.9248C14.411 11.5511 14.9217 11.456 15.2954 11.7123C15.669 11.9684 15.7642 12.4791 15.5078 12.8524C14.426 14.4303 14.6228 16.557 15.9753 17.9095C16.0558 17.99 16.1404 18.0678 16.2272 18.1409C16.5736 18.4328 16.6178 18.9503 16.3259 19.2967C16.1634 19.4893 15.9318 19.5886 15.6982 19.5886Z" fill="#087BA8"/>
</svg>
