<svg width="585" height="222" viewBox="0 0 585 222" fill="none" xmlns="http://www.w3.org/2000/svg">
<path d="M150.7 197C151 196.9 151.4 196.9 151.7 197V173.2H162.7C162.5 172.9 162.5 172.5 162.5 172.2H150.7V197Z" fill="#087BA8"/>
<path d="M149.6 221C149.5 221 149.5 221 149.4 221C149 221 148.6 220.9 148.3 220.9C147.9 220.8 147.5 220.7 147.1 220.5H113.4V172.2H27V142.4L121.4 1H150.7V138.5H157C156.6 138.2 156.4 137.9 156.4 137.5H151.7V0H120.9L26 142V173.1H112.4V221.4H149.6C149.6 221.3 149.6 221.3 149.6 221.2C149.6 221.2 149.6 221.1 149.6 221Z" fill="#087BA8"/>
<path d="M178 143.5V172.1H175.5C175.6 172.4 175.5 172.8 175.5 173.1H179.1V143C178.7 143.3 178.4 143.5 178 143.5Z" fill="#087BA8"/>
<path d="M67.2998 138.5H113.4V65.7998L111.6 68.6998L68.2998 137L67.2998 138.5ZM112.4 69.2998V137.6H69.0998L112.4 69.2998Z" fill="#087BA8"/>
<path d="M277.2 188.5C275.3 188.9 273.4 189.1 271.3 189.1C266.1 189.1 261.5 187.7 257.5 185C257 184.7 256.6 184.3 256.1 184C256.3 184.5 256.4 184.9 256.4 185.5C256.6 185.6 256.7 185.8 256.9 185.9C261 188.7 265.9 190.1 271.3 190.1C273.4 190.1 275.4 189.9 277.4 189.5C277.2 189.2 277.1 188.9 277.2 188.5Z" fill="#087BA8"/>
<path d="M242.6 158.8C242.4 158.7 242.2 158.5 241.9 158.4C242.6 161.7 243.5 164.8 244.4 167.5C244.8 167.5 245.2 167.5 245.5 167.7C244.6 165.1 243.8 162.3 243 159.2C242.9 159 242.7 158.9 242.6 158.8Z" fill="#087BA8"/>
<path d="M239.8 136.4C239.5 136.7 239.2 136.9 238.8 136.9C239.1 140.9 239.5 144.7 240 148.2C240.2 149.8 240.5 151.4 240.8 152.9C241.2 153.1 241.6 153.4 241.9 153.8C241.6 151.9 241.2 150 241 148C240.5 144.5 240.1 140.6 239.8 136.4Z" fill="#087BA8"/>
<path d="M302.5 75.2998C301.1 65.1998 299 56.7998 296.3 50.3998C293.5 43.8998 290 38.9998 285.9 35.9998C281.7 32.8998 276.8 31.2998 271.3 31.2998C265.9 31.2998 261 32.7998 256.9 35.8998C252.8 38.8998 249.2 43.6998 246.4 50.2998C243.6 56.6998 241.5 65.0998 240.1 75.1998C238.7 85.1998 238 97.5998 238 112C238 115.9 238.1 119.7 238.2 123.3C238.6 123.4 238.9 123.6 239.2 123.8C239.1 120.1 239 116.2 239 112.1C239 97.6998 239.7 85.4998 241.1 75.3998C242.5 65.2998 244.6 57.0998 247.3 50.6998C250.1 44.2998 253.5 39.6998 257.5 36.6998C261.5 33.6998 266.1 32.2998 271.3 32.2998C276.6 32.2998 281.3 33.7998 285.3 36.7998C289.3 39.7998 292.7 44.4998 295.4 50.7998C298.1 57.1998 300.2 65.3998 301.6 75.4998C303 85.5998 303.7 97.6998 303.7 112C303.7 126.3 303 138.3 301.6 148.1C301.4 149.7 301.1 151.2 300.9 152.7H301C301.3 152.8 301.6 152.9 301.8 153.1C302.1 151.5 302.4 149.8 302.6 148.1C304 138.3 304.7 126.1 304.7 111.9C304.6 97.6998 303.9 85.3998 302.5 75.2998Z" fill="#087BA8"/>
<path d="M299.7 157.8C299.1 160.6 298.4 163.3 297.6 165.7C297.9 165.7 298.3 165.7 298.6 165.9C299.4 163.5 300 160.9 300.7 158.1C300.4 158 300 157.9 299.7 157.8Z" fill="#087BA8"/>
<path d="M199.8 111.9C199.8 111.7 199.8 111.4 199.8 111.2C199.6 111.1 199.4 111.1 199.2 110.9C199.1 110.8 199 110.7 198.8 110.6C198.8 111 198.8 111.4 198.8 111.8C198.8 147.7 204.8 174.9 216.9 193.5C217.4 194.3 218 195.1 218.5 195.9C218.2 194.9 217.9 193.9 217.7 192.9C205.8 174.7 199.8 147.4 199.8 111.9Z" fill="#087BA8"/>
<path d="M338.3 64.2C341.3 78 342.9 94 342.9 111.9C342.9 123.6 342.2 134.3 340.9 144.2C341.2 144.1 341.6 144 341.9 144.1C343.2 134.3 343.8 123.6 343.8 112C343.8 93.9 342.3 78 339.2 64.1C336.1 50.2 331.6 38.5 325.5 29C319.6 19.4 312 12.2 303 7.3C294 2.4 283.4 0 271.3 0C259.2 0 248.6 2.4 239.6 7.3C230.6 12.2 223 19.4 217 28.9C210.9 38.4 206.4 50.1 203.4 64C201.9 70.8 200.8 78.1 200.1 85.9C200.4 85.8 200.8 85.7 201.1 85.8C201.8 78.1 202.9 70.9 204.4 64.2C207.4 50.5 211.9 38.8 217.8 29.4C223.7 20.1 231.2 12.9 240.1 8.2C249 3.4 259.5 1 271.3 1C283.2 1 293.7 3.4 302.5 8.2C311.3 13 318.8 20.1 324.8 29.4C330.7 38.8 335.3 50.5 338.3 64.2Z" fill="#087BA8"/>
<path d="M338.3 159C335.3 172.6 330.8 184 324.8 193.1C323.9 194.4 323 195.7 322.1 196.9C322.2 196.9 322.2 196.9 322.3 196.9C322.7 196.8 323 196.9 323.3 197C324.1 196 324.8 194.9 325.6 193.8C331.1 185.4 335.3 175.3 338.3 163.4C338.2 161.8 338.3 160.3 338.3 159Z" fill="#087BA8"/>
<path d="M490.4 1V137.5V138.5H491.4H517.7V172.1H491.4H490.4V173.1V220.4H453.1V173.1V172.1H452.1H366.7V142.3L461.1 1H490.4ZM407 138.5H408.8H452.1H453.1V137.5V69.3V65.9L451.3 68.8L407.9 137L407 138.5ZM491.4 0H460.6L365.7 142V173.1H452.1V221.4H491.4V173.1H518.7V137.5H491.4V0ZM408.8 137.5L452.1 69.2V137.5H408.8Z" fill="#087BA8"/>
<path d="M393.8 221C385.6 221 377.3 221 369.1 221C357.9 221 346.7 221 335.4 221C329.9 221 324.4 221 318.9 221C306.5 221 294 221 281.6 221C276.5 221 271.5 221 266.4 221C254.5 221 242.6 221 230.7 221C223.8 221 216.9 221 210 221C200.4 221 190.8 221 181.2 221C170.9 221 160.7 221 150.4 221C148.9 221 147.4 220.9 145.9 220.5C140.9 219 137.3 214.2 137.3 209C137.3 203.3 141.6 198.2 147.2 197.2C148.5 197 149.9 197 151.2 197C156.1 197 161 197 165.9 197C176.5 197 187.1 197 197.8 197C205.6 197 213.3 197 221.1 197C229.9 197 238.8 197 247.6 197C257.2 197 266.8 197 276.4 197C283.6 197 290.8 197 298.1 197C309.2 197 320.4 197 331.5 197C336.3 197 341.1 197 345.9 197" stroke="#087BA8" stroke-miterlimit="10" stroke-linecap="round"/>
<path d="M157.8 209C157.8 213.3 154.2 216.8 150 216.8C145.8 216.8 142.2 213.2 142.2 209C142.2 204.7 145.8 201.2 150 201.2C154.2 201.2 157.8 204.7 157.8 209Z" stroke="#087BA8" stroke-miterlimit="10" stroke-linecap="round"/>
<path d="M178.1 209.3C178.1 212 175.8 214.3 173.1 214.3C170.4 214.3 168.1 212 168.1 209.3C168.1 206.6 170.4 204.3 173.1 204.3C175.9 204.3 178.1 206.6 178.1 209.3Z" stroke="#087BA8" stroke-miterlimit="10" stroke-linecap="round"/>
<path d="M203.8 209C203.8 213.3 200.2 216.8 196 216.8C191.8 216.8 188.2 213.2 188.2 209C188.2 204.7 191.8 201.2 196 201.2C200.2 201.2 203.8 204.7 203.8 209Z" stroke="#087BA8" stroke-miterlimit="10" stroke-linecap="round"/>
<path d="M224.1 209.3C224.1 212 221.8 214.3 219.1 214.3C216.4 214.3 214.1 212 214.1 209.3C214.1 206.6 216.4 204.3 219.1 204.3C221.9 204.3 224.1 206.6 224.1 209.3Z" stroke="#087BA8" stroke-miterlimit="10" stroke-linecap="round"/>
<path d="M249.8 209C249.8 213.3 246.2 216.8 242 216.8C237.8 216.8 234.2 213.2 234.2 209C234.2 204.7 237.8 201.2 242 201.2C246.2 201.2 249.8 204.7 249.8 209Z" stroke="#087BA8" stroke-miterlimit="10" stroke-linecap="round"/>
<path d="M270.1 209.3C270.1 212 267.8 214.3 265.1 214.3C262.4 214.3 260.1 212 260.1 209.3C260.1 206.6 262.4 204.3 265.1 204.3C267.9 204.3 270.1 206.6 270.1 209.3Z" stroke="#087BA8" stroke-miterlimit="10" stroke-linecap="round"/>
<path d="M295.8 209C295.8 213.3 292.2 216.8 288 216.8C283.7 216.8 280.2 213.2 280.2 209C280.2 204.7 283.8 201.2 288 201.2C292.2 201.2 295.8 204.7 295.8 209Z" stroke="#087BA8" stroke-miterlimit="10" stroke-linecap="round"/>
<path d="M316.1 209.3C316.1 212 313.8 214.3 311.1 214.3C308.4 214.3 306.1 212 306.1 209.3C306.1 206.6 308.4 204.3 311.1 204.3C313.8 204.3 316.1 206.6 316.1 209.3Z" stroke="#087BA8" stroke-miterlimit="10" stroke-linecap="round"/>
<path d="M341.8 209C341.8 213.3 338.2 216.8 334 216.8C329.7 216.8 326.2 213.2 326.2 209C326.2 204.7 329.8 201.2 334 201.2C338.2 201.2 341.8 204.7 341.8 209Z" stroke="#087BA8" stroke-miterlimit="10" stroke-linecap="round"/>
<path d="M362.1 209.3C362.1 212 359.8 214.3 357.1 214.3C354.4 214.3 352.1 212 352.1 209.3" stroke="#087BA8" stroke-miterlimit="10" stroke-linecap="round"/>
<path d="M387.8 209C387.8 213.3 384.2 216.8 380 216.8C375.7 216.8 372.2 213.2 372.2 209" stroke="#087BA8" stroke-miterlimit="10" stroke-linecap="round"/>
<path d="M153.1 209C153.1 213 146.8 213 146.8 209C146.8 205 153.1 205 153.1 209Z" stroke="#087BA8" stroke-miterlimit="10"/>
<path d="M199.1 209C199.1 213 192.8 213 192.8 209C192.8 205 199.1 205 199.1 209Z" stroke="#087BA8" stroke-miterlimit="10"/>
<path d="M245.1 209C245.1 213 238.8 213 238.8 209C238.8 205 245.1 205 245.1 209Z" stroke="#087BA8" stroke-miterlimit="10"/>
<path d="M291.1 209C291.1 213 284.8 213 284.8 209C284.8 205 291.1 205 291.1 209Z" stroke="#087BA8" stroke-miterlimit="10"/>
<path d="M337.1 209C337.1 213 330.8 213 330.8 209C330.8 205 337.1 205 337.1 209Z" stroke="#087BA8" stroke-miterlimit="10"/>
<path d="M382.8 209C382.8 213 376.8 213 376.8 209" stroke="#087BA8" stroke-miterlimit="10"/>
<path d="M316.3 192.9C316.3 195.3 314.3 197 312 197C310.7 197 309.4 197 308.1 197C306.1 197 304 197 302 197C297.6 197 293.2 197 288.9 197C286.4 197 283.9 197 281.5 197C279.2 197 277.4 195.1 277.4 192.8C277.4 191.5 277.4 190.2 277.4 188.9C277.4 184.4 277.4 179.9 277.4 175.5C277.4 173.3 277.4 171 277.4 168.8C277.4 167.5 277.2 165.9 278.2 164.9C279.1 164.1 280.1 163.5 281.1 162.8C282.4 161.8 283.7 160.9 284.9 159.9C287.4 158 289.9 156.1 292.3 154.1C294.2 152.6 296.1 151.5 298.6 152C299.8 152.2 300.7 152.9 301.7 153.5C303 154.4 304.2 155.2 305.5 156.1C308.1 157.9 310.6 159.7 313.1 161.6C314.7 162.8 316.3 163.9 316.3 166.1C316.3 167.5 316.3 168.8 316.3 170.2C316.3 172.4 316.3 174.6 316.3 176.7C316.3 181.1 316.3 185.4 316.3 189.8C316.3 190.9 316.3 191.9 316.3 192.9Z" stroke="#087BA8" stroke-miterlimit="10" stroke-linecap="round"/>
<path d="M311.5 175.8C311.5 174.5 310.9 173.3 309.8 172.5C308.9 171.9 308.1 171.8 307.1 171.7C306 171.5 304.9 171.3 303.8 171.1C301.5 170.7 299.2 170.3 296.9 169.9C295.8 169.7 294.8 169.5 293.7 169.3C293 169.2 292.3 169.1 291.6 169.3C290.3 169.8 289.2 171 288.1 171.8C286 173.4 282.7 174.9 282.7 178C282.7 179 282.7 180.1 282.7 181.1C282.7 183.4 282.7 185.7 282.7 188C282.7 190.4 284.6 192.1 287 192.1C288.4 192.1 289.8 192.1 291.1 192.1C295.2 192.1 299.3 192.1 303.4 192.1C305.4 192.1 308.1 192.5 309.8 191.3C311.9 189.8 311.5 187.2 311.5 184.9C311.5 182 311.5 178.9 311.5 175.8Z" stroke="#087BA8" stroke-miterlimit="10" stroke-linecap="round"/>
<path d="M288.3 150C286.2 150 284 150 281.9 150C280.7 150 279.6 150 278.4 150C278 150 277.3 150.2 277.3 149.7C277.3 149.1 277.3 148.5 277.3 147.9C277.3 146.8 277.3 145.7 277.3 144.7C277.3 144 277.2 144 277.8 144C278.5 144 279.2 144 279.9 144C281.9 144 284 144 286 144C286.3 144 288 143.8 288.2 144C288.4 144.2 288.2 145.6 288.2 146C288.3 147.3 288.3 148.7 288.3 150Z" stroke="#087BA8" stroke-miterlimit="10" stroke-linecap="round"/>
<path d="M278.399 164.7C278.399 160 278.399 155.2 278.499 150.5" stroke="#087BA8" stroke-miterlimit="10" stroke-linecap="round"/>
<path d="M287 150.5C287.9 152.4 288.7 154.3 289.6 156.1" stroke="#087BA8" stroke-miterlimit="10" stroke-linecap="round"/>
<path d="M282.3 144.5C282.3 146.2 282.3 147.8 282.3 149.5" stroke="#087BA8" stroke-miterlimit="10" stroke-linecap="round"/>
<path d="M279.3 144.5C279.3 146.2 279.3 147.8 279.3 149.5" stroke="#087BA8" stroke-miterlimit="10" stroke-linecap="round"/>
<path d="M285.3 144.5C285.3 146.2 285.3 147.8 285.3 149.5" stroke="#087BA8" stroke-miterlimit="10" stroke-linecap="round"/>
<path d="M289.299 163.4C290.499 164.8 287.399 166.7 286.499 167.5C285.499 168.4 283.699 170.7 282.399 169C281.199 167.6 284.299 165.7 285.199 164.9C286.299 164 287.999 161.8 289.299 163.4Z" stroke="#087BA8" stroke-miterlimit="10" stroke-linecap="round"/>
<path d="M294.7 165.4C299.1 166.3 303.5 167.3 307.9 168.2C308.6 168.4 309.4 168.5 310.1 168.3C311.4 168 311.7 166.8 311.2 165.7C310.2 163.4 307.6 162 305.6 160.6C303.6 159.2 300.9 156.8 298.2 157.3C297.1 157.5 296 158.5 295.1 159.2C294.3 159.8 293.4 160.4 292.8 161.1C291.6 162.6 292.9 165 294.7 165.4Z" stroke="#087BA8" stroke-miterlimit="10" stroke-linecap="round"/>
<path d="M256.3 192.9C256.3 195.3 254.3 197 252 197C250.7 197 249.4 197 248.1 197C246.1 197 244 197 242 197C237.6 197 233.2 197 228.9 197C226.4 197 223.9 197 221.5 197C219.2 197 217.4 195.1 217.4 192.8C217.4 191.5 217.4 190.2 217.4 188.9C217.4 184.4 217.4 179.9 217.4 175.5C217.4 173.3 217.4 171 217.4 168.8C217.4 167.5 217.2 165.9 218.2 164.9C219.1 164.1 220.1 163.5 221.1 162.8C222.4 161.8 223.7 160.9 224.9 159.9C227.4 158 229.9 156.1 232.3 154.1C234.2 152.6 236.1 151.5 238.6 152C239.8 152.2 240.7 152.9 241.7 153.5C243 154.4 244.2 155.2 245.5 156.1C248.1 157.9 250.6 159.7 253.1 161.6C254.7 162.8 256.3 163.9 256.3 166.1C256.3 167.5 256.3 168.8 256.3 170.2C256.3 172.4 256.3 174.6 256.3 176.7C256.3 181.1 256.3 185.4 256.3 189.8C256.3 190.9 256.3 191.9 256.3 192.9Z" stroke="#087BA8" stroke-miterlimit="10" stroke-linecap="round"/>
<path d="M251.5 175.8C251.5 174.5 250.9 173.3 249.8 172.5C248.9 171.9 248.1 171.8 247.1 171.7C246 171.5 244.9 171.3 243.8 171.1C241.5 170.7 239.2 170.3 236.9 169.9C235.8 169.7 234.8 169.5 233.7 169.3C233 169.2 232.3 169.1 231.6 169.3C230.3 169.8 229.2 171 228.1 171.8C226 173.5 222.8 175 222.8 178.1C222.8 179.1 222.8 180.2 222.8 181.2C222.8 183.5 222.8 185.8 222.8 188.1C222.8 190.5 224.7 192.2 227.1 192.2C228.5 192.2 229.9 192.2 231.2 192.2C235.3 192.2 239.4 192.2 243.5 192.2C245.5 192.2 248.2 192.6 249.9 191.4C252 189.9 251.6 187.3 251.6 185C251.5 182 251.5 178.9 251.5 175.8Z" stroke="#087BA8" stroke-miterlimit="10" stroke-linecap="round"/>
<path d="M225.8 144C226.4 144 227 144 227.5 144C228.3 144 228.3 143.9 228.3 144.7C228.3 145.8 228.3 146.9 228.3 147.9C228.3 148.4 228.3 149 228.3 149.5C228.3 150.2 227.9 149.9 227.2 149.9C226 149.9 224.8 149.9 223.7 149.9C222.6 149.9 221.5 149.9 220.3 149.9C219.9 149.9 219.5 149.9 219.2 149.9C218.9 149.9 217.6 150.1 217.4 149.9C217.3 149.8 217.4 148.8 217.4 148.6C217.4 148 217.4 147.5 217.4 146.9C217.4 146.4 217.3 143.9 217.6 143.9C219.4 143.9 221.2 143.9 222.9 143.9" stroke="#087BA8" stroke-miterlimit="10" stroke-linecap="round"/>
<path d="M218.399 164.7C218.399 160 218.399 155.2 218.499 150.5" stroke="#087BA8" stroke-miterlimit="10" stroke-linecap="round"/>
<path d="M227 150.5C227.9 152.4 228.7 154.3 229.6 156.1" stroke="#087BA8" stroke-miterlimit="10" stroke-linecap="round"/>
<path d="M222.3 144.5C222.3 146.2 222.3 147.8 222.3 149.5" stroke="#087BA8" stroke-miterlimit="10" stroke-linecap="round"/>
<path d="M219.3 144.5C219.3 146.2 219.3 147.8 219.3 149.5" stroke="#087BA8" stroke-miterlimit="10" stroke-linecap="round"/>
<path d="M229.299 163.4C230.499 164.8 227.399 166.7 226.499 167.5C225.499 168.4 223.699 170.7 222.399 169C221.199 167.6 224.299 165.7 225.199 164.9C226.299 164 227.999 161.8 229.299 163.4Z" stroke="#087BA8" stroke-miterlimit="10" stroke-linecap="round"/>
<path d="M234.7 165.4C239.1 166.3 243.5 167.3 247.9 168.2C248.6 168.4 249.4 168.5 250.1 168.3C251.4 168 251.7 166.8 251.2 165.7C250.2 163.4 247.6 162 245.6 160.6C243.6 159.2 240.9 156.8 238.2 157.3C237.1 157.5 236 158.5 235.1 159.2C234.3 159.8 233.4 160.4 232.8 161.1C231.6 162.6 232.9 165 234.7 165.4Z" stroke="#087BA8" stroke-miterlimit="10" stroke-linecap="round"/>
<path d="M346.3 197C343.6 197 339.6 197.8 337.9 195.1C337.1 193.8 337.3 192.4 337.3 190.9C337.3 189.5 337.3 188.1 337.3 186.6C337.3 182.2 337.3 177.8 337.3 173.4C337.3 171.7 337.3 170.1 337.3 168.4C337.3 167.6 337.2 166.6 337.5 165.9C337.8 165 338.5 164.6 339.2 164.1C340.1 163.4 341 162.8 341.9 162.1C345.6 159.3 349.3 156.4 353 153.5C354.4 152.4 355.9 151.8 357.7 151.8C359.8 151.9 361.3 153.2 363 154.4" stroke="#087BA8" stroke-miterlimit="10" stroke-linecap="round"/>
<path d="M351.9 169.3C351.1 169.5 350.4 170.1 349.8 170.7C349.1 171.3 348.3 171.8 347.6 172.4C346.2 173.5 344.1 174.5 343.3 176.2C342.5 177.8 342.8 180.1 342.8 181.9C342.8 183.3 342.8 184.7 342.8 186.1C342.8 187 342.7 188.1 342.9 189C343.2 190.8 344.7 192.2 346.4 192.4" stroke="#087BA8" stroke-miterlimit="10" stroke-linecap="round"/>
<path d="M348.3 150C346.2 150 344 150 341.9 150C340.7 150 339.6 150 338.4 150C338 150 337.3 150.2 337.3 149.7C337.3 149.1 337.3 148.5 337.3 147.9C337.3 146.8 337.3 145.7 337.3 144.7C337.3 144 337.2 144 337.8 144C338.5 144 339.2 144 339.9 144C341.9 144 344 144 346 144C346.3 144 348 143.8 348.2 144C348.4 144.2 348.2 145.6 348.2 146C348.3 147.3 348.3 148.7 348.3 150Z" stroke="#087BA8" stroke-miterlimit="10" stroke-linecap="round"/>
<path d="M338.399 164.7C338.399 160 338.399 155.2 338.499 150.5" stroke="#087BA8" stroke-miterlimit="10" stroke-linecap="round"/>
<path d="M347 150.5C347.9 152.4 348.7 154.3 349.6 156.1" stroke="#087BA8" stroke-miterlimit="10" stroke-linecap="round"/>
<path d="M342.3 144.5C342.3 146.2 342.3 147.8 342.3 149.5" stroke="#087BA8" stroke-miterlimit="10" stroke-linecap="round"/>
<path d="M339.3 144.5C339.3 146.2 339.3 147.8 339.3 149.5" stroke="#087BA8" stroke-miterlimit="10" stroke-linecap="round"/>
<path d="M345.3 144.5C345.3 146.2 345.3 147.8 345.3 149.5" stroke="#087BA8" stroke-miterlimit="10" stroke-linecap="round"/>
<path d="M349.299 163.4C350.499 164.8 347.399 166.7 346.499 167.5C345.499 168.4 343.699 170.7 342.399 169C341.199 167.6 344.299 165.7 345.199 164.9C346.299 164 347.999 161.8 349.299 163.4Z" stroke="#087BA8" stroke-miterlimit="10" stroke-linecap="round"/>
<path d="M360 157.4C358.6 157.1 357.6 157.5 356.5 158.3C355.6 158.9 354.7 159.7 353.8 160.4C353.1 161 352.5 161.5 352.5 162.5C352.4 163.8 353.1 164.9 354.4 165.3" stroke="#087BA8" stroke-miterlimit="10" stroke-linecap="round"/>
<path d="M422.3 115.9C429.2 115.9 434 115.9 440.9 115.9C444.9 115.9 448.8 115.9 452.8 115.9" stroke="#087BA8" stroke-miterlimit="10"/>
<path d="M452.8 221C443.5 221 434.2 221 424.8 221C416.4 221 408 221 399.6 221C397.2 221 394.8 221 392.4 221C390.3 221 388.5 219.5 388.3 217.3C388.3 216.8 388.3 216.3 388.3 215.8C388.3 210 388.3 204.3 388.3 198.5C388.3 189.5 388.3 181.5 388.3 172.4" stroke="#087BA8" stroke-miterlimit="10"/>
<path d="M426.5 108C435.3 108 437.1 108 445.9 108C448.2 108 450.6 108 452.9 108" stroke="#087BA8" stroke-miterlimit="10"/>
<path d="M452.8 192C448.3 192 443.7 192 439.2 192C438.4 192 433.3 192 433.3 192C433.3 189.6 433.3 175.2 433.3 172.8" stroke="#087BA8" stroke-miterlimit="10"/>
<path d="M452.8 181C448.5 181 444.2 181 439.9 181C439.6 181 436.3 181 436.3 181C436.3 180 436.3 179 436.3 178.1C436.3 176 436.3 174.8 436.3 172.7" stroke="#087BA8" stroke-miterlimit="10"/>
<path d="M393.3 221.5C393.3 212.8 393.3 204 393.3 195.3C393.3 190.5 393.3 188.7 393.3 183.9C393.3 182.9 393.3 182 393.3 181C393.3 178.8 395.1 177 397.3 177C399.5 177 401.7 177 403.8 177C408.2 177 412.5 177 416.9 177C418.3 177 419.7 177 421 177C422.3 177 423.8 176.8 425 177.4C427.9 178.9 427.2 182.7 427.2 185.4C427.2 194.6 427.2 200.9 427.2 210.1C427.2 213.9 427.2 217.6 427.2 221.4" stroke="#087BA8" stroke-miterlimit="10"/>
<path d="M422.3 187C418 187 413.8 187 409.5 187C407.2 187 405 187 402.7 187C401.3 187 399.9 187 398.5 187C398.1 187 398.3 186.5 398.3 186.2C398.3 185.7 398.3 185.1 398.3 184.6C398.3 184 398.2 184 398.8 184C399.5 184 400.3 184 401 184C402.1 184 403.2 184 404.3 184C406.4 184 408.5 184 410.6 184C412.8 184 415 184 417.2 184C418.7 184 420.2 184 421.7 184C422.2 184 422.3 183.9 422.3 184.4C422.3 185 422.3 185.5 422.3 186.1C422.3 186.4 422.3 186.7 422.3 187Z" stroke="#087BA8" stroke-miterlimit="10"/>
<path d="M422.3 193C418 193 413.8 193 409.5 193C407.2 193 405 193 402.7 193C401.3 193 399.9 193 398.5 193C398.1 193 398.3 192.5 398.3 192.2C398.3 191.7 398.3 191.1 398.3 190.6C398.3 190 398.2 190 398.8 190C399.5 190 400.3 190 401 190C402.1 190 403.2 190 404.3 190C406.4 190 408.5 190 410.6 190C412.8 190 415 190 417.2 190C418.7 190 420.2 190 421.7 190C422.2 190 422.3 189.9 422.3 190.4C422.3 191 422.3 191.5 422.3 192.1C422.3 192.4 422.3 192.7 422.3 193Z" stroke="#087BA8" stroke-miterlimit="10"/>
<path d="M422.3 199C418 199 413.8 199 409.5 199C407.2 199 405 199 402.7 199C401.3 199 399.9 199 398.5 199C398.1 199 398.3 198.5 398.3 198.2C398.3 197.7 398.3 197.1 398.3 196.6C398.3 196 398.2 196 398.8 196C399.5 196 400.3 196 401 196C402.1 196 403.2 196 404.3 196C406.4 196 408.5 196 410.6 196C412.8 196 415 196 417.2 196C418.7 196 420.2 196 421.7 196C422.2 196 422.3 195.9 422.3 196.4C422.3 197 422.3 197.5 422.3 198.1C422.3 198.4 422.3 198.7 422.3 199Z" stroke="#087BA8" stroke-miterlimit="10"/>
<path d="M422.3 205C418 205 413.8 205 409.5 205C407.2 205 405 205 402.7 205C401.3 205 399.9 205 398.5 205C398.1 205 398.3 204.5 398.3 204.2C398.3 203.7 398.3 203.1 398.3 202.6C398.3 202 398.2 202 398.8 202C399.5 202 400.3 202 401 202C402.1 202 403.2 202 404.3 202C406.4 202 408.5 202 410.6 202C412.8 202 415 202 417.2 202C418.7 202 420.2 202 421.7 202C422.2 202 422.3 201.9 422.3 202.4C422.3 203 422.3 203.5 422.3 204.1C422.3 204.4 422.3 204.7 422.3 205Z" stroke="#087BA8" stroke-miterlimit="10"/>
<path d="M441.8 187C441.8 190 436.8 190 436.8 187C436.8 183 441.8 183 441.8 187Z" stroke="#087BA8" stroke-miterlimit="10"/>
<path d="M449.8 187C449.8 190 444.8 190 444.8 187C444.8 183 449.8 183 449.8 187Z" stroke="#087BA8" stroke-miterlimit="10"/>
<path d="M366.2 151.5C364 153.4 361.9 155.5 360 157.7C352.6 166.3 348 176.8 346.8 188C346.4 191.7 346.4 195.4 346.4 199.2C346.4 200.3 346.4 201.4 346.4 202.4C346.4 203.7 346.2 205.2 346.7 206.5C348 209.7 352.1 208.9 354.9 208.9C356.8 208.9 358.8 208.9 360.7 208.9C370 208.9 379.3 208.9 388.6 208.9C388.7 208.9 388.8 208.9 388.8 208.9" stroke="#087BA8" stroke-miterlimit="10"/>
<path d="M194.1 184C185.3 184 176.6 184 167.8 184C163 184 158.3 184 153.5 184C153.4 184 151.2 184 151.2 184C151.2 185.1 151.2 186.2 151.2 187.3C151.2 189.5 151.2 191.6 151.2 193.8C151.2 194.1 151.2 197 151.2 197C152 197 152.8 197 153.5 197C156.5 197 159.5 197 162.5 197C166.9 197 171.3 197 175.6 197C179.9 197 184.2 197 188.5 197C190.4 197 192.4 197 194.3 197C195.9 197 197.4 197 199 197C199.3 197 200.9 197.2 201.2 197C201.4 196.8 201.2 195.5 201.2 195.2C201.2 194.6 201.2 194 201.2 193.4C201.2 192.7 201.3 192.3 200.8 191.8C200.3 191.2 199.8 190.7 199.4 190.1C197.7 188.1 195.9 186.1 194.1 184Z" stroke="#087BA8" stroke-miterlimit="10" stroke-linecap="round"/>
<path d="M200.8 192C192.3 192 183.8 192 175.3 192C167.5 192 159.6 192 151.8 192" stroke="#087BA8" stroke-miterlimit="10" stroke-linecap="round"/>
<path d="M182.4 133.7C182.4 139.6 178.4 144.9 172.7 146.5C167 148.1 160.7 145.5 157.7 140.4C154.7 135.3 155.6 128.5 159.8 124.3C164 120.1 170.7 119.2 175.9 122.2C179.9 124.6 182.4 129.1 182.4 133.7Z" stroke="#087BA8" stroke-miterlimit="10" stroke-linecap="round"/>
<path d="M178.7 133.7C178.7 138.9 174.4 143.2 169.2 143.2C164 143.2 159.7 138.9 159.7 133.7C159.7 128.5 164 124.2 169.2 124.2C174.4 124.2 178.7 128.5 178.7 133.7Z" stroke="#087BA8" stroke-miterlimit="10" stroke-linecap="round"/>
<path d="M172.7 133.7C172.7 135.6 171.1 137.2 169.2 137.2C167.3 137.2 165.7 135.6 165.7 133.7C165.7 131.8 167.3 130.2 169.2 130.2C171.1 130.2 172.7 131.8 172.7 133.7Z" stroke="#087BA8" stroke-miterlimit="10" stroke-linecap="round"/>
<path d="M217.4 98.7001C217.4 104.6 213.4 109.9 207.7 111.5C202 113.1 195.7 110.5 192.7 105.4C189.7 100.3 190.6 93.5001 194.8 89.3001C199 85.1001 205.7 84.2001 210.9 87.2001C214.9 89.6001 217.4 94.1001 217.4 98.7001Z" stroke="#087BA8" stroke-miterlimit="10" stroke-linecap="round"/>
<path d="M213.7 98.7002C213.7 103.9 209.4 108.2 204.2 108.2C199 108.2 194.7 103.9 194.7 98.7002C194.7 93.5002 199 89.2002 204.2 89.2002C209.4 89.2002 213.7 93.5002 213.7 98.7002Z" stroke="#087BA8" stroke-miterlimit="10" stroke-linecap="round"/>
<path d="M207.7 98.7002C207.7 100.6 206.1 102.2 204.2 102.2C202.3 102.2 200.7 100.6 200.7 98.7002C200.7 96.8002 202.3 95.2002 204.2 95.2002C206.1 95.2002 207.7 96.8002 207.7 98.7002Z" stroke="#087BA8" stroke-miterlimit="10" stroke-linecap="round"/>
<path d="M243.7 130.2C243.7 134 240.5 137.2 236.7 137.2C232.9 137.2 229.7 134 229.7 130.2C229.7 126.4 232.9 123.2 236.7 123.2C240.5 123.2 243.7 126.4 243.7 130.2Z" stroke="#087BA8" stroke-miterlimit="10" stroke-linecap="round"/>
<path d="M239.3 130C239.3 134 234.1 134 234.1 130C234.1 127 239.3 127 239.3 130Z" stroke="#087BA8" stroke-miterlimit="10" stroke-linecap="round"/>
<path d="M178.299 180.301C178.299 176.201 173.499 177.001 170.699 177.001C168.499 177.001 166.299 177.001 164.199 177.001C162.299 177.001 160.199 177.101 159.499 179.301C158.899 181.201 159.999 183.501 161.999 183.901C163.199 184.101 164.499 184.001 165.699 184.001C166.699 184.001 167.799 184.001 168.799 184.001C170.299 184.001 171.899 184.001 173.399 184.001C174.599 184.001 175.799 184.101 176.799 183.401C177.899 182.701 178.299 181.601 178.299 180.301Z" stroke="#087BA8" stroke-miterlimit="10" stroke-linecap="round"/>
<path d="M162.3 176.5C162.3 172.3 162.3 168.1 162.3 163.9C162.3 162.7 161.9 160.8 162.7 159.8C163.6 158.7 165.3 159 166.6 159C168.8 159 171.1 158.8 173.3 159C175.9 159 175.3 162.4 175.3 164C175.3 165.4 175.3 166.9 175.3 168.3C175.3 171 175.3 173.7 175.3 176.5" stroke="#087BA8" stroke-miterlimit="10" stroke-linecap="round"/>
<path d="M164.3 146.5C164.3 150.5 164.3 154.5 164.3 158.5" stroke="#087BA8" stroke-miterlimit="10" stroke-linecap="round"/>
<path d="M173.3 158.5C173.3 154.5 173.3 150.5 173.3 146.5" stroke="#087BA8" stroke-miterlimit="10" stroke-linecap="round"/>
<path d="M192.1 104.3C186.4 110.1 180.6 115.9 174.8 121.7" stroke="#087BA8" stroke-miterlimit="10" stroke-linecap="round"/>
<path d="M181.1 128.001C186.9 122.201 192.7 116.401 198.4 110.601" stroke="#087BA8" stroke-miterlimit="10" stroke-linecap="round"/>
<path d="M229.7 130.3C223.4 124 217 117.6 210.7 111.3C210.5 111.1 210.3 110.9 210.1 110.7" stroke="#087BA8" stroke-miterlimit="10" stroke-linecap="round"/>
<path d="M216.3 104.101C222.7 110.501 229 116.801 235.4 123.201L235.5 123.301" stroke="#087BA8" stroke-miterlimit="10" stroke-linecap="round"/>
<path d="M252.7 138.7C251.9 141 251 143.3 250.2 145.5C250 146 249.9 146.4 249.7 146.9C249.4 147.6 249.3 148.6 248.9 149.2C248 150.3 246.1 150 244.8 150" stroke="#087BA8" stroke-miterlimit="10" stroke-linecap="round"/>
<path d="M243.6 131.3C245.9 132.4 248.3 133.5 250.6 134.6" stroke="#087BA8" stroke-miterlimit="10" stroke-linecap="round"/>
<path d="M223.2 134.6C225.4 133.5 227.6 132.5 229.8 131.4" stroke="#087BA8" stroke-miterlimit="10" stroke-linecap="round"/>
<path d="M228.799 150.001C227.499 150.001 225.599 150.401 224.699 149.201C224.299 148.601 224.199 147.701 223.999 147.101C223.799 146.601 223.599 146.001 223.399 145.501C222.599 143.201 221.699 140.901 220.899 138.601" stroke="#087BA8" stroke-miterlimit="10" stroke-linecap="round"/>
<path d="M239.5 136.601C241.1 136.901 242.7 137.201 244.3 137.601C245.8 137.901 249.8 138.101 249 140.201C248.5 141.701 248 143.201 247.4 144.801C247.1 145.501 246.9 146.301 246.6 147.001C246.2 148.101 246 150.101 244.6 150.101" stroke="#087BA8" stroke-miterlimit="10" stroke-linecap="round"/>
<path d="M228.9 150C227.4 150 227.2 148.2 226.9 147.1C226.6 146.3 226.4 145.5 226.1 144.7C225.6 143.2 225.1 141.7 224.5 140.1C223.7 137.7 227.2 137.7 228.8 137.4C230.3 137.1 231.9 136.8 233.4 136.5" stroke="#087BA8" stroke-miterlimit="10" stroke-linecap="round"/>
<path d="M223.9 136C223.9 139 219 139 219 136C219 133 223.9 133 223.9 136Z" stroke="#087BA8" stroke-miterlimit="10" stroke-linecap="round"/>
<path d="M254.9 136C254.9 139 250 139 250 136C250 133 254.9 133 254.9 136Z" stroke="#087BA8" stroke-miterlimit="10" stroke-linecap="round"/>
<path d="M486 171H496.5L497 221H486V171Z" fill="white"/>
<rect x="506" y="133" width="21" height="56" fill="white"/>
<path d="M42 171H52L54 174H46L42 171Z" fill="white"/>
<path d="M24 166L29 163.5L28 174L24 175V166Z" fill="white"/>
<path d="M531.7 212.9C540.2 212.9 548.7 212.9 557.2 212.9C561.3 212.9 565.4 212.9 569.5 212.9C572.3 212.9 575.1 212.9 577.9 212.9C578.7 212.9 579.5 212.9 580.3 212.9C582.5 212.9 584.3 214.7 584.3 216.9C584.3 219.2 582.4 220.9 580.2 220.9C579.3 220.9 578.4 220.9 577.5 220.9C574.4 220.9 571.3 220.9 568.3 220.9C563.9 220.9 559.5 220.9 555.1 220.9C546.4 220.9 537.7 220.9 529 220.9C527.2 220.9 525.5 220.9 523.7 220.9" stroke="#087BA8" stroke-miterlimit="10"/>
<path d="M567.7 182.9C570.2 182.9 572.7 182.9 575.1 182.9C576.5 182.9 577.8 182.9 579.2 182.9C580.1 182.9 580.9 182.9 581.7 183.2C583.2 183.8 584.1 185.3 584.1 186.9C584.1 189.1 582.2 190.9 580 190.9C578.8 190.9 577.6 190.9 576.3 190.9C574.2 190.9 572.2 190.9 570.1 190.9C566.2 190.9 562.4 190.9 558.5 190.9" stroke="#087BA8" stroke-miterlimit="10" stroke-linecap="round"/>
<path d="M560.7 140.9C564.2 140.9 567.8 140.9 571.3 140.9C573.2 140.9 575.1 140.9 577.1 140.9C578.1 140.9 579.2 140.9 580.2 140.9C582.4 140.9 584.2 142.7 584.2 144.9C584.2 147.6 581.9 148.9 579.5 148.9C578.2 148.9 577 148.9 575.7 148.9C573.4 148.9 571 148.9 568.7 148.9" stroke="#087BA8" stroke-miterlimit="10" stroke-linecap="round"/>
<path d="M517.699 148.9C515.099 148.9 512.499 148.9 509.799 148.9C508.399 148.9 506.899 148.9 505.499 148.9C504.599 148.9 503.799 149 502.899 148.7C501.299 148.2 500.199 146.6 500.199 144.9C500.199 142.7 502.099 140.9 504.299 140.9C505.499 140.9 506.699 140.9 507.999 140.9C510.099 140.9 512.099 140.9 514.199 140.9C518.099 140.9 521.899 140.9 525.799 140.9" stroke="#087BA8" stroke-miterlimit="10" stroke-linecap="round"/>
<path d="M584.199 114.9C584.199 117.1 582.299 118.9 580.099 118.9C579.399 118.9 578.699 118.9 577.999 118.9C574.999 118.9 571.999 118.9 568.999 118.9C565.299 118.9 561.699 118.9 557.999 118.9C548.099 118.9 538.199 118.9 528.299 118.9C524.699 118.9 521.199 118.9 517.599 118.9C514.399 118.9 511.299 118.9 508.099 118.9C506.199 118.9 503.399 119.3 501.799 118.1C500.799 117.4 500.199 116.1 500.199 114.9C500.199 112.7 502.099 110.9 504.299 110.9C504.999 110.9 505.699 110.9 506.399 110.9C509.399 110.9 512.399 110.9 515.399 110.9C519.099 110.9 522.699 110.9 526.399 110.9C536.299 110.9 546.199 110.9 556.099 110.9C559.699 110.9 563.199 110.9 566.799 110.9C569.999 110.9 573.099 110.9 576.299 110.9C578.199 110.9 580.999 110.5 582.599 111.7C583.599 112.4 584.199 113.6 584.199 114.9Z" stroke="#087BA8" stroke-miterlimit="10"/>
<path d="M579.199 119.4C579.199 126.7 579.199 134.1 579.199 141.4" stroke="#087BA8" stroke-miterlimit="10"/>
<path d="M506.2 119.4C506.2 126.7 506.2 134.1 506.2 141.4" stroke="#087BA8" stroke-miterlimit="10"/>
<path d="M579.199 191.4C579.199 198.7 579.199 206.1 579.199 213.4" stroke="#087BA8" stroke-miterlimit="10"/>
<path d="M579.199 148.4C579.199 157.2 579.199 165.9 579.199 174.7C579.199 177.6 579.199 180.5 579.199 183.4" stroke="#087BA8" stroke-miterlimit="10"/>
<path d="M506.2 162.4C506.2 167.1 506.2 171.7 506.2 176.4" stroke="#087BA8" stroke-miterlimit="10"/>
<path d="M506.2 148.4C506.2 150.7 506.2 153.1 506.2 155.4" stroke="#087BA8" stroke-miterlimit="10"/>
<path d="M516.5 178.2C514.7 174.4 513.6 170.3 513.5 166.1" stroke="#087BA8" stroke-miterlimit="10"/>
<path d="M513.899 160.2C515.799 148.6 524.799 138.9 536.199 136.1C547.799 133.2 560.199 137.7 567.399 147.3C574.599 157 575.199 170.4 568.899 180.7C562.699 190.8 550.899 196.4 539.099 194.7C536.399 194.3 533.699 193.5 531.199 192.4" stroke="#087BA8" stroke-miterlimit="10"/>
<path d="M522.499 178.8C520.699 176.1 519.499 173 518.899 169.9" stroke="#087BA8" stroke-miterlimit="10"/>
<path d="M518.399 163.3C519.199 151.5 528.699 141.6 540.399 140.3C552.099 139 563.399 146.2 567.099 157.4C570.299 167.1 567.099 177.9 559.299 184.4C551.499 190.9 540.199 192 531.299 187.1" stroke="#087BA8" stroke-miterlimit="10"/>
<path d="M554.9 168.2C554.9 165.5 553.3 162.7 551.9 160.4C550.4 157.8 548.6 155.3 546.8 152.9C546.2 152.1 545.4 150.6 544.5 150.2C543.2 149.6 542.4 151.3 541.7 152.1C539.9 154.5 538.1 156.9 536.5 159.5C535 161.9 533.4 164.6 533 167.5C532.6 170.2 533.7 173 535.3 175.1C538.8 179.6 545.5 180.6 550.1 177.3C553.2 175.2 554.9 171.8 554.9 168.2Z" stroke="#087BA8" stroke-miterlimit="10"/>
<path d="M531.2 214.9C531.2 217.8 529.1 220.3 526.2 220.8C525.3 221 524.2 220.9 523.3 220.9C520.4 220.9 517.5 220.9 514.6 220.9C510.6 220.9 506.6 220.9 502.6 220.9C498.5 220.9 494.3 220.9 490.2 220.9C487.3 220.9 484.3 220.9 481.4 220.9C480.2 220.9 478.9 220.9 477.8 220.4C475.6 219.4 474.1 217.2 474.1 214.8C474.1 205.5 474.1 196.3 474.1 187C474.1 185 474.1 183.1 474.1 181.1C474.1 179.8 474.1 178.5 474.1 177.1C474.1 175.2 475 174.1 476.5 173C481.4 169.4 486.1 165.7 490.9 162C493.1 160.3 495.4 158.5 497.6 156.8C499.6 155.2 502.2 154.6 504.7 155C507.4 155.4 509.5 157.3 511.7 158.8C514.3 160.6 516.9 162.4 519.5 164.2C522 166 524.5 167.8 527 169.6C529 171.1 531.1 172.7 531.1 175.5C531.2 179.7 531.1 183.9 531.1 188.1C531.2 197 531.2 205.9 531.2 214.9Z" stroke="#087BA8" stroke-miterlimit="10" stroke-linecap="round"/>
<path d="M524.2 189.9C524.2 187 522.1 184.5 519.2 184C517.9 183.8 516.5 183.6 515.2 183.4C512.9 183 510.6 182.6 508.3 182.2C506.4 181.9 504.4 181.5 502.5 181.2C501.2 181 499.9 180.7 498.6 180.5C496.9 180.2 495.3 180 493.9 181.2C491.5 183.1 489 185 486.5 186.8C484.2 188.5 482.2 190.2 482.2 193.3C482.1 195.6 482.2 197.9 482.2 200.2C482.2 202.3 482.2 204.4 482.2 206.5C482.2 208.5 482.3 210.4 483.7 211.9C485 213.4 486.8 213.9 488.8 213.9C498 213.9 507.2 213.9 516.4 213.9C517.4 213.9 518.5 214 519.5 213.7C522.1 213.1 524 210.8 524.1 208.2C524.2 206.2 524.1 204.2 524.1 202.2C524.2 198.1 524.2 194 524.2 189.9Z" stroke="#087BA8" stroke-miterlimit="10" stroke-linecap="round"/>
<path d="M490.199 152.9C485.899 152.9 481.499 152.9 477.199 152.9C476.399 152.9 475.699 152.9 474.899 152.9C474.299 152.9 474.199 153.1 474.199 152.4C474.199 151.2 474.199 149.9 474.199 148.7C474.199 147.7 474.199 146.8 474.199 145.8C474.199 145.2 474.199 144.5 474.199 143.9C474.199 143.9 475.499 143.9 475.599 143.9C479.499 143.9 483.399 143.9 487.199 143.9C487.499 143.9 490.199 143.8 490.199 144C490.199 145 490.199 146 490.199 147C490.199 148.9 490.199 150.9 490.199 152.9Z" stroke="#087BA8" stroke-miterlimit="10" stroke-linecap="round"/>
<path d="M475.799 173.6C475.799 166.7 475.899 159.8 475.899 152.9" stroke="#087BA8" stroke-miterlimit="10" stroke-linecap="round"/>
<path d="M488.399 152.9C489.699 155.6 490.899 158.4 492.199 161.1" stroke="#087BA8" stroke-miterlimit="10" stroke-linecap="round"/>
<path d="M482.199 144.4C482.199 147.1 482.199 149.7 482.199 152.4" stroke="#087BA8" stroke-miterlimit="10" stroke-linecap="round"/>
<path d="M478.199 144.4C478.199 147.1 478.199 149.7 478.199 152.4" stroke="#087BA8" stroke-miterlimit="10" stroke-linecap="round"/>
<path d="M486.199 144.4C486.199 147.1 486.199 149.7 486.199 152.4" stroke="#087BA8" stroke-miterlimit="10" stroke-linecap="round"/>
<path d="M491.699 171.8C493.099 173.4 490.899 174.8 489.899 175.7C489.199 176.3 488.499 176.9 487.799 177.6C486.899 178.4 485.999 179.2 485.099 180C483.999 180.9 482.699 181.4 481.699 180C480.299 178.4 482.499 177 483.499 176.1C484.199 175.5 484.899 174.9 485.599 174.2C486.499 173.4 487.399 172.6 488.299 171.8C488.899 171.3 489.399 170.8 490.199 170.8C490.899 170.9 491.299 171.3 491.699 171.8Z" stroke="#087BA8" stroke-miterlimit="10" stroke-linecap="round"/>
<path d="M499.6 174.6C504 175.5 508.4 176.5 512.8 177.4C514.9 177.8 517 178.3 519.2 178.7C521.2 179.1 524 179.2 524.2 176.5C524.3 175.5 523.6 174.4 523.1 173.6C522.3 172.4 521.2 171.6 520 170.7C517.6 168.9 515.2 167.1 512.7 165.4C510.3 163.8 506.7 161.7 503.8 163.2C501.4 164.5 499.2 166.4 497.2 168.2C496.3 169.1 496.2 170.9 496.5 172C496.9 173.4 498.2 174.4 499.6 174.6Z" stroke="#087BA8" stroke-miterlimit="10" stroke-linecap="round"/>
<path d="M503.699 207.3C503.699 206.2 503.699 205.2 503.699 204.1C503.999 204.4 504.599 205.3 505.099 205.1C505.999 204.7 504.499 203.6 504.199 203.2C503.999 203 503.699 202.8 503.699 202.6C503.699 202.1 503.699 201.6 503.699 201.1C503.699 200.3 503.699 199.5 503.699 198.7C503.699 198 503.699 197.3 503.699 196.6C503.699 195.9 503.399 194.8 503.999 194.3C504.399 193.9 505.199 193.3 505.499 192.8C505.799 192.1 504.899 192.1 504.499 192.4C504.299 192.6 503.999 192.9 503.799 193.1C503.799 192.3 503.799 191.6 503.799 190.8C503.799 189.9 503.899 189.8 504.599 189.2C504.899 188.9 505.199 188.6 505.499 188.3C505.999 187.8 505.499 186.9 504.999 187.4C504.699 187.6 504.399 188 504.099 188.3C503.999 188.4 503.399 189.2 503.199 189.2C503.099 189.2 502.499 188.5 502.299 188.3C502.099 188.1 501.699 187.6 501.399 187.4C500.799 186.8 500.299 187.8 500.899 188.3C501.199 188.6 501.499 188.9 501.799 189.2C502.399 189.8 502.699 190 502.699 190.9C502.699 191.7 502.699 192.5 502.699 193.3C502.399 193 502.199 192.8 501.899 192.5C501.699 192.3 501.599 192.1 501.299 192.1C500.999 192.1 500.699 192.5 500.799 192.8C500.999 193.4 501.899 194 502.399 194.4C502.899 194.9 502.599 195.9 502.599 196.6C502.599 197.3 502.599 198 502.599 198.7C502.599 199.5 502.599 200.4 502.599 201.2C502.599 202.1 502.699 202.5 501.999 203.1C501.599 203.5 500.199 204.6 500.899 205C501.499 205.4 502.199 204.3 502.599 203.9C502.599 204.6 502.599 205.3 502.599 206C502.599 206.8 502.599 207.1 501.999 207.6C501.599 208 500.699 208.6 500.499 209.2C500.399 209.6 500.699 210 501.099 209.9C501.399 209.8 501.599 209.5 501.799 209.3C502.099 209 502.899 207.9 503.199 208.2C503.699 208.7 504.199 209.2 504.699 209.7C504.899 209.9 505.099 210 505.399 209.8C505.899 209.5 505.499 209 505.199 208.7C504.699 208.3 504.199 207.8 503.699 207.3Z" fill="#087BA8"/>
<path d="M495.899 203.4C496.799 202.9 497.699 202.4 498.699 201.8C498.599 202.2 498.099 203.2 498.499 203.5C499.299 204.1 499.599 202.2 499.699 201.8C499.799 201.6 499.799 201.1 499.999 201C500.399 200.8 500.899 200.5 501.299 200.3C501.999 199.9 502.699 199.5 503.399 199.1C503.999 198.7 504.599 198.4 505.199 198C505.799 197.6 506.599 196.9 507.299 197.1C507.899 197.3 508.799 197.7 509.299 197.6C510.099 197.5 509.599 196.7 509.099 196.6C508.799 196.5 508.399 196.4 508.099 196.3C508.799 195.9 509.399 195.5 510.099 195.2C510.899 194.7 510.999 194.8 511.899 195C512.299 195.1 512.799 195.2 513.199 195.3C513.899 195.5 514.499 194.6 513.699 194.4C513.399 194.2 512.899 194.2 512.499 194.1C512.299 194.1 511.399 193.9 511.299 193.8C511.199 193.7 511.599 192.8 511.599 192.6C511.699 192.3 511.899 191.8 511.899 191.4C512.099 190.6 511.099 190.7 510.899 191.4C510.799 191.8 510.699 192.3 510.599 192.7C510.399 193.6 510.299 193.9 509.599 194.3C508.899 194.7 508.199 195.1 507.499 195.5C507.599 195.2 507.699 194.8 507.799 194.5C507.899 194.3 507.999 194 507.799 193.8C507.599 193.5 507.199 193.5 506.999 193.7C506.599 194.2 506.499 195.3 506.399 195.9C506.199 196.6 505.199 196.9 504.599 197.2C503.999 197.5 503.399 197.9 502.799 198.2C502.099 198.6 501.399 199 500.599 199.4C499.799 199.9 499.599 200.1 498.699 199.9C498.199 199.8 496.499 199 496.499 199.9C496.499 200.6 497.799 200.7 498.299 200.8C497.699 201.1 497.099 201.5 496.499 201.8C495.799 202.2 495.599 202.3 494.799 202.1C494.199 201.9 493.299 201.5 492.699 201.6C492.299 201.7 492.099 202.1 492.399 202.4C492.599 202.6 492.999 202.7 493.299 202.7C493.699 202.8 494.999 203 494.899 203.4C494.699 204.1 494.499 204.8 494.299 205.5C494.199 205.7 494.299 206 494.499 206.1C494.999 206.4 495.199 205.8 495.299 205.4C495.499 204.8 495.699 204.1 495.899 203.4Z" fill="#087BA8"/>
<path d="M510.399 203.4C509.499 202.9 508.599 202.4 507.599 201.8C507.699 202.2 508.199 203.2 507.799 203.5C506.999 204.1 506.699 202.2 506.599 201.8C506.499 201.6 506.499 201.1 506.299 201C505.899 200.8 505.399 200.5 504.999 200.3C504.299 199.9 503.599 199.5 502.899 199.1C502.299 198.7 501.699 198.4 501.099 198C500.499 197.6 499.699 196.9 498.999 197.1C498.399 197.3 497.499 197.7 496.999 197.6C496.199 197.5 496.699 196.7 497.199 196.6C497.499 196.5 497.899 196.4 498.199 196.3C497.499 195.9 496.899 195.5 496.199 195.2C495.399 194.7 495.299 194.8 494.399 195C493.999 195.1 493.499 195.2 493.099 195.3C492.399 195.5 491.799 194.6 492.599 194.4C493.199 194 494.199 194 494.899 193.8C494.699 193.1 494.299 192.2 494.299 191.5C494.099 190.7 495.099 190.8 495.299 191.5C495.399 191.9 495.499 192.4 495.599 192.8C495.799 193.7 495.899 194 496.599 194.4C497.299 194.8 497.999 195.2 498.699 195.6C498.599 195.3 498.499 194.9 498.399 194.6C498.299 194.4 498.199 194.1 498.399 193.9C498.599 193.6 498.999 193.6 499.199 193.8C499.599 194.3 499.699 195.4 499.799 196C499.999 196.7 500.999 197 501.599 197.3C502.199 197.6 502.799 198 503.399 198.3C504.099 198.7 504.799 199.1 505.599 199.5C506.399 200 506.599 200.2 507.499 200C507.999 199.9 509.699 199.1 509.699 200C509.699 200.7 508.399 200.8 507.899 200.9C508.599 201.3 509.299 201.7 510.099 202.1C510.899 202.6 511.499 202.2 512.299 202C512.699 201.9 513.399 201.6 513.699 201.8C514.099 202 513.999 202.6 513.599 202.7C512.999 203.1 511.999 203.1 511.299 203.3C511.499 203.9 512.299 205.7 511.799 206.2C510.999 206.9 510.499 203.9 510.399 203.4Z" fill="#087BA8"/>
<path d="M3.01521 179.901C3.01521 177.001 5.11521 174.501 8.01521 174.001C8.71521 173.901 9.0152 173.9 9.6152 173.6C10.3152 173.3 10.9152 172.9 11.6152 172.6C13.6152 171.5 15.7152 170.501 17.7152 169.401C21.7152 167.301 25.8152 165.2 29.8152 163.1C31.2152 162.4 32.6152 161.601 34.2152 161.501C37.1152 161.301 39.7152 163.001 42.1152 164.401C44.8152 166.101 47.4152 167.901 50.0152 169.801C52.0152 171.301 54.1152 172.701 54.1152 175.401C54.1152 179.601 54.1152 183.801 54.1152 188.001C54.1152 192.901 54.1152 197.7 54.1152 202.6C54.1152 206.8 54.3152 211 54.1152 215.2C53.9152 218.1 51.7152 220.501 48.8152 220.801C47.8152 220.901 46.8152 220.801 45.9152 220.801C43.4152 220.801 40.9152 220.801 38.4152 220.801C34.3152 220.801 30.2152 220.801 26.1152 220.801C21.2152 220.801 16.3152 220.801 11.4152 220.801C10.4152 220.801 9.41521 220.901 8.51521 220.801C5.61521 220.501 3.41521 218.1 3.21521 215.2C3.11521 212.7 3.21521 210.2 3.21521 207.7C3.21521 199.9 3.21521 192 3.21521 184.2" stroke="#087BA8" stroke-miterlimit="10"/>
<path d="M6.01557 157.899C10.3156 157.899 14.7156 157.899 19.0156 157.899C19.8156 157.899 20.5156 157.899 21.3156 157.899C22.0156 157.899 22.0156 157.799 22.0156 158.499C22.0156 159.599 22.0156 160.599 22.0156 161.699C22.0156 162.199 22.0156 162.699 22.0156 163.199C22.0156 163.899 22.1156 163.999 21.4156 163.999C20.2156 163.999 19.1156 163.999 17.9156 163.999C14.9156 163.999 11.9156 163.999 8.91556 163.999C7.91556 163.999 7.01557 163.999 6.01557 163.999C6.01557 163.999 6.01557 158.313 6.01557 157.899Z" stroke="#087BA8" stroke-miterlimit="10"/>
<path d="M14.0146 158.4C14.0146 160.1 14.0146 162.7 14.0146 164.4" stroke="#087BA8" stroke-miterlimit="10"/>
<path d="M17.0146 158.4C17.0146 160.1 17.0146 162.7 17.0146 164.4" stroke="#087BA8" stroke-miterlimit="10"/>
<path d="M20.0146 158.4C20.0146 160.1 20.0146 162.7 20.0146 164.4" stroke="#087BA8" stroke-miterlimit="10"/>
<path d="M11.0146 158.4C11.0146 160.1 11.0146 162.7 11.0146 164.4" stroke="#087BA8" stroke-miterlimit="10"/>
<path d="M8.01465 158.4C8.01465 160.1 8.01465 162.7 8.01465 164.4" stroke="#087BA8" stroke-miterlimit="10"/>
<path d="M8.01465 164.4C8.01465 167.7 8.01465 171.1 8.01465 174.4" stroke="#087BA8" stroke-miterlimit="10"/>
<path d="M20.0146 164.4C20.0146 165.7 20.0146 167.1 20.0146 168.4" stroke="#087BA8" stroke-miterlimit="10"/>
<path d="M48.0146 178.9C48.0146 177.3 48.0146 175.8 46.8146 174.5C46.0146 173.6 44.7146 173.1 43.7146 172.4C42.6146 171.7 41.5146 171 40.3146 170.3C39.3146 169.7 38.4146 169 37.4146 168.5C36.2146 168 34.9146 168 33.6146 168C31.6146 168.1 28.7146 169.3 28.0146 171.4C27.2146 173.8 29.3146 174.8 31.1146 175.8C33.3146 177 35.6146 178.3 37.9146 179.5C39.0146 180.1 40.2146 180.7 41.3146 181.3C42.3146 181.8 43.3146 182.4 44.5146 182.4C46.4146 182.6 48.0146 180.9 48.0146 178.9Z" stroke="#087BA8" stroke-miterlimit="10"/>
<path d="M10.0151 207.9C10.0151 210.8 12.1151 213.3 15.0151 213.8C16.2151 214 17.6151 213.9 18.8151 213.9C21.0151 213.9 23.3151 213.9 25.5151 213.9C30.0151 213.9 34.4151 213.9 38.9151 213.9C40.1151 213.9 41.2151 214 42.4151 213.9C45.3151 213.7 47.7151 211.5 48.0151 208.6C48.3151 206.3 48.0151 203.8 48.0151 201.5C48.0151 199.3 48.0151 197.2 48.0151 195C48.0151 192.3 46.3151 189.9 43.7151 189.2C42.4151 188.8 41.0151 189 39.6151 189C35.1151 189 30.7151 189 26.2151 189C24.0151 189 21.7151 189 19.5151 189C18.3151 189 17.1151 189 16.0151 189C13.2151 189 10.8151 190.9 10.2151 193.6C9.9151 195 10.0151 196.6 10.0151 198.1C10.0151 199.2 10.0151 200.3 10.0151 201.4C10.0151 203.5 10.0151 205.7 10.0151 207.9Z" stroke="#087BA8" stroke-miterlimit="10"/>
<path d="M10.0147 201.6C13.7147 204.1 18.7147 203.9 22.2147 201.1C25.7147 198.3 26.8147 193.3 25.0147 189.2" stroke="#087BA8" stroke-miterlimit="10"/>
<path d="M29.2152 199.7C29.2152 201.7 30.9152 203.4 32.9152 203.4C34.9152 203.4 36.6152 201.7 36.6152 199.7C36.6152 197.7 34.9152 196 32.9152 196C30.9152 196 29.2152 197.7 29.2152 199.7Z" stroke="#087BA8" stroke-miterlimit="10"/>
<path d="M22.315 208.9C22.315 211.9 27.915 211.9 27.915 208.9C27.915 204.9 22.315 204.9 22.315 208.9Z" stroke="#087BA8" stroke-miterlimit="10"/>
<path d="M37.3152 208.9C37.3152 210.9 40.6152 210.9 40.6152 208.9C40.6152 206.9 37.3152 206.9 37.3152 208.9Z" stroke="#087BA8" stroke-miterlimit="10"/>
<path d="M1.0148 181.6C1.0148 179.4 3.71479 179.8 5.11479 179.8C6.11479 179.8 7.0148 179.8 8.0148 179.8C10.1148 179.8 12.3148 179.8 14.4148 179.8C15.6148 179.8 16.9148 179.8 18.1148 179.8C20.1148 179.8 20.8148 182.9 18.9148 183.7C17.8148 184.2 16.1148 183.8 14.9148 183.8C13.9148 183.8 12.9148 183.8 11.9148 183.8C10.1148 183.8 8.41479 183.8 6.61479 183.8C5.51479 183.8 4.31479 183.8 3.21479 183.8C1.71479 183.9 1.0148 183 1.0148 181.6Z" stroke="#087BA8" stroke-miterlimit="10"/>
</svg>
