<svg width="590" height="200" viewBox="0 0 590 200" fill="none" xmlns="http://www.w3.org/2000/svg">
<g clip-path="url(#clip0_563_863)">
<path d="M300.3 50.6863L321.08 50.6863C321.08 71.4988 309.997 78.4363 302.378 82.5988C299.607 83.9863 297.529 85.3738 296.144 86.7613C292.68 90.23 294.066 95.0863 294.758 96.4738C296.836 101.33 301.685 106.186 310.69 106.186C325.236 106.186 328.007 93.005 328.007 90.23L348.787 93.005C347.402 104.799 337.012 126.999 310.69 126.999C294.758 126.999 280.905 117.98 275.363 104.799C270.514 93.005 272.593 80.5175 280.905 72.1925C284.368 68.7238 288.524 66.6425 291.987 64.5613C298.222 61.0925 300.3 57.6238 300.3 50.6863Z" fill="white" fill-opacity="0.2"/>
<path d="M296.836 29.8738C296.836 22.2078 303.035 15.9988 310.689 15.9988C318.344 15.9988 324.543 22.2078 324.543 29.8738C324.543 37.5397 318.343 43.7488 310.689 43.7488C303.035 43.7488 296.836 37.5397 296.836 29.8738Z" fill="white" fill-opacity="0.2"/>
<path d="M486.063 154.187H439.375C439.375 107.499 464.275 91.9368 481.394 82.5993C487.619 79.4868 492.288 76.3743 495.4 73.2618C503.181 65.4805 500.069 54.5868 498.513 51.4743C493.844 40.5805 482.95 29.6868 462.719 29.6868C430.038 29.6868 423.813 59.2555 423.813 65.4805L377.125 59.2555C380.238 32.7993 403.581 -17.0007 462.719 -17.0007C498.513 -17.0007 529.638 3.23052 542.088 32.7993C552.981 59.2555 548.313 87.268 529.638 105.943C521.856 113.724 512.519 118.393 504.738 123.062C490.731 130.843 486.063 138.624 486.063 154.187Z" fill="white" fill-opacity="0.2"/>
<path d="M493.844 200.874C493.844 218.071 479.915 231.999 462.719 231.999C445.522 231.999 431.594 218.071 431.594 200.874C431.594 183.677 445.522 169.749 462.719 169.749C479.915 169.749 493.844 183.677 493.844 200.874Z" fill="white" fill-opacity="0.2"/>
<path d="M155.813 -70.1873L202.5 -70.1873C202.5 -23.4998 177.6 -7.93726 160.481 1.40024C154.256 4.51273 149.587 7.62523 146.475 10.7377C138.694 18.519 141.806 29.4127 143.362 32.5252C148.031 43.419 158.925 54.3127 179.156 54.3127C211.837 54.3127 218.063 24.744 218.063 18.519L264.75 24.744C261.638 51.2002 238.294 101 179.156 101C143.362 101 112.237 80.769 99.7875 51.2002C88.8937 24.744 93.5625 -3.26852 112.237 -21.9435C120.019 -29.7248 129.356 -34.3935 137.138 -39.0623C151.144 -46.8435 155.813 -54.6248 155.813 -70.1873Z" fill="white" fill-opacity="0.1"/>
<path d="M458.821 303.569H386.755C386.931 267.286 396.69 243.107 409.691 226.176C422.821 209.075 439.32 199.283 452.873 191.89C462.788 186.931 470.295 181.94 475.337 176.898C481.742 170.492 483.653 162.805 483.653 156.132C483.653 149.506 481.772 143.815 480.475 141.207C472.922 123.608 455.306 106.064 422.784 106.064C396.5 106.064 380.776 117.981 371.66 131.184C363.188 143.454 360.427 156.819 360.099 162.709L288.113 153.111C290.768 132.348 301.195 102.845 322.32 78.4008C343.751 53.6015 376.196 33.9998 422.784 33.9998C479.197 33.9998 528.187 65.8817 547.77 112.385C564.915 154.026 557.543 198.022 528.236 227.328C518.257 237.308 506.667 244.018 495.987 250.2C493.583 251.592 491.225 252.957 488.942 254.326C477.766 260.537 470.194 266.813 465.44 274.737C460.809 282.455 458.919 291.622 458.821 303.569Z" stroke="white" stroke-opacity="0.2" stroke-width="2"/>
<path d="M118.32 206.063H77.7544C77.9292 185.531 83.4872 171.853 90.8441 162.272C98.3307 152.521 107.742 146.929 115.52 142.686C121.234 139.828 125.591 136.936 128.532 133.995C132.312 130.214 133.436 125.677 133.436 121.76C133.436 117.89 132.343 114.562 131.571 113.005C127.168 102.756 116.902 92.5623 98.0314 92.5623C82.7726 92.5623 73.6113 99.4915 68.3014 107.182C63.5933 114 61.9175 121.404 61.615 125.058L21.1168 119.659C22.7183 107.825 28.6811 91.1826 40.6192 77.3685C52.8626 63.2011 71.3939 51.9998 98.0314 51.9998C130.293 51.9998 158.282 70.2311 169.464 96.7833C179.259 120.573 175.037 145.668 158.331 162.374C152.639 168.066 146.037 171.888 139.903 175.44C138.519 176.242 137.158 177.029 135.838 177.821C129.387 181.407 124.965 185.057 122.179 189.7C119.52 194.132 118.417 199.359 118.32 206.063Z" stroke="white" stroke-opacity="0.2" stroke-width="2"/>
<path d="M252.09 166.14H237.051C237.051 151.102 245.072 146.089 250.586 143.081C252.591 142.079 254.095 141.076 255.097 140.074C257.604 137.567 256.601 134.058 256.1 133.056C254.596 129.547 251.087 126.038 244.57 126.038C234.044 126.038 232.038 135.562 232.038 137.567L217 135.562C218.003 127.04 225.522 110.999 244.57 110.999C256.1 110.999 266.125 117.516 270.136 127.04C273.645 135.562 272.141 144.585 266.125 150.6C263.619 153.107 260.611 154.611 258.105 156.114C253.593 158.621 252.09 161.127 252.09 166.14Z" fill="white" fill-opacity="0.1"/>
<path d="M254.596 181.178C254.596 186.718 250.11 191.204 244.571 191.204C239.031 191.204 234.545 186.718 234.545 181.178C234.545 175.639 239.031 171.153 244.571 171.153C250.11 171.153 254.596 175.639 254.596 181.178Z" fill="white" fill-opacity="0.1"/>
<path d="M581.11 38.1401L568.064 38.1401C568.233 31.3736 570.117 26.8685 572.544 23.7082C575.099 20.3802 578.318 18.458 581.049 16.9675C583.094 15.944 584.698 14.8872 585.804 13.7806C587.291 12.2942 587.726 10.5092 587.726 9.00062C587.726 7.53826 587.32 6.27381 587.008 5.63615C585.358 1.80986 581.515 -1.96232 574.57 -1.96232C568.945 -1.96232 565.518 0.608854 563.534 3.48229C562.05 5.63083 561.377 7.93877 561.142 9.43871L548.132 7.70414C548.803 3.68639 550.859 -1.72992 554.775 -6.26116C558.99 -11.1392 565.365 -15.0007 574.57 -15.0007C585.731 -15.0007 595.37 -8.69611 599.213 0.424582C602.584 8.61703 601.114 17.1972 595.418 22.8933C593.473 24.8386 591.229 26.1386 589.067 27.3918C588.574 27.6774 588.085 27.9606 587.605 28.2485C585.283 29.5403 583.613 30.8974 582.548 32.6729C581.619 34.2213 581.204 35.9969 581.11 38.1401Z" stroke="white" stroke-opacity="0.2" stroke-width="2"/>
<path d="M583.596 54.1784C583.596 59.1653 579.557 63.204 574.571 63.204C569.584 63.204 565.545 59.1653 565.545 54.1784C565.545 49.1916 569.584 45.1528 574.571 45.1528C579.557 45.1528 583.596 49.1916 583.596 54.1784Z" stroke="white" stroke-opacity="0.2" stroke-width="2"/>
</g>
<defs>
<clipPath id="clip0_563_863">
<rect width="590" height="200" fill="white" transform="translate(0 0.000244141)"/>
</clipPath>
</defs>
</svg>
