<svg width="36" height="36" viewBox="0 0 36 36" fill="none" xmlns="http://www.w3.org/2000/svg">
<g clip-path="url(#clip0_543_763)">
<path d="M27.8427 3.42859H14.8483C14.2766 3.42859 13.7279 3.66515 13.3234 4.08634L11.7303 5.74509L10.3018 4.25762C9.88112 3.81959 9.19753 3.81959 8.77685 4.25762L6.42539 6.70609C6.00472 7.14412 6.00472 7.85592 6.42539 8.29395L7.85393 9.78142L6.63169 11.0541C6.22719 11.4753 6 12.0468 6 12.642V33.7537C6 34.9941 6.96607 36 8.1573 36H27.8427C29.0339 36 30 34.9941 30 33.7537V5.67489C30 4.43451 29.0339 3.42859 27.8427 3.42859ZM26.4944 8.90396C26.4944 9.83407 25.7697 10.5887 24.8764 10.5887H17.191C16.2978 10.5887 15.573 9.83407 15.573 8.90396V8.76356C15.573 7.83345 16.2978 7.07884 17.191 7.07884H24.8764C25.7697 7.07884 26.4944 7.83345 26.4944 8.76356V8.90396Z" fill="#CCD9DF"/>
</g>
<defs>
<clipPath id="clip0_543_763">
<rect width="36" height="36" fill="white"/>
</clipPath>
</defs>
</svg>
