<svg width="36" height="36" viewBox="0 0 36 36" fill="none" xmlns="http://www.w3.org/2000/svg">
<path d="M30.5831 32.3952V25.2048C31.5802 25.2048 32.3855 24.3995 32.3855 23.4024C32.3855 22.4053 31.5802 21.6 30.5831 21.6V16.2024C31.5706 16.1832 32.3759 15.3779 32.3759 14.3808C32.3759 13.3838 31.5706 12.5784 30.5735 12.5784V5.38802C31.5706 5.38802 32.3759 4.58269 32.3759 3.58562C32.3759 2.58855 31.5706 1.78322 30.5735 1.78322H26.9783V0H21.5807V1.8024H5.41665C4.41958 1.8024 3.61426 2.60772 3.61426 3.60479C3.61426 4.60186 4.41958 5.40719 5.41665 5.40719V12.5976C4.41958 12.5976 3.61426 13.4029 3.61426 14.4C3.61426 15.3971 4.41958 16.2024 5.41665 16.2024V21.6C4.41958 21.6 3.61426 22.4053 3.61426 23.4024C3.61426 24.3995 4.41958 25.2048 5.41665 25.2048V32.3952C4.41958 32.3952 3.61426 33.2005 3.61426 34.1976C3.61426 35.1947 4.41958 36 5.41665 36H30.5831C31.5802 36 32.3855 35.1947 32.3855 34.1976C32.3855 33.2005 31.5802 32.3952 30.5831 32.3952Z" fill="#CCD9DF"/>
</svg>
