<svg width="21" height="14" viewBox="0 0 21 14" fill="none" xmlns="http://www.w3.org/2000/svg">
<path d="M0.37628 6.37076L6.17838 0.568653C6.5826 0.164443 7.23101 0.164443 7.63523 0.568654C8.03944 0.972865 8.03944 1.62128 7.63523 2.02549L3.59312 6.0676L19.0458 6.0676C19.6184 6.0676 20.0815 6.53076 20.0815 7.10339C20.0815 7.67602 19.6184 8.13918 19.0458 8.13918L3.60154 8.13918L7.64365 12.1813C8.04786 12.5855 8.04786 13.2339 7.64365 13.6381C7.23944 14.0423 6.59102 14.0423 6.18681 13.6381L0.384701 7.83602C0.182596 7.63392 0.0815433 7.37286 0.0815433 7.10339C0.0815433 6.83392 0.174174 6.57286 0.37628 6.37076Z" fill="white"/>
</svg>
