<svg width="21" height="14" viewBox="0 0 21 14" fill="none" xmlns="http://www.w3.org/2000/svg">
<path d="M20.6237 6.37076L14.8216 0.568653C14.4174 0.164443 13.769 0.164443 13.3648 0.568654C12.9606 0.972865 12.9606 1.62128 13.3648 2.02549L17.4069 6.0676L1.95425 6.0676C1.38161 6.0676 0.918457 6.53076 0.918457 7.10339C0.918457 7.67602 1.38161 8.13918 1.95425 8.13918L17.3985 8.13918L13.3564 12.1813C12.9521 12.5855 12.9521 13.2339 13.3564 13.6381C13.7606 14.0423 14.409 14.0423 14.8132 13.6381L20.6153 7.83602C20.8174 7.63392 20.9185 7.37286 20.9185 7.10339C20.9185 6.83392 20.8258 6.57286 20.6237 6.37076Z" fill="#087BA8"/>
</svg>
