<svg width="9" height="12" viewBox="0 0 9 12" fill="none" xmlns="http://www.w3.org/2000/svg">
<path d="M4.01786 11.8232L0.199506 8.34189C-0.0665033 8.09937 -0.0665032 7.71032 0.199506 7.46779C0.465516 7.22526 0.89224 7.22526 1.15825 7.46779L3.81835 9.89305L3.81835 0.621473C3.81835 0.277894 4.12315 -4.26348e-07 4.5 -3.93402e-07C4.87685 -3.60457e-07 5.18165 0.277894 5.18165 0.621473L5.18165 9.888L7.84175 7.46274C8.10776 7.22021 8.53448 7.22021 8.80049 7.46274C9.0665 7.70526 9.0665 8.09432 8.80049 8.33684L4.98214 11.8181C4.84914 11.9394 4.67734 12 4.5 12C4.32266 12 4.15086 11.9444 4.01786 11.8232Z" fill="#087BA8"/>
</svg>
