<svg width="54" height="54" viewBox="0 0 54 54" fill="none" xmlns="http://www.w3.org/2000/svg">
<g clip-path="url(#clip0_1006_5462)">
<path d="M27.0001 3.37509C12.113 3.37509 0.000189127 13.9726 0.000189127 27C0.000189127 32.3392 2.03868 37.4625 5.78154 41.5799L0.408563 47.8372C-0.0234358 48.3367 -0.12131 49.042 0.155439 49.6394C0.428812 50.2402 1.02956 50.6249 1.68768 50.6249H27.0001C41.8871 50.6249 54 40.0274 54 27C54 13.9726 41.8871 3.37509 27.0001 3.37509Z" fill="#087BA8"/>
<path d="M27 30C28.6569 30 30 28.6568 30 27C30 25.3431 28.6569 24 27 24C25.3431 24 24 25.3431 24 27C24 28.6568 25.3431 30 27 30Z" fill="white"/>
<path d="M15 30C16.6569 30 18 28.6568 18 27C18 25.3431 16.6569 24 15 24C13.3431 24 12 25.3431 12 27C12 28.6568 13.3431 30 15 30Z" fill="white"/>
<path d="M39 30C40.6569 30 42 28.6568 42 27C42 25.3431 40.6569 24 39 24C37.3431 24 36 25.3431 36 27C36 28.6568 37.3431 30 39 30Z" fill="white"/>
</g>
<defs>
<clipPath id="clip0_1006_5462">
<rect width="54" height="54" fill="white"/>
</clipPath>
</defs>
</svg>
