<svg width="48" height="48" viewBox="0 0 48 48" fill="none" xmlns="http://www.w3.org/2000/svg">
<path d="M15.8132 23.1497C15.6389 22.9753 15.397 22.875 15.1504 22.875C14.9038 22.875 14.662 22.9753 14.4877 23.1497C14.3133 23.3241 14.2129 23.5659 14.2129 23.8125C14.2129 24.0591 14.3132 24.3009 14.4877 24.4753C14.662 24.6497 14.9038 24.75 15.1504 24.75C15.397 24.75 15.6389 24.6497 15.8132 24.4753C15.9876 24.3009 16.0879 24.0591 16.0879 23.8125C16.0879 23.5659 15.9877 23.3241 15.8132 23.1497Z" fill="#087BA8"/>
<path d="M15.8132 29.8997C15.6389 29.7253 15.397 29.625 15.1504 29.625C14.9038 29.625 14.662 29.7253 14.4877 29.8997C14.3133 30.0741 14.2129 30.315 14.2129 30.5625C14.2129 30.8091 14.3132 31.0509 14.4877 31.2253C14.662 31.3997 14.9038 31.5 15.1504 31.5C15.397 31.5 15.6389 31.3997 15.8132 31.2253C15.9876 31.0509 16.0879 30.8091 16.0879 30.5625C16.0879 30.3159 15.9877 30.0741 15.8132 29.8997Z" fill="#087BA8"/>
<path d="M15.8132 36.6497C15.6389 36.4753 15.397 36.375 15.1504 36.375C14.9038 36.375 14.662 36.4753 14.4877 36.6497C14.3133 36.8241 14.2129 37.0659 14.2129 37.3125C14.2129 37.5591 14.3132 37.8009 14.4877 37.9753C14.662 38.1497 14.9038 38.25 15.1504 38.25C15.397 38.25 15.6389 38.1497 15.8132 37.9753C15.9876 37.8009 16.0879 37.5591 16.0879 37.3125C16.0879 37.0659 15.9877 36.8241 15.8132 36.6497Z" fill="#087BA8"/>
<path d="M33.7863 22.875H19.2266C18.7089 22.875 18.2891 23.2947 18.2891 23.8125C18.2891 24.3303 18.7089 24.75 19.2266 24.75H33.7863C34.304 24.75 34.7238 24.3303 34.7238 23.8125C34.7238 23.2947 34.3041 22.875 33.7863 22.875Z" fill="#087BA8"/>
<path d="M33.7863 29.625H19.2266C18.7089 29.625 18.2891 30.0447 18.2891 30.5625C18.2891 31.0803 18.7089 31.5 19.2266 31.5H33.7863C34.304 31.5 34.7238 31.0803 34.7238 30.5625C34.7238 30.0447 34.3041 29.625 33.7863 29.625Z" fill="#087BA8"/>
<path d="M33.7863 36.375H19.2266C18.7089 36.375 18.2891 36.7947 18.2891 37.3125C18.2891 37.8303 18.7089 38.25 19.2266 38.25H33.7863C34.304 38.25 34.7238 37.8303 34.7238 37.3125C34.7238 36.7947 34.3041 36.375 33.7863 36.375Z" fill="#087BA8"/>
<path d="M41.9908 18.8919C41.9907 18.8884 41.9901 18.8848 41.9898 18.8812C41.9887 18.8664 41.987 18.8531 41.9848 18.841C41.9631 18.6313 41.873 18.4301 41.7176 18.2746L31.9676 8.52459C31.7978 8.35491 31.5739 8.26106 31.3436 8.2515C31.3316 8.25056 31.319 8.25 31.3047 8.25H24.9453V6.5625C24.9453 2.94394 22.0015 0 18.3828 0C14.7642 0 11.8203 2.94394 11.8203 6.5625V8.25H9.75781C7.69006 8.25 6.00781 9.93225 6.00781 12V44.25C6.00781 46.3177 7.69006 48 9.75781 48H38.2422C40.3099 48 41.9922 46.3177 41.9922 44.25V18.9375C41.9922 18.9211 41.9916 18.906 41.9908 18.8919ZM32.2422 11.4508L38.7912 18H34.3514C33.1884 18 32.2421 17.0538 32.2421 15.8906V11.4508H32.2422ZM18.3827 1.875C20.9674 1.875 23.0702 3.97781 23.0702 6.5625V15.1459C23.0702 16.7197 21.7899 18 20.2161 18C18.6423 18 17.362 16.7197 17.362 15.1459V6.49303C17.362 5.94159 17.8106 5.493 18.3619 5.493C18.9133 5.493 19.3619 5.94159 19.3619 6.49303V15.0312C19.3619 15.549 19.7817 15.9687 20.2994 15.9687C20.8171 15.9687 21.2369 15.549 21.2369 15.0312V6.49303C21.2369 4.90772 19.9472 3.618 18.3619 3.618C16.7767 3.618 15.487 4.90772 15.487 6.49303V8.25H13.6953V6.5625H13.6952C13.6952 3.97781 15.798 1.875 18.3827 1.875ZM40.117 44.25C40.1172 45.2839 39.276 46.125 38.2422 46.125H9.75772C8.72384 46.125 7.88272 45.2839 7.88272 44.25V12C7.88272 10.9661 8.72384 10.125 9.75772 10.125H15.4869V15.1459C15.4869 17.7535 17.6083 19.875 20.216 19.875C22.8237 19.875 24.9451 17.7535 24.9451 15.1459V10.125H30.367V15.8906C30.367 18.0877 32.1543 19.875 34.3513 19.875H40.117V44.25Z" fill="#087BA8"/>
</svg>
