<svg width="20" height="20" viewBox="0 0 20 20" fill="none" xmlns="http://www.w3.org/2000/svg">
<g clip-path="url(#clip0_500_975)">
<path d="M10 0C4.47297 0 0 4.47254 0 10C0 15.527 4.47254 20 10 20C15.527 20 20 15.5275 20 10C20 4.47297 15.5275 0 10 0ZM6.1307 2.06066C5.82809 2.88484 5.57406 3.72266 5.36902 4.57219C4.76977 4.39012 4.18027 4.1718 3.60172 3.91742C4.3343 3.14777 5.18797 2.52109 6.1307 2.06066ZM2.8257 4.85313C3.57457 5.19992 4.34098 5.48984 5.12266 5.72238C4.89586 6.93305 4.76617 8.16527 4.73539 9.41406H1.19148C1.29941 7.75621 1.86437 6.18711 2.8257 4.85313ZM2.8257 15.1469C1.86437 13.8129 1.29941 12.2438 1.19148 10.5859H4.73539C4.76617 11.8347 4.89586 13.067 5.12266 14.2776C4.34098 14.5102 3.57461 14.8001 2.8257 15.1469ZM3.60172 16.0826C4.18027 15.8282 4.76973 15.6099 5.36902 15.4279C5.5741 16.2774 5.82809 17.1152 6.1307 17.9394C5.18844 17.4792 4.33469 16.8526 3.60172 16.0826ZM9.41406 18.8085C8.79867 18.7685 8.19543 18.6657 7.61191 18.5029C7.14844 17.4044 6.77852 16.2782 6.50262 15.1293C7.45254 14.9169 8.42445 14.7927 9.41406 14.7576V18.8085ZM9.41406 13.585C8.34188 13.6205 7.28887 13.7533 6.25973 13.9825C6.05527 12.8681 5.93746 11.7345 5.90766 10.5859H9.41406V13.585ZM9.41406 9.41406H5.90766C5.93746 8.26555 6.05527 7.13191 6.25973 6.0175C7.28887 6.24672 8.34188 6.37953 9.41406 6.41496V9.41406ZM9.41406 5.24238C8.42445 5.20727 7.45254 5.08309 6.50262 4.8707C6.77852 3.72184 7.14844 2.59559 7.61191 1.49715C8.19543 1.33426 8.79867 1.23152 9.41406 1.19148V5.24238ZM17.1743 4.85313C18.1356 6.18711 18.7006 7.75621 18.8085 9.41406H15.2646C15.2338 8.16527 15.1041 6.93305 14.8773 5.72238C15.659 5.48984 16.4254 5.19992 17.1743 4.85313ZM16.3983 3.91738C15.8197 4.1718 15.2303 4.39012 14.631 4.57215C14.4259 3.72262 14.1719 2.8848 13.8693 2.06063C14.8116 2.52082 15.6653 3.14738 16.3983 3.91738ZM10.5859 1.19148C11.2013 1.23152 11.8046 1.33426 12.3881 1.49715C12.8516 2.59559 13.2215 3.72184 13.4974 4.8707C12.5475 5.08309 11.5755 5.20727 10.5859 5.24238V1.19148ZM10.5859 6.41496C11.6581 6.37953 12.7111 6.24672 13.7403 6.0175C13.9447 7.13191 14.0625 8.26555 14.0923 9.41406H10.5859V6.41496ZM12.388 18.5028C11.8046 18.6657 11.2013 18.7685 10.5859 18.8085V14.7576C11.5755 14.7927 12.5475 14.9169 13.4974 15.1293C13.2214 16.2782 12.8516 17.4044 12.388 18.5028ZM10.5859 13.585V10.5859H14.0923C14.0625 11.7345 13.9447 12.8681 13.7403 13.9825C12.7111 13.7533 11.6581 13.6205 10.5859 13.585ZM13.8693 17.9393C14.1719 17.1152 14.4259 16.2773 14.631 15.4278C15.2302 15.6099 15.8197 15.8282 16.3983 16.0826C15.6657 16.8522 14.812 17.4789 13.8693 17.9393ZM17.1743 15.1469C16.4254 14.8001 15.659 14.5102 14.8773 14.2776C15.1041 13.067 15.2338 11.8347 15.2646 10.5859H18.8085C18.7006 12.2438 18.1356 13.8129 17.1743 15.1469Z" fill="white"/>
</g>
<defs>
<clipPath id="clip0_500_975">
<rect width="20" height="20" fill="white"/>
</clipPath>
</defs>
</svg>
