<svg width="21" height="14" viewBox="0 0 21 14" fill="none" xmlns="http://www.w3.org/2000/svg">
<path d="M19.7873 6.37076L13.9852 0.568653C13.581 0.164443 12.9326 0.164443 12.5283 0.568654C12.1241 0.972865 12.1241 1.62128 12.5283 2.02549L16.5705 6.0676L1.11782 6.0676C0.545188 6.0676 0.0820309 6.53076 0.082031 7.10339C0.082031 7.67602 0.545189 8.13918 1.11782 8.13918L16.562 8.13918L12.5199 12.1813C12.1157 12.5855 12.1157 13.2339 12.5199 13.6381C12.9241 14.0423 13.5726 14.0423 13.9768 13.6381L19.7789 7.83602C19.981 7.63392 20.082 7.37286 20.082 7.10339C20.082 6.83392 19.9894 6.57286 19.7873 6.37076Z" fill="#087BA8"/>
</svg>
