<svg width="54" height="54" viewBox="0 0 54 54" fill="none" xmlns="http://www.w3.org/2000/svg">
<circle cx="27" cy="27" r="27" fill="#087BA8"/>
<path d="M40.3476 24.4991L34.6458 18.9127C34.2315 18.5062 33.6574 18.2734 33.0714 18.2734H30.9794V16.6371C30.9794 15.7348 30.2303 15.0008 29.3093 15.0008L26.8969 15C25.976 15 25.2268 15.734 25.2268 16.6363V18.2726C23.9992 18.2726 23 19.2511 23 20.4544V36.8174C23 38.0207 23.9992 38.9992 25.2268 38.9992L38.7732 39C40.0008 39 41 38.0215 41 36.8183V26.0417C41 25.4675 40.7619 24.905 40.3476 24.4991ZM29.3093 34.6368C27.774 34.6368 26.5258 33.4132 26.5258 31.9095C26.5258 30.5395 28.5254 28.6134 28.9266 28.241C29.1419 28.0418 29.4768 28.0418 29.6921 28.241C30.0933 28.6133 32.0928 30.5395 32.0928 31.9095C32.0928 33.4132 30.8446 34.6368 29.3093 34.6368ZM37.7272 28.1574C37.4118 28.4664 36.9922 28.6368 36.5464 28.6368C36.1006 28.6368 35.6809 28.4664 35.3656 28.1574L30.912 23.7938C30.2607 23.1556 30.2607 22.118 30.912 21.4799C31.5622 20.8417 32.6234 20.8417 33.2736 21.4799L37.7272 25.8435C38.3785 26.4816 38.3785 27.5193 37.7272 28.1574Z" fill="white"/>
<path d="M13.8016 21.2249C13.3895 20.8128 12.7213 20.8128 12.3091 21.2249C11.897 21.637 11.897 22.3053 12.3091 22.7174L14.2957 24.7043C14.7079 25.1164 15.3763 25.1164 15.7885 24.7043L19.6909 20.8016C20.103 20.3895 20.103 19.7213 19.6909 19.3091C19.2788 18.897 18.6105 18.897 18.1984 19.3091L15.0421 22.4654L13.8016 21.2249L13.8016 21.2249Z" fill="white"/>
<path d="M14.326 29.3091C13.9139 28.897 13.2457 28.897 12.8335 29.3091C12.4214 29.7212 12.4214 30.3895 12.8335 30.8016L17.674 35.6421C18.0861 36.0542 18.7544 36.0542 19.1665 35.6421C19.5786 35.2299 19.5786 34.5617 19.1665 34.1496L14.326 29.3091Z" fill="white"/>
<path d="M19.1665 30.8016C19.5786 30.3895 19.5786 29.7213 19.1665 29.3091C18.7543 28.897 18.0861 28.897 17.674 29.3091L12.8334 34.1496C12.4213 34.5617 12.4213 35.2299 12.8334 35.6421C13.2455 36.0542 13.9138 36.0542 14.3259 35.6421L19.1665 30.8016Z" fill="white"/>
</svg>
