<svg width="20" height="20" viewBox="0 0 20 20" fill="none" xmlns="http://www.w3.org/2000/svg">
<path d="M14.5763 20C13.7983 20 13.0258 19.7788 12.3619 19.3605C10.6608 18.2884 8.14346 16.521 5.81121 14.1887C3.47908 11.8566 1.71159 9.33924 0.63947 7.63812C0.14247 6.84939 -0.0762774 5.907 0.023665 4.98455C0.123977 4.05819 0.542281 3.18501 1.20144 2.52585L3.48656 0.240733C3.64066 0.0865867 3.84975 0 4.06772 0C4.28569 0 4.49478 0.0865867 4.64888 0.240733L8.13589 3.72775C8.60162 4.19347 8.85809 4.81265 8.85809 5.47127C8.85809 6.1299 8.60162 6.74908 8.13589 7.2148L7.10848 8.24225C7.8209 9.13385 8.55551 9.95907 9.29826 10.7018C10.0413 11.4449 10.8665 12.1793 11.7579 12.8914L12.7853 11.8641C13.7466 10.9027 15.3109 10.9027 16.2722 11.8641L19.7593 15.3511C20.0803 15.6721 20.0803 16.1925 19.7593 16.5134L17.4741 18.7986C16.7203 19.5524 15.678 19.9999 14.5763 20ZM4.06772 1.98426L2.36377 3.68821C1.54372 4.50826 1.40655 5.77213 2.03016 6.76173C3.05745 8.39184 4.74899 10.8019 6.97353 13.0265C9.19819 15.2511 11.6082 16.9426 13.2383 17.9698C14.2279 18.5935 15.4917 18.4563 16.3117 17.6363L18.0157 15.9323L15.1099 13.0265C14.7894 12.706 14.2681 12.706 13.9476 13.0265L12.4061 14.5679C12.1148 14.8592 11.653 14.8899 11.3257 14.6397C10.1583 13.7471 9.0851 12.8133 8.13589 11.8641C7.1871 10.9153 6.25322 9.84224 5.36019 8.67461C5.10992 8.34737 5.14054 7.88543 5.43186 7.59411L6.97357 6.0524C7.12879 5.89718 7.2143 5.69076 7.2143 5.47123C7.2143 5.25171 7.12879 5.04529 6.97357 4.89007L4.06772 1.98426Z" fill="white"/>
</svg>
