<svg width="24" height="24" viewBox="0 0 24 24" fill="none" xmlns="http://www.w3.org/2000/svg">
<g clip-path="url(#clip0_1018_3640)">
<path d="M23.9745 0.72974C23.8519 0.216347 23.2877 -0.132981 22.7761 0.0485958C22.7761 0.0485958 0.61301 7.86931 0.609322 7.87208C0.269146 7.99835 0.0193151 8.32279 0.000877413 8.69424C-0.0157165 9.05095 0.204614 9.42239 0.53004 9.57355L9.11465 13.5802C9.11465 13.5802 13.2972 9.39843 13.3046 9.39106C14.1343 8.56152 15.4591 9.84454 14.6082 10.6944L10.4182 14.8835C10.4182 14.8835 14.4201 23.4573 14.4275 23.4711C14.5906 23.7845 14.9096 23.9836 15.2599 23.9992C15.6407 24.0168 15.9928 23.7255 16.1293 23.3845C16.1293 23.3845 23.9469 1.23852 23.9515 1.2247C24.0096 1.06524 24.0132 0.892883 23.9745 0.72974Z" fill="white"/>
</g>
<defs>
<clipPath id="clip0_1018_3640">
<rect width="24" height="24" fill="white"/>
</clipPath>
</defs>
</svg>
