<svg width="20" height="20" viewBox="0 0 20 20" fill="none" xmlns="http://www.w3.org/2000/svg">
<g clip-path="url(#clip0_486_12442)">
<path d="M8.97377 0C4.02843 0 0 4.02842 0 8.97378C0 13.9191 4.02843 17.9554 8.97377 17.9554C11.0861 17.9554 13.0287 17.2151 14.5641 15.9861L18.302 19.722C18.4907 19.9029 18.7426 20.0026 19.0039 19.9999C19.2652 19.9973 19.5151 19.8924 19.7 19.7078C19.8849 19.5231 19.9901 19.2735 19.9931 19.0122C19.9962 18.7509 19.8967 18.4988 19.7162 18.3099L15.9783 14.572C17.2083 13.0343 17.9495 11.0885 17.9495 8.97378C17.9495 4.02842 13.9191 0 8.97377 0ZM8.97377 1.99463C12.8411 1.99463 15.9529 5.10641 15.9529 8.97378C15.9529 12.8412 12.8411 15.9608 8.97377 15.9608C5.10639 15.9608 1.9946 12.8412 1.9946 8.97378C1.9946 5.10641 5.10639 1.99463 8.97377 1.99463Z" fill="#087BA8"/>
</g>
<defs>
<clipPath id="clip0_486_12442">
<rect width="20" height="20" fill="white"/>
</clipPath>
</defs>
</svg>
