<svg width="40" height="40" viewBox="0 0 40 40" fill="none" xmlns="http://www.w3.org/2000/svg">
<path d="M38.3538 3.31426L38.3532 11.6583C38.3532 12.5799 37.6063 13.3264 36.6851 13.3264C35.7635 13.3264 35.0172 12.5799 35.0172 11.658V7.34551L25.3238 17.0474C24.9976 17.3739 24.5701 17.5361 24.1429 17.5361C23.7163 17.5361 23.2897 17.3736 22.9638 17.0477C22.3122 16.3968 22.3116 15.3405 22.9629 14.6889L32.6594 4.98301H28.3479C27.4263 4.98301 26.6794 4.23582 26.6794 3.31395C26.6794 2.3927 27.4266 1.64551 28.3479 1.64551H36.6851C37.1279 1.64551 37.5519 1.82145 37.8651 2.13488C38.1782 2.4477 38.3538 2.8727 38.3538 3.31426ZM36.6854 26.6724C35.7635 26.6724 35.0172 27.4205 35.0172 28.3414V32.6539L25.4863 23.2043C24.8341 22.5527 23.7332 22.5521 23.0816 23.2036C22.4297 23.8543 22.4072 24.9111 23.0582 25.5624L32.4929 35.0168H28.1766H28.1732C27.2516 35.0168 26.5038 35.7633 26.5035 36.6852C26.5032 37.6058 27.2488 38.3533 28.1707 38.3533L36.5066 38.3543C36.9497 38.3543 37.4635 38.1783 37.7757 37.8655C38.0885 37.5527 38.3541 37.1283 38.3541 36.6861V28.3411C38.3538 27.4202 37.6066 26.6724 36.6854 26.6724ZM14.5132 23.1308L4.98318 32.6546V28.3411C4.98318 27.4196 4.251 26.6743 3.32975 26.6743H3.33662C2.41506 26.6743 1.67162 27.4205 1.67162 28.3411L1.67225 36.6849C1.67225 37.1277 1.84881 37.5521 2.16162 37.8649C2.47506 38.178 2.90006 38.3536 3.34256 38.3536H11.6801C12.6016 38.3536 13.3485 37.6064 13.3485 36.6852C13.3485 35.763 12.6013 35.0161 11.6801 35.0161H7.36975L16.8879 25.4893C17.5401 24.838 17.5316 23.7802 16.8801 23.1296C16.2285 22.4789 15.1651 22.4796 14.5132 23.1308ZM7.34037 5.13332H11.6513C12.5729 5.13332 13.3194 4.38707 13.3194 3.46582C13.3194 2.54395 12.5726 1.79676 11.6513 1.79676L3.31475 1.79613H3.31443C2.87162 1.79613 2.44787 1.97113 2.13443 2.28395C1.82193 2.59676 1.646 3.02082 1.646 3.46426L1.64693 11.8086C1.64693 12.7289 2.39381 13.4771 3.31506 13.4771C4.23662 13.4771 4.98318 12.7289 4.98318 11.8086V7.49551L14.6007 17.1208C14.9266 17.4471 15.3541 17.6102 15.7813 17.6102C16.2076 17.6102 16.6347 17.4477 16.9604 17.1218C17.6122 16.4708 17.6132 15.4136 16.9613 14.7614L7.34037 5.13332Z" fill="#087BA8"/>
</svg>
