<svg width="20" height="20" viewBox="0 0 20 20" fill="none" xmlns="http://www.w3.org/2000/svg">
<g clip-path="url(#clip0_500_980)">
<path d="M9.83998 0C6.67691 0 4.08778 2.58922 4.08778 5.75228C4.08778 7.68645 5.05965 9.39908 6.53481 10.4411C3.10108 11.8175 0.664062 15.1756 0.664063 19.0932C0.669315 19.33 0.767067 19.5553 0.936386 19.7209C1.10571 19.8865 1.33313 19.9793 1.56998 19.9793C1.80682 19.9793 2.03425 19.8865 2.20357 19.7209C2.37289 19.5553 2.47064 19.33 2.47589 19.0932C2.47589 14.935 5.82863 11.5841 9.98684 11.5841C14.145 11.5841 17.496 14.935 17.496 19.0932C17.496 19.3337 17.5915 19.5643 17.7616 19.7344C17.9317 19.9044 18.1623 20 18.4028 20C18.6433 20 18.874 19.9044 19.044 19.7344C19.2141 19.5643 19.3096 19.3337 19.3096 19.0932C19.3096 15.1014 16.7775 11.6938 13.2407 10.3685C14.6583 9.32057 15.5833 7.64297 15.5833 5.75228C15.5833 2.58922 13.003 0 9.83998 0ZM9.83998 1.81363C12.0239 1.81363 13.7715 3.56839 13.7715 5.75228C13.7715 7.93616 12.0239 9.68371 9.83998 9.68371C7.6561 9.68371 5.90138 7.93616 5.90138 5.75228C5.90138 3.56839 7.6561 1.81363 9.83998 1.81363Z" fill="white"/>
</g>
<defs>
<clipPath id="clip0_500_980">
<rect width="20" height="20" fill="white"/>
</clipPath>
</defs>
</svg>
