<svg width="32" height="32" viewBox="0 0 32 32" fill="none" xmlns="http://www.w3.org/2000/svg">
<g clip-path="url(#clip0_1018_3627)">
<rect width="32" height="32" rx="4" fill="#F96600"/>
<path d="M15.0166 20.0871C13.4657 19.9253 12.0675 19.5416 10.8711 18.6071C10.722 18.4907 10.5693 18.378 10.4329 18.2435C9.9093 17.7398 9.85657 17.1635 10.2711 16.5707C10.6257 16.0616 11.2202 15.9253 11.8402 16.218C11.9593 16.2783 12.0735 16.3476 12.182 16.4253C13.2907 17.1788 14.5975 17.5874 15.9379 17.5997C17.2784 17.612 18.5925 17.2274 19.7148 16.4944C19.9292 16.3206 20.1766 16.1919 20.442 16.1162C20.6888 16.0432 20.953 16.0554 21.1921 16.1507C21.4312 16.246 21.6313 16.4189 21.7602 16.6416C22.0875 17.1762 22.0838 17.6962 21.6802 18.1107C21.0615 18.7365 20.3138 19.2198 19.4893 19.5271C18.6865 19.8155 17.851 20.003 17.002 20.0853C17.1293 20.2253 17.1838 20.2926 17.2711 20.3726C18.422 21.5307 19.5784 22.6835 20.7257 23.8435C20.9084 24.0096 21.0324 24.2306 21.079 24.4732C21.1255 24.7158 21.0921 24.9669 20.9838 25.1889C20.8736 25.4323 20.694 25.6377 20.4677 25.7797C20.2413 25.9216 19.9782 25.9938 19.7111 25.9871C19.3987 25.9563 19.1095 25.8082 18.902 25.5726C18.0329 24.698 17.1475 23.8398 16.2966 22.9489C16.0493 22.6907 15.9329 22.7398 15.7111 22.9635C14.8366 23.8726 13.9475 24.7507 13.0548 25.6307C12.889 25.8145 12.6669 25.9379 12.4234 25.9817C12.1798 26.0254 11.9286 25.9871 11.7093 25.8726C11.4716 25.7616 11.2711 25.5843 11.1317 25.3621C10.9924 25.1398 10.9202 24.8821 10.9238 24.6198C10.9501 24.2957 11.1014 23.9945 11.3457 23.7798C12.4875 22.6416 13.6257 21.5029 14.7602 20.3635C14.8366 20.2853 14.9093 20.2035 15.0166 20.0871Z" fill="white"/>
<path d="M15.9602 16.1236C14.9575 16.1177 13.9792 15.8142 13.1493 15.2516C12.3194 14.689 11.6752 13.8925 11.2986 12.9633C10.9219 12.0341 10.8297 11.0139 11.0337 10.0322C11.2376 9.05051 11.7285 8.1515 12.4441 7.44919C13.1597 6.74687 14.0678 6.27291 15.0531 6.0874C16.0385 5.90188 17.0567 6.01319 17.9787 6.40719C18.9007 6.80119 19.685 7.46013 20.2319 8.30045C20.7789 9.14078 21.064 10.1246 21.0511 11.1272C21.0329 12.463 20.4877 13.7376 19.5342 14.6734C18.5807 15.6092 17.2961 16.1304 15.9602 16.1236ZM18.4747 11.0563C18.4733 10.5662 18.3264 10.0876 18.0528 9.68098C17.7792 9.27439 17.3911 8.95814 16.9376 8.77226C16.4841 8.58638 15.9857 8.53923 15.5054 8.63679C15.0251 8.73435 14.5846 8.97222 14.2396 9.32028C13.8946 9.66835 13.6606 10.111 13.5673 10.5921C13.474 11.0732 13.5255 11.5712 13.7154 12.023C13.9053 12.4748 14.2249 12.8601 14.6339 13.1302C15.0429 13.4002 15.5228 13.5428 16.0129 13.5399C16.3378 13.5392 16.6594 13.4743 16.9592 13.349C17.259 13.2236 17.5311 13.0403 17.7598 12.8096C17.9885 12.5788 18.1694 12.3051 18.2921 12.0042C18.4148 11.7034 18.4769 11.3812 18.4747 11.0563Z" fill="white"/>
</g>
<defs>
<clipPath id="clip0_1018_3627">
<rect width="32" height="32" fill="white"/>
</clipPath>
</defs>
</svg>
