<svg width="32" height="32" viewBox="0 0 32 32" fill="none" xmlns="http://www.w3.org/2000/svg">
<g clip-path="url(#clip0_1018_3612)">
<rect width="32" height="32" rx="4" fill="#2787F5"/>
<path fill-rule="evenodd" clip-rule="evenodd" d="M26.3911 10.8945C26.5349 10.3911 26.3911 10.0316 25.672 10.0316H23.263C22.6517 10.0316 22.3641 10.3552 22.2203 10.7147C22.2203 10.7147 20.9978 13.699 19.272 15.6046C18.7326 16.1439 18.445 16.3597 18.1574 16.3597C18.0135 16.3597 17.7978 16.1799 17.7978 15.6765V10.8945C17.7978 10.2832 17.618 10.0316 17.1147 10.0316H13.3394C12.9439 10.0316 12.7281 10.3192 12.7281 10.5709C12.7281 11.1462 13.5911 11.29 13.6989 12.908V16.4316C13.6989 17.1866 13.5551 17.3304 13.2675 17.3304C12.4405 17.3304 10.4989 14.3462 9.31241 10.9304C9.09668 10.2473 8.84499 9.99561 8.23376 9.99561H5.82477C5.14162 9.99561 4.9978 10.3192 4.9978 10.6788C4.9978 11.3259 5.82477 14.454 8.77308 18.6248C10.7506 21.4653 13.5551 23.0113 16.072 23.0113C17.5821 23.0113 17.7978 22.6518 17.7978 22.0765V19.9192C17.7978 19.2361 17.9416 19.0922 18.409 19.0922C18.7686 19.0922 19.3798 19.272 20.7821 20.6383C22.4001 22.2563 22.6877 22.9754 23.5866 22.9754H25.9956C26.6787 22.9754 27.0383 22.6158 26.8225 21.9686C26.6068 21.2855 25.8158 20.3147 24.809 19.1641C24.2338 18.517 23.4068 17.7979 23.1551 17.4383C22.7956 16.9709 22.9034 16.7911 23.1551 16.3597C23.1551 16.3956 26.0675 12.2608 26.3911 10.8945Z" fill="white"/>
</g>
<defs>
<clipPath id="clip0_1018_3612">
<rect width="32" height="32" fill="white"/>
</clipPath>
</defs>
</svg>
