<svg width="32" height="32" viewBox="0 0 32 32" fill="none" xmlns="http://www.w3.org/2000/svg">
<g clip-path="url(#clip0_476_46)">
<rect width="32" height="32" rx="4" fill="url(#paint0_linear_476_46)"/>
<path fill-rule="evenodd" clip-rule="evenodd" d="M9.57775 21.274H7.57775L4.59998 10.748H6.4222L8.6222 18.9645L11 10.748H12.6L14.9778 18.9645L17.1778 10.748H19L16.0444 21.274H14.0444L11.8222 13.6127L9.57775 21.274ZM25.9333 15.8112C26.8444 16.2997 27.4 17.1658 27.4 18.2539C27.4 19.12 27.0889 19.8306 26.4889 20.408C25.8666 20.9854 25.1333 21.274 24.2444 21.274H19.7333V10.748H23.9111C24.7778 10.748 25.5111 11.0367 26.0889 11.5919C26.6889 12.1471 27 12.8355 27 13.6571C27 14.5898 26.6444 15.3004 25.9333 15.8112ZM23.9111 12.3691H21.4666V15.1228H23.9111C24.6666 15.1228 25.2666 14.5232 25.2666 13.746C25.2666 12.9687 24.6889 12.3691 23.9111 12.3691ZM21.4666 19.6529H24.2444C25.0444 19.6529 25.6666 19.009 25.6666 18.1873C25.6666 17.3657 25.0444 16.7217 24.2444 16.7217H21.4666V19.6529Z" fill="white"/>
</g>
<defs>
<linearGradient id="paint0_linear_476_46" x1="3.25222" y1="28.5172" x2="28.5362" y2="3.68408" gradientUnits="userSpaceOnUse">
<stop stop-color="#B72894"/>
<stop offset="1" stop-color="#6A27BA"/>
</linearGradient>
<clipPath id="clip0_476_46">
<rect width="32" height="32" fill="white"/>
</clipPath>
</defs>
</svg>
