<svg width="32" height="32" viewBox="0 0 32 32" fill="none" xmlns="http://www.w3.org/2000/svg">
<g clip-path="url(#clip0_1018_3619)">
<rect width="32" height="32" rx="4" fill="#E60000"/>
<path d="M25.5327 11.1892C25.1327 9.95833 23.809 9.21288 22.5909 9.04197C18.2093 8.57651 13.7907 8.57651 9.40905 9.04197C8.19087 9.21288 6.86359 9.95106 6.46723 11.1892C5.84361 14.3668 5.84361 17.6353 6.46723 20.8129C6.86723 22.042 8.19087 22.7892 9.40905 22.9601C13.7907 23.4256 18.2093 23.4256 22.5909 22.9601C23.809 22.7892 25.1363 22.0511 25.5327 20.8129C26.1563 17.6353 26.1563 14.3668 25.5327 11.1892ZM13.6072 19.8329V12.1674L19.8472 16.0001C17.7436 17.2929 15.7018 18.5456 13.6072 19.8329Z" fill="white"/>
</g>
<defs>
<clipPath id="clip0_1018_3619">
<rect width="32" height="32" fill="white"/>
</clipPath>
</defs>
</svg>
