<svg width="86" height="86" viewBox="0 0 86 86" fill="none" xmlns="http://www.w3.org/2000/svg">
<g clip-path="url(#clip0_718_6285)">
<path d="M55.1112 69.0356C54.5644 69.0356 54.0298 69.1978 53.5752 69.5016C53.1205 69.8054 52.7662 70.2372 52.557 70.7424C52.3477 71.2476 52.293 71.8035 52.3997 72.3398C52.5064 72.8761 52.7698 73.3687 53.1565 73.7553C53.5432 74.1419 54.0358 74.4052 54.5721 74.5118C55.1084 74.6184 55.6643 74.5636 56.1695 74.3542C56.6746 74.1449 57.1064 73.7905 57.4101 73.3358C57.7138 72.8811 57.8759 72.3465 57.8758 71.7997C57.8748 71.0669 57.5832 70.3643 57.0649 69.8461C56.5466 69.328 55.844 69.0365 55.1112 69.0356ZM55.1112 72.5492C54.963 72.5492 54.8183 72.5053 54.6951 72.423C54.5719 72.3407 54.4759 72.2238 54.4192 72.087C54.3625 71.9502 54.3477 71.7996 54.3765 71.6543C54.4054 71.509 54.4767 71.3756 54.5814 71.2708C54.6861 71.1661 54.8195 71.0947 54.9647 71.0657C55.11 71.0368 55.2606 71.0515 55.3974 71.1081C55.5343 71.1647 55.6513 71.2607 55.7337 71.3838C55.816 71.5069 55.86 71.6516 55.8601 71.7997C55.86 71.9984 55.7811 72.1889 55.6407 72.3294C55.5003 72.4699 55.3098 72.549 55.1112 72.5492Z" fill="#087BA8"/>
<path d="M58.7228 76.8871C58.7228 77.7318 58.9732 78.5574 59.4425 79.2597C59.9117 79.962 60.5787 80.5093 61.359 80.8325C62.1394 81.1557 62.998 81.2403 63.8264 81.0755C64.6548 80.9107 65.4157 80.504 66.0129 79.9067C66.6102 79.3095 67.0169 78.5486 67.1816 77.7202C67.3464 76.8918 67.2618 76.0331 66.9385 75.2528C66.6153 74.4725 66.0679 73.8055 65.3656 73.3363C64.6633 72.8671 63.8377 72.6167 62.993 72.6167C61.8609 72.618 60.7755 73.0684 59.9749 73.869C59.1744 74.6695 58.7241 75.755 58.7228 76.8871ZM65.248 76.8871C65.248 77.3331 65.1158 77.769 64.868 78.1398C64.6203 78.5106 64.2681 78.7996 63.8561 78.9703C63.4441 79.141 62.9908 79.1856 62.5534 79.0986C62.116 79.0116 61.7142 78.7969 61.3989 78.4816C61.0835 78.1663 60.8688 77.7645 60.7817 77.3271C60.6947 76.8898 60.7394 76.4364 60.91 76.0244C61.0806 75.6124 61.3696 75.2602 61.7404 75.0124C62.1112 74.7646 62.5471 74.6324 62.993 74.6323C63.5909 74.6329 64.1641 74.8707 64.5868 75.2934C65.0096 75.7161 65.2474 76.2893 65.248 76.8871Z" fill="#087BA8"/>
<path d="M56.5911 53.9922C55.9119 53.9922 55.248 54.1936 54.6832 54.5709C54.1185 54.9483 53.6784 55.4846 53.4185 56.1121C53.1586 56.7395 53.0906 57.43 53.2231 58.0961C53.3556 58.7623 53.6827 59.3741 54.1629 59.8544C54.6432 60.3346 55.2551 60.6617 55.9212 60.7941C56.5874 60.9266 57.2778 60.8586 57.9053 60.5987C58.5328 60.3387 59.0691 59.8986 59.4464 59.3338C59.8237 58.7691 60.025 58.1052 60.025 57.426C60.0239 56.5156 59.6618 55.6428 59.018 54.999C58.3743 54.3553 57.5015 53.9932 56.5911 53.9922ZM56.5911 58.8443C56.3105 58.8443 56.0363 58.7611 55.8031 58.6053C55.5698 58.4494 55.388 58.2279 55.2807 57.9687C55.1733 57.7096 55.1453 57.4244 55.2 57.1493C55.2547 56.8741 55.3898 56.6214 55.5881 56.4231C55.7865 56.2247 56.0392 56.0896 56.3144 56.0349C56.5895 55.9802 56.8747 56.0083 57.1338 56.1156C57.393 56.223 57.6145 56.4047 57.7704 56.638C57.9262 56.8712 58.0094 57.1455 58.0094 57.426C58.009 57.802 57.8594 58.1625 57.5935 58.4284C57.3276 58.6943 56.9671 58.8439 56.5911 58.8443Z" fill="#087BA8"/>
<path d="M61.2226 49.6123C61.2227 49.0655 61.0606 48.531 60.7568 48.0763C60.453 47.6216 60.0213 47.2672 59.5161 47.0579C59.0109 46.8487 58.455 46.7939 57.9187 46.9005C57.3824 47.0071 56.8898 47.2704 56.5031 47.657C56.1164 48.0436 55.853 48.5362 55.7463 49.0725C55.6396 49.6088 55.6943 50.1647 55.9035 50.6699C56.1127 51.1751 56.467 51.607 56.9216 51.9108C57.3762 52.2147 57.9107 52.3769 58.4575 52.3769C59.1906 52.3762 59.8934 52.0848 60.4118 51.5665C60.9302 51.0482 61.2218 50.3454 61.2226 49.6123ZM57.7089 49.6123C57.7089 49.4642 57.7528 49.3193 57.8351 49.1961C57.9174 49.0729 58.0344 48.9768 58.1712 48.9201C58.3081 48.8634 58.4588 48.8485 58.6041 48.8774C58.7494 48.9063 58.8829 48.9776 58.9877 49.0824C59.0925 49.1872 59.1639 49.3206 59.1928 49.466C59.2217 49.6113 59.2069 49.7619 59.1502 49.8988C59.0935 50.0357 58.9975 50.1527 58.8743 50.2351C58.7511 50.3174 58.6062 50.3613 58.4581 50.3613C58.2595 50.3611 58.0691 50.2821 57.9286 50.1417C57.7882 50.0013 57.7092 49.8109 57.7089 49.6123Z" fill="#087BA8"/>
<path d="M84.6445 71.4226H81.9657V69.2175H82.9712C83.2383 69.2214 83.4966 69.122 83.6922 68.94C83.8878 68.758 84.0055 68.5075 84.0208 68.2408C84.025 68.1058 84.002 67.9714 83.9532 67.8455C83.9044 67.7196 83.8308 67.6048 83.7368 67.5079C83.6428 67.411 83.5303 67.334 83.406 67.2814C83.2816 67.2289 83.148 67.2018 83.013 67.2019H81.9652V64.9971H84.644C84.9111 65.0011 85.1694 64.9016 85.365 64.7196C85.5606 64.5376 85.6783 64.2871 85.6936 64.0204C85.6978 63.8854 85.6748 63.751 85.626 63.6251C85.5772 63.4993 85.5036 63.3845 85.4096 63.2876C85.3156 63.1907 85.2031 63.1136 85.0788 63.0611C84.9544 63.0085 84.8208 62.9814 84.6858 62.9815H81.9647V60.7759H82.9702C83.2373 60.7798 83.4956 60.6804 83.6912 60.4984C83.8868 60.3164 84.0045 60.0659 84.0198 59.7991C84.024 59.6642 84.001 59.5298 83.9522 59.4039C83.9034 59.278 83.8298 59.1632 83.7358 59.0663C83.6418 58.9694 83.5293 58.8924 83.405 58.8398C83.2806 58.7873 83.147 58.7602 83.012 58.7603H81.9642V55.6646C82.6959 55.4923 83.3359 55.0509 83.7571 54.4283C83.9664 54.124 84.114 53.7816 84.1916 53.4205C84.2892 52.9846 84.2877 52.5322 84.187 52.097C84.0864 51.6617 83.8893 51.2546 83.6103 50.9057C83.3313 50.5568 82.9774 50.275 82.5749 50.0811C82.1724 49.8873 81.7315 49.7863 81.2848 49.7857H69.5508C68.761 49.7857 68.0036 50.0994 67.4452 50.6579C66.8868 51.2163 66.573 51.9737 66.573 52.7634V52.7984C66.5752 53.4694 66.8031 54.1202 67.22 54.646C67.6369 55.1718 68.2185 55.5421 68.8714 55.6974V68.0672L67.7391 65.7226C65.8122 61.7326 64.8114 57.3589 64.8114 52.928V47.9014H65.149C66.5685 47.9014 67.7917 46.8127 67.8615 45.395C67.8791 45.0379 67.8239 44.6808 67.6994 44.3456C67.5749 44.0104 67.3836 43.7039 67.1372 43.4448C66.8907 43.1857 66.5943 42.9793 66.2657 42.8381C65.9372 42.6969 65.5834 42.6239 65.2258 42.6235H49.8256C48.4062 42.6235 47.1832 43.712 47.1134 45.1296C47.0959 45.4868 47.151 45.8438 47.2756 46.179C47.4001 46.5142 47.5913 46.8207 47.8378 47.0798C48.0842 47.3389 48.3807 47.5453 48.7092 47.6865C49.0378 47.8277 49.3915 47.9007 49.7491 47.9011H50.1635V53.0368C50.1635 53.3041 50.2697 53.5605 50.4587 53.7495C50.6477 53.9385 50.904 54.0447 51.1713 54.0447C51.4386 54.0447 51.6949 53.9385 51.8839 53.7495C52.0729 53.5605 52.1791 53.3041 52.1791 53.0368V46.8943C52.1791 46.627 52.0729 46.3707 51.8839 46.1817C51.6949 45.9927 51.4386 45.8865 51.1713 45.8865H49.7671C49.6218 45.8886 49.4803 45.8408 49.366 45.7511C49.2517 45.6614 49.1716 45.5353 49.1391 45.3937C49.1197 45.3027 49.1209 45.2086 49.1426 45.1182C49.1642 45.0278 49.2058 44.9434 49.2643 44.8711C49.3227 44.7988 49.3966 44.7405 49.4805 44.7004C49.5644 44.6603 49.6562 44.6394 49.7491 44.6393H65.2078C65.353 44.6372 65.4946 44.685 65.6088 44.7746C65.7231 44.8642 65.8032 44.9903 65.8358 45.1318C65.8552 45.2228 65.8539 45.3169 65.8323 45.4073C65.8106 45.4977 65.769 45.5822 65.7106 45.6545C65.6521 45.7268 65.5782 45.7851 65.4944 45.8253C65.4105 45.8654 65.3187 45.8863 65.2258 45.8865H63.8036C63.5363 45.8865 63.2799 45.9927 63.0909 46.1817C62.9019 46.3707 62.7958 46.627 62.7958 46.8943V52.9294C62.8025 57.6312 63.8576 62.2724 65.8844 66.515C62.1949 66.9974 60.0139 66.4814 57.7196 65.9384C55.5106 65.4152 53.2362 64.8773 49.6697 65.2286C51.319 61.3375 52.1723 57.1556 52.1791 52.9294V52.3827C52.1791 52.1154 52.0729 51.859 51.8839 51.67C51.6949 51.481 51.4386 51.3748 51.1713 51.3748C50.904 51.3748 50.6477 51.481 50.4587 51.67C50.2697 51.859 50.1635 52.1154 50.1635 52.3827V52.9294C50.1575 57.3594 49.157 61.7315 47.2358 65.7232L41.653 77.2835C41.2311 78.1379 41.0297 79.0843 41.0673 80.0364C41.1049 80.9886 41.3803 81.9162 41.8684 82.7346C42.366 83.5543 43.0669 84.2314 43.9033 84.7004C44.7396 85.1695 45.683 85.4144 46.6419 85.4115H68.3317C69.2793 85.4145 70.212 85.1753 71.0413 84.7167C71.8706 84.2582 72.5691 83.5954 73.0704 82.7912C73.2278 82.5388 73.365 82.2745 73.4809 82.0006C74.4606 82.3039 75.4978 82.3728 76.509 82.2019C77.5202 82.0309 78.4771 81.6248 79.3026 81.0162C80.1281 80.4077 80.7991 79.6138 81.2616 78.6984C81.724 77.783 81.965 76.7718 81.965 75.7463V73.4382H84.6861C84.8211 73.4383 84.9548 73.4112 85.0791 73.3586C85.2035 73.3061 85.316 73.229 85.41 73.1321C85.504 73.0352 85.5775 72.9204 85.6263 72.7945C85.6751 72.6687 85.6981 72.5343 85.6939 72.3993C85.6787 72.1326 85.561 71.8821 85.3654 71.7001C85.1699 71.5181 84.9116 71.4187 84.6445 71.4226ZM71.3639 81.7191C71.0432 82.2336 70.5964 82.6576 70.0658 82.9511C69.5353 83.2445 68.9386 83.3975 68.3323 83.3957H46.6425C46.0367 83.3957 45.4407 83.2419 44.9105 82.9486C44.3803 82.6554 43.9332 82.2323 43.6111 81.7191C43.2891 81.2059 43.1025 80.6194 43.0691 80.0144C43.0356 79.4094 43.1562 78.8059 43.4197 78.2603L48.6736 67.3811C52.6189 66.8026 54.8744 67.3359 57.255 67.8998C58.9733 68.3069 60.7294 68.7228 63.102 68.7228C64.3415 68.7162 65.5786 68.6148 66.8027 68.4196L71.555 78.2603C71.8203 78.8054 71.9419 79.4092 71.9084 80.0145C71.875 80.6198 71.6876 81.2065 71.3639 81.7191ZM81.9635 53.4476C81.8734 53.5372 81.7663 53.608 81.6486 53.6558C81.5309 53.7037 81.4048 53.7277 81.2777 53.7264L80.9668 53.7235H80.9579C80.6906 53.7235 80.4343 53.8297 80.2453 54.0187C80.0563 54.2077 79.9501 54.4641 79.9501 54.7314V75.7456C79.95 76.469 79.7768 77.1819 79.4449 77.8246C79.113 78.4674 78.632 79.0214 78.0422 79.4402C77.4524 79.8591 76.7709 80.1307 76.0546 80.2323C75.3384 80.3339 74.6082 80.2626 73.9252 80.0243C73.9589 79.112 73.7685 78.2055 73.3709 77.3838L70.887 72.2416V54.7729C70.887 54.5071 70.782 54.2521 70.595 54.0633C70.4079 53.8746 70.1538 53.7674 69.8881 53.765L69.5422 53.7618C69.2888 53.7589 69.0467 53.6563 68.8683 53.4763C68.6898 53.2963 68.5894 53.0533 68.5887 52.7999V52.7649C68.5889 52.5099 68.6904 52.2653 68.8708 52.0849C69.0511 51.9045 69.2957 51.8031 69.5508 51.8028H81.2863C81.477 51.8028 81.6635 51.8594 81.8219 51.9656C81.9804 52.0717 82.1038 52.2226 82.1764 52.399C82.2489 52.5754 82.2675 52.7694 82.2296 52.9563C82.1917 53.1433 82.0991 53.3147 81.9635 53.4489V53.4476Z" fill="#087BA8"/>
<path d="M48.6579 84.8684C48.6579 83.3678 48.0618 80.7972 47.0007 79.7361C45.9396 78.675 44.5005 78.0789 43 78.0789C41.4994 78.0789 38.9286 77.5435 37.8676 78.6045C36.8065 79.6656 37.3421 83.3678 37.3421 84.8684L43 84.8684H48.6579Z" fill="#F5F6F6"/>
<path d="M6.04685 44.3887C6.04601 40.3413 7.13259 36.3679 9.19298 32.8842C11.2534 29.4004 14.2119 26.5342 17.7591 24.5852L15.6295 23.2397C11.5109 24.7945 7.93598 27.5179 5.34348 31.0758C2.75098 34.6337 1.25375 38.8711 1.03559 43.2679C0.817438 47.6647 1.88785 52.0296 4.11543 55.8266C6.34301 59.6236 9.63081 62.6876 13.5752 64.6424L9.48181 84.4442H14.5209L18.2619 66.3472C20.0112 66.771 21.8047 66.9847 23.6046 66.9838H28.6437C25.6758 66.986 22.7365 66.403 19.9941 65.2683C17.2517 64.1336 14.7598 62.4693 12.6611 60.3708C10.5624 58.2722 8.89799 55.7805 7.76305 53.0381C6.62811 50.2958 6.04493 47.3566 6.04685 44.3887Z" fill="#D4E1F4"/>
<path d="M22.0634 24.6103C22.9389 24.6103 23.7947 24.3507 24.5227 23.8643C25.2506 23.3779 25.8179 22.6866 26.153 21.8777C26.488 21.0689 26.5757 20.1789 26.4049 19.3202C26.2341 18.4616 25.8125 17.6729 25.1934 17.0538C24.5744 16.4348 23.7857 16.0132 22.927 15.8424C22.0684 15.6716 21.1783 15.7592 20.3695 16.0943C19.5607 16.4293 18.8693 16.9967 18.383 17.7246C17.8966 18.4525 17.637 19.3083 17.637 20.1838C17.6383 21.3574 18.1051 22.4825 18.9349 23.3123C19.7648 24.1422 20.8899 24.609 22.0634 24.6103ZM22.0634 17.773C22.5403 17.773 23.0064 17.9143 23.4028 18.1793C23.7993 18.4442 24.1083 18.8207 24.2908 19.2612C24.4733 19.7017 24.521 20.1865 24.428 20.6541C24.335 21.1218 24.1053 21.5514 23.7682 21.8885C23.431 22.2257 23.0014 22.4553 22.5338 22.5483C22.0661 22.6414 21.5814 22.5936 21.1408 22.4111C20.7003 22.2287 20.3238 21.9197 20.0589 21.5232C19.794 21.1267 19.6526 20.6606 19.6526 20.1838C19.6533 19.5446 19.9076 18.9319 20.3595 18.4799C20.8115 18.0279 21.4243 17.7737 22.0634 17.773Z" fill="#00415D"/>
<path d="M18.6638 70.0527C17.9456 70.0526 17.2435 70.2655 16.6462 70.6645C16.049 71.0634 15.5835 71.6305 15.3086 72.294C15.0337 72.9575 14.9618 73.6876 15.1018 74.392C15.2419 75.0964 15.5877 75.7435 16.0955 76.2514C16.6033 76.7592 17.2504 77.1051 17.9548 77.2452C18.6592 77.3854 19.3893 77.3135 20.0528 77.0386C20.7164 76.7638 21.2835 76.2983 21.6825 75.7012C22.0815 75.104 22.2944 74.4019 22.2944 73.6837C22.2932 72.7211 21.9104 71.7983 21.2298 71.1176C20.5491 70.4369 19.6263 70.054 18.6638 70.0527ZM18.6638 75.2994C18.3442 75.2994 18.0319 75.2047 17.7662 75.0272C17.5006 74.8496 17.2935 74.5973 17.1712 74.3022C17.0489 74.007 17.0169 73.6821 17.0793 73.3688C17.1416 73.0554 17.2954 72.7675 17.5214 72.5416C17.7473 72.3156 18.0351 72.1618 18.3485 72.0994C18.6619 72.0371 18.9867 72.069 19.2819 72.1913C19.5771 72.3135 19.8294 72.5206 20.0069 72.7862C20.1845 73.0519 20.2792 73.3642 20.2793 73.6837C20.2788 74.112 20.1084 74.5227 19.8056 74.8256C19.5027 75.1285 19.0921 75.2989 18.6638 75.2994Z" fill="#00415D"/>
<path d="M41.8346 76.7604H26.3478V67.9924H38.7554C39.0226 67.9924 39.279 67.8862 39.468 67.6972C39.657 67.5082 39.7632 67.2519 39.7632 66.9846V61.5928C39.7632 61.3255 39.657 61.0691 39.468 60.8801C39.279 60.6911 39.0226 60.585 38.7554 60.585H25.6189V56.1437H38.7135C38.9807 56.1477 39.239 56.0483 39.4346 55.8663C39.6301 55.6843 39.7479 55.4338 39.7632 55.1671C39.7673 55.0322 39.7443 54.8978 39.6956 54.7719C39.6468 54.646 39.5732 54.5312 39.4792 54.4343C39.3852 54.3374 39.2727 54.2604 39.1483 54.2078C39.024 54.1552 38.8904 54.1282 38.7554 54.1283H24.611C24.3438 54.1283 24.0874 54.2344 23.8984 54.4234C23.7094 54.6124 23.6032 54.8688 23.6032 55.1361V60.5808C19.8624 60.5163 16.2588 59.1608 13.4028 56.7439C10.5468 54.327 8.61399 50.9972 7.93175 47.3185C7.89088 47.0853 7.76938 46.8739 7.58848 46.7212C7.40758 46.5685 7.17879 46.4843 6.94208 46.4832H6.93469C6.7882 46.4829 6.64343 46.5147 6.51057 46.5764C6.3777 46.638 6.25997 46.7281 6.16566 46.8402C6.07134 46.9523 6.00274 47.0837 5.96468 47.2251C5.92662 47.3666 5.92002 47.5147 5.94535 47.6589C6.71656 51.8495 8.93043 55.6379 12.2029 58.3668C15.4753 61.0957 19.5998 62.593 23.8607 62.5987H37.7475V65.9749H23.8344C11.9308 65.9761 1.987 56.2369 2.01639 44.3332C2.02712 40.1017 3.28078 35.9666 5.62164 32.4416C7.96249 28.9166 11.2874 26.157 15.1833 24.5056C15.8895 25.6254 16.8568 26.5573 18.0021 27.2213C15.0981 28.2443 12.4918 29.9689 10.4148 32.2418C8.68753 34.1237 7.3756 36.348 6.56432 38.7702C6.51287 38.9213 6.49813 39.0825 6.52132 39.2405C6.5445 39.3984 6.60495 39.5486 6.69766 39.6786C6.79038 39.8085 6.91269 39.9146 7.0545 39.9879C7.1963 40.0613 7.35353 40.0998 7.51317 40.1003H7.52375C7.73528 40.0997 7.94122 40.0324 8.11233 39.9081C8.28345 39.7837 8.41103 39.6086 8.47698 39.4076C9.19859 37.2535 10.3654 35.2754 11.9017 33.6018C14.5743 30.67 18.2089 28.7929 22.1466 28.3108C23.2041 28.3014 24.2494 28.0845 25.2233 27.6725V31.5507C25.2233 31.818 25.3295 32.0744 25.5185 32.2634C25.7075 32.4524 25.9638 32.5585 26.2311 32.5585H28.172V36.5058C28.172 36.7731 28.2782 37.0294 28.4672 37.2184C28.6562 37.4074 28.9125 37.5136 29.1798 37.5136H33.5534C33.8207 37.5136 34.077 37.4074 34.266 37.2184C34.455 37.0294 34.5612 36.7731 34.5612 36.5058V32.5585H36.5021C36.7694 32.5585 37.0257 32.4524 37.2147 32.2634C37.4037 32.0744 37.5099 31.818 37.5099 31.5507V13.0742C37.5122 12.9335 37.4863 12.7938 37.4336 12.6633C37.3569 12.4795 37.2275 12.3224 37.0618 12.2118C36.896 12.1012 36.7013 12.0421 36.5021 12.0418H35.4566V3.81909C35.4566 3.5518 35.3504 3.29546 35.1614 3.10646C34.9724 2.91746 34.7161 2.81128 34.4488 2.81128H28.2855C28.0182 2.81128 27.7619 2.91746 27.5729 3.10646C27.3839 3.29546 27.2777 3.5518 27.2777 3.81909V12.0507L22.0626 12.0549C20.7812 12.0547 19.5179 12.3574 18.3758 12.9385C17.2337 13.5196 16.2452 14.3626 15.491 15.3986C14.7369 16.4346 14.2384 17.6342 14.0363 18.8996C13.8342 20.165 13.9342 21.4603 14.3282 22.6796C10.2409 24.4262 6.72994 27.2914 4.19926 30.9454C1.66858 34.5994 0.221086 38.8937 0.0233691 43.334C-0.174348 47.7744 0.885749 52.1804 3.08165 56.0448C5.27755 59.9093 8.52001 63.0751 12.4358 65.1781L8.49495 84.24C8.46368 84.3877 8.46613 84.5406 8.50213 84.6873C8.53814 84.834 8.60676 84.9706 8.70289 85.0871C8.79902 85.2036 8.92019 85.2969 9.05737 85.36C9.19455 85.4232 9.34421 85.4546 9.4952 85.4519H48.5105C48.7778 85.4519 49.0341 85.3457 49.2231 85.1567C49.4121 84.9677 49.5183 84.7114 49.5183 84.4441C49.5159 82.407 48.7055 80.454 47.2651 79.0136C45.8246 77.5731 43.8717 76.7628 41.8346 76.7604ZM32.5456 35.498H30.1879V32.5585H32.5456V35.498ZM29.2933 4.8269H33.4402V12.0457L29.2933 12.0496V4.8269ZM35.4943 14.0596V30.5429H27.2393V26.4478C28.1484 25.6983 28.8835 24.7597 29.3933 23.6974C29.9032 22.6351 30.1755 21.4745 30.1915 20.2963C30.2075 19.118 29.9667 17.9505 29.4859 16.8747C29.0051 15.799 28.2957 14.8408 27.4072 14.0669L35.4943 14.0596ZM22.0635 14.0706C23.2725 14.0707 24.4543 14.4294 25.4595 15.1012C26.4647 15.773 27.2481 16.7277 27.7107 17.8447C28.1733 18.9618 28.2943 20.1908 28.0583 21.3766C27.8224 22.5624 27.2402 23.6516 26.3853 24.5065C25.5304 25.3614 24.4412 25.9436 23.2555 26.1795C22.0697 26.4154 20.8406 26.2944 19.7236 25.8318C18.6066 25.3692 17.6518 24.5858 16.98 23.5806C16.3082 22.5754 15.9496 21.3936 15.9494 20.1846C15.951 18.5636 16.5957 17.0094 17.7419 15.8631C18.8882 14.7168 20.4424 14.0722 22.0635 14.0706ZM10.7194 83.4363L14.307 66.0821C17.2436 67.3451 20.4073 67.9949 23.6041 67.9917H24.3321V77.7675C24.3321 78.0348 24.4382 78.2911 24.6272 78.4801C24.8162 78.6691 25.0726 78.7753 25.3399 78.7753H41.8344C43.1626 78.777 44.4482 79.2442 45.4675 80.0959C46.4868 80.9475 47.1752 82.1295 47.413 83.4363H10.7194Z" fill="#00415D"/>
<path d="M85.3365 15.7239L82.0305 15.4047C81.6619 14.0272 81.1062 12.7066 80.3791 11.48L82.4805 8.94228C82.6399 8.74983 82.7221 8.50504 82.7112 8.25541C82.7003 8.00577 82.597 7.7691 82.4214 7.59131L78.6438 3.76515C78.4666 3.58563 78.2286 3.47905 77.9767 3.46646C77.7249 3.45386 77.4774 3.53617 77.2832 3.69712L74.7402 5.80429C73.5139 5.07947 72.1959 4.52249 70.8215 4.14828L70.5023 0.876758C70.4768 0.631043 70.3592 0.404105 70.1732 0.241548C69.9871 0.0789899 69.7465 -0.0071404 69.4996 0.000464807H64.0757C63.8287 -0.00714727 63.588 0.078972 63.402 0.241523C63.2159 0.404074 63.0982 0.631014 63.0726 0.876758L62.7534 4.16508C61.3762 4.53078 60.0557 5.08356 58.8287 5.80798L56.291 3.70216C56.098 3.5418 55.852 3.45923 55.6014 3.4706C55.3507 3.48197 55.1132 3.58646 54.9355 3.76364L51.1095 7.58862C50.9322 7.76604 50.8274 8.00323 50.8156 8.25381C50.8038 8.50439 50.8859 8.75036 51.0458 8.94362L53.1523 11.4867C52.4276 12.713 51.8706 14.031 51.4963 15.4054L48.1899 15.7245C47.9406 15.7486 47.7092 15.8646 47.5408 16.0499C47.3723 16.2353 47.2789 16.4767 47.2788 16.7271V22.1515C47.2788 22.4021 47.3721 22.6437 47.5405 22.8291C47.709 23.0146 47.9405 23.1307 48.1899 23.1548L51.4958 23.4739C51.8645 24.8515 52.4202 26.172 53.1473 27.3987L51.0458 29.9364C50.8858 30.1296 50.8037 30.3757 50.8154 30.6263C50.8272 30.877 50.9321 31.1143 51.1095 31.2917L54.9355 35.1177C55.1129 35.2952 55.3502 35.4001 55.6009 35.4118C55.8516 35.4236 56.0977 35.3414 56.291 35.1813L58.8346 33.075C60.0609 33.7998 61.3789 34.3568 62.7534 34.731L63.0726 38.0481C63.0963 38.2985 63.212 38.5312 63.3972 38.7013C63.5825 38.8714 63.8242 38.9668 64.0757 38.9692H69.5001C69.7517 38.9669 69.9935 38.8714 70.1788 38.7011C70.3641 38.5308 70.4797 38.2979 70.5032 38.0474L70.8223 34.7362C72.2 34.3666 73.5206 33.81 74.7472 33.0819L77.2849 35.1815C77.4783 35.3415 77.7244 35.4235 77.975 35.4116C78.2257 35.3997 78.4629 35.2947 78.6403 35.1172L82.4662 31.2909C82.6437 31.1134 82.7486 30.8761 82.7604 30.6254C82.7722 30.3747 82.69 30.1286 82.5299 29.9353L80.4224 27.3923C81.1474 26.1657 81.7044 24.8473 82.0786 23.4724L85.3372 23.1546C85.5864 23.1304 85.8177 23.0143 85.986 22.8288C86.1543 22.6434 86.2476 22.4019 86.2476 22.1515V16.7271C86.2476 16.4766 86.1543 16.235 85.9858 16.0495C85.8174 15.864 85.5859 15.7479 85.3365 15.7239ZM84.2319 21.2373L81.1705 21.5359C80.9581 21.5566 80.7577 21.6442 80.5983 21.7861C80.4389 21.9279 80.3286 22.1168 80.2833 22.3254C79.9184 23.9656 79.2596 25.5263 78.3389 26.9319C78.2228 27.1119 78.167 27.3242 78.1797 27.5381C78.1925 27.7519 78.273 27.9561 78.4096 28.1211L80.3917 30.514L77.8631 33.0424L75.47 31.0604C75.3031 30.9222 75.096 30.8415 74.8795 30.8302C74.663 30.819 74.4487 30.8779 74.2684 30.9981C72.8705 31.9229 71.3126 32.5794 69.6744 32.9341C69.4649 32.9818 69.2758 33.0944 69.1341 33.2558C68.9923 33.4173 68.9051 33.6193 68.885 33.8332L68.5843 36.9536H64.9906L64.691 33.8344C64.6706 33.6211 64.5833 33.4198 64.4415 33.2592C64.2997 33.0986 64.1106 32.9871 63.9015 32.9406C62.2611 32.5747 60.7004 31.915 59.2948 30.9936C59.1149 30.8773 58.9027 30.8213 58.6889 30.8338C58.4751 30.8463 58.2708 30.9265 58.1057 31.0629L55.7127 33.0438L53.1843 30.515L55.1663 28.122C55.3046 27.955 55.3854 27.7479 55.3967 27.5313C55.4079 27.3148 55.349 27.1004 55.2288 26.92C54.3038 25.5221 53.6472 23.9643 53.2926 22.326C53.2473 22.1173 53.1368 21.9283 52.9772 21.7864C52.8175 21.6445 52.6168 21.557 52.4042 21.5366L49.2944 21.2362V17.6417L52.403 17.3422C52.6157 17.3218 52.8163 17.2343 52.976 17.0924C53.1357 16.9505 53.2461 16.7615 53.2914 16.5528C53.6564 14.9126 54.3152 13.3519 55.2358 11.9462C55.352 11.7662 55.4077 11.5539 55.395 11.3401C55.3823 11.1262 55.3018 10.922 55.1651 10.757L53.1831 8.36413L55.7115 5.83553L58.1046 7.81756C58.2715 7.95583 58.4786 8.03657 58.6951 8.04779C58.9116 8.05902 59.126 8.00014 59.3064 7.87988C60.7043 6.955 62.2621 6.29847 63.9003 5.94387C64.1065 5.90613 64.295 5.80253 64.4373 5.64862C64.5796 5.49471 64.6682 5.29879 64.6898 5.09025L64.9906 2.01609H68.5841L68.8838 5.08992C68.9048 5.3005 68.9928 5.49879 69.1349 5.6556C69.277 5.81241 69.4657 5.91946 69.6732 5.961C71.313 6.32276 72.8738 6.97857 74.2798 7.89668C74.4602 8.01221 74.6728 8.06721 74.8867 8.05371C75.1005 8.04021 75.3045 7.9589 75.469 7.82159L77.8574 5.84158L80.3458 8.36111L78.3604 10.7579C78.2222 10.9248 78.1414 11.1319 78.1302 11.3483C78.1189 11.5648 78.1777 11.7791 78.2979 11.9595C79.2228 13.3572 79.8795 14.9148 80.2343 16.5528C80.2796 16.7615 80.39 16.9505 80.5497 17.0923C80.7093 17.2342 80.9099 17.3217 81.1225 17.3422L84.2319 17.6424V21.2373Z" fill="#087BA8"/>
<path d="M66.7875 7.87061C64.4994 7.87061 62.2627 8.54911 60.3602 9.82031C58.4577 11.0915 56.9749 12.8983 56.0993 15.0122C55.2236 17.1262 54.9945 19.4523 55.4409 21.6964C55.8873 23.9406 56.9891 26.0019 58.6071 27.6199C60.225 29.2378 62.2864 30.3396 64.5305 30.786C66.7746 31.2324 69.1008 31.0033 71.2147 30.1277C73.3286 29.2521 75.1354 27.7692 76.4066 25.8668C77.6778 23.9643 78.3563 21.7276 78.3563 19.4395C78.3529 16.3723 77.1329 13.4317 74.9641 11.2629C72.7952 9.09404 69.8547 7.87407 66.7875 7.87061ZM66.7875 28.9927C64.898 28.9927 63.051 28.4324 61.48 27.3827C59.909 26.3329 58.6845 24.8409 57.9615 23.0953C57.2384 21.3497 57.0492 19.4289 57.4178 17.5757C57.7864 15.7226 58.6963 14.0203 60.0323 12.6843C61.3684 11.3483 63.0706 10.4384 64.9237 10.0698C66.7769 9.70118 68.6977 9.89037 70.4433 10.6134C72.189 11.3365 73.681 12.5609 74.7307 14.132C75.7804 15.703 76.3407 17.55 76.3407 19.4395C76.3377 21.9721 75.3302 24.4002 73.5393 26.191C71.7483 27.9818 69.3202 28.9892 66.7875 28.992V28.9927Z" fill="#087BA8"/>
<path d="M70.4353 15.9707L65.5113 20.7781L63.0914 18.4156C62.9969 18.3222 62.8848 18.2484 62.7617 18.1984C62.6386 18.1484 62.5068 18.1233 62.3739 18.1244C62.241 18.1256 62.1096 18.153 61.9874 18.2052C61.8651 18.2573 61.7544 18.3331 61.6616 18.4282C61.5687 18.5232 61.4956 18.6357 61.4464 18.7592C61.3973 18.8827 61.373 19.0146 61.375 19.1475C61.377 19.2804 61.4053 19.4115 61.4582 19.5334C61.5111 19.6553 61.5876 19.7656 61.6833 19.8578L64.8075 22.9078C64.9958 23.0916 65.2484 23.1945 65.5115 23.1945C65.7746 23.1945 66.0273 23.0916 66.2156 22.9078L71.8437 17.4129C71.9394 17.3206 72.0159 17.2104 72.0688 17.0885C72.1217 16.9666 72.15 16.8354 72.152 16.7025C72.154 16.5697 72.1297 16.4377 72.0805 16.3142C72.0313 16.1908 71.9582 16.0783 71.8654 15.9832C71.7725 15.8881 71.6618 15.8123 71.5396 15.7602C71.4173 15.7081 71.286 15.6806 71.1531 15.6795C71.0202 15.6783 70.8884 15.7034 70.7653 15.7534C70.6421 15.8034 70.5301 15.8772 70.4356 15.9707H70.4353Z" fill="#087BA8"/>
</g>
<defs>
<clipPath id="clip0_718_6285">
<rect width="86" height="86" fill="white"/>
</clipPath>
</defs>
</svg>
