<svg width="86" height="86" viewBox="0 0 86 86" fill="none" xmlns="http://www.w3.org/2000/svg">
<g clip-path="url(#clip0_718_6246)">
<path d="M29.9363 15.7589V12.4473H27.9207V15.7589C20.4274 16.0201 13.3283 19.1804 8.1197 24.5737C2.91111 29.9669 0 37.1718 0 44.6696C0 52.1674 2.91111 59.3723 8.1197 64.7656C13.3283 70.1589 20.4274 73.3192 27.9207 73.5803V76.7793H29.9363V73.5803C45.3894 73.0472 57.8586 60.2843 57.8586 44.6697C57.8586 29.0552 45.3894 16.2921 29.9363 15.7589ZM43.7757 57.4172C45.0486 53.6407 45.7289 49.6898 45.7925 45.7051H55.7571C55.5454 51.674 53.3371 57.3994 49.4857 61.9645C47.7849 60.2105 45.8659 58.6823 43.7757 57.4172ZM8.17694 61.8805C4.3858 57.3178 2.20438 51.6326 1.97033 45.7051H11.9347C11.9966 49.6718 12.6703 53.6053 13.9321 57.3665C11.8269 58.6165 9.8925 60.1338 8.17694 61.8805ZM13.9321 32.0072C12.7145 35.5557 12.0296 39.4902 11.9347 43.6895H1.97033C2.17398 37.7493 4.35877 32.048 8.17694 27.4929C9.89248 29.2397 11.8269 30.7571 13.9321 32.0072ZM29.9363 36.0684C34.1409 35.9193 38.2623 34.8549 42.0132 32.9494C43.1018 36.2165 43.6862 39.8262 43.7779 43.6895H29.9363V36.0684ZM29.9363 34.0512V18.0285C34.9753 20.7224 38.9945 25.2619 41.3414 31.0293C37.8116 32.8719 33.9153 33.9042 29.9363 34.0512ZM27.9207 34.0512C23.9406 33.9079 20.0407 32.8918 16.4966 31.075C18.842 25.2865 22.7136 20.7296 27.9207 18.0285V34.0512ZM27.9207 36.0682V43.6895H13.9502C14.0211 40.0546 14.6325 36.4506 15.7643 32.9957C19.5435 34.8952 23.6928 35.9441 27.9207 36.0687V36.0682ZM13.9502 45.7051H27.9207V53.2707C23.6906 53.4045 19.5411 54.4627 15.7636 56.3711C14.6321 52.9257 14.0209 49.3308 13.9502 45.7051ZM27.9207 55.2877V71.3109C22.7136 68.6098 18.8418 64.0528 16.4964 58.2638C20.0406 56.447 23.9406 55.431 27.9207 55.2877ZM29.9363 55.2877C33.9154 55.4347 37.8116 56.4672 41.3414 58.31C38.9938 64.077 34.9753 68.6165 29.9363 71.3107V55.2877ZM29.9363 53.2706V45.7051H43.7779C43.6862 49.5684 43.1018 53.1505 42.0143 56.4176C38.2648 54.5033 34.1431 53.4295 29.9363 53.2711V53.2706ZM45.7925 43.6895C45.6971 39.4902 45.0051 35.5132 43.7751 31.9498C45.8652 30.6897 47.7846 29.166 49.486 27.4163C53.3378 31.9866 55.546 37.7163 55.7578 43.6895H45.7925ZM48.1307 25.8979C46.6126 27.4765 44.9044 28.8607 43.0454 30.0186C41.0298 25.1783 37.9608 21.1499 34.0211 18.2531C39.393 19.3058 44.3156 21.9729 48.1313 25.8979H48.1307ZM23.7062 18.2531C19.7505 21.162 16.6738 25.2114 14.6582 30.0781C12.7829 28.9281 11.0589 27.548 9.52641 25.9699C13.3513 22.0063 18.3009 19.3126 23.7062 18.2531ZM9.52657 63.3695C11.0591 61.7914 12.783 60.4112 14.6582 59.2612C16.6738 64.1277 19.7505 68.1771 23.7063 71.0862C18.3011 70.0267 13.3515 67.3332 9.52657 63.3697V63.3695ZM34.0218 71.0862C37.9615 68.1889 41.0301 64.1608 43.0461 59.3205C44.9051 60.4785 46.6132 61.8627 48.1313 63.4414C44.3158 67.3663 39.3934 70.0334 34.0218 71.0863V71.0862Z" fill="#087BA8"/>
<rect x="28.2894" y="7.92114" width="38.4737" height="73.5526" fill="#F5F6F6"/>
<path d="M28.8077 10.923C28.8077 10.5418 28.8827 10.1644 29.0285 9.81216C29.1743 9.45998 29.3881 9.13997 29.6577 8.87043C29.9272 8.60089 30.2472 8.3871 30.5994 8.24127C30.9516 8.09544 31.3291 8.02042 31.7102 8.02051H26.6712C26.29 8.02051 25.9126 8.09558 25.5604 8.24145C25.2083 8.38731 24.8883 8.60111 24.6188 8.87063C24.3493 9.14015 24.1355 9.46012 23.9896 9.81227C23.8438 10.1644 23.7687 10.5418 23.7687 10.923C23.7687 11.3042 23.8438 11.6816 23.9896 12.0337C24.1355 12.3859 24.3493 12.7059 24.6188 12.9754C24.8883 13.2449 25.2083 13.4587 25.5604 13.6046C25.9126 13.7504 26.29 13.8255 26.6712 13.8255H28.712V41.7789H26.6712C25.9016 41.7789 25.1636 42.0846 24.6194 42.6287C24.0752 43.1729 23.7695 43.911 23.7695 44.6805C23.7695 45.4501 24.0752 46.1881 24.6194 46.7323C25.1636 47.2765 25.9016 47.5822 26.6712 47.5822H28.712V75.5356H26.6712C25.9014 75.5356 25.1631 75.8414 24.6188 76.3857C24.0745 76.93 23.7687 77.6683 23.7687 78.4381C23.7687 79.2078 24.0745 79.9461 24.6188 80.4904C25.1631 81.0348 25.9014 81.3406 26.6712 81.3406H31.7102C30.9404 81.3406 30.2022 81.0348 29.6579 80.4904C29.1135 79.9461 28.8077 79.2078 28.8077 78.4381C28.8077 77.6683 29.1135 76.93 29.6579 76.3857C30.2022 75.8414 30.9404 75.5356 31.7102 75.5356H33.7511V13.8255H31.7102C31.329 13.8257 30.9515 13.7507 30.5993 13.6049C30.2471 13.4591 29.927 13.2453 29.6575 12.9758C29.3879 12.7062 29.1741 12.3862 29.0283 12.034C28.8825 11.6817 28.8076 11.3042 28.8077 10.923Z" fill="#D4E1F4"/>
<path d="M68.4006 48.59C69.4375 48.59 70.4319 48.1781 71.165 47.4449C71.8982 46.7118 72.3101 45.7174 72.3101 44.6805C72.3101 43.6437 71.8982 42.6493 71.165 41.9161C70.4319 41.1829 69.4375 40.7711 68.4006 40.7711H67.3659V32.811H65.3503V40.7711H47.8242C47.5569 40.7711 47.3006 40.8772 47.1116 41.0662C46.9226 41.2552 46.8164 41.5116 46.8164 41.7789C46.8164 42.0462 46.9226 42.3025 47.1116 42.4915C47.3006 42.6805 47.5569 42.7867 47.8242 42.7867H68.4006C68.9029 42.7867 69.3846 42.9862 69.7398 43.3414C70.0949 43.6965 70.2945 44.1783 70.2945 44.6805C70.2945 45.1828 70.0949 45.6645 69.7398 46.0197C69.3846 46.3749 68.9029 46.5744 68.4006 46.5744H26.6712C26.1689 46.5738 25.6873 46.374 25.3321 46.0188C24.9769 45.6636 24.7771 45.182 24.7765 44.6797C24.7766 44.431 24.8257 44.1847 24.921 43.955C25.0162 43.7253 25.1558 43.5166 25.3318 43.3408C25.5077 43.165 25.7166 43.0256 25.9464 42.9305C26.1762 42.8354 26.4225 42.7866 26.6712 42.7867H54.4369C54.7042 42.7867 54.9605 42.6805 55.1495 42.4915C55.3385 42.3025 55.4447 42.0462 55.4447 41.7789C55.4447 41.5116 55.3385 41.2552 55.1495 41.0662C54.9605 40.8772 54.7042 40.7711 54.4369 40.7711H29.7198V14.8333H49.956V12.8177H26.6712C26.1687 12.8177 25.6868 12.6181 25.3314 12.2628C24.9761 11.9074 24.7765 11.4255 24.7765 10.923C24.7765 10.4205 24.9761 9.93858 25.3314 9.58326C25.6868 9.22794 26.1687 9.02832 26.6712 9.02832H52.3042V7.0127H26.6712C25.6341 7.0127 24.6395 7.42467 23.9062 8.158C23.1728 8.89133 22.7609 9.88593 22.7609 10.923C22.7609 11.9601 23.1728 12.9547 23.9062 13.688C24.6395 14.4213 25.6341 14.8333 26.6712 14.8333H27.7042V40.7711H26.6712C25.6343 40.7711 24.6399 41.1829 23.9068 41.9161C23.1736 42.6493 22.7617 43.6437 22.7617 44.6805C22.7617 45.7174 23.1736 46.7118 23.9068 47.4449C24.6399 48.1781 25.6343 48.59 26.6712 48.59H27.7042V74.5277H26.6712C25.6341 74.5277 24.6395 74.9397 23.9062 75.673C23.1728 76.4064 22.7609 77.401 22.7609 78.4381C22.7609 79.4751 23.1728 80.4697 23.9062 81.2031C24.6395 81.9364 25.6341 82.3484 26.6712 82.3484H68.4006C69.4377 82.3484 70.4323 81.9364 71.1656 81.2031C71.899 80.4697 72.3109 79.4751 72.3109 78.4381C72.3109 77.401 71.899 76.4064 71.1656 75.673C70.4323 74.9397 69.4377 74.5277 68.4006 74.5277H67.3659V48.59H68.4006ZM65.3503 74.5277H35.0674C34.8001 74.5277 34.5438 74.6339 34.3548 74.8229C34.1658 75.0119 34.0596 75.2683 34.0596 75.5356C34.0596 75.8028 34.1658 76.0592 34.3548 76.2482C34.5438 76.4372 34.8001 76.5434 35.0674 76.5434H68.4006C68.9031 76.5434 69.385 76.743 69.7404 77.0983C70.0957 77.4536 70.2953 77.9356 70.2953 78.4381C70.2953 78.9406 70.0957 79.4225 69.7404 79.7778C69.385 80.1331 68.9031 80.3327 68.4006 80.3327H26.6712C26.2963 80.3327 25.9299 80.2214 25.6183 80.0131C25.3067 79.8047 25.0638 79.5086 24.9205 79.1623C24.7772 78.8159 24.7398 78.4348 24.8131 78.0672C24.8864 77.6995 25.0671 77.3619 25.3323 77.097C25.5076 76.9205 25.7162 76.7806 25.9461 76.6854C26.1759 76.5902 26.4224 76.5417 26.6712 76.5427H30.9801C31.2474 76.5427 31.5037 76.4365 31.6927 76.2475C31.8817 76.0585 31.9879 75.8022 31.9879 75.5349C31.9879 75.2676 31.8817 75.0113 31.6927 74.8223C31.5037 74.6333 31.2474 74.5271 30.9801 74.5271H29.7203V48.59H65.3503V74.5277Z" fill="#00415D"/>
<path d="M35.8723 54.7461C36.1396 54.7461 36.3959 54.6399 36.5849 54.4509C36.7739 54.2619 36.8801 54.0056 36.8801 53.7383V52.759C36.8801 52.4917 36.7739 52.2354 36.5849 52.0464C36.3959 51.8574 36.1396 51.7512 35.8723 51.7512C35.605 51.7512 35.3487 51.8574 35.1597 52.0464C34.9707 52.2354 34.8645 52.4917 34.8645 52.759V53.7383C34.8645 54.0056 34.9707 54.2619 35.1597 54.4509C35.3487 54.6399 35.605 54.7461 35.8723 54.7461Z" fill="#00415D"/>
<path d="M35.8723 72.7926C36.1396 72.7926 36.3959 72.6865 36.5849 72.4975C36.7739 72.3085 36.8801 72.0521 36.8801 71.7848V56.9146C36.8801 56.6473 36.7739 56.3909 36.5849 56.2019C36.3959 56.0129 36.1396 55.9067 35.8723 55.9067C35.605 55.9067 35.3487 56.0129 35.1597 56.2019C34.9707 56.3909 34.8645 56.6473 34.8645 56.9146V71.7848C34.8645 72.0521 34.9707 72.3085 35.1597 72.4975C35.3487 72.6865 35.605 72.7926 35.8723 72.7926Z" fill="#00415D"/>
<path d="M66.469 5.6534C66.3801 5.5017 66.2531 5.37588 66.1006 5.28846C65.948 5.20103 65.7753 5.15503 65.5995 5.15503C65.4236 5.15503 65.2509 5.20103 65.0983 5.28846C64.9458 5.37588 64.8188 5.5017 64.7299 5.6534L58.5705 16.1682C57.5709 17.8776 57.2279 19.8924 57.6058 21.8362C57.9836 23.78 59.0563 25.5196 60.6235 26.7301C62.1906 27.9405 64.1449 28.5388 66.121 28.4132C68.0972 28.2876 69.96 27.4467 71.3613 26.0477C72.6345 24.7726 73.4496 23.1117 73.6791 21.3244C73.9086 19.5371 73.5397 17.7242 72.63 16.1688L66.469 5.6534ZM69.9361 24.6223C68.8823 25.6783 67.4796 26.3139 65.9909 26.4099C64.5021 26.5059 63.0294 26.0557 61.8487 25.1438C60.668 24.2319 59.8604 22.9207 59.577 21.456C59.2937 19.9913 59.5542 18.4736 60.3096 17.1871L65.5991 8.15664L70.8901 17.1868C71.5748 18.3575 71.8525 19.722 71.6798 21.0672C71.5071 22.4124 70.8938 23.6625 69.9356 24.6223H69.9361Z" fill="#00415D"/>
<path d="M69.696 19.1937C69.5663 19.1674 69.4327 19.1669 69.3028 19.1922C69.1729 19.2176 69.0492 19.2682 68.9389 19.3414C68.8286 19.4145 68.7338 19.5086 68.6598 19.6184C68.5859 19.7282 68.5343 19.8514 68.508 19.9811C68.3922 20.5542 68.1094 21.0802 67.6952 21.4929C67.3788 21.8116 66.9931 22.0531 66.5681 22.1983C66.3153 22.2852 66.1074 22.4689 65.9901 22.7091C65.8728 22.9493 65.8557 23.2262 65.9425 23.479C66.0294 23.7318 66.2131 23.9397 66.4533 24.057C66.6935 24.1744 66.9704 24.1915 67.2232 24.1046C68.0434 23.8211 68.7755 23.3286 69.3472 22.6758C69.919 22.023 70.3106 21.2323 70.4835 20.3819C70.5098 20.2522 70.5103 20.1185 70.485 19.9886C70.4597 19.8587 70.409 19.735 70.3359 19.6247C70.2628 19.5143 70.1686 19.4195 70.0588 19.3455C69.949 19.2716 69.8258 19.22 69.696 19.1937Z" fill="#00415D"/>
<path d="M65.5989 4.12313e-06C62.8194 -0.0019397 60.0825 0.683448 57.632 1.99514C55.1814 3.30684 53.0933 5.20414 51.5534 7.51812C49.7065 10.2899 48.7217 13.5466 48.7233 16.8773C48.7281 21.3517 50.5075 25.6416 53.6712 28.8056C56.8349 31.9697 61.1245 33.7497 65.5989 33.755C65.8584 33.755 66.1211 33.7486 66.402 33.7355C70.8035 33.5257 74.9483 31.6027 77.9509 28.3776C80.9535 25.1525 82.5757 20.8809 82.4708 16.4757C82.3659 12.0705 80.5424 7.88094 77.3897 4.80233C74.2371 1.72371 70.0054 0.000179428 65.5989 4.12313e-06ZM66.3076 31.7221C66.0585 31.7337 65.8267 31.7389 65.5989 31.7389C63.4063 31.7377 61.2411 31.2516 59.2584 30.3154C57.2758 29.3792 55.5247 28.0161 54.1307 26.3237C52.7367 24.6313 51.7342 22.6515 51.1952 20.5262C50.6562 18.4009 50.5939 16.1826 51.0129 14.0304C51.384 12.1027 52.1379 10.269 53.23 8.6378C54.6374 6.52522 56.5624 4.80832 58.8216 3.65077C61.0807 2.49322 63.5987 1.93361 66.1355 2.02528C68.6723 2.11695 71.1433 2.85685 73.313 4.17444C75.4827 5.49203 77.2788 7.3434 78.53 9.55205C79.7812 11.7607 80.4458 14.253 80.4606 16.7914C80.4753 19.3298 79.8396 21.8297 78.6141 24.0527C77.3886 26.2757 75.6141 28.1478 73.4599 29.4905C71.3056 30.8331 68.8433 31.6017 66.3077 31.7227L66.3076 31.7221Z" fill="#00415D"/>
<rect x="49.1265" y="41.1252" width="6.78947" height="11.3158" transform="rotate(45 49.1265 41.1252)" fill="#F5F6F6"/>
<path d="M44.1316 61.1052L58.1349 46.9604L63.0855 46.3947L63.9342 38.4736L67.8947 36.2104H81.8684C83.5253 36.2104 84.8684 37.5536 84.8684 39.2104V78.8683C84.8684 82.182 82.1821 84.8683 78.8684 84.8683H50.1316C46.8179 84.8683 44.1316 82.1821 44.1316 78.8683V61.1052Z" fill="#F5F6F6"/>
<path d="M80.4303 35.6448H67.5892C66.2031 35.6464 64.8743 36.1977 63.8942 37.1778C62.9141 38.1579 62.3628 39.4867 62.3612 40.8728V45.3512H60.8796C59.5223 45.3487 58.2177 45.8766 57.2441 46.8224L54.7867 49.2118L53.2053 47.5173L54.2092 46.5382C54.3048 46.4451 54.3808 46.3339 54.433 46.2111C54.4853 46.0884 54.5126 45.9565 54.5134 45.8231C54.5143 45.6897 54.4886 45.5574 54.438 45.434C54.3873 45.3106 54.3126 45.1984 54.2183 45.1041L49.9988 40.8839C49.8113 40.6965 49.5576 40.5904 49.2925 40.5888C49.0275 40.5871 48.7724 40.6899 48.5826 40.875L40.2504 48.9995C40.1549 49.0926 40.0788 49.2038 40.0266 49.3265C39.9744 49.4493 39.947 49.5812 39.9462 49.7146C39.9453 49.848 39.971 49.9803 40.0217 50.1037C40.0723 50.2271 40.147 50.3392 40.2413 50.4336L44.4615 54.6538C44.6489 54.8412 44.9027 54.9473 45.1677 54.949C45.4328 54.9507 45.6878 54.8479 45.8777 54.6629L46.4229 54.1311L47.9952 55.816L44.9325 58.7939C44.4293 59.2823 44.029 59.8666 43.7551 60.5122C43.4812 61.1577 43.3393 61.8516 43.3378 62.5529V76.4988C43.3406 79.0037 44.337 81.4053 46.1083 83.1765C47.8795 84.9478 50.2811 85.9441 52.786 85.947H76.2106C78.7155 85.9442 81.1171 84.9479 82.8884 83.1766C84.6597 81.4053 85.656 79.0037 85.6588 76.4988V40.8728C85.6572 39.4866 85.1058 38.1577 84.1256 37.1776C83.1454 36.1975 81.8165 35.6462 80.4303 35.6448ZM42.3881 49.73L49.2772 43.0127L52.072 45.8077L45.1831 52.5256L42.3881 49.73ZM47.8664 52.7237L51.7624 48.9247L53.3413 50.6172L49.4409 54.4104L47.8664 52.7237ZM83.6429 76.4988C83.6406 78.4693 82.8569 80.3584 81.4636 81.7518C80.0702 83.1452 78.1811 83.9291 76.2106 83.9314H52.786C50.8155 83.9291 48.9262 83.1454 47.5328 81.752C46.1394 80.3586 45.3556 78.4693 45.3534 76.4988V62.5534C45.3545 62.122 45.4419 61.6952 45.6105 61.2982C45.7792 60.9011 46.0256 60.5419 46.3354 60.2416L58.6475 48.27C59.2454 47.6895 60.0464 47.3656 60.8798 47.3673H63.3685C63.6358 47.3673 63.8921 47.2611 64.0811 47.0721C64.2701 46.8831 64.3763 46.6268 64.3763 46.3595V40.8728C64.3772 40.021 64.7161 39.2044 65.3184 38.6021C65.9208 37.9999 66.7374 37.6612 67.5892 37.6604H80.4303C81.282 37.6613 82.0985 38.0001 82.7008 38.6023C83.303 39.2046 83.6418 40.0211 83.6427 40.8728L83.6429 76.4988Z" fill="#087BA8"/>
<path d="M75.8337 61.6818C75.7164 61.4776 75.5228 61.3283 75.2955 61.2669C75.0682 61.2055 74.8257 61.2368 74.6215 61.3541L72.1155 62.7939L72.3126 61.0809C72.3329 60.8504 72.2625 60.6211 72.1162 60.4418C71.97 60.2625 71.7595 60.1473 71.5297 60.1209C71.2998 60.0944 71.0687 60.1587 70.8855 60.3001C70.7024 60.4415 70.5816 60.6488 70.549 60.8779L70.2019 63.8937L65.6687 66.4984V60.9784L68.1078 59.201C68.2982 59.0623 68.4256 58.8537 68.4622 58.621C68.4987 58.3884 68.4413 58.1507 68.3026 57.9604C68.164 57.77 67.9553 57.6425 67.7227 57.606C67.49 57.5695 67.2523 57.6268 67.062 57.7655L65.6687 58.7809V56.0549C65.6687 55.8194 65.5751 55.5936 65.4086 55.4271C65.2421 55.2605 65.0162 55.167 64.7807 55.167C64.5452 55.167 64.3194 55.2605 64.1529 55.4271C63.9864 55.5936 63.8928 55.8194 63.8928 56.0549V58.7853L62.4869 57.7642C62.3926 57.6942 62.2854 57.6436 62.1714 57.6154C62.0575 57.5871 61.9391 57.5817 61.823 57.5995C61.7069 57.6173 61.5956 57.658 61.4953 57.7191C61.3951 57.7803 61.308 57.8607 61.239 57.9557C61.1701 58.0508 61.1206 58.1585 61.0936 58.2728C61.0666 58.387 61.0625 58.5055 61.0815 58.6214C61.1006 58.7372 61.1425 58.8482 61.2047 58.9477C61.2669 59.0473 61.3483 59.1335 61.444 59.2015L63.8935 60.979V66.6102L59.594 63.9294L59.3339 60.8903C59.3138 60.6557 59.2013 60.4386 59.0212 60.2869C58.8411 60.1351 58.6081 60.0612 58.3734 60.0813C58.1388 60.1013 57.9217 60.2138 57.77 60.3939C57.6182 60.574 57.5443 60.8071 57.5644 61.0417L57.711 62.7553L54.9069 61.0068C54.808 60.9451 54.6978 60.9035 54.5828 60.8843C54.4678 60.8652 54.3501 60.8689 54.2365 60.8952C54.1229 60.9216 54.0156 60.97 53.9207 61.0378C53.8259 61.1056 53.7453 61.1915 53.6836 61.2904C53.6219 61.3894 53.5803 61.4995 53.5611 61.6145C53.542 61.7295 53.5457 61.8472 53.572 61.9608C53.5984 62.0744 53.6468 62.1817 53.7146 62.2766C53.7824 62.3715 53.8682 62.452 53.9672 62.5137L56.8348 64.3018L55.2162 64.9957C55.109 65.0416 55.012 65.1082 54.9305 65.1917C54.8491 65.2752 54.7849 65.3739 54.7416 65.4821C54.6984 65.5904 54.6768 65.7061 54.6783 65.8227C54.6797 65.9393 54.7041 66.0545 54.7501 66.1617C54.796 66.2688 54.8626 66.3659 54.9461 66.4473C55.0295 66.5288 55.1282 66.593 55.2365 66.6362C55.3448 66.6795 55.4605 66.7011 55.5771 66.6996C55.6937 66.6982 55.8089 66.6738 55.9161 66.6278L58.671 65.4466L62.9044 68.0861L58.3827 70.6838L55.6554 69.4123C55.5496 69.362 55.4349 69.3331 55.3179 69.3274C55.2009 69.3217 55.0839 69.3391 54.9737 69.3788C54.8634 69.4185 54.7622 69.4796 54.6756 69.5586C54.5891 69.6376 54.5191 69.7329 54.4696 69.8391C54.4201 69.9453 54.3921 70.0602 54.3872 70.1773C54.3824 70.2943 54.4007 70.4112 54.4412 70.5211C54.4817 70.631 54.5435 70.7319 54.6231 70.8178C54.7028 70.9037 54.7986 70.9731 54.9051 71.0218L56.5 71.7654L53.7656 73.3357C53.6645 73.3938 53.5759 73.4713 53.5047 73.5636C53.4335 73.656 53.3812 73.7615 53.3508 73.8741C53.3204 73.9866 53.3124 74.1041 53.3274 74.2197C53.3424 74.3354 53.38 74.4469 53.4381 74.5481C53.4962 74.6492 53.5737 74.7378 53.666 74.809C53.7584 74.8802 53.8639 74.9325 53.9765 74.9629C54.089 74.9933 54.2065 75.0012 54.3221 74.9863C54.4378 74.9713 54.5493 74.9337 54.6505 74.8756L57.3438 73.3283L57.1436 75.0391C57.1296 75.1551 57.1387 75.2727 57.1703 75.3852C57.2018 75.4976 57.2553 75.6028 57.3275 75.6946C57.3998 75.7864 57.4895 75.863 57.5914 75.9201C57.6934 75.9771 57.8056 76.0135 57.9216 76.0272C58.0376 76.0408 58.1552 76.0314 58.2676 75.9995C58.38 75.9676 58.485 75.9139 58.5765 75.8413C58.6681 75.7688 58.7445 75.6789 58.8012 75.5768C58.858 75.4746 58.8941 75.3623 58.9074 75.2463L59.2607 72.2273L63.8928 69.5665V75.0124L61.4433 76.7899C61.3475 76.8579 61.2662 76.9441 61.2039 77.0437C61.1417 77.1432 61.0999 77.2542 61.0808 77.37C61.0617 77.4859 61.0658 77.6044 61.0929 77.7186C61.1199 77.8329 61.1693 77.9407 61.2383 78.0357C61.3072 78.1307 61.3944 78.2111 61.4946 78.2723C61.5948 78.3334 61.7062 78.3741 61.8223 78.3919C61.9383 78.4097 62.0567 78.4043 62.1707 78.376C62.2847 78.3478 62.3919 78.2972 62.4862 78.2272L63.8921 77.2061V80.1873C63.8921 80.4228 63.9856 80.6487 64.1521 80.8152C64.3187 80.9817 64.5445 81.0753 64.78 81.0753C65.0155 81.0753 65.2413 80.9817 65.4079 80.8152C65.5744 80.6487 65.6679 80.4228 65.6679 80.1873V77.2108L67.0612 78.2262C67.2516 78.3649 67.4893 78.4222 67.7219 78.3857C67.9546 78.3492 68.1632 78.2217 68.3019 78.0313C68.4406 77.841 68.498 77.6033 68.4614 77.3707C68.4249 77.138 68.2974 76.9294 68.1071 76.7907L65.6679 75.0132V69.8105L70.1014 72.5749L70.3704 75.6013C70.39 75.8221 70.4916 76.0276 70.655 76.1774C70.8185 76.3272 71.0321 76.4104 71.2538 76.4106C71.2801 76.4106 71.3067 76.4095 71.3334 76.4071C71.4495 76.3968 71.5625 76.3637 71.6659 76.3097C71.7693 76.2557 71.861 76.1819 71.9359 76.0925C72.0107 76.003 72.0672 75.8997 72.1021 75.7885C72.137 75.6772 72.1497 75.5601 72.1393 75.444L71.989 73.7517L74.3788 75.2418C74.4778 75.3035 74.5879 75.3451 74.703 75.3643C74.818 75.3834 74.9357 75.3797 75.0492 75.3533C75.1628 75.327 75.2701 75.2785 75.365 75.2107C75.4599 75.1429 75.5404 75.0571 75.6021 74.9581C75.6638 74.8592 75.7054 74.7491 75.7246 74.634C75.7437 74.519 75.74 74.4013 75.7136 74.2877C75.6873 74.1742 75.6388 74.0669 75.571 73.972C75.5032 73.8771 75.4174 73.7966 75.3184 73.7349L72.8552 72.199L74.4901 71.4919C74.7048 71.3975 74.8734 71.222 74.9591 71.0037C75.0448 70.7853 75.0407 70.542 74.9476 70.3267C74.8545 70.1115 74.68 69.9418 74.4623 69.8547C74.2445 69.7676 74.0011 69.7702 73.7853 69.862L71.0226 71.0566L66.3595 68.1489L71.0704 65.4424L73.8032 66.7098C73.909 66.7589 74.0234 66.7866 74.1399 66.7915C74.2564 66.7963 74.3727 66.7782 74.4822 66.7381C74.5917 66.6979 74.6922 66.6367 74.7781 66.5577C74.8639 66.4787 74.9333 66.3836 74.9823 66.2778C75.0314 66.1721 75.0592 66.0576 75.064 65.9411C75.0688 65.8246 75.0507 65.7083 75.0106 65.5988C74.9705 65.4893 74.9092 65.3888 74.8302 65.303C74.7512 65.2172 74.6562 65.1477 74.5504 65.0987L72.9558 64.3587L75.5064 62.8936C75.7104 62.7763 75.8595 62.5827 75.9209 62.3555C75.9823 62.1282 75.9509 61.8859 75.8337 61.6818Z" fill="#087BA8"/>
<path d="M78.4738 40.709H71.809C70.9824 40.71 70.1899 41.0388 69.6054 41.6233C69.0209 42.2078 68.6921 43.0004 68.6912 43.827V48.2975C68.6912 48.5648 68.7973 48.8211 68.9863 49.0101C69.1753 49.1991 69.4317 49.3053 69.699 49.3053H71.8931C73.905 49.303 75.8339 48.5028 77.2565 47.0802C78.6791 45.6575 79.4794 43.7287 79.4816 41.7168C79.4816 41.4495 79.3755 41.1932 79.1865 41.0042C78.9974 40.8152 78.7411 40.709 78.4738 40.709ZM71.8931 47.2897H70.7075V43.827C70.7078 43.5348 70.8241 43.2546 71.0307 43.0479C71.2373 42.8413 71.5174 42.725 71.8097 42.7246H77.3748C77.1375 44.0056 76.4595 45.1633 75.4584 45.997C74.4572 46.8308 73.196 47.2881 71.8931 47.2897Z" fill="#087BA8"/>
</g>
<defs>
<clipPath id="clip0_718_6246">
<rect width="86" height="86" fill="white"/>
</clipPath>
</defs>
</svg>
