<svg width="64" height="64" viewBox="0 0 64 64" fill="none" xmlns="http://www.w3.org/2000/svg">
<g clip-path="url(#clip0_722_6577)">
<path d="M63.75 50.3375L56.75 42.3375C56.5625 42.125 56.2875 42 56 42H50V39C50 38.45 49.55 38 49 38H23C22.45 38 22 38.45 22 39V43H17C16.45 43 16 43.45 16 44V50H5C4.45 50 4 50.45 4 51V63C4 63.55 4.45 64 5 64H17C17.55 64 18 63.55 18 63V56H22V59C22 59.55 22.45 60 23 60H28.1C28.5625 62.275 30.5875 64 33 64C35.4125 64 37.4375 62.275 37.9 60H51.1C51.5625 62.275 53.5875 64 56 64C58.4125 64 60.4375 62.275 60.9 60H63C63.55 60 64 59.55 64 59V51C64 50.7625 63.9125 50.525 63.75 50.3375ZM10 52H12V54H10V52ZM16 62H6V52H8V55C8 55.55 8.45 56 9 56H13C13.55 56 14 55.55 14 55V52H16V62ZM22 54H18V45H22V54ZM33 62C31.35 62 30 60.65 30 59C30 57.35 31.35 56 33 56C34.65 56 36 57.35 36 59C36 60.65 34.65 62 33 62ZM48 58H37.9C37.4375 55.725 35.4125 54 33 54C30.5875 54 28.5625 55.725 28.1 58H24V40H48V58ZM54 44H55.55L60.8 50H54V44ZM56 62C54.35 62 53 60.65 53 59C53 57.35 54.35 56 56 56C57.65 56 59 57.35 59 59C59 60.65 57.65 62 56 62ZM62 58H60.9C60.4375 55.725 58.4125 54 56 54C53.5875 54 51.5625 55.725 51.1 58H50V44H52V51C52 51.55 52.45 52 53 52H62V58Z" fill="white"/>
<path d="M33 60C33.5523 60 34 59.5523 34 59C34 58.4477 33.5523 58 33 58C32.4477 58 32 58.4477 32 59C32 59.5523 32.4477 60 33 60Z" fill="white"/>
<path d="M56 60C56.5523 60 57 59.5523 57 59C57 58.4477 56.5523 58 56 58C55.4477 58 55 58.4477 55 59C55 59.5523 55.4477 60 56 60Z" fill="white"/>
<path d="M40 43H28C27.45 43 27 43.45 27 44C27 44.55 27.45 45 28 45H40C40.55 45 41 44.55 41 44C41 43.45 40.55 43 40 43Z" fill="white"/>
<path d="M44 48C44 47.45 43.55 47 43 47H32C31.45 47 31 47.45 31 48C31 48.55 31.45 49 32 49H43C43.55 49 44 48.55 44 48Z" fill="white"/>
<path d="M45 51H38C37.45 51 37 51.45 37 52C37 52.55 37.45 53 38 53H45C45.55 53 46 52.55 46 52C46 51.45 45.55 51 45 51Z" fill="white"/>
<path d="M6.45 17.8375C6.6125 17.95 6.8125 18 7 18C7.1875 18 7.3875 17.95 7.55 17.8375C7.8125 17.6625 14 13.4625 14 7C14 3.1375 10.8625 0 7 0C3.1375 0 0 3.1375 0 7C0 13.4625 6.1875 17.65 6.45 17.8375ZM7 2C9.7625 2 12 4.2375 12 7C12 11.35 8.4125 14.6375 7 15.75C5.5875 14.625 2 11.35 2 7C2 4.2375 4.2375 2 7 2Z" fill="white"/>
<path d="M10 7C10 5.35 8.65 4 7 4C5.35 4 4 5.35 4 7C4 8.65 5.35 10 7 10C8.65 10 10 8.65 10 7ZM6 7C6 6.45 6.45 6 7 6C7.55 6 8 6.45 8 7C8 7.55 7.55 8 7 8C6.45 8 6 7.55 6 7Z" fill="white"/>
<path d="M24.775 8.2124C24.775 7.5874 24.275 7.0874 23.65 7.0874C23.025 7.0874 22.525 7.5874 22.525 8.2124C22.525 8.8374 23.025 9.3374 23.65 9.3374C24.275 9.3374 24.775 8.8374 24.775 8.2124Z" fill="white"/>
<path d="M20.775 8.2124C20.775 7.5874 20.275 7.0874 19.65 7.0874C19.025 7.0874 18.525 7.5874 18.525 8.2124C18.525 8.8374 19.025 9.3374 19.65 9.3374C20.275 9.3374 20.775 8.8374 20.775 8.2124Z" fill="white"/>
<path d="M28.8375 8.2124C28.8375 7.5874 28.3375 7.0874 27.7125 7.0874C27.0875 7.0874 26.5875 7.5874 26.5875 8.2124C26.5875 8.8374 27.0875 9.3374 27.7125 9.3374C28.3375 9.3374 28.8375 8.8374 28.8375 8.2124Z" fill="white"/>
<path d="M32.9 8.2124C32.9 7.5874 32.4 7.0874 31.775 7.0874C31.15 7.0874 30.65 7.5874 30.65 8.2124C30.65 8.8374 31.15 9.3374 31.775 9.3374C32.4 9.3374 32.9 8.8374 32.9 8.2124Z" fill="white"/>
<path d="M36.9625 8.2124C36.9625 7.5874 36.4625 7.0874 35.8375 7.0874C35.2125 7.0874 34.7125 7.5874 34.7125 8.2124C34.7125 8.8374 35.2125 9.3374 35.8375 9.3374C36.4625 9.3374 36.9625 8.8374 36.9625 8.2124Z" fill="white"/>
<path d="M41.025 8.2124C41.025 7.5874 40.525 7.0874 39.9 7.0874C39.275 7.0874 38.775 7.5874 38.775 8.2124C38.775 8.8374 39.275 9.3374 39.9 9.3374C40.525 9.3374 41.025 8.8374 41.025 8.2124Z" fill="white"/>
<path d="M45.0875 8.2124C45.0875 7.5874 44.5875 7.0874 43.9625 7.0874C43.3375 7.0874 42.8375 7.5874 42.8375 8.2124C42.8375 8.8374 43.3375 9.3374 43.9625 9.3374C44.5875 9.3374 45.0875 8.8374 45.0875 8.2124Z" fill="white"/>
<path d="M49.15 8.2124C49.15 7.5874 48.65 7.0874 48.025 7.0874C47.4 7.0874 46.9 7.5874 46.9 8.2124C46.9 8.8374 47.4 9.3374 48.025 9.3374C48.65 9.3374 49.15 8.8374 49.15 8.2124Z" fill="white"/>
<path d="M53.0375 9.3499C53.15 9.0749 53.1625 8.7749 53.05 8.4874C52.9375 8.1999 52.725 7.9874 52.45 7.8749L52.4375 7.8624C52.3125 7.7999 52.1625 7.7749 52.025 7.7749H52C51.375 7.7874 50.875 8.2874 50.8875 8.9124C50.8875 9.3624 51.1625 9.7624 51.575 9.9374C51.7125 9.9999 51.8625 10.0249 52.0125 10.0249C52.4625 10.0374 52.8625 9.7624 53.0375 9.3499Z" fill="white"/>
<path d="M56.025 12.0875C56.4875 11.675 56.525 10.9625 56.125 10.5L56.075 10.4625C55.8625 10.25 55.575 10.125 55.275 10.125C55 10.125 54.7375 10.225 54.5375 10.4C54.075 10.8125 54.0375 11.5375 54.45 12C54.6625 12.2375 54.975 12.375 55.2875 12.375C55.55 12.375 55.8125 12.275 56.025 12.0875Z" fill="white"/>
<path d="M56.1125 15.0876C56.25 15.5751 56.6875 15.9126 57.2 15.9126C57.3 15.9126 57.4 15.9001 57.5 15.8751C57.7875 15.8001 58.025 15.6001 58.175 15.3376C58.325 15.0751 58.3625 14.7751 58.275 14.4876C58.1375 14.0126 57.7 13.6751 57.1875 13.6626C57.0875 13.6626 56.9875 13.6751 56.8875 13.7001C56.3 13.8751 55.9625 14.4876 56.1125 15.0876Z" fill="white"/>
<path d="M57.6 17.6998C57.5375 17.6873 57.4625 17.6748 57.4 17.6748H57.375C56.7625 17.6748 56.25 18.1748 56.2375 18.7873C56.225 19.0873 56.3375 19.3748 56.55 19.5998C56.7625 19.8248 57.05 19.9498 57.35 19.9498H57.375C57.9875 19.9498 58.5 19.4498 58.5125 18.8373C58.525 18.2873 58.1375 17.8123 57.6 17.6998Z" fill="white"/>
<path d="M56.475 21.5875C56.275 21.45 56.05 21.375 55.8125 21.375C55.4625 21.375 55.1125 21.55 54.9 21.8375C54.725 22.075 54.65 22.375 54.7 22.675C54.75 22.975 54.9125 23.2375 55.15 23.4125C55.3375 23.55 55.575 23.625 55.8125 23.625C56.175 23.625 56.5125 23.45 56.725 23.1625C57.0875 22.6625 56.975 21.9625 56.475 21.5875Z" fill="white"/>
<path d="M52.8125 24.0122C52.6375 24.0122 52.4625 24.0497 52.3125 24.1372C52.3 24.1497 52.275 24.1497 52.2625 24.1622C51.7 24.4122 51.45 25.0747 51.7 25.6372C51.875 26.0497 52.2875 26.3122 52.725 26.3122C52.8875 26.3122 53.0375 26.2747 53.175 26.2122C53.2125 26.1997 53.25 26.1747 53.2875 26.1497L53.3125 26.1372C53.8625 25.8622 54.0875 25.1747 53.8125 24.6247C53.625 24.2497 53.2375 24.0122 52.8125 24.0122Z" fill="white"/>
<path d="M48.9 25.0747H48.8625C48.55 25.0747 48.275 25.1997 48.0625 25.4247C47.85 25.6497 47.7375 25.9372 47.7375 26.2372C47.75 26.8622 48.2625 27.3622 48.8875 27.3622H48.9125C49.225 27.3622 49.5 27.2372 49.7125 27.0122C49.925 26.7872 50.0375 26.4997 50.0375 26.1997C50.0125 25.5872 49.5125 25.0872 48.9 25.0747Z" fill="white"/>
<path d="M32.6375 25.0874C32.4 25.0874 32.175 25.1624 31.9875 25.2874C31.675 25.4874 31.4625 25.8374 31.4625 26.2374C31.4625 26.8624 31.9625 27.3624 32.5875 27.3624C32.825 27.3624 33.05 27.2874 33.2375 27.1624C33.55 26.9624 33.7625 26.6124 33.7625 26.2124C33.7625 25.5999 33.2625 25.0874 32.6375 25.0874Z" fill="white"/>
<path d="M36.7125 25.0874C36.0875 25.0874 35.5875 25.5874 35.5875 26.2124C35.5875 26.8374 36.0875 27.3374 36.7125 27.3374C37.3375 27.3374 37.8375 26.8374 37.8375 26.2124C37.8375 25.5874 37.325 25.0874 36.7125 25.0874Z" fill="white"/>
<path d="M40.7625 25.0874C40.1375 25.0874 39.6375 25.5874 39.6375 26.2124C39.6375 26.8374 40.1375 27.3374 40.7625 27.3374C41.3875 27.3374 41.8875 26.8374 41.8875 26.2124C41.8875 25.5874 41.3875 25.0874 40.7625 25.0874Z" fill="white"/>
<path d="M44.825 25.0874C44.2 25.0874 43.7 25.5874 43.7 26.2124C43.7 26.8374 44.2 27.3374 44.825 27.3374C45.45 27.3374 45.95 26.8374 45.95 26.2124C45.95 25.5874 45.45 25.0874 44.825 25.0874Z" fill="white"/>
<path d="M9.60002 42.525C9.46252 42.4625 9.31252 42.4375 9.16252 42.4375C8.71252 42.4375 8.31252 42.7 8.13752 43.1125C7.90002 43.675 8.16252 44.3375 8.72502 44.5875L8.73752 44.6C8.86252 44.6625 9.01252 44.6875 9.15002 44.6875H9.17502C9.80002 44.675 10.3 44.175 10.2875 43.55C10.275 43.1 10 42.7 9.60002 42.525Z" fill="white"/>
<path d="M5.88752 40.0874C5.61252 40.0874 5.35002 40.1874 5.13752 40.3749C4.67502 40.7874 4.63752 41.4999 5.03752 41.9624L5.08752 41.9999C5.30002 42.2124 5.58752 42.3374 5.88752 42.3374C6.16252 42.3374 6.42502 42.2374 6.62502 42.0624C7.08752 41.6499 7.12502 40.9374 6.71252 40.4624C6.51252 40.2249 6.21252 40.0874 5.88752 40.0874Z" fill="white"/>
<path d="M5.05002 37.3748C4.91252 36.8873 4.47502 36.5498 3.96252 36.5498C3.86252 36.5498 3.76252 36.5623 3.66252 36.5873C3.06252 36.7498 2.71252 37.3748 2.88752 37.9748C3.02502 38.4498 3.46252 38.7873 3.96252 38.7998C4.06252 38.7998 4.16252 38.7873 4.26252 38.7623C4.86252 38.5998 5.20002 37.9873 5.05002 37.3748Z" fill="white"/>
<path d="M3.56251 34.7622C3.62501 34.7747 3.70001 34.7872 3.76251 34.7872H3.78751C4.40001 34.7872 4.91251 34.2872 4.92501 33.6747C4.93751 33.3747 4.82501 33.0872 4.61251 32.8622C4.40001 32.6372 4.11251 32.5122 3.81251 32.5122H3.78751C3.17501 32.5122 2.66251 33.0122 2.65001 33.6247C2.63751 34.1747 3.02501 34.6497 3.56251 34.7622Z" fill="white"/>
<path d="M4.6875 30.8749C4.8875 31.0124 5.1125 31.0874 5.35 31.0874C5.7 31.0874 6.05 30.9124 6.2625 30.6249C6.4375 30.3874 6.51251 30.0874 6.46251 29.7874C6.41251 29.4874 6.25 29.2249 6.0125 29.0499C5.825 28.9124 5.5875 28.8374 5.35 28.8374C4.9875 28.8374 4.65 29.0124 4.4375 29.2999C4.075 29.7999 4.1875 30.4999 4.6875 30.8749Z" fill="white"/>
<path d="M8.35001 28.4499C8.52501 28.4499 8.70001 28.4124 8.85001 28.3249C8.86251 28.3124 8.88751 28.3124 8.90001 28.2999C9.46251 28.0499 9.71251 27.3874 9.46251 26.8249C9.28751 26.4124 8.87501 26.1499 8.43751 26.1499C8.27501 26.1499 8.12501 26.1874 7.98751 26.2499C7.95001 26.2624 7.91251 26.2874 7.87501 26.3124L7.85001 26.3249C7.58751 26.4624 7.38751 26.6874 7.28751 26.9749C7.18751 27.2624 7.21251 27.5624 7.35001 27.8374C7.53751 28.2124 7.92501 28.4499 8.35001 28.4499Z" fill="white"/>
<path d="M12.2875 25.0874H12.2625C11.625 25.0999 11.125 25.6249 11.1375 26.2624C11.15 26.8749 11.6375 27.3749 12.2625 27.3874H12.3C12.9375 27.3749 13.4375 26.8499 13.425 26.2124C13.425 25.5999 12.9 25.0874 12.2875 25.0874Z" fill="white"/>
<path d="M28.525 25.125C27.9 25.125 27.4 25.625 27.4 26.25C27.4 26.875 27.9 27.375 28.525 27.375C29.15 27.375 29.65 26.875 29.65 26.25C29.65 25.625 29.15 25.125 28.525 25.125Z" fill="white"/>
<path d="M24.45 25.125C23.825 25.125 23.325 25.625 23.325 26.25C23.325 26.875 23.825 27.375 24.45 27.375C25.075 27.375 25.575 26.875 25.575 26.25C25.575 25.625 25.075 25.125 24.45 25.125Z" fill="white"/>
<path d="M20.4 25.125C19.775 25.125 19.275 25.625 19.275 26.25C19.275 26.875 19.775 27.375 20.4 27.375C21.025 27.375 21.525 26.875 21.525 26.25C21.525 25.625 21.0125 25.125 20.4 25.125Z" fill="white"/>
<path d="M16.3375 25.125C15.7125 25.125 15.2125 25.625 15.2125 26.25C15.2125 26.875 15.7125 27.375 16.3375 27.375C16.9625 27.375 17.4625 26.875 17.4625 26.25C17.4625 25.625 16.95 25.125 16.3375 25.125Z" fill="white"/>
<path d="M45.625 18.125C47.2875 18.125 48.625 16.7875 48.625 15.125C48.625 13.4625 47.2875 12.125 45.625 12.125C43.9625 12.125 42.625 13.4625 42.625 15.125C42.625 16.7875 43.9625 18.125 45.625 18.125ZM45.625 14.125C46.175 14.125 46.625 14.575 46.625 15.125C46.625 15.675 46.175 16.125 45.625 16.125C45.075 16.125 44.625 15.675 44.625 15.125C44.625 14.575 45.075 14.125 45.625 14.125Z" fill="white"/>
<path d="M13 36.875C13 38.5375 14.3375 39.875 16 39.875C17.6625 39.875 19 38.5375 19 36.875C19 35.2125 17.6625 33.875 16 33.875C14.3375 33.875 13 35.2125 13 36.875ZM17 36.875C17 37.425 16.55 37.875 16 37.875C15.45 37.875 15 37.425 15 36.875C15 36.325 15.45 35.875 16 35.875C16.55 35.875 17 36.325 17 36.875Z" fill="white"/>
<path d="M41.9125 32.8752L43.2125 31.5877C43.6 31.2002 43.6 30.5627 43.2125 30.1627C42.825 29.7752 42.1875 29.7752 41.7875 30.1627L40.5 31.4627L39.2125 30.1627C38.825 29.7752 38.1875 29.7752 37.7875 30.1627C37.4 30.5502 37.4 31.1877 37.7875 31.5877L39.0875 32.8752L37.7875 34.1627C37.4 34.5502 37.3875 35.1877 37.7875 35.5752C38.175 35.9627 38.8125 35.9752 39.2 35.5752L40.4875 34.2752L41.775 35.5752C42.1625 35.9627 42.8 35.9752 43.1875 35.5752C43.575 35.1877 43.5875 34.5502 43.1875 34.1627L41.9125 32.8752Z" fill="white"/>
<path d="M58.2875 5.71252C58.675 6.10002 59.3125 6.11252 59.7 5.71252L61 4.41252L62.2875 5.71252C62.675 6.10002 63.3125 6.11252 63.7 5.71252C64.0875 5.32502 64.1 4.68752 63.7 4.30002L62.4 3.00002L63.7 1.71252C64.0875 1.32502 64.0875 0.687519 63.7 0.287519C63.3125 -0.112481 62.675 -0.0999814 62.275 0.287519L61 1.60002L59.7 0.300019C59.3125 -0.0874814 58.675 -0.0874814 58.275 0.300019C57.875 0.687519 57.8875 1.32502 58.275 1.72502L59.5875 3.00002L58.2875 4.28752C57.8875 4.68752 57.8875 5.31252 58.2875 5.71252C58.275 5.71252 58.2875 5.71252 58.2875 5.71252Z" fill="white"/>
<path d="M20.9125 21.7127C21.3 22.1002 21.9375 22.1127 22.325 21.7127L23.6125 20.4127L24.9 21.7127C25.2875 22.1002 25.925 22.1127 26.3125 21.7127C26.7 21.3252 26.7125 20.6877 26.3125 20.3002L25.0375 19.0002L26.3375 17.7127C26.725 17.3252 26.725 16.6877 26.3375 16.2877C25.95 15.9002 25.3125 15.9002 24.9125 16.2877L23.625 17.5877L22.3375 16.2877C21.95 15.9002 21.3125 15.9002 20.9125 16.2877C20.525 16.6752 20.525 17.3127 20.9125 17.7127L22.2125 19.0002L20.9125 20.2877C20.525 20.6752 20.525 21.3127 20.9125 21.7127C20.9125 21.7002 20.9125 21.7127 20.9125 21.7127Z" fill="white"/>
<path d="M59.875 40.5C61.5375 40.5 62.875 39.1625 62.875 37.5C62.875 35.8375 61.5375 34.5 59.875 34.5C58.2125 34.5 56.875 35.8375 56.875 37.5C56.875 39.1625 58.2125 40.5 59.875 40.5ZM59.875 36.5C60.425 36.5 60.875 36.95 60.875 37.5C60.875 38.05 60.425 38.5 59.875 38.5C59.325 38.5 58.875 38.05 58.875 37.5C58.875 36.95 59.325 36.5 59.875 36.5Z" fill="white"/>
</g>
<defs>
<clipPath id="clip0_722_6577">
<rect width="64" height="64" fill="white"/>
</clipPath>
</defs>
</svg>
