<svg width="42" height="42" viewBox="0 0 42 42" fill="none" xmlns="http://www.w3.org/2000/svg">
<g clip-path="url(#clip0_643_2351)">
<path d="M41.1797 40.359H37.5703V39.2695C37.5703 38.8164 37.2031 38.4492 36.75 38.4492C36.2969 38.4492 35.9297 38.8164 35.9297 39.2695V40.359H21.8203V39.2695C21.8203 38.8164 21.4531 38.4492 21 38.4492C20.5469 38.4492 20.1797 38.8164 20.1797 39.2695V40.359H6.07031V39.2695C6.07031 38.8164 5.70309 38.4492 5.25 38.4492C4.79691 38.4492 4.42969 38.8164 4.42969 39.2695V40.359H0.820312C0.367218 40.359 0 40.7262 0 41.1793C0 41.6324 0.367218 41.9996 0.820312 41.9996H41.1797C41.6328 41.9996 42 41.6324 42 41.1793C42 40.7262 41.6328 40.359 41.1797 40.359Z" fill="#087BA8"/>
<path d="M41.1797 35.1091H29.4822C31.7019 34.2113 33.7754 32.9564 35.6323 31.3735V32.0493C35.6323 32.5024 35.9995 32.8696 36.4526 32.8696C36.9057 32.8696 37.2729 32.5024 37.2729 32.0493V29.4736C37.2729 29.0205 36.9057 28.6533 36.4526 28.6533H33.877C33.4239 28.6533 33.0567 29.0205 33.0567 29.4736C33.0567 29.9267 33.4239 30.2939 33.877 30.2939H34.3672C30.6159 33.4115 25.9385 35.1091 21 35.1091C16.0615 35.1091 11.3841 33.4115 7.63275 30.2939H8.12302C8.57611 30.2939 8.94333 29.9267 8.94333 29.4736C8.94333 29.0205 8.57611 28.6533 8.12302 28.6533H5.54736C5.09427 28.6533 4.72705 29.0205 4.72705 29.4736V32.0493C4.72705 32.5024 5.09427 32.8696 5.54736 32.8696C6.00046 32.8696 6.36768 32.5024 6.36768 32.0493V31.3735C8.22459 32.9561 10.2981 34.2109 12.5178 35.1091H4.10156C3.64847 35.1091 3.28125 35.4763 3.28125 35.9294C3.28125 36.3825 3.64847 36.7497 4.10156 36.7497H12.3153V37.8392C12.3153 38.2923 12.6825 38.6595 13.1356 38.6595C13.5883 38.6595 13.9559 38.2923 13.9559 37.8392V36.7497H28.0653V37.8392C28.0653 38.2923 28.4325 38.6595 28.8856 38.6595C29.3383 38.6595 29.7059 38.2923 29.7059 37.8392V36.7497H41.1797C41.6328 36.7497 42 36.3825 42 35.9294C42 35.4763 41.6328 35.1091 41.1797 35.1091Z" fill="#087BA8"/>
<path d="M0.820312 36.75C1.03596 36.75 1.24777 36.6622 1.4003 36.5097C1.55283 36.3571 1.64062 36.1453 1.64062 35.9297C1.64062 35.714 1.55283 35.5022 1.4003 35.3497C1.24777 35.1972 1.03596 35.1094 0.820312 35.1094C0.60466 35.1094 0.392853 35.1972 0.240326 35.3497C0.087799 35.5022 0 35.714 0 35.9297C0 36.1453 0.087799 36.3571 0.240326 36.5097C0.392853 36.6622 0.60466 36.75 0.820312 36.75Z" fill="#087BA8"/>
<path d="M21.0001 31.582C25.673 31.582 29.4743 27.79 29.4743 23.1286C29.4743 21.1974 28.8049 19.3107 27.5882 17.8123C27.5866 17.8101 27.585 17.8082 27.5834 17.8059L22.3251 11.054C22.0114 10.6509 21.5387 10.4193 21.028 10.418C21.0267 10.418 21.0254 10.418 21.0238 10.418C20.515 10.418 20.0423 10.6474 19.7276 11.0479L14.4472 17.7633C14.4353 17.7787 14.4238 17.7941 14.4132 17.8101C13.1953 19.3094 12.5259 21.1948 12.5259 23.1286C12.5259 27.79 16.3272 31.582 21.0001 31.582ZM15.7283 18.7935C15.7488 18.7688 15.7677 18.7429 15.785 18.7163L21.0193 12.0592C21.0216 12.0583 21.0267 12.0583 21.0309 12.0618L26.2728 18.7932C26.2818 18.8053 26.2908 18.8175 26.3007 18.8291C27.2893 20.0387 27.8337 21.5659 27.8337 23.1286C27.8337 26.8854 24.7681 29.9414 21.0001 29.9414C17.2318 29.9414 14.1662 26.8854 14.1662 23.1286C14.1665 21.5489 14.7212 20.0095 15.7283 18.7935Z" fill="#087BA8"/>
<path d="M35.2734 16.7059C38.9825 16.7059 42 13.6957 42 9.99564C42 8.46332 41.469 6.96625 40.5045 5.77711C40.5036 5.77583 40.5023 5.77455 40.5013 5.77327L36.444 0.563003C36.1662 0.20636 35.7474 0.000961308 35.2955 0C35.2943 0 35.293 0 35.292 0C34.8412 0 34.423 0.203155 34.1442 0.557556L30.0696 5.73962C30.0593 5.75276 30.0494 5.76622 30.0398 5.78C29.0766 6.96913 28.5469 8.46332 28.5469 9.99564C28.5469 13.6957 31.5644 16.7059 35.2734 16.7059ZM31.3497 6.76982C31.3683 6.74739 31.3859 6.72368 31.4019 6.69965L35.2914 1.7531L39.1927 6.76309C39.201 6.77431 39.2097 6.78552 39.2186 6.79642C39.9543 7.69652 40.3594 8.83278 40.3594 9.99564C40.3594 12.7911 38.0779 15.0652 35.2734 15.0652C32.469 15.0652 30.1875 12.7911 30.1875 9.99564C30.1875 8.81996 30.6002 7.67441 31.3497 6.76982Z" fill="#087BA8"/>
<path d="M6.72656 16.7059C10.4356 16.7059 13.4531 13.6957 13.4531 9.99564C13.4531 8.46332 12.9234 6.96913 11.9602 5.78C11.9506 5.76622 11.9407 5.75276 11.9304 5.73962L7.85577 0.557556C7.577 0.203155 7.15883 0 6.70798 0C6.70702 0 6.70573 0 6.70445 0C6.25264 0.000961308 5.83383 0.20636 5.55602 0.563003L1.49867 5.77327C1.49771 5.77455 1.49675 5.77583 1.49579 5.77711C0.53096 6.96625 0 8.46332 0 9.99564C0 13.6957 3.01753 16.7059 6.72656 16.7059ZM2.78137 6.79642C2.79034 6.78552 2.799 6.77431 2.80733 6.76309L6.70862 1.7531L10.5981 6.69933C10.6141 6.72368 10.6314 6.74739 10.6503 6.77014C11.3998 7.67441 11.8125 8.81996 11.8125 9.99564C11.8125 12.7911 9.53101 15.0652 6.72656 15.0652C3.92212 15.0652 1.64062 12.7911 1.64062 9.99564C1.64062 8.83278 2.04565 7.69652 2.78137 6.79642Z" fill="#087BA8"/>
<path d="M21 27.0706C23.178 27.0706 24.95 25.3024 24.95 23.1289C24.95 22.6758 24.5828 22.3086 24.1297 22.3086C23.6769 22.3086 23.3094 22.6758 23.3094 23.1289C23.3094 24.3978 22.2734 25.4299 21 25.4299C20.5469 25.4299 20.1797 25.7972 20.1797 26.2503C20.1797 26.7034 20.5469 27.0706 21 27.0706Z" fill="#087BA8"/>
</g>
<defs>
<clipPath id="clip0_643_2351">
<rect width="42" height="42" fill="white"/>
</clipPath>
</defs>
</svg>
