<svg width="42" height="42" viewBox="0 0 42 42" fill="none" xmlns="http://www.w3.org/2000/svg">
<g clip-path="url(#clip0_644_2395)">
<path d="M17.1338 36.417C16.9178 36.417 16.7063 36.5042 16.5538 36.6567C16.4013 36.8102 16.3135 37.0217 16.3135 37.2373C16.3135 37.4533 16.401 37.6648 16.5538 37.8173C16.7063 37.9698 16.9178 38.0576 17.1338 38.0576C17.3494 38.0576 17.5609 37.9701 17.7135 37.8173C17.8663 37.6648 17.9541 37.4533 17.9541 37.2373C17.9541 37.0217 17.8663 36.8102 17.7135 36.6567C17.5609 36.5042 17.3494 36.417 17.1338 36.417Z" fill="#087BA8"/>
<path d="M2.99707 32.2753C2.99707 33.7159 4.16922 34.8884 5.60989 34.8884C7.05089 34.8884 8.22304 33.7159 8.22304 32.2753C8.22304 30.8346 7.05089 29.6621 5.60989 29.6621C4.16922 29.6621 2.99707 30.8346 2.99707 32.2753ZM6.58241 32.2753C6.58241 32.8113 6.1463 33.2478 5.60989 33.2478C5.07381 33.2478 4.63737 32.8113 4.63737 32.2753C4.63737 31.7392 5.07381 31.3027 5.60989 31.3027C6.1463 31.3027 6.58241 31.7392 6.58241 32.2753Z" fill="#087BA8"/>
<path d="M31.2724 32.2753C31.2724 30.8346 30.1002 29.6621 28.6592 29.6621C27.2185 29.6621 26.0464 30.8343 26.0464 32.2753C26.0464 33.7162 27.2185 34.8884 28.6592 34.8884C30.1002 34.8884 31.2724 33.7162 31.2724 32.2753ZM27.687 32.2753C27.687 31.7392 28.1231 31.3027 28.6592 31.3027C29.1956 31.3027 29.6317 31.7388 29.6317 32.2753C29.6317 32.8113 29.1956 33.2478 28.6592 33.2478C28.1231 33.2478 27.687 32.8113 27.687 32.2753Z" fill="#087BA8"/>
<path d="M11.2603 25.0254C11.4753 25.0254 11.6868 24.9376 11.8402 24.7851C11.9928 24.6316 12.0806 24.4207 12.0806 24.2051C12.0806 23.9891 11.9928 23.7776 11.8402 23.6251C11.6868 23.4716 11.4759 23.3848 11.2603 23.3848C11.0436 23.3848 10.8322 23.4716 10.6796 23.6251C10.5271 23.7776 10.4399 23.9885 10.4399 24.2051C10.4399 24.4207 10.5271 24.6325 10.6796 24.7851C10.8328 24.9376 11.0436 25.0254 11.2603 25.0254Z" fill="#087BA8"/>
<path d="M22.4309 33.7706C22.711 33.4187 22.8142 32.9656 22.7135 32.5276L22.3066 30.7505C22.1525 30.0791 21.5638 29.6104 20.8752 29.6104H13.3927C12.7038 29.6104 12.1152 30.0791 11.9614 30.7505L11.5541 32.5276C11.4538 32.9659 11.557 33.4187 11.837 33.7706C12.1174 34.1221 12.5359 34.3239 12.9855 34.3239H21.2822C21.7321 34.3239 22.1505 34.1221 22.4309 33.7706ZM13.2018 32.6833L13.5299 31.2507H20.7381L21.0662 32.6833H13.2018Z" fill="#087BA8"/>
<path d="M41.5495 5.66624L30.5051 0.0881195C30.4096 0.0397339 30.3006 0.0108947 30.1926 0.00256348C30.1728 0.000961308 30.1526 0.000320435 30.1324 0C30.1321 0 30.1314 0 30.1311 0C30.1305 0 30.1301 0 30.1295 0C30.1285 0 30.1282 0 30.1279 0C30.1273 0 30.1273 0 30.1263 0C30.1257 0 30.1247 0.000320435 30.1247 0C29.9869 0.000640869 29.8571 0.0349273 29.7434 0.0954895L18.7137 5.66624C18.4375 5.80563 18.2632 6.0889 18.2632 6.39844V14.0241H13.8524C13.3996 14.0241 13.0321 14.3917 13.0321 14.8445V17.3054H8.75043C7.21298 17.3054 5.84889 18.3394 5.43329 19.8198L4.48128 23.2116H2.46094C1.1039 23.2116 0 24.3159 0 25.6726C0 26.7281 0.668106 27.6304 1.60378 27.9794C0.956497 28.7292 0.563324 29.7046 0.563324 30.7707V35.6471C0.563324 36.9762 1.64479 38.0574 2.97363 38.0574H4.02081V39.8992C4.02081 41.0576 4.96321 42 6.12158 42H7.65807C8.81644 42 9.75883 41.0576 9.75883 39.8992V38.0574H14.3167C14.7698 38.0574 15.137 37.6902 15.137 37.2371C15.137 36.784 14.7698 36.4167 14.3167 36.4167H2.97363C2.54938 36.4167 2.20395 36.0713 2.20395 35.6471V30.7707C2.20395 29.3166 3.38699 28.1335 4.84113 28.1335H29.4265C30.8806 28.1335 32.0633 29.3166 32.0633 30.7707V35.6471C32.0633 36.0713 31.7182 36.4167 31.2936 36.4167H19.924C19.4712 36.4167 19.1037 36.784 19.1037 37.2371C19.1037 37.6902 19.4712 38.0574 19.924 38.0574H24.5088V39.8992C24.5088 41.0576 25.4512 42 26.6095 42H28.146C29.3044 42 30.2468 41.0576 30.2468 39.8992V38.0574H31.294C32.6228 38.0574 33.7039 36.9762 33.7039 35.6471V30.7707C33.7039 29.3326 32.99 28.0589 31.8986 27.2831C32.9647 26.6938 34.5179 25.8245 36.072 24.9147C39.151 23.1126 42 20.8436 42 16.4838V6.39844C42 6.0889 41.8257 5.80563 41.5495 5.66624ZM8.11853 38.0574V39.8992C8.11853 40.153 7.91185 40.3594 7.65807 40.3594H6.12158C5.8678 40.3594 5.66144 40.153 5.66144 39.8992V38.0574H8.11853ZM28.6062 39.8992C28.6062 40.153 28.3998 40.3594 28.146 40.3594H26.6095C26.3557 40.3594 26.1494 40.153 26.1494 39.8992V38.0574H28.6062V39.8992ZM24.1912 24.9147C25.1477 25.4749 26.1039 26.0196 26.9466 26.4929H16.0381L20.4463 22.0847C21.4948 23.2161 22.8201 24.1121 24.1912 24.9147ZM14.6727 15.6648H18.2632V16.4838C18.2632 16.7664 18.2757 17.0401 18.2987 17.3054H14.673V15.6648H14.6727ZM7.01271 20.263C7.23061 19.4875 7.94485 18.946 8.75043 18.946H15.3584L12.5995 21.705C12.2791 22.0254 12.2791 22.5448 12.5995 22.8652C12.7597 23.0251 12.9696 23.1053 13.1795 23.1053C13.3894 23.1053 13.5992 23.0251 13.7595 22.8652L17.6787 18.9463H18.6105C18.8114 19.6128 19.0925 20.2185 19.4376 20.7728L13.7175 26.4932H5.2641L7.01271 20.263ZM2.46094 24.8523H4.02081L3.56003 26.4929H2.46094C2.00848 26.4929 1.64062 26.125 1.64062 25.6726C1.64062 25.2204 2.00848 24.8523 2.46094 24.8523ZM40.3594 16.4838C40.3594 19.8317 38.4018 21.6502 35.243 23.4991C33.1124 24.7462 30.9822 25.9177 30.1314 26.3817C29.281 25.918 27.1514 24.7468 25.0202 23.4991C21.8613 21.6502 19.9038 19.8317 19.9038 16.4838V6.90312L30.1314 1.7374L40.3594 6.90312V16.4838Z" fill="#087BA8"/>
<path d="M29.7619 4.2823L22.4588 7.97082C22.1823 8.11021 22.0083 8.39347 22.0083 8.70301V16.4841C22.0083 18.8627 23.3804 20.1012 26.0829 21.6832C27.1808 22.3256 28.4087 23.0245 29.7333 23.7602C29.857 23.8291 29.9945 23.8634 30.1316 23.8634C30.2688 23.8634 30.4059 23.8291 30.5299 23.7602C31.8508 23.0264 33.0787 22.3276 34.1797 21.6832C36.8826 20.1009 38.255 18.8627 38.255 16.4841V8.70301C38.255 8.39347 38.0807 8.11021 37.8044 7.97082L30.5014 4.2823C30.2688 4.16502 29.9942 4.16502 29.7619 4.2823ZM36.6143 9.2077V16.4841C36.6143 17.7793 36.143 18.633 33.351 20.2672C32.3718 20.8404 31.2903 21.4573 30.1316 22.1042C28.9694 21.456 27.8883 20.8388 26.9119 20.2672C24.12 18.633 23.6489 17.7793 23.6489 16.4841V9.2077L30.1316 5.93349L36.6143 9.2077Z" fill="#087BA8"/>
<path d="M27.0063 13.5478C26.6862 13.2277 26.1668 13.2274 25.846 13.5478C25.5259 13.868 25.5259 14.3874 25.846 14.7078L28.2435 17.1053C28.3973 17.2591 28.6059 17.3456 28.8235 17.3456C29.0411 17.3456 29.2497 17.2591 29.4035 17.1053L34.417 12.0918C34.7375 11.7714 34.7375 11.2519 34.417 10.9315C34.0966 10.6114 33.5775 10.6114 33.2571 10.9315L28.8235 15.365L27.0063 13.5478Z" fill="#087BA8"/>
</g>
<defs>
<clipPath id="clip0_644_2395">
<rect width="42" height="42" fill="white"/>
</clipPath>
</defs>
</svg>
