<svg width="76" height="76" viewBox="0 0 76 76" fill="none" xmlns="http://www.w3.org/2000/svg">
<g clip-path="url(#clip0_697_14053)">
<path d="M39.0386 21.9761H43.6541V26.847H39.0386V21.9761Z" fill="#D4E1F4"/>
<path d="M17.1239 26.8472H12.5083C9.73375 26.8475 7.07288 27.9519 5.11094 29.9175C3.14901 31.8832 2.04667 34.5491 2.04639 37.3289V44.976C2.04562 46.3527 2.3157 47.7161 2.84119 48.9881C3.36668 50.2602 4.13728 51.416 5.10891 52.3895C6.08055 53.3629 7.23417 54.135 8.50382 54.6615C9.77347 55.188 11.1342 55.4586 12.5083 55.4578H17.1239C15.7498 55.4586 14.389 55.188 13.1194 54.6615C11.8497 54.135 10.6961 53.3629 9.72448 52.3895C8.75285 51.416 7.98225 50.2602 7.45676 48.9881C6.93127 47.7161 6.66119 46.3527 6.66196 44.976V37.3289C6.66225 34.5491 7.76458 31.8832 9.72651 29.9175C11.6884 27.9519 14.3493 26.8475 17.1239 26.8472Z" fill="#D4E1F4"/>
<path d="M9.53737 31.644C9.29255 31.644 9.05775 31.7415 8.88463 31.9149C8.71151 32.0884 8.61426 32.3236 8.61426 32.5689V33.4676C8.61426 33.7129 8.71151 33.9481 8.88463 34.1215C9.05775 34.295 9.29255 34.3924 9.53737 34.3924C9.7822 34.3924 10.017 34.295 10.1901 34.1215C10.3632 33.9481 10.4605 33.7129 10.4605 33.4676V32.5689C10.4605 32.3236 10.3632 32.0884 10.1901 31.9149C10.017 31.7415 9.7822 31.644 9.53737 31.644Z" fill="#00415D"/>
<path d="M9.53737 35.3052C9.29255 35.3052 9.05775 35.4026 8.88463 35.5761C8.71151 35.7495 8.61426 35.9847 8.61426 36.23V45.4047C8.61426 45.65 8.71151 45.8852 8.88463 46.0586C9.05775 46.2321 9.29255 46.3295 9.53737 46.3295C9.7822 46.3295 10.017 46.2321 10.1901 46.0586C10.3632 45.8852 10.4605 45.65 10.4605 45.4047V36.23C10.4605 35.9847 10.3632 35.7495 10.1901 35.5761C10.017 35.4026 9.7822 35.3052 9.53737 35.3052Z" fill="#00415D"/>
<path d="M75.0769 59.2234H66.6412V55.1494H64.7949V59.2234H56.0869V55.4577H54.2407V59.2234H21.7593V55.4577H19.9131V59.2234H11.2051V55.1494H9.35884V59.2234H0.923114C0.678289 59.2234 0.443491 59.3209 0.270374 59.4943C0.0972564 59.6678 0 59.903 0 60.1483V67.968C0 68.2133 0.0972564 68.4485 0.270374 68.622C0.443491 68.7954 0.678289 68.8929 0.923114 68.8929H3.26013C3.25829 68.9596 3.25536 69.0264 3.25536 69.0933C3.25536 70.8785 3.96323 72.5907 5.22323 73.8531C6.48324 75.1155 8.19218 75.8247 9.9741 75.8247C11.756 75.8247 13.465 75.1155 14.725 73.8531C15.985 72.5907 16.6928 70.8785 16.6928 69.0933C16.6928 69.0264 16.6899 68.9596 16.6881 68.8929H18.6454C18.6435 68.9596 18.6406 69.0264 18.6406 69.0933C18.6406 70.8785 19.3485 72.5907 20.6085 73.8531C21.8685 75.1155 23.5774 75.8247 25.3593 75.8247C27.1413 75.8247 28.8502 75.1155 30.1102 73.8531C31.3702 72.5907 32.0781 70.8785 32.0781 69.0933C32.0781 69.0264 32.0751 68.9596 32.0733 68.8929H37.0754V72.1299C37.0754 72.3752 37.1726 72.6104 37.3457 72.7839C37.5188 72.9573 37.7536 73.0547 37.9985 73.0547H53.3868C53.6316 73.0547 53.8664 72.9573 54.0395 72.7839C54.2126 72.6104 54.3099 72.3752 54.3099 72.1299V68.8929H59.3118C59.3099 68.9596 59.307 69.0264 59.307 69.0933C59.307 70.8785 60.0149 72.5907 61.2749 73.8531C62.5349 75.1155 64.2438 75.8247 66.0257 75.8247C67.8077 75.8247 69.5166 75.1155 70.7766 73.8531C72.0366 72.5907 72.7445 70.8785 72.7445 69.0933C72.7445 69.0264 72.7416 68.9596 72.7397 68.8929H75.0769C75.3217 68.8929 75.5565 68.7954 75.7296 68.622C75.9027 68.4485 76 68.2133 76 67.968V60.1483C76 59.903 75.9027 59.6678 75.7296 59.4943C75.5565 59.3209 75.3217 59.2234 75.0769 59.2234ZM9.97425 73.975C9.05106 73.9748 8.14691 73.7119 7.36709 73.2169C6.58726 72.7219 5.96386 72.015 5.56947 71.1787C5.17508 70.3425 5.02594 69.4111 5.13941 68.4932C5.25289 67.5753 5.62431 66.7086 6.21042 65.9939C6.79653 65.2793 7.57322 64.7462 8.45002 64.4568C9.32683 64.1673 10.2677 64.1333 11.163 64.3589C12.0583 64.5844 12.8713 65.0601 13.5072 65.7306C14.1431 66.4011 14.5758 67.2388 14.7549 68.1462V68.1487C14.8936 68.8562 14.8743 69.5857 14.6983 70.2849C14.5223 70.9841 14.194 71.6356 13.737 72.1926C13.2799 72.7496 12.7054 73.1983 12.0548 73.5065C11.4042 73.8147 10.6935 73.9748 9.97379 73.9753L9.97425 73.975ZM25.3595 73.975C24.4363 73.9748 23.5322 73.7119 22.7523 73.2169C21.9725 72.7219 21.3491 72.015 20.9547 71.1787C20.5603 70.3425 20.4112 69.4111 20.5247 68.4932C20.6381 67.5753 21.0095 66.7086 21.5957 65.9939C22.1818 65.2793 22.9585 64.7462 23.8353 64.4568C24.7121 64.1673 25.6529 64.1333 26.5482 64.3589C27.4436 64.5844 28.2565 65.0601 28.8924 65.7306C29.5283 66.4011 29.961 67.2388 30.1401 68.1462V68.1487C30.2789 68.8562 30.2596 69.5857 30.0836 70.2849C29.9076 70.9841 29.5792 71.6356 29.1222 72.1926C28.6651 72.7496 28.0907 73.1983 27.44 73.5065C26.7894 73.8147 26.0787 73.9748 25.359 73.9753L25.3595 73.975ZM52.4637 71.205H38.9216V68.8929H52.4637V71.205ZM66.0257 73.975C65.1026 73.9748 64.1984 73.7119 63.4186 73.2169C62.6388 72.7219 62.0154 72.015 61.621 71.1787C61.2266 70.3425 61.0774 69.4111 61.1909 68.4932C61.3044 67.5753 61.6758 66.7086 62.2619 65.9939C62.848 65.2793 63.6247 64.7462 64.5015 64.4568C65.3783 64.1673 66.3192 64.1333 67.2145 64.3589C68.1098 64.5844 68.9228 65.0601 69.5587 65.7306C70.1946 66.4011 70.6273 67.2388 70.8064 68.1462V68.1487C70.9451 68.8562 70.9258 69.5857 70.7498 70.2849C70.5738 70.9841 70.2455 71.6356 69.7885 72.1926C69.3314 72.7496 68.7569 73.1983 68.1063 73.5065C67.4557 73.8147 66.745 73.9748 66.0253 73.9753L66.0257 73.975ZM74.1538 67.0431H72.4249C71.9913 65.684 71.1377 64.4981 69.9875 63.6566C68.8373 62.8151 67.4499 62.3617 66.0257 62.3617C64.6014 62.3617 63.2141 62.8151 62.0639 63.6566C60.9136 64.4981 60.0601 65.684 59.6264 67.0431H31.7587C31.325 65.684 30.4715 64.4981 29.3213 63.6567C28.1711 62.8153 26.7838 62.3618 25.3596 62.3618C23.9354 62.3618 22.548 62.8153 21.3979 63.6567C20.2477 64.4981 19.3941 65.684 18.9605 67.0431H16.3734C15.9398 65.684 15.0862 64.4981 13.936 63.6567C12.7858 62.8153 11.3985 62.3618 9.97433 62.3618C8.55014 62.3618 7.16281 62.8153 6.01261 63.6567C4.86241 64.4981 4.00888 65.684 3.57522 67.0431H1.84623V61.0732H74.1538V67.0431Z" fill="#087BA8"/>
<path d="M9.9742 65.9966C9.36287 65.9966 8.76528 66.1782 8.25699 66.5185C7.74869 66.8588 7.35252 67.3424 7.11858 67.9083C6.88464 68.4741 6.82343 69.0968 6.94269 69.6975C7.06196 70.2982 7.35633 70.85 7.7886 71.2831C8.22087 71.7161 8.77162 72.0111 9.37119 72.1306C9.97077 72.2501 10.5922 72.1887 11.157 71.9543C11.7218 71.72 12.2045 71.323 12.5442 70.8138C12.8838 70.3045 13.0651 69.7058 13.0651 69.0933C13.0642 68.2723 12.7383 67.4851 12.1588 66.9046C11.5793 66.324 10.7937 65.9975 9.9742 65.9966ZM9.9742 70.3404C9.72802 70.3404 9.48738 70.2672 9.2827 70.1302C9.07801 69.9932 8.91848 69.7984 8.82428 69.5705C8.73007 69.3427 8.70542 69.0919 8.75345 68.85C8.80147 68.6081 8.92002 68.386 9.09408 68.2116C9.26815 68.0372 9.48993 67.9184 9.73137 67.8703C9.97282 67.8222 10.2231 67.8468 10.4505 67.9412C10.6779 68.0356 10.8723 68.1954 11.0091 68.4005C11.1459 68.6056 11.2189 68.8467 11.2189 69.0933C11.2185 69.4239 11.0872 69.7409 10.8539 69.9747C10.6205 70.2084 10.3042 70.3399 9.9742 70.3404Z" fill="#087BA8"/>
<path d="M25.3595 65.9966C24.7481 65.9966 24.1505 66.1782 23.6422 66.5185C23.1339 66.8588 22.7378 67.3424 22.5038 67.9083C22.2699 68.4741 22.2087 69.0968 22.3279 69.6975C22.4472 70.2982 22.7416 70.85 23.1739 71.2831C23.6061 71.7161 24.1569 72.0111 24.7564 72.1306C25.356 72.2501 25.9775 72.1887 26.5423 71.9543C27.1071 71.72 27.5898 71.323 27.9294 70.8138C28.2691 70.3045 28.4503 69.7058 28.4503 69.0933C28.4494 68.2723 28.1235 67.4851 27.5441 66.9046C26.9646 66.324 26.1789 65.9975 25.3595 65.9966ZM25.3595 70.3404C25.1133 70.3404 24.8726 70.2672 24.668 70.1302C24.4633 69.9932 24.3037 69.7984 24.2095 69.5705C24.1153 69.3427 24.0907 69.0919 24.1387 68.85C24.1867 68.6081 24.3053 68.386 24.4793 68.2116C24.6534 68.0372 24.8752 67.9184 25.1166 67.8703C25.3581 67.8222 25.6083 67.8468 25.8358 67.9412C26.0632 68.0356 26.2576 68.1954 26.3944 68.4005C26.5311 68.6056 26.6041 68.8467 26.6041 69.0933C26.6037 69.4239 26.4724 69.7409 26.2391 69.9747C26.0058 70.2084 25.6894 70.3399 25.3595 70.3404Z" fill="#087BA8"/>
<path d="M66.0255 65.9966C65.4141 65.9966 64.8166 66.1782 64.3083 66.5185C63.8 66.8588 63.4038 67.3424 63.1699 67.9083C62.9359 68.4741 62.8747 69.0968 62.994 69.6975C63.1132 70.2982 63.4076 70.85 63.8399 71.2831C64.2721 71.7161 64.8229 72.0111 65.4225 72.1306C66.022 72.2501 66.6435 72.1887 67.2083 71.9543C67.7731 71.72 68.2558 71.323 68.5955 70.8138C68.9351 70.3045 69.1164 69.7058 69.1164 69.0933C69.1155 68.2723 68.7895 67.4851 68.2101 66.9046C67.6306 66.324 66.8449 65.9975 66.0255 65.9966ZM66.0255 70.3404C65.7793 70.3404 65.5387 70.2672 65.334 70.1302C65.1293 69.9932 64.9698 69.7984 64.8755 69.5705C64.7813 69.3427 64.7567 69.0919 64.8047 68.85C64.8527 68.6081 64.9713 68.386 65.1454 68.2116C65.3194 68.0372 65.5412 67.9184 65.7826 67.8703C66.0241 67.8222 66.2743 67.8468 66.5018 67.9412C66.7292 68.0356 66.9236 68.1954 67.0604 68.4005C67.1971 68.6056 67.2701 68.8467 67.2701 69.0933C67.2697 69.4239 67.1385 69.7409 66.9051 69.9747C66.6718 70.2084 66.3554 70.3399 66.0255 70.3404Z" fill="#087BA8"/>
<path d="M63.5062 25.9227C63.3664 25.211 62.9844 24.5699 62.4253 24.1091C61.8663 23.6482 61.1648 23.3961 60.4408 23.3958C59.7172 23.3967 59.0163 23.649 58.4576 24.1097C57.8989 24.5704 57.517 25.211 57.3769 25.9222H55.1152V21.9761C55.1152 21.7308 55.018 21.4956 54.8449 21.3222C54.6718 21.1487 54.437 21.0513 54.1921 21.0513H39.0384C38.7936 21.0513 38.5588 21.1487 38.3857 21.3222C38.2126 21.4956 38.1153 21.7308 38.1153 21.9761V25.9222H18.6244C18.4845 25.2106 18.1024 24.5697 17.5433 24.1089C16.9843 23.6482 16.2829 23.3961 15.559 23.3958C14.8354 23.3967 14.1344 23.6491 13.5757 24.1098C13.017 24.5706 12.6351 25.2112 12.495 25.9225C9.47884 25.9294 6.58832 27.1338 4.45676 29.2718C2.3252 31.4099 1.12642 34.3072 1.12305 37.3292V44.9762C1.12222 46.4744 1.41614 47.958 1.988 49.3423C2.55986 50.7266 3.39844 51.9844 4.45581 53.0438C5.51318 54.1032 6.76859 54.9433 8.15027 55.5163C9.53194 56.0892 11.0128 56.3837 12.5081 56.3829H12.5323C12.7011 57.059 13.0907 57.6592 13.6391 58.0879C14.1876 58.5166 14.8634 58.7493 15.559 58.749C16.2542 58.7478 16.9291 58.5146 17.4771 58.086C18.025 57.6575 18.4148 57.0582 18.5847 56.3829H57.4141C57.5829 57.059 57.9725 57.6592 58.521 58.0879C59.0694 58.5166 59.7452 58.7493 60.4408 58.749C61.136 58.7478 61.8109 58.5146 62.3589 58.086C62.9069 57.6575 63.2966 57.0582 63.4665 56.3829H63.4917C64.9871 56.3837 66.4679 56.0891 67.8496 55.5162C69.2312 54.9432 70.4866 54.1031 71.544 53.0437C72.6013 51.9843 73.4399 50.7266 74.0118 49.3423C74.5837 47.958 74.8776 46.4744 74.8768 44.9762V37.3288C74.8734 34.3072 73.6747 31.4102 71.5435 29.2722C69.4122 27.1343 66.5221 25.9298 63.5062 25.9227ZM39.9616 22.901H53.2682V25.9222H39.9616V22.901ZM18.6822 27.7719H25.9533V54.5328H18.6822V27.7719ZM32.9813 48.0573H27.7995V44.6784H32.9813V48.0573ZM32.9813 42.8287H27.7995V39.4499H32.9813V42.8287ZM32.9813 37.6001H27.7995V34.2213H32.9813V37.6001ZM27.7995 49.907H32.9813V54.5328H27.7995V49.907ZM32.9813 32.3716H27.7995V27.7719H32.9813V32.3716ZM16.836 55.6211C16.8356 55.8741 16.7603 56.1213 16.6197 56.3314C16.4791 56.5416 16.2795 56.7053 16.0461 56.8018C15.8126 56.8983 15.5559 56.9232 15.3083 56.8736C15.0607 56.8239 14.8333 56.7018 14.655 56.5227C14.5363 56.4047 14.4422 56.2642 14.3782 56.1094C14.3141 55.9546 14.2815 55.7886 14.282 55.6211V50.5536C14.282 50.3083 14.1848 50.0731 14.0117 49.8996C13.8386 49.7262 13.6038 49.6287 13.3589 49.6287C13.1141 49.6287 12.8793 49.7262 12.7062 49.8996C12.5331 50.0731 12.4358 50.3083 12.4358 50.5536V54.5305C9.91773 54.5152 7.50819 53.5014 5.73418 51.7108C3.96017 49.9203 2.96606 47.4988 2.96928 44.9759V37.3288C2.97231 34.8078 3.96842 32.3899 5.74107 30.6006C7.51373 28.8114 9.91964 27.7955 12.4358 27.7738V47.1278C12.4358 47.3731 12.5331 47.6083 12.7062 47.7817C12.8793 47.9552 13.1141 48.0526 13.3589 48.0526C13.6038 48.0526 13.8386 47.9552 14.0117 47.7817C14.1848 47.6083 14.282 47.3731 14.282 47.1278V26.5234C14.2824 26.2704 14.3577 26.0232 14.4983 25.813C14.6389 25.6029 14.8385 25.4392 15.072 25.3427C15.3054 25.2462 15.5622 25.2212 15.8098 25.2709C16.0574 25.3206 16.2847 25.4427 16.4631 25.6218C16.5818 25.7398 16.6759 25.8803 16.7399 26.0351C16.8039 26.1898 16.8366 26.3558 16.836 26.5234V55.6211ZM61.7178 55.6211C61.7175 55.8741 61.6422 56.1213 61.5016 56.3315C61.361 56.5417 61.1614 56.7054 60.928 56.8019C60.6945 56.8984 60.4378 56.9234 60.1901 56.8737C59.9425 56.8241 59.7152 56.7019 59.5368 56.5228C59.4181 56.4048 59.324 56.2643 59.26 56.1095C59.1959 55.9547 59.1633 55.7887 59.1639 55.6211V35.3358C59.1639 35.2143 59.14 35.094 59.0936 34.9818C59.0472 34.8696 58.9792 34.7677 58.8935 34.6818C58.8078 34.5959 58.706 34.5278 58.594 34.4813C58.482 34.4348 58.362 34.4109 58.2408 34.4109C58.1195 34.4109 57.9995 34.4348 57.8875 34.4813C57.7755 34.5278 57.6737 34.5959 57.588 34.6818C57.5023 34.7677 57.4343 34.8696 57.3879 34.9818C57.3415 35.094 57.3176 35.2143 57.3176 35.3358V54.5328H34.8275V27.7719H57.3176V32.0988C57.3176 32.344 57.4149 32.5793 57.588 32.7527C57.7611 32.9262 57.9959 33.0236 58.2408 33.0236C58.4856 33.0236 58.7204 32.9262 58.8935 32.7527C59.0666 32.5793 59.1639 32.344 59.1639 32.0988V26.5234C59.1643 26.2704 59.2395 26.0232 59.3801 25.813C59.5207 25.6029 59.7204 25.4392 59.9538 25.3427C60.1872 25.2462 60.444 25.2212 60.6916 25.2709C60.9392 25.3206 61.1665 25.4427 61.3449 25.6218C61.4636 25.7398 61.5577 25.8803 61.6217 26.0351C61.6857 26.1898 61.7184 26.3558 61.7178 26.5234V55.6211ZM73.0306 44.9759C73.0342 47.499 72.0402 49.9208 70.2662 51.7114C68.4921 53.5021 66.0823 54.5159 63.564 54.531V27.7738C66.0802 27.7955 68.4861 28.8114 70.2588 30.6006C72.0314 32.3899 73.0276 34.8078 73.0306 37.3288V44.9759Z" fill="#00415D"/>
<path d="M42.0238 40.788C41.7645 40.522 41.3818 40.4152 41.0217 40.5099C40.6624 40.6047 40.3816 40.8862 40.287 41.2454C40.1923 41.6054 40.2983 41.9875 40.565 42.2475L43.832 45.5144C44.2283 45.9108 44.8683 45.9181 45.2741 45.5313L51.0329 40.0304C51.301 39.7764 51.4131 39.3983 51.3257 39.0389C51.2384 38.6796 50.9664 38.3948 50.6118 38.2913C50.2566 38.1878 49.8737 38.2819 49.6077 38.5386L44.5776 43.3429L42.0238 40.788Z" fill="#087BA8"/>
<path d="M17.6045 9.99951H11.5186C11.3217 9.99951 11.1329 10.0777 10.9937 10.2169C10.8546 10.3561 10.7764 10.5449 10.7764 10.7417C10.7764 10.9385 10.8546 11.1273 10.9937 11.2665C11.1329 11.4057 11.3217 11.4839 11.5186 11.4839H17.6045C17.8013 11.4839 17.9901 11.4057 18.1293 11.2665C18.2685 11.1273 18.3467 10.9385 18.3467 10.7417C18.3467 10.5449 18.2685 10.3561 18.1293 10.2169C17.9901 10.0777 17.8013 9.99951 17.6045 9.99951Z" fill="#087BA8"/>
<path d="M24.7295 9.99951H21.3154C21.1186 9.99951 20.9298 10.0777 20.7906 10.2169C20.6514 10.3561 20.5732 10.5449 20.5732 10.7417C20.5732 10.9385 20.6514 11.1273 20.7906 11.2665C20.9298 11.4057 21.1186 11.4839 21.3154 11.4839H24.7295C24.9263 11.4839 25.1151 11.4057 25.2543 11.2665C25.3935 11.1273 25.4717 10.9385 25.4717 10.7417C25.4717 10.5449 25.3935 10.3561 25.2543 10.2169C25.1151 10.0777 24.9263 9.99951 24.7295 9.99951Z" fill="#087BA8"/>
<path d="M8.84668 9.99951H7.65918C7.46234 9.99951 7.27356 10.0777 7.13437 10.2169C6.99519 10.3561 6.91699 10.5449 6.91699 10.7417C6.91699 10.9385 6.99519 11.1273 7.13437 11.2665C7.27356 11.4057 7.46234 11.4839 7.65918 11.4839H8.84668C9.04352 11.4839 9.2323 11.4057 9.37149 11.2665C9.51067 11.1273 9.58887 10.9385 9.58887 10.7417C9.58887 10.5449 9.51067 10.3561 9.37149 10.2169C9.2323 10.0777 9.04352 9.99951 8.84668 9.99951Z" fill="#087BA8"/>
<path d="M34.6748 2.72607H28.5889C28.392 2.72607 28.2032 2.80427 28.0641 2.94346C27.9249 3.08264 27.8467 3.27142 27.8467 3.46826C27.8467 3.6651 27.9249 3.85388 28.0641 3.99307C28.2032 4.13226 28.392 4.21045 28.5889 4.21045H34.6748C34.8716 4.21045 35.0604 4.13226 35.1996 3.99307C35.3388 3.85388 35.417 3.6651 35.417 3.46826C35.417 3.27142 35.3388 3.08264 35.1996 2.94346C35.0604 2.80427 34.8716 2.72607 34.6748 2.72607Z" fill="#087BA8"/>
<path d="M41.7998 2.72607H38.3857C38.1889 2.72607 38.0001 2.80427 37.8609 2.94346C37.7217 3.08264 37.6436 3.27142 37.6436 3.46826C37.6436 3.6651 37.7217 3.85388 37.8609 3.99307C38.0001 4.13226 38.1889 4.21045 38.3857 4.21045H41.7998C41.9966 4.21045 42.1854 4.13226 42.3246 3.99307C42.4638 3.85388 42.542 3.6651 42.542 3.46826C42.542 3.27142 42.4638 3.08264 42.3246 2.94346C42.1854 2.80427 41.9966 2.72607 41.7998 2.72607Z" fill="#087BA8"/>
<path d="M25.917 2.72607H24.7295C24.5327 2.72607 24.3439 2.80427 24.2047 2.94346C24.0655 3.08264 23.9873 3.27142 23.9873 3.46826C23.9873 3.6651 24.0655 3.85388 24.2047 3.99307C24.3439 4.13226 24.5327 4.21045 24.7295 4.21045H25.917C26.1138 4.21045 26.3026 4.13226 26.4418 3.99307C26.581 3.85388 26.6592 3.6651 26.6592 3.46826C26.6592 3.27142 26.581 3.08264 26.4418 2.94346C26.3026 2.80427 26.1138 2.72607 25.917 2.72607Z" fill="#087BA8"/>
<path d="M65.7151 7.73526C65.8622 7.03766 65.8225 6.31359 65.6002 5.63621C65.2588 4.56404 64.5611 3.73205 63.6844 3.35368C62.449 2.81931 61.1591 2.93376 59.9606 3.66229C59.6145 2.71952 58.9686 1.91632 58.1221 1.37589C57.2757 0.835455 56.2753 0.587624 55.2744 0.670407C54.2735 0.75319 53.3274 1.16202 52.5812 1.83418C51.835 2.50635 51.3299 3.40474 51.1434 4.39156C50.1728 4.18301 48.7461 4.21225 47.7319 5.03355C47.1518 5.50321 46.5346 6.37647 46.5778 7.95614C45.8825 7.95378 45.205 8.17523 44.6454 8.58774C44.0824 9.03602 43.4928 9.94179 43.8807 11.543C43.9334 11.7739 44.0613 11.9808 44.2442 12.1312C44.4272 12.2817 44.6549 12.3671 44.8917 12.3742H66.9156C67.1862 12.3665 67.4438 12.2565 67.6366 12.0665C67.8294 11.8765 67.9431 11.6205 67.9547 11.35C68.0429 9.57203 67.2189 8.24782 65.7151 7.73526ZM45.2586 10.89C45.198 10.2963 45.2892 10.0311 45.5311 9.81621C45.9764 9.42048 46.866 9.42285 47.0908 9.50167C47.2149 9.55807 47.352 9.57961 47.4874 9.56397C47.6228 9.54833 47.7514 9.4961 47.8594 9.41289C47.9674 9.32968 48.0507 9.21863 48.1003 9.09166C48.1499 8.9647 48.164 8.82662 48.1411 8.69224C47.9185 7.39683 48.1371 6.52208 48.7926 6.09651C49.5896 5.57921 50.8332 5.77737 51.2098 5.95594C51.3034 6.08863 51.438 6.18695 51.5928 6.23581C51.7477 6.28468 51.9143 6.2814 52.0672 6.22647C52.22 6.17155 52.3506 6.06801 52.4389 5.93174C52.5273 5.79546 52.5685 5.63398 52.5562 5.47204C52.4953 4.65106 52.7631 3.83951 53.3006 3.21594C53.838 2.59237 54.6012 2.20785 55.4222 2.14696C56.2432 2.08608 57.0547 2.35382 57.6783 2.8913C58.3019 3.42877 58.6864 4.19194 58.7473 5.01292C58.7576 5.15278 58.8075 5.28684 58.8909 5.39956C58.9743 5.51228 59.088 5.59905 59.2188 5.64982C59.3495 5.70058 59.4919 5.71327 59.6296 5.6864C59.7672 5.65953 59.8945 5.59422 59.9965 5.49801C61.0207 4.53317 62.0628 4.26999 63.095 4.71604C63.57 4.92119 63.9772 5.43344 64.1853 6.08672C64.3947 6.74415 64.3558 7.43082 64.0836 7.87895C64.0091 8.00152 63.9718 8.14305 63.976 8.28641C63.9803 8.42977 64.026 8.56882 64.1076 8.68675C64.1752 8.78423 64.2621 8.86676 64.3629 8.9292C64.4637 8.99164 64.5763 9.03265 64.6937 9.04968C65.8141 9.20762 66.398 9.7028 66.4688 10.8903L45.2586 10.89Z" fill="#087BA8"/>
</g>
<defs>
<clipPath id="clip0_697_14053">
<rect width="76" height="76" fill="white"/>
</clipPath>
</defs>
</svg>
