<svg width="36" height="36" viewBox="0 0 36 36" fill="none" xmlns="http://www.w3.org/2000/svg">
<g clip-path="url(#clip0_543_770)">
<path d="M16.6788 10.5669H11.3216C10.8285 10.5669 10.4287 10.1622 10.4287 9.66291V6.04684C10.4287 5.54758 10.8285 5.14282 11.3216 5.14282H16.6788C17.1719 5.14282 17.5716 5.54758 17.5716 6.04684V9.66291C17.5716 10.1622 17.1719 10.5669 16.6788 10.5669Z" fill="#CCD9DF"/>
<path d="M28.286 17.3473C28.286 17.117 28.1992 16.8954 28.0433 16.7276L20.9005 9.04356C20.7317 8.86203 20.4965 8.75916 20.2503 8.75916H11.3217C11.0667 8.75916 10.8239 8.86957 10.6544 9.06254L7.08296 13.1306C6.93772 13.2961 6.85742 13.5098 6.85742 13.7312V29.6719C6.85742 30.3659 7.11617 30.9998 7.54111 31.48C7.11611 31.9601 6.85742 32.5941 6.85742 33.288C6.85742 34.7834 8.05903 36 9.53599 36H25.6074C27.0844 36 28.286 34.7834 28.286 33.288C28.286 32.5941 28.0272 31.9601 27.6023 31.48C28.0273 30.9998 28.286 30.3659 28.286 29.6719V17.3473ZM24.1531 19.9107C23.8078 20.24 23.3683 20.4025 22.9289 20.4025C22.4537 20.4025 21.9802 20.2118 21.6288 19.8339L17.5281 15.4224C16.8515 14.695 16.8864 13.5508 17.604 12.8667C18.3233 12.1825 19.4542 12.2169 20.1282 12.9435L24.2289 17.3549C24.9055 18.0824 24.8706 19.2266 24.1531 19.9107Z" fill="#CCD9DF"/>
</g>
<defs>
<clipPath id="clip0_543_770">
<rect width="36" height="36" fill="white"/>
</clipPath>
</defs>
</svg>
