<svg width="48" height="48" viewBox="0 0 48 48" fill="none" xmlns="http://www.w3.org/2000/svg">
<g clip-path="url(#clip0_527_688)">
<path d="M44.4764 11.4786L46.8042 9.15084C47.1912 8.76384 47.3185 8.18747 47.1306 7.67344C46.9426 7.15941 46.4735 6.80119 45.928 6.75516L41.6092 6.39084L41.2449 2.07206C41.199 1.52672 40.8407 1.05759 40.3268 0.869625C39.8128 0.681281 39.2364 0.808875 38.8493 1.19587L36.5216 3.52359C32.7567 1.21537 28.4526 0 24 0C17.5894 0 11.5625 2.49647 7.02938 7.02938C2.49647 11.5625 0 17.5894 0 24C0 30.4106 2.49647 36.4375 7.02938 40.9706C11.5625 45.5035 17.5894 48 24 48C30.4106 48 36.4375 45.5035 40.9706 40.9706C45.5035 36.4375 48 30.4106 48 24C48 19.5475 46.7846 15.2434 44.4764 11.4786ZM38.9063 7.81059C38.964 8.49394 39.5061 9.036 40.1894 9.09375L42.6742 9.30328L39.311 12.6665L35.6428 12.3571L35.3334 8.68903L38.6967 5.32575L38.9063 7.81059ZM28.2188 24C28.2188 26.3262 26.3262 28.2188 24 28.2188C21.6738 28.2188 19.7812 26.3262 19.7812 24C19.7812 21.6738 21.6738 19.7812 24 19.7812C24.6505 19.7812 25.267 19.9295 25.8178 20.1936L23.0057 23.0057C22.4565 23.5548 22.4565 24.4452 23.0057 24.9944C23.2802 25.2689 23.6401 25.4062 24 25.4062C24.3599 25.4062 24.7198 25.2689 24.9943 24.9943L27.8063 22.1823C28.0705 22.7331 28.2188 23.3495 28.2188 24ZM30.5368 35.486C28.6078 36.5881 26.3763 37.2188 24 37.2188C21.6255 37.2188 19.3955 36.589 17.4675 35.4884C17.4637 35.4862 17.4597 35.4838 17.4558 35.4817C18.4979 32.8185 21.0646 31.0312 24 31.0312C26.9354 31.0312 29.5021 32.8185 30.5442 35.4818C30.5418 35.4832 30.5393 35.4846 30.5368 35.486ZM27.8746 18.1367C26.7628 17.3994 25.431 16.9688 24 16.9688C20.123 16.9688 16.9688 20.123 16.9688 24C16.9688 26.1368 17.9281 28.0527 19.4374 29.3433C18.8806 29.634 18.3498 29.9766 17.856 30.3715C16.7003 31.2959 15.7698 32.4736 15.1318 33.7941C12.4613 31.3737 10.7812 27.8795 10.7812 24C10.7812 16.7111 16.7111 10.7812 24 10.7812C27.1389 10.7812 30.0253 11.8818 32.2951 13.7162L27.8746 18.1367ZM32.8683 33.7941C32.2303 32.4736 31.2997 31.2959 30.1441 30.3715C29.6503 29.9766 29.1194 29.634 28.5626 29.3433C30.0718 28.0526 31.0312 26.1368 31.0312 24C31.0312 22.569 30.6006 21.2372 29.8634 20.1254L34.2839 15.7049C36.1183 17.9747 37.2188 20.8611 37.2188 24C37.2188 27.8795 35.5387 31.3737 32.8683 33.7941ZM38.9818 38.9818C34.98 42.9836 29.6594 45.1875 24 45.1875C18.3406 45.1875 13.02 42.9836 9.01819 38.9818C5.01638 34.98 2.8125 29.6594 2.8125 24C2.8125 18.3406 5.01638 13.02 9.01819 9.01819C13.02 5.01638 18.3406 2.8125 24 2.8125C27.7025 2.8125 31.2887 3.76341 34.4692 5.57597L32.883 7.16213C32.5901 7.45491 32.4412 7.86197 32.4761 8.27466L32.6653 10.5183C30.1651 8.90559 27.19 7.96875 24 7.96875C15.1603 7.96875 7.96875 15.1603 7.96875 24C7.96875 32.8397 15.1603 40.0312 24 40.0312C32.8397 40.0312 40.0312 32.8397 40.0312 24C40.0312 20.81 39.0944 17.8349 37.4818 15.3347L39.7255 15.5239C39.765 15.5272 39.8045 15.5288 39.8438 15.5288C40.215 15.5288 40.5732 15.3817 40.838 15.1169L42.424 13.5308C44.2366 16.7114 45.1875 20.2975 45.1875 24C45.1875 29.6594 42.9836 34.98 38.9818 38.9818Z" fill="#087BA8"/>
</g>
<defs>
<clipPath id="clip0_527_688">
<rect width="48" height="48" fill="white"/>
</clipPath>
</defs>
</svg>
