<svg width="48" height="48" viewBox="0 0 48 48" fill="none" xmlns="http://www.w3.org/2000/svg">
<g clip-path="url(#clip0_527_660)">
<path d="M46.5938 15.0938H40.9688C40.1921 15.0938 39.5625 15.7234 39.5625 16.5C39.5625 17.2766 40.1921 17.9062 40.9688 17.9062H43.1988L36.3463 24.7587C35.7292 21.8624 33.8344 19.4337 31.2822 18.0927C32.7909 16.8021 33.75 14.8865 33.75 12.75C33.75 8.87297 30.5958 5.71875 26.7188 5.71875C22.8417 5.71875 19.6875 8.87297 19.6875 12.75C19.6875 14.8865 20.6466 16.8021 22.1553 18.0926C19.8009 19.3298 18.0058 21.4922 17.2571 24.0938C17.0811 23.8921 16.8967 23.6963 16.7031 23.5076C16.0135 22.8357 15.2415 22.2767 14.4105 21.8399C15.9173 20.5492 16.875 18.6349 16.875 16.5C16.875 12.623 13.7208 9.46875 9.84375 9.46875C5.96672 9.46875 2.8125 12.623 2.8125 16.5C2.8125 18.6365 3.77156 20.5521 5.28028 21.8426C2.14416 23.4906 0 26.7806 0 30.5625V40.875C0 41.6516 0.629625 42.2812 1.40625 42.2812H12.8438C13.2168 42.2812 13.5744 42.1331 13.8381 41.8693L24.0938 31.6137L27.7869 35.3069C28.336 35.856 29.2265 35.856 29.7757 35.3069L45.1875 19.895V22.125C45.1875 22.9016 45.8171 23.5312 46.5938 23.5312C47.3704 23.5312 48 22.9016 48 22.125V16.5C48 15.7234 47.3704 15.0938 46.5938 15.0938ZM22.5 12.75C22.5 10.4238 24.3925 8.53125 26.7188 8.53125C29.045 8.53125 30.9375 10.4238 30.9375 12.75C30.9375 15.0762 29.045 16.9688 26.7188 16.9688C24.3925 16.9688 22.5 15.0762 22.5 12.75ZM5.625 16.5C5.625 14.1738 7.51753 12.2812 9.84375 12.2812C12.17 12.2812 14.0625 14.1738 14.0625 16.5C14.0625 18.8262 12.17 20.7188 9.84375 20.7188C7.51753 20.7188 5.625 18.8262 5.625 16.5ZM12.2613 39.4688H2.8125V30.5625C2.8125 26.6855 5.96672 23.5312 9.84375 23.5312C11.684 23.5312 13.4228 24.2382 14.7402 25.5218C16.055 26.803 16.8089 28.5188 16.8631 30.3529C16.8646 30.4024 16.8687 30.4511 16.8751 30.4991V34.8549L12.2613 39.4688ZM28.7812 32.3238L25.0881 28.6306C24.539 28.0815 23.6485 28.0815 23.0993 28.6306L19.6875 32.0425V26.8125C19.6875 22.9355 22.8417 19.7812 26.7188 19.7812C30.5958 19.7812 33.75 22.9355 33.75 26.8125V27.355L28.7812 32.3238Z" fill="#087BA8"/>
</g>
<defs>
<clipPath id="clip0_527_660">
<rect width="48" height="48" fill="white"/>
</clipPath>
</defs>
</svg>
