<svg width="48" height="48" viewBox="0 0 48 48" fill="none" xmlns="http://www.w3.org/2000/svg">
<g clip-path="url(#clip0_527_663)">
<path d="M47.1754 33.5168L41.785 28.1264C47.9679 15.1522 38.4645 0.000244141 24.0001 0.000244141C9.56083 0.000244141 0.0199878 15.1261 6.21527 28.1264L0.824832 33.5168C-0.675356 35.017 -0.0374805 37.5772 1.99671 38.1967L7.98433 40.0154L9.80299 46.003C10.42 48.0291 12.9749 48.6801 14.4829 47.1749L22.3521 39.3057C23.4339 39.3954 24.5294 39.3984 25.6482 39.3057L33.5174 47.1749C35.02 48.6774 37.5791 48.0332 38.1973 46.003L40.016 40.0154L46.0036 38.1967C48.041 37.5763 48.6731 35.0145 47.1754 33.5168ZM12.4946 45.1856L10.675 39.198C10.4021 38.298 9.70183 37.5976 8.80193 37.324L2.8143 35.5053L7.66108 30.6586C10.2935 34.566 14.289 37.4824 18.9605 38.7199L12.4946 45.1856ZM9.6933 28.6261C2.62774 17.3744 10.8481 2.81265 24.0001 2.81265C37.2583 2.81265 45.309 17.4753 38.3069 28.626C31.6772 39.1992 16.3221 39.1978 9.6933 28.6261ZM39.1985 37.3239C38.2985 37.5976 37.5982 38.298 37.3245 39.1979L35.5059 45.1855L29.0401 38.7197C33.7116 37.4822 37.707 34.5658 40.3395 30.6584L45.1863 35.5051L39.1985 37.3239Z" fill="#087BA8"/>
<path d="M24 5.62512C14.5894 5.62512 7.78594 14.7597 10.5491 23.7925C12.9034 31.5068 21.2545 35.6056 28.7249 32.9328C34.1659 30.9855 38.0621 25.7802 38.0621 19.6872C38.0621 11.9334 31.7539 5.62512 24 5.62512ZM16.4159 27.9876C8.82235 21.0567 13.8178 8.43753 24 8.43753C30.9297 8.43753 36.2048 14.6729 35.11 21.4515C33.7328 30.238 23.0381 34.0475 16.4159 27.9876Z" fill="#087BA8"/>
<path d="M28.2665 15.8842L22.0681 20.4851L19.9208 18.1972C19.3893 17.6307 18.4995 17.6025 17.9331 18.1341C17.3669 18.6655 17.3386 19.5555 17.8701 20.1218L20.8747 23.3232C21.3637 23.8444 22.1653 23.9154 22.7382 23.4901L29.9427 18.1425C30.5663 17.6797 30.6966 16.7988 30.2337 16.1752C29.7709 15.5516 28.8901 15.4213 28.2665 15.8842Z" fill="#087BA8"/>
</g>
<defs>
<clipPath id="clip0_527_663">
<rect width="48" height="48" fill="white"/>
</clipPath>
</defs>
</svg>
