<svg width="48" height="48" viewBox="0 0 48 48" fill="none" xmlns="http://www.w3.org/2000/svg">
<g clip-path="url(#clip0_527_684)">
<path d="M16.5908 20.8125H31.4091C32.2142 20.8125 32.9602 20.4487 33.4559 19.8143C33.9517 19.1798 34.1242 18.3679 33.9294 17.5867L32.8228 13.1486C32.2924 11.0216 30.703 9.39103 28.6994 8.75803C29.294 7.8645 29.6414 6.79294 29.6414 5.6415C29.6414 2.53078 27.1107 0 23.9999 0C20.8892 0 18.3584 2.53078 18.3584 5.64159C18.3584 6.79303 18.7059 7.8645 19.3004 8.75813C17.2969 9.39112 15.7075 11.0217 15.1771 13.1487L14.0705 17.5868C13.8757 18.368 14.0483 19.1798 14.5439 19.8143C15.0396 20.4488 15.7857 20.8125 16.5908 20.8125ZM23.9999 2.8125C25.5599 2.8125 26.8289 4.08159 26.8289 5.64159C26.8289 7.2015 25.5599 8.47059 23.9999 8.47059C22.44 8.47059 21.1709 7.2015 21.1709 5.64159C21.1709 4.08159 22.44 2.8125 23.9999 2.8125ZM17.906 13.8291C18.2798 12.33 19.6199 11.2831 21.1647 11.2831H26.8351C28.38 11.2831 29.72 12.33 30.0938 13.8291L31.1339 18H16.866L17.906 13.8291Z" fill="#087BA8"/>
<path d="M47.9646 14.2661C47.9596 12.1243 46.3544 10.3004 44.2308 10.0235C43.0074 9.86355 41.7738 10.2393 40.8466 11.0533C39.9194 11.8676 39.3877 13.0421 39.3877 14.2759L39.3878 21.1094C39.2994 21.1038 39.2103 21.101 39.121 21.101C38.0106 21.101 36.9667 21.5334 36.1816 22.3185L32.4951 26.005C32.4591 26.0409 32.4091 26.0579 32.3589 26.0524C32.3334 26.0495 32.3079 26.0472 32.2822 26.0457L30.6288 25.9469C29.2563 25.8017 27.9112 26.2766 26.9334 27.2543L24.6533 29.5345C24.4159 29.7717 24.1986 30.0236 24.0001 30.287C23.8016 30.0236 23.5842 29.7717 23.347 29.5345L21.0668 27.2542C20.089 26.2766 18.7445 25.8018 17.3714 25.9469L15.718 26.0457C15.6925 26.0473 15.6669 26.0495 15.6414 26.0524C15.5903 26.0581 15.5411 26.0409 15.5051 26.0051L11.8186 22.3185C11.0335 21.5334 9.98964 21.101 8.87926 21.101C8.78992 21.101 8.70086 21.1038 8.61245 21.1094L8.61255 14.2759C8.61255 13.0421 8.08089 11.8676 7.15361 11.0533C6.22642 10.2391 4.99295 9.86346 3.76942 10.0235C1.6457 10.3004 0.0405153 12.1243 0.0355465 14.2661L1.52597e-05 29.7662C-0.00364099 31.3828 0.64989 32.9657 1.79298 34.1088L10.7813 43.097V45.6563C10.7813 46.9486 11.8327 48 13.125 48H23.0625C23.3958 48 23.7127 47.9296 24 47.8037C24.2874 47.9296 24.6042 48 24.9375 48H34.875C36.1674 48 37.2188 46.9486 37.2188 45.6563V43.097L46.207 34.1088C47.3501 32.9657 48.0037 31.3828 48 29.7662L47.9646 14.2661ZM44.2183 32.1201L34.8182 41.5202C34.5545 41.7839 34.4063 42.1416 34.4063 42.5145V45.1875H25.4063V34.5065C25.4063 33.3795 25.8451 32.3201 26.642 31.5234L28.9221 29.2433C29.2992 28.8661 29.8194 28.6845 30.349 28.7457C30.3746 28.7486 30.4002 28.751 30.426 28.7525L32.082 28.8514C32.9748 28.9416 33.8479 28.6298 34.4839 27.994L38.1704 24.3074C38.6947 23.7835 39.5474 23.7833 40.0717 24.3074C40.5958 24.8317 40.5958 25.6844 40.0717 26.2087L34.8183 31.4621C34.2691 32.0111 34.2691 32.9016 34.8183 33.4508C35.3674 33.9999 36.2578 33.9999 36.807 33.4508L42.0604 28.1974C42.8455 27.4122 43.2779 26.3683 43.2779 25.258C43.2779 24.2156 42.8968 23.2316 42.2005 22.4655L42.2004 14.2761C42.2004 13.8451 42.3787 13.4513 42.7024 13.167C43.0262 12.8827 43.4397 12.7571 43.8672 12.8126C44.5981 12.9079 45.1505 13.5356 45.1523 14.2727L45.1875 29.7726C45.1895 30.6465 44.8362 31.5022 44.2183 32.1201ZM3.7818 32.1201C3.16389 31.5021 2.81064 30.6464 2.81261 29.7726L2.84805 14.2726C2.84973 13.5355 3.4022 12.9076 4.13308 12.8124C4.56048 12.7569 4.97402 12.8825 5.29783 13.1668C5.62164 13.4511 5.79986 13.8449 5.79986 14.2759L5.79977 22.4653C5.10339 23.2315 4.7223 24.2154 4.7223 25.2578C4.7223 26.3681 5.15467 27.4121 5.93983 28.1972L11.1932 33.4506C11.7423 33.9997 12.6327 33.9997 13.1819 33.4506C13.7311 32.9015 13.7311 32.0111 13.1819 31.4619L7.92845 26.2086C7.4043 25.6843 7.4043 24.8316 7.92845 24.3073C8.4527 23.7833 9.30545 23.7834 9.8297 24.3073L13.5163 27.994C14.1521 28.6298 15.025 28.9416 15.9181 28.8514L17.5741 28.7525C17.5998 28.7509 17.6255 28.7486 17.6511 28.7457C18.1805 28.6851 18.7009 28.8661 19.078 29.2432L21.3581 31.5234C22.155 32.3201 22.5938 33.3796 22.5938 34.5065V45.1875H13.5938V42.5145C13.5938 42.1415 13.4455 41.7838 13.1818 41.5202L3.7818 32.1201Z" fill="#087BA8"/>
</g>
<defs>
<clipPath id="clip0_527_684">
<rect width="48" height="48" fill="white"/>
</clipPath>
</defs>
</svg>
