<svg width="76" height="76" viewBox="0 0 76 76" fill="none" xmlns="http://www.w3.org/2000/svg"><g clip-path="url(#clip0_697_14053)"><path d="M39.039 21.976h4.615v4.871H39.04v-4.87zm-21.915 4.871h-4.616a10.453 10.453 0 00-7.397 3.07 10.493 10.493 0 00-3.065 7.412v7.647a10.493 10.493 0 003.063 7.413 10.456 10.456 0 007.4 3.069h4.615a10.438 10.438 0 01-7.4-3.069 10.477 10.477 0 01-3.062-7.413v-7.647c0-2.78 1.103-5.446 3.065-7.412a10.453 10.453 0 017.397-3.07z" fill="#D4E1F4"/><path d="M9.537 31.644a.922.922 0 00-.923.925v.899a.925.925 0 00.923.924.922.922 0 00.923-.924v-.9a.926.926 0 00-.923-.924zm0 3.661a.922.922 0 00-.923.925v9.175a.925.925 0 00.923.925.922.922 0 00.923-.925V36.23a.926.926 0 00-.923-.925z" fill="#00415D"/><path d="M75.077 59.223H66.64V55.15h-1.846v4.074h-8.708v-3.765H54.24v3.765H21.759v-3.765h-1.846v3.765h-8.708V55.15H9.36v4.074H.923a.922.922 0 00-.923.925v7.82a.926.926 0 00.923.925H3.26c-.002.067-.005.133-.005.2 0 1.785.708 3.498 1.968 4.76a6.712 6.712 0 009.502 0 6.738 6.738 0 001.968-4.76c0-.067-.003-.133-.005-.2h1.957c-.002.067-.004.133-.004.2 0 1.785.708 3.498 1.968 4.76a6.712 6.712 0 009.501 0 6.738 6.738 0 001.968-4.76c0-.067-.003-.133-.005-.2h5.002v3.237a.926.926 0 00.923.925h15.389a.922.922 0 00.923-.925v-3.237h5.002c-.002.067-.005.133-.005.2 0 1.785.708 3.498 1.968 4.76a6.712 6.712 0 009.502 0 6.738 6.738 0 001.968-4.76c0-.067-.003-.133-.005-.2h2.337a.922.922 0 00.923-.925v-7.82a.926.926 0 00-.923-.925zM9.974 73.975a4.867 4.867 0 01-4.405-2.796 4.89 4.89 0 01.641-5.185 4.872 4.872 0 014.953-1.635 4.87 4.87 0 013.592 3.787v.003a4.894 4.894 0 01-1.018 4.044 4.878 4.878 0 01-3.763 1.782zm15.386 0a4.867 4.867 0 01-4.405-2.796 4.89 4.89 0 01.64-5.185 4.872 4.872 0 014.953-1.635 4.87 4.87 0 013.592 3.787v.003a4.893 4.893 0 01-2.7 5.358 4.869 4.869 0 01-2.081.468zm27.104-2.77H38.922v-2.312h13.542v2.312zm13.562 2.77a4.867 4.867 0 01-4.405-2.796 4.89 4.89 0 01.64-5.185 4.872 4.872 0 014.953-1.635 4.87 4.87 0 013.592 3.787v.003a4.894 4.894 0 01-1.017 4.044 4.878 4.878 0 01-3.764 1.782zm8.128-6.932h-1.73a6.73 6.73 0 00-2.437-3.386 6.71 6.71 0 00-7.923 0 6.73 6.73 0 00-2.438 3.386H31.76a6.73 6.73 0 00-2.438-3.386 6.71 6.71 0 00-10.36 3.386h-2.588a6.73 6.73 0 00-2.437-3.386 6.71 6.71 0 00-10.36 3.386h-1.73v-5.97h72.308v5.97z" fill="#087BA8"/><path d="M9.974 65.997a3.087 3.087 0 00-2.855 1.911 3.102 3.102 0 00.67 3.375 3.09 3.09 0 005.276-2.19 3.1 3.1 0 00-.906-2.188 3.091 3.091 0 00-2.185-.908zm0 4.343a1.243 1.243 0 01-1.15-.77 1.25 1.25 0 01.907-1.7 1.242 1.242 0 011.488 1.223 1.25 1.25 0 01-1.245 1.247zm15.386-4.343a3.087 3.087 0 00-2.856 1.911 3.103 3.103 0 00.67 3.375 3.09 3.09 0 005.276-2.19c0-.82-.326-1.608-.906-2.188a3.091 3.091 0 00-2.184-.908zm0 4.343a1.243 1.243 0 01-1.15-.77 1.25 1.25 0 01.907-1.7 1.243 1.243 0 011.487 1.223 1.25 1.25 0 01-1.244 1.247zm40.665-4.343a3.086 3.086 0 00-2.855 1.911 3.101 3.101 0 00.67 3.375 3.09 3.09 0 005.276-2.19c0-.82-.326-1.608-.906-2.188a3.091 3.091 0 00-2.184-.908zm0 4.343a1.243 1.243 0 01-1.15-.77 1.25 1.25 0 01.908-1.7 1.243 1.243 0 011.487 1.223 1.25 1.25 0 01-1.245 1.247z" fill="#087BA8"/><path d="M63.506 25.923a3.132 3.132 0 00-3.065-2.527 3.123 3.123 0 00-3.064 2.526h-2.262v-3.946a.925.925 0 00-.923-.925H39.038a.922.922 0 00-.923.925v3.946h-19.49a3.122 3.122 0 00-3.065-2.526 3.124 3.124 0 00-3.065 2.526 11.387 11.387 0 00-8.038 3.35 11.43 11.43 0 00-3.334 8.057v7.647a11.419 11.419 0 003.333 8.068 11.378 11.378 0 008.052 3.339h.024a3.125 3.125 0 003.027 2.366 3.122 3.122 0 003.026-2.366h38.83a3.124 3.124 0 003.026 2.366 3.122 3.122 0 003.026-2.366h.025a11.362 11.362 0 008.052-3.34 11.403 11.403 0 003.333-8.067V37.33a11.43 11.43 0 00-3.334-8.057 11.387 11.387 0 00-8.037-3.35zM39.962 22.9h13.306v3.021H39.962V22.9zm-21.28 4.87h7.271v26.762h-7.27v-26.76zm14.3 20.286h-5.183v-3.379h5.182v3.38zm0-5.228h-5.183v-3.38h5.182v3.38zm0-5.229h-5.183V34.22h5.182v3.38zm-5.183 12.307h5.182v4.626H27.8v-4.626zm5.182-17.535H27.8v-4.6h5.182v4.6zm-16.145 23.25a1.28 1.28 0 01-1.528 1.252 1.276 1.276 0 01-1.026-1.253v-5.067a.926.926 0 00-.923-.925.922.922 0 00-.923.925v3.977a9.515 9.515 0 01-6.702-2.82 9.552 9.552 0 01-2.765-6.735v-7.647A9.576 9.576 0 015.741 30.6a9.54 9.54 0 016.695-2.827v19.354a.926.926 0 00.923.925.922.922 0 00.923-.925V26.523a1.281 1.281 0 01.79-1.18 1.275 1.275 0 011.668.692c.064.155.097.32.096.488v29.098zm44.882 0a1.28 1.28 0 01-1.528 1.252 1.276 1.276 0 01-1.026-1.253V35.336a.926.926 0 00-.923-.925.921.921 0 00-.923.925v19.197h-22.49V27.772h22.49v4.327a.926.926 0 00.923.925.922.922 0 00.923-.925v-5.576a1.281 1.281 0 01.79-1.18 1.275 1.275 0 011.668.692c.064.155.096.32.096.488v29.098zM73.03 44.975a9.55 9.55 0 01-2.765 6.735 9.515 9.515 0 01-6.702 2.82V27.774a9.54 9.54 0 016.695 2.827 9.576 9.576 0 012.772 6.728v7.647z" fill="#00415D"/><path d="M42.024 40.788a1.033 1.033 0 10-1.459 1.46l3.267 3.266a1.032 1.032 0 001.442.017l5.759-5.5a1.03 1.03 0 00-.421-1.74 1.03 1.03 0 00-1.004.248l-5.03 4.804-2.554-2.555zM17.605 10h-6.086a.742.742 0 100 1.484h6.086a.742.742 0 000-1.484zm7.125 0h-3.415a.742.742 0 000 1.484h3.415a.742.742 0 000-1.484zM8.847 10H7.659a.742.742 0 100 1.484h1.188a.742.742 0 000-1.484zm25.828-7.274h-6.086a.742.742 0 100 1.484h6.086a.742.742 0 000-1.484zm7.125 0h-3.414a.742.742 0 000 1.484H41.8a.742.742 0 000-1.484zm-15.883 0h-1.188a.742.742 0 000 1.484h1.188a.742.742 0 000-1.484zm39.798 5.009a4.051 4.051 0 00-.115-2.099c-.341-1.072-1.039-1.904-1.916-2.282-1.235-.535-2.525-.42-3.723.308a4.589 4.589 0 00-8.818.73c-.97-.209-2.397-.18-3.411.642-.58.47-1.197 1.342-1.154 2.922a3.238 3.238 0 00-1.933.632c-.563.448-1.152 1.354-.764 2.955a1.07 1.07 0 001.01.831h22.025a1.07 1.07 0 001.039-1.024c.088-1.778-.736-3.102-2.24-3.615zM45.26 10.89c-.061-.594.03-.859.272-1.074.445-.396 1.335-.393 1.56-.314a.75.75 0 001.05-.81c-.222-1.295-.004-2.17.652-2.595.797-.518 2.04-.32 2.417-.141a.742.742 0 001.346-.484 3.104 3.104 0 016.191-.46.742.742 0 001.25.486c1.024-.965 2.066-1.228 3.098-.782.475.205.882.717 1.09 1.37.21.658.17 1.345-.101 1.793a.743.743 0 00.024.808.865.865 0 00.586.363c1.12.158 1.704.653 1.775 1.84H45.26z" fill="#087BA8"/></g><defs><clipPath id="clip0_697_14053"><path fill="#fff" d="M0 0h76v76H0z"/></clipPath></defs></svg>