<svg width="76" height="76" viewBox="0 0 76 76" fill="none" xmlns="http://www.w3.org/2000/svg"><g clip-path="url(#clip0_700_14416)"><path d="M22.058 29.787a11.66 11.66 0 014.402-.863.946.946 0 100-1.892c-7.502 0-13.585 6.082-13.585 13.585 0 7.502 6.083 13.583 13.585 13.583a.925.925 0 00.667-1.587.934.934 0 00-.667-.27 11.707 11.707 0 01-4.402-22.555z" fill="#087BA8"/><path d="M.77 45.66l3.405 1.153a23.785 23.785 0 002.535 5.812l-1.484 3.31A.945.945 0 005.43 57l5.326 5.197c.287.28.72.348 1.08.17l3.26-1.61a21.338 21.338 0 005.902 2.329l1.264 3.412a.96.96 0 00.887.631h.015l3.312-.073a.951.951 0 00-.033-1.903l-2.642.044-1.21-3.254a.947.947 0 00-.697-.597 19.488 19.488 0 01-6.263-2.471.946.946 0 00-.913-.042l-3.12 1.542-4.374-4.268 1.42-3.167a.946.946 0 00-.066-.894 21.879 21.879 0 01-2.707-6.207.946.946 0 00-.612-.657l-3.251-1.1-.104-6.1 3.253-1.21a.946.946 0 00.598-.696 19.51 19.51 0 012.47-6.265.946.946 0 00.041-.913l-1.541-3.122 4.268-4.373 3.167 1.419c.29.13.627.106.894-.065a21.903 21.903 0 016.207-2.708.946.946 0 00.657-.611l1.101-3.251 3.458-.058a.947.947 0 00-.032-1.892l-4.124.07a.946.946 0 00-.88.643l-1.154 3.406a23.768 23.768 0 00-5.812 2.534l-3.311-1.484a.946.946 0 00-1.064.203l-5.197 5.325a.946.946 0 00-.172 1.08l1.612 3.261a21.39 21.39 0 00-2.33 5.904L.618 36.44a.946.946 0 00-.617.904l.126 7.436c.007.4.265.752.643.88z" fill="#087BA8"/><path d="M27.604 9.26a3.09 3.09 0 01.924-2.21 3.129 3.129 0 012.234-.9H26.31a3.143 3.143 0 00-2.234.917 3.059 3.059 0 00-.925 2.196 3.127 3.127 0 003.16 3.121h.13v25.087h-.138a3.112 3.112 0 00-2.23.9 3.077 3.077 0 00-.923 2.205 3.135 3.135 0 003.16 3.129h.13v24.937h-.13a3.192 3.192 0 000 6.383h4.453a3.16 3.16 0 01-3.159-3.16 3.23 3.23 0 01.925-2.266 3.177 3.177 0 012.234-.957h.13V12.385h-.13a3.13 3.13 0 01-3.159-3.126z" fill="#D4E1F4"/><path d="M46.95 34.074a.891.891 0 00-1.537 0l-3.603 6.15a5.066 5.066 0 108.743 0l-3.603-6.15zm1.555 11.035a3.286 3.286 0 01-5.158-3.984l2.835-4.839 2.835 4.84a3.287 3.287 0 01-.512 3.983z" fill="#00415D"/><path d="M66.83 67.89V44.555a4.05 4.05 0 000-7.95V13.254a4.042 4.042 0 00-.776-8.01H39.576v-2.36A1.486 1.486 0 0038.092 1.4h-8.263a1.486 1.486 0 00-1.484 1.484v2.36h-1.95c-2.204 0-4.07 1.725-4.134 3.928a4.055 4.055 0 003.273 4.097v23.336a4.05 4.05 0 000 7.95V67.89a4.05 4.05 0 00.776 8.025h39.744a4.05 4.05 0 00.775-8.025zM30.125 3.181h7.669v2.063h-7.669V3.181zM24.04 40.58a2.271 2.271 0 012.269-2.27h9.812v-1.78h-8.805V13.343h1.429a.89.89 0 000-1.781h-2.37a2.313 2.313 0 01-2.332-2.155 2.274 2.274 0 012.267-2.382h39.678A2.313 2.313 0 0168.32 9.18a2.273 2.273 0 01-2.266 2.384h-29.59a.89.89 0 100 1.78h28.584v23.187h-8.806v1.781h9.812a2.27 2.27 0 110 4.538h-9.712v1.781h8.706v23.186H27.316V44.631h8.704V42.85h-9.71a2.272 2.272 0 01-2.27-2.27zm42.014 33.554H26.309a2.27 2.27 0 110-4.538h39.745a2.27 2.27 0 011.616 3.88 2.269 2.269 0 01-1.616.658z" fill="#00415D"/><path d="M31.267 15.557a.89.89 0 00-.89.89v.396a.89.89 0 001.78 0v-.395a.89.89 0 00-.89-.89zm0 3.31a.89.89 0 00-.89.89v11.554a.89.89 0 101.78 0V19.757a.89.89 0 00-.89-.89zM46.182 29.26a11.482 11.482 0 1011.482 11.482A11.495 11.495 0 0046.182 29.26zm0 21.183a9.701 9.701 0 119.7-9.7 9.712 9.712 0 01-9.7 9.7z" fill="#00415D"/><circle cx="61" cy="15" r="14.5" fill="#F5F6F6"/><path d="M60.993 0a14.897 14.897 0 00-12.412 6.644 14.904 14.904 0 001.872 18.812 14.93 14.93 0 0011.25 4.357A14.915 14.915 0 0060.993 0zm.627 28.034a13.14 13.14 0 01-13.516-15.635 12.976 12.976 0 011.959-4.766A13.134 13.134 0 1161.62 28.034z" fill="#087BA8"/><path d="M61.022 4.814a10.224 10.224 0 1010.223 10.224A10.235 10.235 0 0061.021 4.814zm0 18.666a8.443 8.443 0 118.442-8.442 8.452 8.452 0 01-8.442 8.441v.001z" fill="#087BA8"/><path d="M64.245 11.973l-4.351 4.248-2.139-2.088a.889.889 0 00-1.454.304.891.891 0 00.21.97l2.76 2.696a.89.89 0 001.245 0l4.974-4.856a.888.888 0 00.019-1.263.89.89 0 00-1.264-.011z" fill="#087BA8"/></g><defs><clipPath id="clip0_700_14416"><path fill="#fff" d="M0 0h76v76H0z"/></clipPath></defs></svg>