<svg width="76" height="76" viewBox="0 0 76 76" fill="none" xmlns="http://www.w3.org/2000/svg"><path d="M58.997 47.915h-9.216a3.243 3.243 0 00-2.31.956l-4.339 4.34H41.78v-4.608c-.001-.808-.677-.62-1.485-.62h-4.588c-.808 0-1.483-.188-1.484.62v4.608h-1.88a.89.89 0 00-.89.89v4.75a.89.89 0 00.89.89h1.88v2.638h1.781v-2.637h3.994v2.637h1.782v-2.637h2.706a3.243 3.243 0 002.309-.957l4.34-4.34h7.863a.89.89 0 00.89-.89v-4.75a.89.89 0 00-.89-.89zm-22.994.986h3.994v4.31h-3.994v-4.31zm22.103 3.764h-7.342a.89.89 0 00-.63.26l-4.6 4.6a1.473 1.473 0 01-1.05.436H33.233v-2.97h10.27a.89.89 0 00.629-.26l4.6-4.6a1.474 1.474 0 011.05-.435h8.325v2.969z" fill="#087BA8"/><path d="M33.185 66.585h9.886a.89.89 0 000-1.781h-9.886a.89.89 0 100 1.781zm-4.174 0h.948a.89.89 0 000-1.781h-.948a.89.89 0 100 1.781z" fill="#00415D"/><path d="M72.895 57.174h-5.508a1.62 1.62 0 00-1.62 1.62v.385H62.98a1.62 1.62 0 00-1.62 1.62v1.683H50.6a1.486 1.486 0 00-1.4-.995H26.718a1.486 1.486 0 00-1.356.883H14.639V60.8a1.62 1.62 0 00-1.62-1.62h-2.785v-.386a1.62 1.62 0 00-1.62-1.62h-5.51a1.62 1.62 0 00-1.62 1.62V74.38A1.62 1.62 0 003.104 76h5.51a1.62 1.62 0 001.62-1.62v-.385h2.785a1.62 1.62 0 001.62-1.62V70.69h10.667a1.487 1.487 0 001.412 1.028h21.025a.89.89 0 000-1.781H27.014v-6.669h21.89v6.669H46.53a.89.89 0 100 1.78h2.672a1.486 1.486 0 001.37-.916h10.79v1.571a1.62 1.62 0 001.62 1.62h2.785v.386a1.62 1.62 0 001.62 1.62h5.51a1.621 1.621 0 001.62-1.62V58.793a1.62 1.62 0 00-1.62-1.62zM8.452 74.218H3.266V70.4h5.186v3.817zm0-5.598H3.266v-4.067h5.186v4.067zm0-5.848H3.266v-3.816h5.186v3.816zm4.406 9.44h-2.624V60.961h2.624v11.251zm12.375-3.302H14.64v-4.758h10.594v4.758zm36.128.111H50.685v-4.758h10.676v4.758zm4.405 3.191h-2.624V60.961h2.624v11.251zm6.968 2.005h-5.186v-3.816h5.186v3.817zm0-5.597h-5.186v-4.067h5.186v4.067zm0-5.848h-5.186v-3.816h5.186v3.816z" fill="#00415D"/><path d="M40.345 5.222a19.767 19.767 0 00-2.27-.132c-10.837 0-19.623 8.805-19.623 19.665 0 10.859 8.786 19.663 19.622 19.663.76 0 1.518-.045 2.271-.132a19.669 19.669 0 010-39.064z" fill="#D4E1F4"/><path d="M42.244 35.004h-8.34a1.516 1.516 0 00-1.513 1.514v2.548a1.516 1.516 0 001.514 1.514h8.34a1.515 1.515 0 001.513-1.514v-2.548a1.516 1.516 0 00-1.514-1.514zm-8.037 1.817h2.96v1.942h-2.96V36.82zm7.734 1.942h-2.958V36.82h2.959v1.942zM37.958 8.93c-8.722 0-15.818 7.11-15.818 15.849a.909.909 0 00.908.908h5.382a.908.908 0 00.909-.908 8.518 8.518 0 1117.036 0 .909.909 0 00.908.908h5.585a.908.908 0 00.909-.908c-.001-8.74-7.097-15.85-15.82-15.85zM27.56 23.87h-3.576c.155-2.425.94-4.769 2.278-6.799l2.922 2.085a10.297 10.297 0 00-1.624 4.715zm2.742-6.148l-2.943-2.1a14.066 14.066 0 015.264-3.816l1.168 3.455a10.4 10.4 0 00-3.489 2.46zm5.215-3.028l-1.173-3.47a13.915 13.915 0 017.435.057l-1.188 3.514a10.277 10.277 0 00-5.074-.101zm6.777.738l1.196-3.54a14.073 14.073 0 015.233 3.93l-3.06 2.184a10.397 10.397 0 00-3.37-2.575zm5.857 8.439a10.295 10.295 0 00-1.423-4.393l3.063-2.186a13.96 13.96 0 012.139 6.579h-3.78z" fill="#087BA8"/><path d="M38.074 0C24.452 0 13.37 11.105 13.37 24.755c0 13.65 11.082 24.754 24.704 24.754s24.704-11.105 24.704-24.755C62.778 11.104 51.696 0 38.074 0zm0 47.692c-12.62 0-22.887-10.29-22.887-22.938 0-12.647 10.267-22.937 22.887-22.937 12.62 0 22.888 10.29 22.888 22.938 0 12.647-10.268 22.937-22.888 22.937z" fill="#00415D"/><path d="M38.074 18.657a.908.908 0 00-.908.909v6.01a2.745 2.745 0 000 5.178v1.892a.908.908 0 101.817 0v-1.892a2.744 2.744 0 000-5.179v-6.01a.908.908 0 00-.909-.908zm0 10.438a.93.93 0 11-.008-1.86.93.93 0 01.008 1.86z" fill="#087BA8"/><path d="M38.074 4.182c-10.106 0-18.528 7.355-20.22 17.002a.91.91 0 001.48.855.91.91 0 00.31-.541c1.543-8.795 9.22-15.5 18.43-15.5 10.319 0 18.714 8.415 18.714 18.756 0 10.342-8.395 18.757-18.714 18.757-9.462 0-17.304-7.075-18.543-16.223a.91.91 0 00-1.276-.712.91.91 0 00-.525.95c1.356 10.038 9.962 17.801 20.344 17.801 11.32 0 20.53-9.228 20.53-20.572 0-11.343-9.21-20.573-20.53-20.573z" fill="#00415D"/></svg>