<svg width="76" height="76" viewBox="0 0 76 76" fill="none" xmlns="http://www.w3.org/2000/svg"><g clip-path="url(#clip0_697_14105)"><path d="M27.559 9.468V4.62a2.842 2.842 0 012.838-2.839H27.43a2.842 2.842 0 00-2.84 2.84v4.847a.89.89 0 01-.89.891h2.969a.89.89 0 00.89-.89zM7.747 53.103V23.78a2.855 2.855 0 01.868-2.043l10.88-10.58a2.824 2.824 0 011.973-.798h-2.969a2.823 2.823 0 00-1.972.798l-10.88 10.58a2.854 2.854 0 00-.869 2.043v29.323a6.576 6.576 0 006.569 6.569h2.968a6.576 6.576 0 01-6.568-6.569z" fill="#D4E1F4"/><path d="M46.777 0H27.429a4.625 4.625 0 00-4.62 4.62v3.958h-4.31a4.599 4.599 0 00-3.212 1.3l-2.172 2.111-1.398-1.497.888-.865a.892.892 0 00.008-1.268l-3.73-3.73a.89.89 0 00-1.25-.007l-7.364 7.18a.89.89 0 00-.008 1.267l3.73 3.73a.89.89 0 001.25.008l.483-.47 1.39 1.489-2.707 2.631a4.643 4.643 0 00-1.41 3.322v29.324a8.36 8.36 0 008.35 8.35h31.7a8.359 8.359 0 008.35-8.35V4.62A4.625 4.625 0 0046.777 0zM2.158 12.447l6.088-5.936 2.47 2.47-6.088 5.937-2.47-2.47zm4.841 2.646l3.443-3.357 1.396 1.495-3.447 3.353-1.392-1.491zm42.617 38.01c-.002 1.742-.538 3.255-1.926 4.643s-2.901 1.924-4.642 1.926H11.347a6.576 6.576 0 01-6.568-6.569V23.78a2.855 2.855 0 01.867-2.043l10.88-10.58a2.823 2.823 0 011.974-.797h5.199a.891.891 0 00.89-.891V4.62a2.842 2.842 0 012.84-2.839h19.348a2.842 2.842 0 012.838 2.84v48.482z" fill="#00415D"/><path d="M43.047 4.476h-11.89a2.758 2.758 0 00-2.755 2.755v3.95a.891.891 0 00.891.891h7.939a6.714 6.714 0 006.706-6.706.89.89 0 00-.89-.89zm-5.815 5.815h-7.048v-3.06a.975.975 0 01.974-.974h10.918a4.933 4.933 0 01-4.844 4.034z" fill="#00415D"/><path d="M39.74 26.636l-11.005-5.403a1.032 1.032 0 00-.91 0L16.827 26.62a1.025 1.025 0 00-.567.933v10.308a9.202 9.202 0 00.917 3.817c.778 1.675 1.936 3.125 3.187 3.977l7.338 5.002a1.034 1.034 0 001.167 0l7.327-5.002c2.313-1.576 4.11-5 4.11-7.795V27.57a1.026 1.026 0 00-.567-.933zm-1.51 11.225c0 2.106-1.46 4.889-3.203 6.077l-6.75 4.603-6.752-4.604c-.937-.638-1.848-1.81-2.464-3.135a7.224 7.224 0 01-.722-2.94v-9.66l9.945-4.88 9.946 4.895v9.644z" fill="#087BA8"/><path d="M24.377 35.247a1.04 1.04 0 00-1.47 1.47l3.095 3.094a1.038 1.038 0 001.47 0l6.19-6.189a1.038 1.038 0 10-1.47-1.47l-5.454 5.455-2.36-2.36z" fill="#087BA8"/><path d="M40.59 45.773l12.955-18.568L57 25.909h11.136a7 7 0 017 7v33.364a8 8 0 01-8 8H48.591a8 8 0 01-8-8v-20.5z" fill="#F5F6F6"/><path d="M44.606 70.3V49.477a4.333 4.333 0 01.82-2.544l11.04-15.347a4.367 4.367 0 013.535-1.812h12.436c.498 0 .993.086 1.462.254a4.363 4.363 0 00-4.102-2.894H57.362a4.364 4.364 0 00-3.535 1.812l-11.04 15.347a4.332 4.332 0 00-.82 2.544V67.66a5.72 5.72 0 003.213 5.136 5.676 5.676 0 01-.574-2.496z" fill="#D4E1F4"/><path d="M47.674 75.217h20.77A7.563 7.563 0 0076 67.66V31.491a6.213 6.213 0 00-6.203-6.204H57.362a6.216 6.216 0 00-5.035 2.58l-11.04 15.347a6.17 6.17 0 00-1.168 3.624V67.66a7.568 7.568 0 007.555 7.558zm26.478-11.09H51.964V43.534h22.188v20.595zM41.966 46.839a4.332 4.332 0 01.82-2.544l11.04-15.347a4.366 4.366 0 013.535-1.812h12.436a4.359 4.359 0 014.355 4.356v10.194H51.04a.923.923 0 00-.924.924v22.443a.924.924 0 00.924.924h23.112v1.683a5.717 5.717 0 01-5.707 5.71h-20.77a5.714 5.714 0 01-5.709-5.71V46.84zm16.608-22.053h11.35a.923.923 0 100-1.848h-11.35a.924.924 0 000 1.848z" fill="#00415D"/><path d="M58.574 22.41h11.35a1.453 1.453 0 001.452-1.452v-3.96a1.455 1.455 0 00-1.452-1.453h-11.35a1.453 1.453 0 00-1.451 1.453v3.96a1.454 1.454 0 001.451 1.452zm4.62-1.848v-3.168h2.11v3.168h-2.11zm6.334 0h-2.376v-3.168h2.376v3.168zM58.97 17.394h2.376v3.168H58.97v-3.168zm4.792 29.338a.924.924 0 00-1.558 0l-3.89 6.095a5.58 5.58 0 00.751 6.904 5.541 5.541 0 007.838 0 5.58 5.58 0 00.752-6.904l-3.893-6.095zm1.834 11.693a3.693 3.693 0 01-5.224 0 3.719 3.719 0 01-.502-4.603l3.113-4.876 3.115 4.876a3.72 3.72 0 01-.502 4.602z" fill="#087BA8"/></g><defs><clipPath id="clip0_697_14105"><path fill="#fff" d="M0 0h76v76H0z"/></clipPath></defs></svg>