<svg width="76" height="76" viewBox="0 0 76 76" fill="none" xmlns="http://www.w3.org/2000/svg"><g clip-path="url(#clip0_697_14067)"><path d="M23.32 23.07h-4.798a2.56 2.56 0 00-2.56 2.558l.013 13.976 1.536-.22.767-3.996 2.495-.542-.012-9.218a2.557 2.557 0 012.56-2.558z" fill="#D4E1F4"/><path d="M61.096 20.275h.002a2.403 2.403 0 002.407-2.392 2.37 2.37 0 00-.707-1.697 2.397 2.397 0 00-1.699-.7h-.001a2.404 2.404 0 00-2.407 2.393 2.37 2.37 0 00.706 1.696 2.396 2.396 0 001.7.7zm.002-3.007a.627.627 0 01.579.38.603.603 0 01-.14.669.62.62 0 01-.44.176.628.628 0 01-.578-.38.603.603 0 01.14-.668.62.62 0 01.439-.177zm.999 6.222a3.039 3.039 0 00-3.044 3.024 2.996 2.996 0 00.893 2.144 3.034 3.034 0 002.15.885h.002a3.034 3.034 0 002.149-.883 2.999 2.999 0 00.896-2.142A3.04 3.04 0 0062.1 23.49h-.003zm1.264 3.027a1.227 1.227 0 01-.368.878 1.265 1.265 0 01-.896.367h-.001a1.263 1.263 0 01-1.168-.77 1.229 1.229 0 01.28-1.36 1.25 1.25 0 01.889-.36 1.256 1.256 0 011.264 1.245z" fill="#087BA8"/><path d="M67.696 0H55.792a3.271 3.271 0 00-3.267 3.264 3.257 3.257 0 002.483 3.167v22.208l1.92-.002V13.4h4.383a.96.96 0 100-1.918h-4.383V6.53h9.63v4.953h-1.215a.96.96 0 100 1.918h1.216v15.24l1.92-.003V6.43a3.27 3.27 0 002.484-3.165A3.267 3.267 0 0067.696 0zm0 4.61H55.792a1.347 1.347 0 110-2.692h11.904a1.35 1.35 0 011.347 1.346 1.347 1.347 0 01-1.347 1.346z" fill="#087BA8"/><path d="M46.044 16.961c-3.33 0-5.615 1.43-6.98 4.373a9.461 9.461 0 01-2.358 3.146 9.832 9.832 0 01-6.473 2.439H29.14v-1.292a3.52 3.52 0 00-3.52-3.517h-7.097a3.524 3.524 0 00-3.52 3.517v14.79h1.92v-14.79a1.6 1.6 0 011.6-1.598h7.098a1.602 1.602 0 011.6 1.598v15.288a.959.959 0 001.919 0V28.837h1.094a11.75 11.75 0 007.739-2.916 11.369 11.369 0 002.833-3.78c.705-1.518 1.937-3.26 5.239-3.26h9.1v-1.919h-9.1zm29.659 23.893a5.283 5.283 0 00-2.137-4.245 4.892 4.892 0 00-2.758-8.93H55.613a2.286 2.286 0 01-2.274-2.038.958.958 0 00-1.706-.5.959.959 0 00-.202.71 4.198 4.198 0 004.182 3.746h15.195a2.976 2.976 0 012.976 2.973 2.973 2.973 0 01-2.976 2.973l-6.194.02a.96.96 0 100 1.918h5.793a3.377 3.377 0 013.376 3.374 3.373 3.373 0 01-3.376 3.373h-5.792a.96.96 0 000 1.919h5.921a3.25 3.25 0 013.066 1.986 3.244 3.244 0 01-3.066 4.502h-8.538a.96.96 0 100 1.919h6.62a3.228 3.228 0 013.228 3.225 3.224 3.224 0 01-3.228 3.225H56.364c-1.935 0-4.174-.028-6.272-.362-2.179-.347-4.003-.99-5.578-1.966-3.27-2.022-3.891-1.849-3.891-1.849l-.163 1.912c.563 0 .029-.296 3.041 1.567 1.796 1.114 3.853 1.844 6.288 2.231 2.237.356 4.566.386 6.574.386h12.255a5.155 5.155 0 005.148-5.144 5.097 5.097 0 00-1.424-3.548 5.164 5.164 0 003.32-4.19 5.158 5.158 0 00-2.173-4.882c.236-.17.458-.357.663-.562a5.256 5.256 0 001.551-3.743z" fill="#00415D"/><path d="M41.76 25.596a.96.96 0 00-1.352.115 13.307 13.307 0 01-6.04 4.066.959.959 0 10.596 1.823 15.226 15.226 0 006.91-4.652.957.957 0 00-.114-1.352zm.974-.636a.96.96 0 00.844-.502c.148-.273.29-.555.42-.836a.96.96 0 10-1.74-.807c-.114.245-.238.49-.367.727a.958.958 0 00.843 1.418z" fill="#00415D"/><path d="M1.3 59.104l3.553.344a16.63 16.63 0 001.78 4.241l-2.27 2.737a1.03 1.03 0 00.064 1.387l4.088 4.09c.376.376.977.404 1.387.065l2.743-2.271a16.994 16.994 0 004.236 1.788l.343 3.565c.052.529.496.933 1.026.933h5.798c.531 0 .976-.404 1.027-.933l.344-3.564A16.636 16.636 0 0029.66 69.7l2.738 2.267c.41.34 1.01.311 1.386-.066l4.09-4.089c.376-.377.405-.978.065-1.387l-2.272-2.743a16.96 16.96 0 001.79-4.237l3.478-.343a1 1 0 00.894-1.026v-5.798a1 1 0 00-.896-1.027l-3.546-.344a16.604 16.604 0 00-1.776-4.242l2.271-2.736a1.031 1.031 0 00-.058-1.383l-4.036-4.09c-.376-.38-.98-.41-1.392-.07l-2.743 2.272a16.964 16.964 0 00-4.235-1.789l-.344-3.565a1.032 1.032 0 00-1.026-.932H18.25a1.03 1.03 0 00-1.027.933l-.344 3.564a16.638 16.638 0 00-4.241 1.785l-2.737-2.267a1.031 1.031 0 00-1.388.066l-4.089 4.089a1.031 1.031 0 00-.065 1.387l2.272 2.743a16.972 16.972 0 00-1.79 4.236l-3.542.344c-.524.053-.92.5-.909 1.026v5.798c-.01.526.386.973.91 1.027zm1.154-5.888l3.34-.324c.444-.044.808-.371.898-.808a14.913 14.913 0 012.078-4.94 1.031 1.031 0 00-.075-1.216l-2.146-2.59 2.76-2.76 2.59 2.144c.35.29.851.316 1.23.064a14.47 14.47 0 014.925-2.076c.439-.096.766-.463.809-.91l.324-3.364h3.924l.324 3.364c.043.446.37.814.809.909a14.936 14.936 0 014.939 2.084c.378.245.87.215 1.217-.072l2.584-2.141 2.719 2.753-2.149 2.594c-.29.351-.316.851-.064 1.23a14.463 14.463 0 012.076 4.926.99.99 0 00.873.808l3.327.325v3.925l-3.276.324a1.01 1.01 0 00-.89.808 14.918 14.918 0 01-2.075 4.939 1.03 1.03 0 00.077 1.217l2.146 2.59-2.76 2.76-2.589-2.144a1.032 1.032 0 00-1.23-.064 14.465 14.465 0 01-4.925 2.076 1.032 1.032 0 00-.809.91l-.324 3.363h-3.924l-.324-3.364a1.032 1.032 0 00-.808-.909 14.926 14.926 0 01-4.938-2.084 1.032 1.032 0 00-1.218.072l-2.59 2.144-2.761-2.76 2.145-2.59c.29-.351.316-.851.063-1.23a14.465 14.465 0 01-2.076-4.926 1.005 1.005 0 00-.886-.808l-3.34-.325v-3.924z" fill="#087BA8"/><path d="M21.15 67.497c6.803 0 12.318-5.515 12.318-12.32 0-6.803-5.515-12.318-12.319-12.318-6.804 0-12.319 5.515-12.319 12.319.007 6.8 5.518 12.312 12.32 12.319zm0-22.575c5.663 0 10.255 4.592 10.255 10.256 0 5.664-4.592 10.256-10.256 10.256-5.664 0-10.256-4.592-10.256-10.256.006-5.661 4.595-10.25 10.256-10.256z" fill="#087BA8"/><path d="M19.064 58.853c.401.391 1.04.391 1.442 0l6.015-5.873a1.03 1.03 0 10-1.441-1.476l-5.295 5.169-2.618-2.557a1.033 1.033 0 00-1.442 1.477l3.34 3.26z" fill="#087BA8"/></g><defs><clipPath id="clip0_697_14067"><path fill="#fff" d="M0 0h76v76H0z"/></clipPath></defs></svg>