<svg width="12" height="10" viewBox="0 0 12 10" fill="none" xmlns="http://www.w3.org/2000/svg">
<path d="M11.8232 5.48214L8.34189 9.30049C8.09937 9.5665 7.71032 9.5665 7.46779 9.30049C7.22526 9.03448 7.22526 8.60776 7.46779 8.34175L9.89305 5.68165L0.621473 5.68165C0.277894 5.68165 -2.13174e-07 5.37685 -1.96701e-07 5C-1.80229e-07 4.62315 0.277894 4.31835 0.621473 4.31835L9.888 4.31835L7.46274 1.65825C7.22021 1.39224 7.22021 0.965518 7.46274 0.699508C7.70526 0.433498 8.09432 0.433498 8.33684 0.699508L11.8181 4.51786C11.9394 4.65086 12 4.82266 12 5C12 5.17734 11.9444 5.34914 11.8232 5.48214Z" fill="#087BA8"/>
</svg>
