<svg width="20" height="20" viewBox="0 0 20 20" fill="none" xmlns="http://www.w3.org/2000/svg">
<path d="M10 0C5.39976 0 1.66675 3.72876 1.66675 8.33325C1.66675 10.633 2.59927 12.7165 4.10825 14.2252L10 20L15.8935 14.2237C17.4022 12.7167 18.335 10.6333 18.3333 8.33174C18.3333 3.73301 14.6027 0 10 0ZM14.716 13.0437L10 17.666L5.27524 13.034C4.02676 11.7873 3.33325 10.113 3.33325 8.3333C3.33325 4.65732 6.32402 1.66655 10 1.66655C11.7805 1.66655 13.4553 2.36079 14.7143 3.61982C15.9732 4.87959 16.6667 6.55283 16.6667 8.33184C16.6683 10.113 15.9748 11.7855 14.716 13.0437Z" fill="#B7D9E6"/>
<path d="M10 4.16699C7.69849 4.16699 5.83325 6.03223 5.83325 8.33374C5.83325 10.635 7.69849 12.5002 10 12.5002C12.3015 12.5002 14.1667 10.635 14.1667 8.3335C14.1667 6.03198 12.3015 4.16699 10 4.16699ZM10 10.8335C8.61973 10.8335 7.5 9.71523 7.5 8.3335C7.5 6.95176 8.61973 5.8335 10 5.8335C11.3803 5.8335 12.5 6.95176 12.5 8.3335C12.5 9.71523 11.3802 10.8335 10 10.8335Z" fill="#B7D9E6"/>
</svg>
