<svg width="20" height="21" viewBox="0 0 20 21" fill="none" xmlns="http://www.w3.org/2000/svg">
<path d="M11.8323 10.0044L19.6199 2.21652C20.1267 1.70995 20.1267 0.890901 19.6199 0.384335C19.1133 -0.122232 18.2943 -0.122232 17.7877 0.384335L9.99988 8.17217L2.21228 0.384335C1.70548 -0.122232 0.886669 -0.122232 0.380103 0.384335C-0.126701 0.890901 -0.126701 1.70995 0.380103 2.21652L8.1677 10.0044L0.380103 17.7922C-0.126701 18.2988 -0.126701 19.1178 0.380103 19.6244C0.632555 19.8771 0.964493 20.004 1.29619 20.004C1.62789 20.004 1.95959 19.8771 2.21228 19.6244L9.99988 11.8365L17.7877 19.6244C18.0404 19.8771 18.3721 20.004 18.7038 20.004C19.0355 20.004 19.3672 19.8771 19.6199 19.6244C20.1267 19.1178 20.1267 18.2988 19.6199 17.7922L11.8323 10.0044Z" fill="#087BA8"/>
</svg>
