<svg width="38" height="38" viewBox="0 0 38 38" fill="none" xmlns="http://www.w3.org/2000/svg">
<g clip-path="url(#clip0_1006_5408)">
<path d="M32.0915 5.90838C28.5945 2.41157 23.9452 0.485718 18.9999 0.485718C14.0545 0.485718 9.40522 2.41157 5.90826 5.90838C2.41144 9.40534 0.485596 14.0547 0.485596 19C0.485596 23.9453 2.41144 28.5947 5.90826 32.0916C9.40522 35.5884 14.0545 37.5143 18.9999 37.5143C22.3855 37.5143 25.6981 36.5916 28.5797 34.8461C29.2629 34.4322 29.4814 33.5428 29.0675 32.8595C28.6535 32.1762 27.764 31.9579 27.0809 32.3718C24.6514 33.8435 21.8569 34.6214 18.9999 34.6214C10.3862 34.6214 3.37845 27.6137 3.37845 19C3.37845 10.3863 10.3862 3.37857 18.9999 3.37857C27.6136 3.37857 34.6213 10.3863 34.6213 19C34.6213 22.0801 33.7054 25.0782 31.9725 27.6702C31.5285 28.3342 31.7069 29.2325 32.371 29.6765C33.0352 30.1207 33.9334 29.9421 34.3773 29.278C36.4295 26.2086 37.5142 22.6544 37.5142 19C37.5142 14.0547 35.5883 9.40534 32.0915 5.90838Z" fill="#087BA8"/>
<path d="M17.457 11.4368C16.4382 10.8457 15.2207 10.8437 14.2002 11.4315C13.1759 12.0213 12.5645 13.0803 12.5645 14.2642V23.7358C12.5645 24.9198 13.1759 25.9788 14.2002 26.5686C14.7089 26.8616 15.2664 27.008 15.824 27.008C16.385 27.008 16.9461 26.8596 17.457 26.5632L25.6183 21.8274C26.6366 21.2365 27.2446 20.1795 27.2446 19C27.2446 17.8205 26.6366 16.7635 25.6183 16.1726L17.457 11.4368ZM24.1663 19.3252L16.0051 24.061C15.8559 24.1477 15.7263 24.1091 15.6439 24.0617C15.5587 24.0127 15.4573 23.9163 15.4573 23.7357V14.2642C15.4573 14.0837 15.5587 13.9873 15.6439 13.9383C15.6906 13.9114 15.7525 13.8874 15.8244 13.8874C15.8795 13.8874 15.9404 13.9015 16.0051 13.939L24.1663 18.6748C24.3197 18.7636 24.3518 18.9007 24.3518 19C24.3518 19.0993 24.3197 19.2363 24.1663 19.3252Z" fill="#087BA8"/>
</g>
<defs>
<clipPath id="clip0_1006_5408">
<rect width="37.0286" height="37.0286" fill="white" transform="translate(0.485596 0.485718)"/>
</clipPath>
</defs>
</svg>
