<svg width="21" height="14" viewBox="0 0 21 14" fill="none" xmlns="http://www.w3.org/2000/svg">
<path d="M0.376768 6.37076L6.17887 0.568653C6.58308 0.164443 7.2315 0.164443 7.63571 0.568654C8.03992 0.972865 8.03992 1.62128 7.63571 2.02549L3.59361 6.0676L19.0462 6.0676C19.6189 6.0676 20.082 6.53076 20.082 7.10339C20.082 7.67602 19.6189 8.13918 19.0462 8.13918L3.60203 8.13918L7.64413 12.1813C8.04835 12.5855 8.04835 13.2339 7.64413 13.6381C7.23992 14.0423 6.5915 14.0423 6.18729 13.6381L0.385189 7.83602C0.183085 7.63392 0.0820315 7.37286 0.0820315 7.10339C0.0820316 6.83392 0.174662 6.57286 0.376768 6.37076Z" fill="#087BA8"/>
</svg>
