<svg width="54" height="54" viewBox="0 0 54 54" fill="none" xmlns="http://www.w3.org/2000/svg">
<path d="M11.1375 32.4674C10.0237 35.2686 8.26878 38.0361 5.92314 40.7024C5.18064 41.5462 5.07939 42.7611 5.68687 43.7061C6.15943 44.4486 6.93561 44.8536 7.77936 44.8536C8.01562 44.8536 8.25191 44.8368 8.48818 44.7523C13.4493 43.3011 25.0426 38.1543 25.3632 21.6505C25.4812 15.2886 20.8238 9.82116 14.7656 9.19679C11.4075 8.85927 8.0663 9.95608 5.58562 12.1836C3.10505 14.428 1.6875 17.6343 1.6875 20.9755C1.6875 26.5442 5.6363 31.4211 11.1375 32.4674Z" fill="#087BA8"/>
<path d="M41.6981 9.19679C38.3567 8.85927 35.0155 9.95608 32.5349 12.1836C30.0543 14.428 28.6367 17.6343 28.6367 20.9755C28.6367 26.5442 32.5855 31.4211 38.0868 32.4674C36.973 35.2686 35.218 38.0361 32.8724 40.7024C32.1299 41.5461 32.0286 42.7611 32.6362 43.7061C33.1086 44.4486 33.8849 44.8536 34.7287 44.8536C34.9648 44.8536 35.2011 44.8368 35.4374 44.7523C40.3986 43.3011 51.9918 38.1542 52.3124 21.6504V21.4143C52.3124 15.1536 47.7056 9.82116 41.6981 9.19679Z" fill="#087BA8"/>
</svg>
