<svg width="20" height="20" viewBox="0 0 20 20" fill="none" xmlns="http://www.w3.org/2000/svg">
<g clip-path="url(#clip0_1018_3600)">
<path d="M14.5765 20C13.7984 20 13.0259 19.7788 12.362 19.3605C10.6609 18.2884 8.14358 16.521 5.81133 14.1887C3.4792 11.8566 1.71171 9.33924 0.639592 7.63812C0.142592 6.84939 -0.0761553 5.907 0.0237871 4.98455C0.124099 4.05819 0.542403 3.18501 1.20156 2.52585L3.48668 0.240733C3.64078 0.0865867 3.84987 0 4.06784 0C4.28581 0 4.4949 0.0865867 4.649 0.240733L8.13602 3.72775C8.60174 4.19347 8.85822 4.81265 8.85822 5.47127C8.85822 6.1299 8.60174 6.74908 8.13602 7.2148L7.10861 8.24225C7.82103 9.13385 8.55564 9.95907 9.29838 10.7018C10.0414 11.4449 10.8666 12.1793 11.7581 12.8914L12.7854 11.8641C13.7467 10.9027 15.311 10.9027 16.2724 11.8641L19.7594 15.3511C20.0804 15.6721 20.0804 16.1925 19.7594 16.5134L17.4743 18.7986C16.7204 19.5524 15.6781 19.9999 14.5765 20ZM4.06784 1.98426L2.36389 3.68821C1.54384 4.50826 1.40667 5.77213 2.03028 6.76173C3.05757 8.39184 4.74911 10.8019 6.97365 13.0265C9.19832 15.2511 11.6084 16.9426 13.2384 17.9698C14.228 18.5935 15.4919 18.4563 16.3119 17.6363L18.0159 15.9323L15.11 13.0265C14.7895 12.706 14.2682 12.706 13.9477 13.0265L12.4062 14.5679C12.1149 14.8592 11.6531 14.8899 11.3258 14.6397C10.1584 13.7471 9.08522 12.8133 8.13602 11.8641C7.18722 10.9153 6.25334 9.84224 5.36031 8.67461C5.11004 8.34737 5.14066 7.88543 5.43198 7.59411L6.97369 6.0524C7.12891 5.89718 7.21443 5.69076 7.21443 5.47123C7.21443 5.25171 7.12891 5.04529 6.97369 4.89007L4.06784 1.98426Z" fill="#B7D9E6"/>
</g>
<defs>
<clipPath id="clip0_1018_3600">
<rect width="20" height="20" fill="white"/>
</clipPath>
</defs>
</svg>
