<svg width="32" height="32" viewBox="0 0 32 32" fill="none" xmlns="http://www.w3.org/2000/svg">
<g clip-path="url(#clip0_1031_3623)">
<rect x="-0.00012207" width="32" height="32" rx="4" fill="url(#paint0_linear_1031_3623)"/>
<path d="M15.9974 4.18523C11.156 4.18523 6.5587 3.75456 4.8027 8.26123C4.07737 10.1226 4.1827 12.5399 4.1827 16.0012C4.1827 19.0386 4.08537 21.8932 4.8027 23.7399C6.5547 28.2492 11.1894 27.8172 15.9947 27.8172C20.6307 27.8172 25.4107 28.2999 27.188 23.7399C27.9147 21.8599 27.808 19.4786 27.808 16.0012C27.808 11.3852 28.0627 8.40523 25.824 6.1679C23.5574 3.90123 20.492 4.18523 15.992 4.18523H15.9974ZM14.9387 6.31456C25.0374 6.29856 26.3227 5.1759 25.6134 20.7719C25.3614 26.2879 21.1614 25.6826 15.9987 25.6826C6.58537 25.6826 6.3147 25.4132 6.3147 15.9959C6.3147 6.46923 7.06137 6.3199 14.9387 6.3119V6.31456ZM22.304 8.2759C21.5214 8.2759 20.8867 8.91056 20.8867 9.69323C20.8867 10.4759 21.5214 11.1106 22.304 11.1106C23.0867 11.1106 23.7214 10.4759 23.7214 9.69323C23.7214 8.91056 23.0867 8.2759 22.304 8.2759V8.2759ZM15.9974 9.93323C12.6467 9.93323 9.9307 12.6506 9.9307 16.0012C9.9307 19.3519 12.6467 22.0679 15.9974 22.0679C19.348 22.0679 22.0627 19.3519 22.0627 16.0012C22.0627 12.6506 19.348 9.93323 15.9974 9.93323V9.93323ZM15.9974 12.0626C21.204 12.0626 21.2107 19.9399 15.9974 19.9399C10.792 19.9399 10.784 12.0626 15.9974 12.0626Z" fill="white"/>
</g>
<defs>
<linearGradient id="paint0_linear_1031_3623" x1="2.14841" y1="29.9152" x2="31.7986" y2="4.24828" gradientUnits="userSpaceOnUse">
<stop stop-color="#FFDD55"/>
<stop offset="0.5" stop-color="#FF543E"/>
<stop offset="1" stop-color="#C837AB"/>
</linearGradient>
<clipPath id="clip0_1031_3623">
<rect width="32" height="32" fill="white"/>
</clipPath>
</defs>
</svg>
