<svg width="32" height="32" viewBox="0 0 32 32" fill="none" xmlns="http://www.w3.org/2000/svg">
<g clip-path="url(#clip0_1018_3633)">
<rect x="-0.000244141" width="32" height="32" rx="4" fill="#005BFF"/>
<path fill-rule="evenodd" clip-rule="evenodd" d="M29.6177 9.42233C29.5288 8.53344 30.8622 8.07122 31.3066 8.87122C31.6266 9.60011 31.7511 10.4001 32 11.1645V15.289C30.3288 14.5245 28.64 13.8134 26.9688 13.0668C27.2533 14.0979 27.5911 15.129 27.7688 16.1957C27.9111 16.9068 26.9333 17.5112 26.3822 17.0312C25.9022 16.6757 25.8666 16.0357 25.7066 15.5023C25.2622 13.689 24.6755 11.9112 24.32 10.0623C24.8888 10.0268 25.3688 10.329 25.8666 10.5423C27.4133 11.2179 28.9422 11.8934 30.4888 12.569C30.1333 11.5379 29.8666 10.4712 29.6177 9.42233ZM14.9511 13.1912C16.5688 11.7512 18.8622 11.129 20.9777 11.5734C22.2755 11.8757 23.6266 12.6757 23.9822 14.0268C24.2133 14.7201 24.0888 15.449 23.8755 16.1245C23.3777 17.2445 22.4533 18.1157 21.3866 18.7023C19.4488 19.7334 16.9422 19.9645 15.0044 18.7912C14.1333 18.2223 13.4222 17.2623 13.5111 16.1779C13.4044 15.0045 14.1155 13.9557 14.9511 13.1912ZM15.2355 16.1779C15.3777 16.6045 15.5911 17.0312 16.0177 17.2445C17.3511 17.9912 19.0222 17.7779 20.3555 17.1379C21.2266 16.7112 22.0977 16.0001 22.2755 15.0045C22.3644 14.489 22.0088 14.0445 21.5822 13.7957C20.7288 13.2445 19.6444 13.3157 18.6844 13.4045C17.1911 13.689 15.5911 14.5957 15.2355 16.1779ZM6.43551 14.9334C6.02662 15.0579 5.86662 15.4668 5.7244 15.8223C5.84884 16.3734 6.32884 16.9423 6.95107 16.7468C7.76884 16.5157 8.56884 16.3201 9.38662 16.0712C8.56884 18.0268 7.8044 19.9823 7.02218 21.9557C6.91551 22.169 6.91551 22.6134 7.25329 22.5068C9.27995 21.9734 11.3244 21.4401 13.3333 20.8712C13.92 20.6934 13.9733 19.9468 13.76 19.4668C13.5111 19.1112 13.0488 18.9868 12.6222 19.1112C11.6977 19.3957 10.7555 19.609 9.81329 19.8757C10.4177 18.3823 11.0222 16.889 11.6088 15.3957C11.84 14.7734 12.16 14.1868 12.2666 13.529C11.9644 13.529 11.6622 13.529 11.3777 13.6001C9.74218 14.0623 8.08884 14.489 6.43551 14.9334ZM-4.44874e-05 16.6223C1.0844 16.1245 2.3644 16.089 3.41329 16.6757C4.90662 17.4223 5.79551 19.1468 5.52884 20.8001C5.36884 22.4001 4.05329 23.8223 2.45329 24.0712C1.61773 24.3023 0.782178 24.0179 -0.0178223 23.7512V21.2979C0.515511 22.0623 1.54662 22.5423 2.43551 22.1512C3.4844 21.7957 4.03551 20.4623 3.57329 19.4668C3.21773 18.4712 1.97329 17.8312 0.977733 18.2757C0.568844 18.4357 0.248844 18.7379 -0.0178223 19.0934V16.6223H-4.44874e-05Z" fill="white"/>
<path fill-rule="evenodd" clip-rule="evenodd" d="M15.2356 16.178C15.5911 14.5958 17.1911 13.6891 18.6845 13.4047C19.6622 13.3158 20.7289 13.2447 21.5822 13.7958C21.9911 14.0447 22.3645 14.4891 22.2756 15.0047C22.08 16.0002 21.2089 16.7113 20.3556 17.138C19.0222 17.778 17.3511 17.9913 16.0178 17.2447C15.5911 17.0313 15.3778 16.6047 15.2356 16.178ZM21.3867 18.7202C19.4489 19.7513 16.9422 19.9824 15.0045 18.8091C14.5245 23.2002 14.0445 27.6091 13.5645 32.0002H28.0533C29.0667 32.018 30.1511 31.7869 30.8978 31.0402C31.7511 30.2935 32.0533 29.138 32.0178 28.0358V24.8891C29.3333 21.9558 26.5956 19.058 23.8933 16.1424C23.3778 17.2447 22.4533 18.1335 21.3867 18.7202Z" fill="#F91155"/>
</g>
<defs>
<clipPath id="clip0_1018_3633">
<rect width="32" height="32" fill="white"/>
</clipPath>
</defs>
</svg>
