<svg width="32" height="32" viewBox="0 0 32 32" fill="none" xmlns="http://www.w3.org/2000/svg">
<g clip-path="url(#clip0_1062_38934)">
<rect x="-0.00012207" y="0.00012207" width="32" height="32" rx="4" fill="white"/>
<path d="M-15.5133 -29.1154H53.223V77.394H-15.5133V-29.1154V-29.1154Z" fill="#8427BD"/>
<path d="M-11.7117 39.961C-26.712 26.5867 -32.4286 -0.785639 -24.5168 -21.2282C-16.6051 -41.6708 2.00817 -47.3532 16.9628 -33.9789C31.9631 -20.6046 37.6797 6.76772 29.7679 27.2103C21.8562 47.6529 3.28869 53.3353 -11.7117 39.961Z" fill="url(#paint0_radial_1062_38934)"/>
<g filter="url(#filter0_f_1062_38934)">
<path d="M-7.83153 38.879C-16.8182 30.0209 -21.3115 14.8357 -17.8102 5.00425C-14.3089 -4.92454 -4.21351 -5.70327 4.83153 3.15477C13.8182 12.0128 18.3115 27.198 14.8102 37.0295C11.3089 46.8609 1.15515 47.737 -7.83153 38.879Z" fill="url(#paint1_radial_1062_38934)"/>
</g>
<g filter="url(#filter1_f_1062_38934)">
<path d="M51.1293 13.3753C47.9728 23.3008 39.8972 27.2488 33.0474 22.1784C26.2127 17.1526 23.2382 4.99355 26.3628 -4.92112C29.5192 -14.8467 37.5949 -18.7947 44.4447 -13.7243C51.2945 -8.65386 54.2857 3.44975 51.1293 13.3753Z" fill="url(#paint2_radial_1062_38934)"/>
</g>
<path d="M7.59773 39H22.1298C24.0438 38.9642 24.7527 38.4982 25.816 37.4588C26.5958 36.5986 27.092 35.7025 26.9857 33.767L25.4262 16.3118C25.3907 15.9534 25.2489 15.6667 25.0008 15.4158C24.7527 15.2007 24.4337 15.0573 24.0793 15.0573H21.2792C21.2083 14.5197 21.102 13.9821 20.9602 13.4444C20.6766 12.5125 20.2867 11.724 19.7196 11.0789C19.1525 10.4337 18.4791 9.9319 17.6284 9.53763C16.7423 9.17921 15.7499 9 14.6157 9C13.6232 9 12.7371 9.14337 11.9574 9.43011C11.213 9.71685 10.5396 10.1828 10.0079 10.828C9.47627 11.4731 9.08639 12.2616 8.80283 13.2294C8.66106 13.767 8.51928 14.3763 8.48384 15.0573H5.89641C5.54197 15.0573 5.22297 15.2007 4.97486 15.4158C4.72675 15.6308 4.58498 15.9534 4.54953 16.3118L3.02543 33.7312C2.84821 35.8459 3.62798 36.8495 4.40776 37.7097C5.22297 38.5699 6.60529 39 7.59773 39ZM10.8232 13.9821C11.0004 13.3369 11.2485 12.7993 11.6029 12.405C11.9574 12.0108 12.3827 11.6882 12.8789 11.509C13.9777 11.1147 15.4309 11.1505 16.5297 11.509C18.0538 12.0466 18.7981 13.3369 18.869 14.9498H10.6814C10.7168 14.7348 10.7523 14.1971 10.8232 13.9821ZM5.57741 33.767L7.03062 17.7097H18.7981V22.4767L21.3146 20.5412V17.7455H22.8033L24.2211 33.9462C24.3274 34.914 23.7957 35.5233 23.4767 35.81C23.1577 36.0968 22.5552 36.3477 22.1298 36.3477H7.59773C7.1724 36.3118 6.64074 36.0968 6.2863 35.7384C5.93185 35.3082 5.50652 34.8065 5.57741 33.767Z" fill="white"/>
</g>
<defs>
<filter id="filter0_f_1062_38934" x="-25" y="-9" width="47" height="60" filterUnits="userSpaceOnUse" color-interpolation-filters="sRGB">
<feFlood flood-opacity="0" result="BackgroundImageFix"/>
<feBlend mode="normal" in="SourceGraphic" in2="BackgroundImageFix" result="shape"/>
<feGaussianBlur stdDeviation="3" result="effect1_foregroundBlur_1062_38934"/>
</filter>
<filter id="filter1_f_1062_38934" x="15.1217" y="-25.9352" width="47.2649" height="60.3245" filterUnits="userSpaceOnUse" color-interpolation-filters="sRGB">
<feFlood flood-opacity="0" result="BackgroundImageFix"/>
<feBlend mode="normal" in="SourceGraphic" in2="BackgroundImageFix" result="shape"/>
<feGaussianBlur stdDeviation="5" result="effect1_foregroundBlur_1062_38934"/>
</filter>
<radialGradient id="paint0_radial_1062_38934" cx="0" cy="0" r="1" gradientUnits="userSpaceOnUse" gradientTransform="translate(2.63189 3.03122) rotate(111.22) scale(39.6574 34.0662)">
<stop stop-color="#3160CD"/>
<stop offset="1" stop-color="#3160CD" stop-opacity="0"/>
</radialGradient>
<radialGradient id="paint1_radial_1062_38934" cx="0" cy="0" r="1" gradientUnits="userSpaceOnUse" gradientTransform="translate(-1.52405 21.022) rotate(109.428) scale(18.9742 20.7108)">
<stop stop-color="#05D476"/>
<stop offset="1" stop-color="#05D476" stop-opacity="0"/>
</radialGradient>
<radialGradient id="paint2_radial_1062_38934" cx="0" cy="0" r="1" gradientUnits="userSpaceOnUse" gradientTransform="translate(41.9861 5.45639) rotate(166.8) scale(13.0154 13.0308)">
<stop stop-color="#FF7613"/>
<stop offset="1" stop-color="#B03D9C"/>
</radialGradient>
<clipPath id="clip0_1062_38934">
<rect width="32" height="32" rx="4" fill="white"/>
</clipPath>
</defs>
</svg>
