<?xml version="1.0" encoding="utf-8"?><svg width="54" height="54" fill="none" xmlns="http://www.w3.org/2000/svg" viewBox="0 0 54 54"><g clip-path="url(#amclip0_1006_5462)"><path d="M27 3.375C12.113 3.375 0 13.973 0 27c0 5.34 2.039 10.462 5.782 14.58L.409 47.837c-.432.5-.53 1.205-.254 1.802.274.601.875.986 1.533.986H27c14.887 0 27-10.598 27-23.625S41.887 3.375 27 3.375z" fill="#087BA8"/><path d="M27 30a3 3 0 100-6 3 3 0 000 6zM15 30a3 3 0 100-6 3 3 0 000 6zM39 30a3 3 0 100-6 3 3 0 000 6z" fill="#fff"/></g><defs><clipPath id="amclip0_1006_5462"><path fill="#fff" d="M0 0h54v54H0z"/></clipPath></defs></svg>