<?xml version="1.0" encoding="utf-8"?><svg width="48" height="48" fill="none" xmlns="http://www.w3.org/2000/svg" viewBox="0 0 48 48"><path d="M15.813 23.15a.944.944 0 00-.663-.275c-.246 0-.488.1-.662.275a.945.945 0 00-.275.663c0 .246.1.488.275.662a.944.944 0 00.662.275c.247 0 .489-.1.663-.275a.944.944 0 00.275-.663c0-.246-.1-.488-.275-.662zM15.813 29.9a.944.944 0 00-.663-.275c-.246 0-.488.1-.662.275a.943.943 0 00-.275.663c0 .246.1.488.275.662a.944.944 0 00.662.275c.247 0 .489-.1.663-.275a.944.944 0 00.275-.663c0-.246-.1-.488-.275-.662zM15.813 36.65a.944.944 0 00-.663-.275c-.246 0-.488.1-.662.275a.945.945 0 00-.275.663c0 .246.1.488.275.662a.944.944 0 00.662.275c.247 0 .489-.1.663-.275a.944.944 0 00.275-.663c0-.246-.1-.488-.275-.662zM33.786 22.875h-14.56a.938.938 0 000 1.875h14.56a.938.938 0 000-1.875zM33.786 29.625h-14.56a.938.938 0 000 1.875h14.56a.938.938 0 000-1.875zM33.786 36.375h-14.56a.938.938 0 000 1.875h14.56a.938.938 0 000-1.875z" fill="#087BA8"/><path d="M41.99 18.892v-.01a.935.935 0 00-.272-.607l-9.75-9.75a.937.937 0 00-.663-.275h-6.36V6.562A6.57 6.57 0 0018.383 0a6.57 6.57 0 00-6.563 6.563V8.25H9.758A3.754 3.754 0 006.008 12v32.25A3.754 3.754 0 009.758 48h28.484a3.754 3.754 0 003.75-3.75V18.937l-.001-.045zm-9.748-7.441L38.792 18h-4.44a2.112 2.112 0 01-2.11-2.11v-4.44zm-13.86-9.576a4.693 4.693 0 014.688 4.688v8.583A2.857 2.857 0 0120.216 18a2.857 2.857 0 01-2.854-2.854V6.493a1.001 1.001 0 012 0v8.538a.938.938 0 001.875 0V6.493a2.878 2.878 0 00-2.875-2.875 2.878 2.878 0 00-2.875 2.875V8.25h-1.792V6.562a4.693 4.693 0 014.688-4.687zM40.118 44.25a1.877 1.877 0 01-1.875 1.875H9.758a1.877 1.877 0 01-1.875-1.875V12c0-1.034.84-1.875 1.875-1.875h5.729v5.02a4.734 4.734 0 004.729 4.73 4.734 4.734 0 004.73-4.73v-5.02h5.421v5.766a3.989 3.989 0 003.984 3.984h5.766V44.25z" fill="#087BA8"/></svg>