<?xml version="1.0" encoding="utf-8"?><svg width="20" height="20" fill="none" xmlns="http://www.w3.org/2000/svg" viewBox="0 0 20 20"><g clip-path="url(#apclip0_500_975)"><path d="M10 0C4.473 0 0 4.473 0 10s4.473 10 10 10 10-4.473 10-10S15.527 0 10 0zM6.13 2.06a22.813 22.813 0 00-.761 2.512c-.6-.182-1.189-.4-1.767-.655A8.852 8.852 0 016.13 2.061zM2.827 4.854c.749.347 1.515.637 2.297.87a23.125 23.125 0 00-.388 3.691H1.191a8.744 8.744 0 011.635-4.56zm0 10.294a8.745 8.745 0 01-1.635-4.561h3.544c.031 1.249.16 2.481.388 3.692-.782.232-1.548.522-2.297.869zm.776.936a15.78 15.78 0 011.767-.655c.205.85.46 1.687.762 2.511a8.853 8.853 0 01-2.53-1.856zm5.812 2.726a8.835 8.835 0 01-1.802-.306 21.714 21.714 0 01-1.11-3.374c.95-.212 1.922-.336 2.912-.371v4.05zm0-5.224a17.091 17.091 0 00-3.154.397 21.961 21.961 0 01-.352-3.396h3.506v2.999zm0-4.17H5.908c.03-1.15.147-2.283.352-3.397 1.029.229 2.082.362 3.154.397v3zm0-4.173a15.91 15.91 0 01-2.911-.371 21.713 21.713 0 011.109-3.374 8.831 8.831 0 011.802-.306v4.051zm7.76-.389a8.744 8.744 0 011.634 4.561h-3.543a23.127 23.127 0 00-.388-3.692 16.994 16.994 0 002.297-.869zm-.776-.936c-.578.255-1.168.473-1.767.655-.205-.85-.46-1.687-.762-2.511a8.852 8.852 0 012.53 1.856zm-5.812-2.726c.615.04 1.219.143 1.802.306a21.71 21.71 0 011.11 3.374 15.91 15.91 0 01-2.912.371v-4.05zm0 5.224a17.084 17.084 0 003.154-.397 21.97 21.97 0 01.352 3.396h-3.506V6.415zm1.802 12.088a8.826 8.826 0 01-1.802.305v-4.05c.99.035 1.961.159 2.911.371a21.707 21.707 0 01-1.109 3.374zm-1.802-4.918v-3h3.506a21.969 21.969 0 01-.352 3.397 17.092 17.092 0 00-3.154-.397zm3.283 4.354c.303-.824.557-1.662.762-2.511.6.182 1.189.4 1.767.655a8.853 8.853 0 01-2.529 1.856zm3.305-2.792a17.001 17.001 0 00-2.297-.87c.227-1.21.357-2.442.388-3.691h3.543a8.744 8.744 0 01-1.634 4.56z" fill="#fff"/></g><defs><clipPath id="apclip0_500_975"><path fill="#fff" d="M0 0h20v20H0z"/></clipPath></defs></svg>