<?xml version="1.0" encoding="utf-8"?><svg width="54" height="54" fill="none" xmlns="http://www.w3.org/2000/svg" viewBox="0 0 54 54"><circle cx="27" cy="27" r="27" fill="#087BA8"/><path d="M40.348 24.5l-5.702-5.587a2.264 2.264 0 00-1.575-.64H30.98v-1.636c0-.902-.749-1.636-1.67-1.636L26.897 15c-.921 0-1.67.734-1.67 1.636v1.637c-1.228 0-2.227.978-2.227 2.181v16.363C23 38.021 24 39 25.227 39L38.773 39C40.001 39 41 38.022 41 36.818V26.042c0-.575-.238-1.137-.652-1.543zM29.309 34.636c-1.535 0-2.783-1.224-2.783-2.727 0-1.37 2-3.297 2.4-3.669.216-.2.55-.2.766 0 .401.372 2.4 2.299 2.4 3.669 0 1.503-1.247 2.727-2.783 2.727zm8.418-6.48c-.315.31-.735.48-1.18.48-.446 0-.866-.17-1.181-.48l-4.454-4.363a1.614 1.614 0 010-2.314 1.696 1.696 0 012.362 0l4.453 4.363a1.614 1.614 0 010 2.314zM13.802 21.225a1.055 1.055 0 00-1.493 1.492l1.987 1.987c.412.412 1.08.412 1.493 0l3.902-3.902a1.055 1.055 0 00-1.493-1.493l-3.156 3.156-1.24-1.24zM14.326 29.31a1.055 1.055 0 00-1.492 1.492l4.84 4.84a1.055 1.055 0 001.492-1.492l-4.84-4.84z" fill="#fff"/><path d="M19.166 30.802a1.055 1.055 0 00-1.492-1.493l-4.84 4.84a1.055 1.055 0 001.492 1.493l4.84-4.84z" fill="#fff"/></svg>