<?xml version="1.0" encoding="utf-8"?><svg width="20" height="20" fill="none" xmlns="http://www.w3.org/2000/svg" viewBox="0 0 20 20"><path d="M10 0a8.333 8.333 0 00-5.892 14.225L10 20l5.893-5.776a8.293 8.293 0 002.44-5.892A8.334 8.334 0 0010 0zm4.716 13.044L10 17.666l-4.725-4.632a6.607 6.607 0 01-1.942-4.7A6.674 6.674 0 0110 1.666c1.78 0 3.455.694 4.714 1.953a6.623 6.623 0 011.953 4.712 6.609 6.609 0 01-1.951 4.712z" fill="#B7D9E6"/><path d="M10 4.167a4.166 4.166 0 100 8.333 4.166 4.166 0 000-8.333zm0 6.667a2.5 2.5 0 110-5 2.5 2.5 0 010 5z" fill="#B7D9E6"/></svg>