<?xml version="1.0" encoding="utf-8"?><svg width="38" height="38" fill="none" xmlns="http://www.w3.org/2000/svg" viewBox="0 0 38 38"><g clip-path="url(#avclip0_1006_5408)" fill="#087BA8"><path d="M32.092 5.908A18.394 18.394 0 0019 .486 18.394 18.394 0 005.908 5.908 18.394 18.394 0 00.486 19c0 4.945 1.925 9.595 5.422 13.092A18.394 18.394 0 0019 37.514c3.386 0 6.698-.922 9.58-2.668a1.447 1.447 0 00-1.5-2.474 15.593 15.593 0 01-8.08 2.25c-8.614 0-15.622-7.008-15.622-15.622S10.386 3.379 19 3.379 34.62 10.386 34.62 19c0 3.08-.916 6.078-2.649 8.67a1.446 1.446 0 102.405 1.608A18.441 18.441 0 0037.514 19c0-4.945-1.926-9.595-5.422-13.092z"/><path d="M17.457 11.437a3.22 3.22 0 00-3.257-.005 3.234 3.234 0 00-1.635 2.832v9.472c0 1.184.61 2.243 1.635 2.833.509.293 1.066.439 1.624.439.561 0 1.122-.148 1.633-.445l8.161-4.736A3.236 3.236 0 0027.245 19c0-1.18-.608-2.236-1.627-2.827l-8.161-4.736zm6.71 7.888l-8.162 4.736a.344.344 0 01-.361 0 .358.358 0 01-.187-.325v-9.472c0-.18.102-.277.187-.326a.363.363 0 01.18-.05c.056 0 .116.014.181.051l8.161 4.736a.358.358 0 01.186.325c0 .1-.032.236-.186.325z"/></g><defs><clipPath id="avclip0_1006_5408"><path fill="#fff" transform="translate(.486 .486)" d="M0 0h37.029v37.029H0z"/></clipPath></defs></svg>