<?xml version="1.0" encoding="utf-8"?><svg width="54" height="54" fill="none" xmlns="http://www.w3.org/2000/svg" viewBox="0 0 54 54"><path d="M11.137 32.467c-1.113 2.802-2.868 5.57-5.214 8.235a2.49 2.49 0 00-.236 3.004 2.444 2.444 0 002.092 1.148c.237 0 .473-.017.71-.102 4.96-1.45 16.554-6.598 16.874-23.102.118-6.361-4.54-11.829-10.597-12.453-3.358-.338-6.7.76-9.18 2.987a11.876 11.876 0 00-3.899 8.792c0 5.568 3.95 10.445 9.45 11.491zM41.698 9.197a11.951 11.951 0 00-9.163 2.987 11.876 11.876 0 00-3.898 8.792c0 5.568 3.949 10.445 9.45 11.491-1.114 2.802-2.869 5.57-5.215 8.235a2.489 2.489 0 00-.236 3.004 2.444 2.444 0 002.093 1.148c.236 0 .472-.017.708-.102 4.962-1.45 16.555-6.598 16.875-23.102v-.236c0-6.26-4.606-11.593-10.614-12.217z" fill="#087BA8"/></svg>