<?xml version="1.0" encoding="utf-8"?><svg width="40" height="40" fill="none" xmlns="http://www.w3.org/2000/svg" viewBox="0 0 40 40"><path d="M38.354 3.314v8.344a1.668 1.668 0 11-3.337 0V7.346l-9.693 9.701a1.663 1.663 0 01-1.181.49 1.668 1.668 0 01-1.18-2.847l9.696-9.707h-4.311a1.669 1.669 0 010-3.337h8.337a1.667 1.667 0 011.669 1.668zm-1.669 23.358c-.922 0-1.668.748-1.668 1.67v4.312l-9.53-9.45a1.724 1.724 0 00-2.405 0c-.652.65-.675 1.707-.024 2.358l9.435 9.455H28.173a1.67 1.67 0 00-.002 3.336l8.336.001c.443 0 .957-.176 1.269-.489.313-.312.578-.737.578-1.179v-8.345a1.67 1.67 0 00-1.669-1.669zm-22.172-3.541l-9.53 9.524V28.34c0-.921-.732-1.667-1.653-1.667h.007c-.922 0-1.665.747-1.665 1.667v8.344a1.67 1.67 0 001.67 1.669h8.338a1.669 1.669 0 000-3.338H7.37l9.518-9.527a1.668 1.668 0 00-.008-2.36 1.678 1.678 0 00-2.367.002zM7.34 5.133h4.311a1.667 1.667 0 100-3.336H3.315a1.669 1.669 0 00-1.669 1.667v8.345a1.67 1.67 0 003.337 0V7.496l9.618 9.625c.326.326.753.49 1.18.49a1.669 1.669 0 001.18-2.849l-9.62-9.629z" fill="#087BA8"/></svg>