<?xml version="1.0" encoding="utf-8"?><svg width="24" height="24" fill="none" xmlns="http://www.w3.org/2000/svg" viewBox="0 0 24 24"><g clip-path="url(#bgclip0_1018_3640)"><path d="M23.974.73c-.122-.514-.686-.863-1.198-.681 0 0-22.163 7.82-22.167 7.823a.938.938 0 00-.608.822.955.955 0 00.529.88l8.585 4.006 4.19-4.189c.83-.83 2.154.454 1.303 1.303l-4.19 4.19s4.002 8.573 4.01 8.587a.987.987 0 00.832.528c.38.018.733-.273.87-.614l7.822-22.16a.863.863 0 00.022-.495z" fill="#fff"/></g><defs><clipPath id="bgclip0_1018_3640"><path fill="#fff" d="M0 0h24v24H0z"/></clipPath></defs></svg>