<?xml version="1.0" encoding="utf-8"?><svg width="20" height="20" fill="none" xmlns="http://www.w3.org/2000/svg" viewBox="0 0 20 20"><g clip-path="url(#beclip0_486_12442)"><path d="M8.974 0C4.028 0 0 4.028 0 8.974c0 4.945 4.028 8.981 8.974 8.981a8.92 8.92 0 005.59-1.969l3.738 3.736a1 1 0 001.414-1.412l-3.738-3.738a8.937 8.937 0 001.972-5.598C17.95 4.028 13.92 0 8.973 0zm0 1.995a6.963 6.963 0 016.979 6.979 6.97 6.97 0 01-6.98 6.987 6.97 6.97 0 01-6.978-6.987 6.963 6.963 0 016.979-6.98z" fill="#087BA8"/></g><defs><clipPath id="beclip0_486_12442"><path fill="#fff" d="M0 0h20v20H0z"/></clipPath></defs></svg>