<?xml version="1.0" encoding="utf-8"?><svg width="20" height="20" fill="none" xmlns="http://www.w3.org/2000/svg" viewBox="0 0 20 20"><g clip-path="url(#bfclip0_1018_3600)"><path d="M14.576 20c-.778 0-1.55-.221-2.214-.64-1.701-1.072-4.218-2.839-6.55-5.171-2.333-2.332-4.1-4.85-5.172-6.55a4.116 4.116 0 01.562-5.112L3.487.24a.822.822 0 011.162 0l3.487 3.487a2.45 2.45 0 01.722 1.743 2.45 2.45 0 01-.722 1.744L7.109 8.242a29.728 29.728 0 002.19 2.46 29.67 29.67 0 002.46 2.19l1.026-1.028a2.468 2.468 0 013.487 0l3.487 3.487a.822.822 0 010 1.162L17.474 18.8A4.11 4.11 0 0114.576 20zM4.069 1.984L2.364 3.688a2.464 2.464 0 00-.334 3.074c1.028 1.63 2.72 4.04 4.944 6.265 2.224 2.224 4.634 3.916 6.264 4.943.99.623 2.254.486 3.074-.334l1.704-1.704-2.906-2.905a.823.823 0 00-1.162 0l-1.542 1.54a.822.822 0 01-1.08.073 32.07 32.07 0 01-3.19-2.776 32.104 32.104 0 01-2.776-3.19.822.822 0 01.072-1.08l1.542-1.542a.817.817 0 00.24-.58.817.817 0 00-.24-.582L4.068 1.984z" fill="#B7D9E6"/></g><defs><clipPath id="bfclip0_1018_3600"><path fill="#fff" d="M0 0h20v20H0z"/></clipPath></defs></svg>