<?xml version="1.0" encoding="utf-8"?><svg width="20" height="20" fill="none" xmlns="http://www.w3.org/2000/svg" viewBox="0 0 20 20"><g clip-path="url(#bjclip0_500_980)"><path d="M9.84 0C6.677 0 4.088 2.59 4.088 5.752a5.74 5.74 0 002.447 4.69C3.1 11.817.665 15.175.665 19.092a.906.906 0 001.81 0 7.497 7.497 0 017.512-7.509c4.158 0 7.509 3.351 7.509 7.51a.907.907 0 101.814 0c0-3.993-2.532-7.4-6.07-8.726a5.736 5.736 0 002.343-4.616C15.583 2.59 13.003 0 9.84 0zm0 1.814a3.922 3.922 0 013.931 3.938A3.915 3.915 0 019.84 9.684a3.921 3.921 0 01-3.939-3.932A3.928 3.928 0 019.84 1.814z" fill="#fff"/></g><defs><clipPath id="bjclip0_500_980"><path fill="#fff" d="M0 0h20v20H0z"/></clipPath></defs></svg>