<?xml version="1.0" encoding="utf-8"?><svg width="32" height="32" fill="none" xmlns="http://www.w3.org/2000/svg" viewBox="0 0 32 32"><g clip-path="url(#blclip0_1031_3623)"><rect width="32" height="32" rx="4" fill="url(#blpaint0_linear_1031_3623)"/><path d="M15.997 4.185c-4.841 0-9.438-.43-11.194 4.076-.726 1.862-.62 4.279-.62 7.74 0 3.038-.098 5.892.62 7.739 1.752 4.51 6.386 4.077 11.192 4.077 4.636 0 9.416.483 11.193-4.077.727-1.88.62-4.261.62-7.739 0-4.616.255-7.596-1.984-9.833-2.267-2.267-5.332-1.983-9.832-1.983h.005zm-1.058 2.13c10.098-.016 11.384-1.14 10.674 14.457-.252 5.516-4.452 4.91-9.614 4.91-9.414 0-9.684-.269-9.684-9.686 0-9.527.746-9.676 8.624-9.684v.003zm7.365 1.96a1.417 1.417 0 100 2.836 1.417 1.417 0 000-2.835zm-6.307 1.658a6.068 6.068 0 000 12.135A6.065 6.065 0 0022.063 16a6.067 6.067 0 00-6.066-6.068zm0 2.13c5.207 0 5.214 7.877 0 7.877-5.205 0-5.213-7.877 0-7.877z" fill="#fff"/></g><defs><linearGradient id="blpaint0_linear_1031_3623" x1="2.148" y1="29.915" x2="31.799" y2="4.248" gradientUnits="userSpaceOnUse"><stop stop-color="#FD5"/><stop offset=".5" stop-color="#FF543E"/><stop offset="1" stop-color="#C837AB"/></linearGradient><clipPath id="blclip0_1031_3623"><path fill="#fff" d="M0 0h32v32H0z"/></clipPath></defs></svg>