<?xml version="1.0" encoding="utf-8"?><svg width="32" height="32" fill="none" xmlns="http://www.w3.org/2000/svg" viewBox="0 0 32 32"><g clip-path="url(#bjclip0_1018_3627)"><rect width="32" height="32" rx="4" fill="#F96600"/><path d="M15.017 20.087c-1.551-.162-2.95-.545-4.146-1.48-.149-.116-.302-.229-.438-.363-.524-.504-.576-1.08-.162-1.673.355-.51.95-.646 1.57-.353.118.06.232.13.341.207a6.793 6.793 0 007.533.07c.214-.174.462-.303.727-.379a1.147 1.147 0 011.318.526c.327.534.324 1.054-.08 1.469a6.054 6.054 0 01-2.19 1.416c-.803.288-1.639.476-2.488.558.127.14.182.208.27.288 1.15 1.158 2.306 2.31 3.454 3.47a1.142 1.142 0 01.258 1.346 1.36 1.36 0 01-1.273.798 1.24 1.24 0 01-.809-.414c-.87-.875-1.755-1.733-2.605-2.624-.248-.258-.364-.21-.586.014-.874.91-1.764 1.788-2.656 2.668a1.116 1.116 0 01-1.346.242 1.362 1.362 0 01-.785-1.253c.026-.324.177-.626.422-.84 1.142-1.138 2.28-2.277 3.414-3.417.077-.078.15-.16.257-.276z" fill="#fff"/><path d="M15.96 16.124a5.062 5.062 0 11.06-10.125 5.062 5.062 0 01-.06 10.125zm2.515-5.068a2.476 2.476 0 10-2.462 2.484 2.468 2.468 0 002.462-2.484z" fill="#fff"/></g><defs><clipPath id="bjclip0_1018_3627"><path fill="#fff" d="M0 0h32v32H0z"/></clipPath></defs></svg>