<?xml version="1.0" encoding="utf-8"?><svg width="32" height="32" fill="none" xmlns="http://www.w3.org/2000/svg" viewBox="0 0 32 32"><g clip-path="url(#bkclip0_1018_3633)"><rect width="32" height="32" rx="4" fill="#005BFF"/><path fill-rule="evenodd" clip-rule="evenodd" d="M29.618 9.422c-.09-.889 1.244-1.35 1.689-.55.32.728.444 1.528.693 2.293v4.124c-1.671-.764-3.36-1.476-5.031-2.222.284 1.03.622 2.062.8 3.129.142.71-.836 1.315-1.387.835-.48-.355-.515-.995-.675-1.529-.445-1.813-1.032-3.59-1.387-5.44.569-.035 1.049.267 1.547.48 1.546.676 3.075 1.351 4.622 2.027-.356-1.031-.622-2.098-.871-3.147zm-14.667 3.77c1.618-1.44 3.911-2.063 6.027-1.619 1.297.303 2.649 1.103 3.004 2.454.231.693.107 1.422-.107 2.098-.497 1.12-1.422 1.99-2.488 2.577-1.938 1.031-4.445 1.262-6.383.09-.87-.57-1.582-1.53-1.493-2.614-.107-1.174.605-2.222 1.44-2.987zm.284 2.986c.143.427.356.853.783 1.066 1.333.747 3.004.534 4.337-.106.872-.427 1.743-1.138 1.92-2.134.09-.515-.266-.96-.693-1.208-.853-.551-1.938-.48-2.898-.391-1.493.284-3.093 1.19-3.449 2.773zm-8.8-1.245c-.408.125-.568.534-.71.89.124.55.604 1.12 1.226.924.818-.231 1.618-.427 2.436-.676-.818 1.956-1.583 3.911-2.365 5.885-.106.213-.106.657.231.55 2.027-.533 4.071-1.066 6.08-1.635.587-.178.64-.924.427-1.404-.249-.356-.711-.48-1.138-.356-.924.285-1.867.498-2.809.765.605-1.494 1.21-2.987 1.796-4.48.231-.623.551-1.21.658-1.867-.303 0-.605 0-.89.071-1.635.462-3.288.889-4.941 1.333zM0 16.623c1.084-.498 2.364-.534 3.413.053 1.494.746 2.383 2.47 2.116 4.124-.16 1.6-1.476 3.022-3.076 3.271-.835.231-1.67-.053-2.47-.32v-2.453c.533.764 1.564 1.244 2.453.853 1.048-.355 1.6-1.689 1.137-2.684-.355-.996-1.6-1.636-2.595-1.191-.41.16-.73.462-.996.817v-2.47H0z" fill="#fff"/><path fill-rule="evenodd" clip-rule="evenodd" d="M15.236 16.178c.355-1.582 1.955-2.489 3.448-2.773.978-.09 2.045-.16 2.898.39.41.25.782.694.694 1.21-.196.995-1.067 1.706-1.92 2.133-1.334.64-3.005.853-4.338.107-.427-.214-.64-.64-.782-1.067zm6.15 2.542c-1.937 1.031-4.444 1.262-6.381.09L13.565 32h14.488c1.014.018 2.098-.213 2.845-.96.853-.746 1.155-1.902 1.12-3.004v-3.147c-2.685-2.933-5.422-5.831-8.125-8.747-.515 1.103-1.44 1.992-2.506 2.578z" fill="#F91155"/></g><defs><clipPath id="bkclip0_1018_3633"><path fill="#fff" d="M0 0h32v32H0z"/></clipPath></defs></svg>