<?xml version="1.0" encoding="utf-8"?><svg width="32" height="32" fill="none" xmlns="http://www.w3.org/2000/svg" viewBox="0 0 32 32"><g clip-path="url(#bqclip0_1062_38934)"><rect width="32" height="32" rx="4" fill="#fff"/><path d="M-15.513-29.115h68.736V77.394h-68.736v-106.51z" fill="#8427BD"/><path d="M-11.712 39.961c-15-13.374-20.717-40.747-12.805-61.19 7.912-20.442 26.525-26.124 41.48-12.75 15 13.374 20.717 40.747 12.805 61.19-7.912 20.442-26.48 26.124-41.48 12.75z" fill="url(#bqpaint0_radial_1062_38934)"/><g filter="url(#bqfilter0_f_1062_38934)"><path d="M-7.832 38.879c-8.986-8.858-13.48-24.043-9.978-33.875C-14.31-4.925-4.214-5.703 4.832 3.154c8.986 8.859 13.48 24.044 9.978 33.876-3.501 9.83-13.655 10.707-22.642 1.849z" fill="url(#bqpaint1_radial_1062_38934)"/></g><g filter="url(#bqfilter1_f_1062_38934)"><path d="M51.13 13.375c-3.157 9.926-11.233 13.874-18.083 8.803-6.834-5.025-9.809-17.184-6.684-27.1 3.156-9.925 11.232-13.873 18.082-8.802 6.85 5.07 9.84 17.174 6.684 27.1z" fill="url(#bqpaint2_radial_1062_38934)"/></g><path d="M7.598 39H22.13c1.914-.036 2.623-.502 3.686-1.541.78-.86 1.276-1.757 1.17-3.692l-1.56-17.455a1.422 1.422 0 00-.425-.896 1.408 1.408 0 00-.922-.359h-2.8a12.971 12.971 0 00-.319-1.613c-.283-.932-.673-1.72-1.24-2.365a6.142 6.142 0 00-2.092-1.541C16.742 9.179 15.75 9 14.616 9c-.993 0-1.879.143-2.659.43a4.697 4.697 0 00-1.95 1.398c-.53.645-.92 1.434-1.204 2.401-.142.538-.284 1.147-.32 1.828H5.897c-.354 0-.673.144-.921.359s-.39.537-.425.896l-1.525 17.42c-.177 2.114.603 3.117 1.383 3.978.815.86 2.197 1.29 3.19 1.29zm3.225-25.018c.177-.645.425-1.183.78-1.577.354-.394.78-.717 1.276-.896 1.099-.394 2.552-.359 3.65 0 1.525.538 2.27 1.828 2.34 3.44h-8.188c.036-.214.071-.752.142-.967zM5.577 33.767L7.031 17.71h11.767v4.767l2.517-1.936v-2.796h1.488l1.418 16.201c.106.968-.425 1.577-.744 1.864-.32.287-.922.538-1.347.538H7.598a2.22 2.22 0 01-1.312-.61c-.354-.43-.78-.931-.709-1.971z" fill="#fff"/></g><defs><radialGradient id="bqpaint0_radial_1062_38934" cx="0" cy="0" r="1" gradientUnits="userSpaceOnUse" gradientTransform="matrix(-14.354 36.96853 -31.75643 -12.33026 2.632 3.031)"><stop stop-color="#3160CD"/><stop offset="1" stop-color="#3160CD" stop-opacity="0"/></radialGradient><radialGradient id="bqpaint1_radial_1062_38934" cx="0" cy="0" r="1" gradientUnits="userSpaceOnUse" gradientTransform="rotate(109.428 -8.2 9.972) scale(18.9742 20.7108)"><stop stop-color="#05D476"/><stop offset="1" stop-color="#05D476" stop-opacity="0"/></radialGradient><radialGradient id="bqpaint2_radial_1062_38934" cx="0" cy="0" r="1" gradientUnits="userSpaceOnUse" gradientTransform="rotate(166.8 20.677 5.157) scale(13.0154 13.0308)"><stop stop-color="#FF7613"/><stop offset="1" stop-color="#B03D9C"/></radialGradient><filter id="bqfilter0_f_1062_38934" x="-25" y="-9" width="47" height="60" filterUnits="userSpaceOnUse" color-interpolation-filters="sRGB"><feFlood flood-opacity="0" result="BackgroundImageFix"/><feBlend in="SourceGraphic" in2="BackgroundImageFix" result="shape"/><feGaussianBlur stdDeviation="3" result="effect1_foregroundBlur_1062_38934"/></filter><filter id="bqfilter1_f_1062_38934" x="15.122" y="-25.935" width="47.265" height="60.325" filterUnits="userSpaceOnUse" color-interpolation-filters="sRGB"><feFlood flood-opacity="0" result="BackgroundImageFix"/><feBlend in="SourceGraphic" in2="BackgroundImageFix" result="shape"/><feGaussianBlur stdDeviation="5" result="effect1_foregroundBlur_1062_38934"/></filter><clipPath id="bqclip0_1062_38934"><rect width="32" height="32" rx="4" fill="#fff"/></clipPath></defs></svg>