<?xml version="1.0" encoding="utf-8"?><svg width="32" height="32" fill="none" xmlns="http://www.w3.org/2000/svg" viewBox="0 0 32 32"><g clip-path="url(#brclip0_1018_3612)"><rect width="32" height="32" rx="4" fill="#2787F5"/><path fill-rule="evenodd" clip-rule="evenodd" d="M26.391 10.895c.144-.504 0-.863-.719-.863h-2.409c-.611 0-.899.323-1.043.683 0 0-1.222 2.984-2.948 4.89-.54.539-.827.755-1.115.755-.143 0-.36-.18-.36-.683v-4.782c0-.612-.179-.863-.682-.863h-3.776c-.395 0-.61.287-.61.539 0 .575.862.719.97 2.337v3.524c0 .755-.144.898-.431.898-.828 0-2.77-2.984-3.956-6.4-.215-.683-.467-.934-1.078-.934h-2.41c-.682 0-.826.323-.826.683 0 .647.827 3.775 3.775 7.946 1.978 2.84 4.782 4.386 7.299 4.386 1.51 0 1.726-.36 1.726-.934v-2.158c0-.683.144-.827.611-.827.36 0 .97.18 2.373 1.546 1.618 1.618 1.906 2.337 2.805 2.337h2.409c.683 0 1.042-.36.827-1.006-.216-.684-1.007-1.654-2.014-2.805-.575-.647-1.402-1.366-1.654-1.726-.36-.467-.252-.647 0-1.078 0 .036 2.912-4.1 3.236-5.465z" fill="#fff"/></g><defs><clipPath id="brclip0_1018_3612"><path fill="#fff" d="M0 0h32v32H0z"/></clipPath></defs></svg>