<?xml version="1.0" encoding="utf-8"?><svg width="32" height="32" fill="none" xmlns="http://www.w3.org/2000/svg" viewBox="0 0 32 32"><g clip-path="url(#bsclip0_476_46)"><rect width="32" height="32" rx="4" fill="url(#bspaint0_linear_476_46)"/><path fill-rule="evenodd" clip-rule="evenodd" d="M9.578 21.274h-2L4.6 10.748h1.822l2.2 8.217L11 10.748h1.6l2.378 8.217 2.2-8.217H19l-2.956 10.526h-2l-2.222-7.661-2.244 7.661zm16.355-5.463c.911.489 1.467 1.355 1.467 2.443 0 .866-.311 1.577-.911 2.154-.622.577-1.356.866-2.245.866h-4.51V10.748h4.177c.867 0 1.6.289 2.178.844.6.555.911 1.243.911 2.065 0 .933-.356 1.643-1.067 2.154zm-2.022-3.442h-2.444v2.754h2.444c.756 0 1.356-.6 1.356-1.377s-.578-1.377-1.356-1.377zm-2.444 7.284h2.777c.8 0 1.423-.644 1.423-1.466 0-.821-.623-1.465-1.423-1.465h-2.777v2.93z" fill="#fff"/></g><defs><linearGradient id="bspaint0_linear_476_46" x1="3.252" y1="28.517" x2="28.536" y2="3.684" gradientUnits="userSpaceOnUse"><stop stop-color="#B72894"/><stop offset="1" stop-color="#6A27BA"/></linearGradient><clipPath id="bsclip0_476_46"><path fill="#fff" d="M0 0h32v32H0z"/></clipPath></defs></svg>