<?xml version="1.0" encoding="utf-8"?><svg width="32" height="32" fill="none" xmlns="http://www.w3.org/2000/svg" viewBox="0 0 32 32"><g clip-path="url(#bqclip0_1018_3619)"><rect width="32" height="32" rx="4" fill="#E60000"/><path d="M25.533 11.19c-.4-1.232-1.724-1.977-2.942-2.148a62.393 62.393 0 00-13.182 0c-1.218.17-2.545.91-2.942 2.147a24.986 24.986 0 000 9.624c.4 1.229 1.724 1.976 2.942 2.147 4.382.466 8.8.466 13.182 0 1.218-.17 2.545-.909 2.942-2.147a24.987 24.987 0 000-9.624zm-11.926 8.643v-7.666L19.847 16c-2.103 1.293-4.145 2.546-6.24 3.833z" fill="#fff"/></g><defs><clipPath id="bqclip0_1018_3619"><path fill="#fff" d="M0 0h32v32H0z"/></clipPath></defs></svg>