<svg width="86" height="86" viewBox="0 0 86 86" fill="none" xmlns="http://www.w3.org/2000/svg">
<g clip-path="url(#clip0_718_6213)">
<path d="M23.4157 29.8915C23.4157 22.5606 26.3709 15.5908 31.6771 10.272C35.1187 6.8673 39.3856 4.41487 44.0599 3.15492V2.18018C36.8221 2.42016 30.1735 5.27213 25.0973 10.272C19.7911 15.5908 16.8352 22.5606 16.8352 29.8915C16.8352 45.1815 29.4653 57.6207 44.9876 57.6207C46.0908 57.6202 47.1931 57.557 48.2891 57.4316C34.3051 55.8266 23.4157 44.089 23.4157 29.8915Z" fill="#D4E1F4"/>
<path d="M67.4983 5.41219C66.335 5.40627 65.1961 5.7458 64.226 6.38777C63.2559 7.02975 62.4982 7.94525 62.049 9.01828C61.5997 10.0913 61.4791 11.2736 61.7024 12.4152C61.9257 13.5569 62.4829 14.6065 63.3033 15.4312C64.1238 16.2558 65.1706 16.8184 66.3111 17.0475C67.4516 17.2766 68.6345 17.1621 69.7098 16.7183C70.7851 16.2745 71.7044 15.5215 72.3513 14.5546C72.9983 13.5878 73.3436 12.4507 73.3436 11.2874C73.3458 9.73373 72.7316 8.24258 71.6358 7.14115C70.54 6.03971 69.052 5.41792 67.4983 5.41219ZM67.4983 14.9824C66.7662 14.9884 66.0488 14.7767 65.4372 14.3743C64.8256 13.9719 64.3473 13.3969 64.0631 12.7223C63.7788 12.0476 63.7013 11.3037 63.8405 10.5849C63.9797 9.86619 64.3292 9.20497 64.8448 8.68519C65.3603 8.16542 66.0187 7.81051 66.7363 7.6655C67.4539 7.52048 68.1984 7.5919 68.8753 7.8707C69.5523 8.14949 70.1312 8.62309 70.5385 9.23141C70.9459 9.83972 71.1633 10.5553 71.1633 11.2874C71.1661 12.2631 70.7819 13.2 70.0948 13.8927C69.4077 14.5854 68.4739 14.9773 67.4983 14.9824Z" fill="#087BA8"/>
<path d="M41.2028 15.5061L40.5627 17.5903C45.6171 19.1504 50.2104 21.9292 53.9383 25.682C57.6663 29.4348 60.4144 34.0465 61.9409 39.1111L64.0295 38.4851C62.3999 33.0771 59.4656 28.1528 55.4851 24.1457C51.5046 20.1386 46.5998 17.1716 41.2028 15.5061Z" fill="#00415D"/>
<path d="M35.3551 18.4648C32.6437 24.973 31.9904 32.1554 33.4833 39.046L35.6136 38.5814C34.2159 32.1284 34.8273 25.4023 37.3656 19.3071L35.3551 18.4648Z" fill="#00415D"/>
<path d="M74.6546 23.1739L74.3929 22.1149L72.2768 22.6392L72.5386 23.6982C73.668 28.2573 73.6094 33.0298 72.3686 37.5599C71.1277 42.0899 68.746 46.2261 65.451 49.5732C65.4645 49.1763 65.4735 48.779 65.4735 48.3847C65.4735 47.2279 65.4151 46.0595 65.3001 44.9118L63.1307 45.1298C63.2384 46.2044 63.2933 47.3 63.2933 48.3847C63.2933 49.368 63.2481 50.6724 63.1593 51.6571C58.8565 55.1598 53.59 57.2708 48.0591 57.7096C43.4065 54.3057 39.7524 49.7157 37.478 44.4184L35.4745 45.2782C37.5362 50.0838 40.6673 54.3555 44.6294 57.7682C30.0524 57.1172 18.3926 45.0561 18.3926 30.3215C18.3877 25.9016 19.4557 21.5467 21.5049 17.6306C24.61 16.6636 27.8438 16.1734 31.0959 16.1768C32.2529 16.1771 33.4092 16.2386 34.5597 16.3609L34.7904 14.1929C33.5632 14.0625 32.33 13.9969 31.0959 13.9966C28.3615 14.0086 25.6406 14.3809 23.0034 15.1038C25.5099 11.3352 28.9087 8.24432 32.8976 6.10583C36.8866 3.96734 41.3421 2.84753 45.8681 2.84595C46.6692 2.84595 47.4686 2.88156 48.2664 2.95278C44.3721 5.50939 41.0321 8.82348 38.4453 12.6977L40.2599 13.9062C43.0196 9.76197 47.2266 5.95052 51.5423 3.47278L51.4668 3.42606C53.966 3.94332 56.3809 4.80673 58.6416 5.99132L58.4756 5.36681L59.4897 4.56837L59.6558 4.0613C52.7702 0.448898 44.7413 -0.314996 37.2981 1.9341C29.8548 4.1832 23.5924 9.26539 19.8595 16.0864L19.5868 16.5956C17.3652 20.8294 16.2071 25.5402 16.2123 30.3215C16.2123 46.6736 29.5158 59.9772 45.8681 59.9772C46.3899 59.9772 46.9086 59.9637 47.424 59.9366C47.4535 59.957 47.4824 59.9782 47.512 59.9989L47.8235 59.9114C47.834 59.913 47.8441 59.9168 47.8532 59.9223L47.8646 59.9087C63.2895 58.8784 75.5244 46.003 75.5244 30.3216C75.5246 27.9126 75.2325 25.5125 74.6546 23.1739Z" fill="#00415D"/>
<path d="M75.907 3.42255C73.6579 1.22825 70.6402 0 67.498 0C64.3558 0 61.3381 1.22825 59.089 3.42255C56.9447 5.52705 55.6467 8.34497 55.4409 11.3424C55.3338 12.9833 55.5796 14.6281 56.1618 16.166C56.7751 17.7651 57.7101 19.2213 58.909 20.4444L66.7113 28.5879C66.8131 28.6941 66.9353 28.7787 67.0706 28.8364C67.2058 28.8942 67.3514 28.9239 67.4985 28.9239C67.6456 28.9239 67.7912 28.8942 67.9265 28.8364C68.0618 28.7787 68.184 28.6941 68.2858 28.5879L76.0881 20.4444C77.2869 19.2212 78.222 17.7651 78.8354 16.166C79.4177 14.6282 79.6635 12.9833 79.5561 11.3424C79.3501 8.34482 78.0517 5.52688 75.907 3.42255ZM76.7911 15.4054C76.2809 16.7257 75.5055 17.9273 74.5127 18.9361L67.4981 26.2579L60.4833 18.9362C59.4906 17.9274 58.7153 16.7258 58.2052 15.4056C57.7314 14.1578 57.5305 12.823 57.6161 11.491C57.7857 9.02558 58.8537 6.70797 60.6177 4.97725C62.459 3.18396 64.9277 2.18043 67.498 2.18043C70.0683 2.18043 72.537 3.18396 74.3783 4.97725C76.1423 6.70797 77.2103 9.02558 77.3799 11.491C77.4656 12.8229 77.2648 14.1577 76.7911 15.4054Z" fill="#087BA8"/>
<path d="M63.7496 37.6253C62.6197 37.6254 61.5361 38.0743 60.7371 38.8733C59.9381 39.6722 59.4892 40.7558 59.4891 41.8857C59.4905 43.0153 59.9397 44.0981 60.7385 44.8968C61.5372 45.6955 62.6201 46.1447 63.7496 46.146C63.9586 46.1464 64.1674 46.1308 64.3741 46.0993C65.4382 45.9417 66.4034 45.3874 67.0757 44.5477C67.748 43.7079 68.0778 42.6449 67.9987 41.572C67.9197 40.4992 67.4376 39.496 66.6495 38.7638C65.8613 38.0317 64.8253 37.6249 63.7496 37.625V37.6253ZM64.0464 43.9441C63.9482 43.9589 63.8489 43.9661 63.7496 43.9657C63.2413 43.9659 62.7505 43.7799 62.37 43.443C61.9894 43.106 61.7455 42.6413 61.6841 42.1367C61.6228 41.6322 61.7483 41.1226 62.0371 40.7043C62.3258 40.2859 62.7577 39.9878 63.2512 39.8662C63.4142 39.8255 63.5816 39.8052 63.7496 39.8056C64.2756 39.8054 64.7821 40.0045 65.1671 40.3628C65.5522 40.7211 65.7872 41.212 65.8248 41.7366C65.8625 42.2613 65.6999 42.7807 65.3699 43.1903C65.04 43.5999 64.567 43.8692 64.0464 43.9441Z" fill="#087BA8"/>
<path d="M35.3761 37.6143C34.5334 37.6142 33.7096 37.864 33.0089 38.3322C32.3082 38.8003 31.7621 39.4657 31.4396 40.2442C31.117 41.0227 31.0326 41.8794 31.197 42.7059C31.3614 43.5324 31.7672 44.2916 32.363 44.8875C32.9589 45.4834 33.7181 45.8892 34.5445 46.0536C35.371 46.218 36.2277 46.1336 37.0063 45.8111C37.7848 45.4886 38.4502 44.9425 38.9184 44.2418C39.3865 43.5411 39.6364 42.7174 39.6364 41.8747C39.634 40.7455 39.1844 39.6633 38.3859 38.8648C37.5875 38.0663 36.5053 37.6167 35.3761 37.6143ZM36.0974 43.826C35.6821 43.9797 35.2285 43.9968 34.8028 43.8748C34.377 43.7528 34.0013 43.4981 33.7303 43.1478C33.4594 42.7975 33.3072 42.3699 33.2961 41.9272C33.285 41.4844 33.4155 41.0497 33.6685 40.6863C33.9216 40.3228 34.284 40.0496 34.7031 39.9064C35.1222 39.7632 35.576 39.7575 35.9986 39.89C36.4211 40.0226 36.7903 40.2866 37.0525 40.6436C37.3146 41.0005 37.456 41.4318 37.4561 41.8747C37.4574 42.3001 37.3277 42.7156 37.0847 43.0647C36.8416 43.4139 36.4969 43.6797 36.0974 43.826Z" fill="#087BA8"/>
<path d="M37.754 11.7773C36.7206 11.7766 35.7221 12.1511 34.9442 12.8313C34.1662 13.5116 33.6618 14.4512 33.5248 15.4754C33.3877 16.4997 33.6272 17.5389 34.1989 18.3997C34.7706 19.2606 35.6355 19.8845 36.6327 20.1555C37.6299 20.4265 38.6916 20.3261 39.6204 19.873C40.5491 19.4199 41.2817 18.6449 41.6818 17.6921C42.082 16.7393 42.1225 15.6737 41.7959 14.6933C41.4692 13.7129 40.7976 12.8845 39.9059 12.3621C39.2535 11.9791 38.5106 11.7773 37.754 11.7773ZM39.8063 16.3739C39.7196 16.9035 39.4315 17.3792 39.0022 17.7012C38.5729 18.0233 38.0356 18.1668 37.5028 18.1018C36.9701 18.0367 36.4832 17.7682 36.1439 17.3522C35.8047 16.9363 35.6395 16.4054 35.6828 15.8704C35.7262 15.3355 35.9748 14.838 36.3766 14.4822C36.7783 14.1263 37.3022 13.9397 37.8385 13.9613C38.3747 13.9829 38.8819 14.2111 39.2537 14.5981C39.6256 14.9851 39.8333 15.5009 39.8335 16.0376C39.8336 16.1503 39.8245 16.2627 39.8063 16.3739Z" fill="#087BA8"/>
<path d="M21.8124 14.344C21.6657 12.1953 20.7371 10.1747 19.2022 8.66393C17.5929 7.0884 15.4304 6.20605 13.1783 6.20605C10.9261 6.20605 8.76361 7.0884 7.15431 8.66393C5.61927 10.1746 4.69066 12.1952 4.54391 14.344C4.46694 15.5226 4.64299 16.704 5.06025 17.809C5.49814 18.9549 6.16643 19.9988 7.0238 20.8761L12.4492 26.5534C12.5433 26.6519 12.6564 26.7302 12.7816 26.7838C12.9068 26.8373 13.0416 26.8649 13.1778 26.8649C13.3139 26.8649 13.4487 26.8373 13.5739 26.7838C13.6992 26.7302 13.8122 26.6519 13.9063 26.5534L19.3317 20.8761C20.189 19.9987 20.8573 18.9547 21.2953 17.8088C21.7128 16.704 21.8891 15.5226 21.8124 14.344ZM19.4066 17.1072C19.0638 17.9956 18.5427 18.8044 17.8754 19.4838L13.1782 24.3984L8.48093 19.4835C7.81368 18.8042 7.29258 17.9955 6.94973 17.1072C6.63239 16.27 6.4978 15.3745 6.555 14.481C6.76395 11.404 9.2991 8.22167 13.1782 8.22167C17.0572 8.22167 19.5919 11.404 19.8013 14.4809C19.8586 15.3744 19.724 16.2699 19.4066 17.1072Z" fill="#087BA8"/>
<path d="M13.3196 10.6458C12.2862 10.645 11.2877 11.0195 10.5097 11.6998C9.7318 12.38 9.22739 13.3196 9.0903 14.3439C8.95322 15.3681 9.19279 16.4073 9.76447 17.2682C10.3361 18.129 11.201 18.753 12.1982 19.0239C13.1955 19.2949 14.2572 19.1945 15.1859 18.7414C16.1146 18.2883 16.8472 17.5133 17.2474 16.5605C17.6476 15.6078 17.6881 14.5421 17.3614 13.5617C17.0348 12.5813 16.3631 11.7529 15.4715 11.2305C14.819 10.8475 14.0761 10.6457 13.3196 10.6458ZM15.3718 15.2423C15.2852 15.7719 14.9971 16.2476 14.5677 16.5696C14.1384 16.8917 13.6011 17.0352 13.0684 16.9702C12.5356 16.9051 12.0487 16.6366 11.7095 16.2207C11.3702 15.8048 11.205 15.2738 11.2484 14.7388C11.2917 14.2039 11.5403 13.7064 11.9421 13.3506C12.3439 12.9947 12.8677 12.8081 13.404 12.8297C13.9403 12.8513 14.4474 13.0795 14.8193 13.4665C15.1911 13.8535 15.3989 14.3693 15.3991 14.906C15.3992 15.0187 15.39 15.1311 15.3718 15.2423Z" fill="#087BA8"/>
<path d="M1.30048 85.6641H20.0255C20.296 85.6541 20.5518 85.5385 20.7382 85.3422L24.2769 81.7593C24.4576 81.5618 24.5528 81.3008 24.5415 81.0333V64.2052C24.5415 63.6487 24.1516 63.1562 23.595 63.1562H4.86999C4.6002 63.164 4.34425 63.2774 4.1573 63.472L0.61853 67.0518C0.529011 67.1491 0.459565 67.2631 0.414169 67.3872C0.368773 67.5114 0.34832 67.6433 0.353979 67.7754V84.6028C0.353979 85.1602 0.743834 85.6641 1.30048 85.6641ZM2.3696 68.6992H6.90476V71.0693C6.90476 71.6257 7.43571 72.0586 7.99236 72.0586H13.3548C13.4827 72.0593 13.6094 72.0339 13.7271 71.9838C13.8447 71.9337 13.9509 71.8601 14.0391 71.7674C14.1272 71.6747 14.1954 71.5649 14.2395 71.4448C14.2836 71.3248 14.3026 71.197 14.2954 71.0693V68.6992H18.9985V83.6484H14.1274V80.6045C14.1333 80.4154 14.0843 80.2285 13.9865 80.0665C13.8887 79.9046 13.7461 79.7743 13.576 79.6914L8.58042 77.3496C8.43515 77.2778 8.27345 77.2458 8.11179 77.2568C7.95013 77.2679 7.79428 77.3216 7.66011 77.4124C7.52295 77.5061 7.41224 77.6335 7.33868 77.7824C7.26512 77.9313 7.2312 78.0967 7.24019 78.2625V83.6484H2.3696V68.6992ZM19.6081 66.6836H13.0961L14.65 65.1719H21.1619L19.6081 66.6836ZM12.2798 68.6992V70.043H8.92039V68.6992H12.2798ZM12.1118 83.6484H9.25632V79.8465L12.1118 81.246V83.6484ZM21.0141 82.1703V68.1921L22.5259 66.6382V80.6159L21.0141 82.1703ZM5.28739 65.1719H11.7994L10.2455 66.6836H3.73351L5.28739 65.1719Z" fill="#087BA8"/>
<path d="M20.3684 67.8949L23.7632 63.9343L41.8684 64.5001V81.4738L38.4737 84.8685H20.3684V67.8949Z" fill="#F5F6F6"/>
<rect x="1.13159" y="50.9211" width="22.6316" height="16.9737" fill="#F5F6F6"/>
<path d="M19.9577 85.6641H38.6827C38.9532 85.6541 39.2091 85.5385 39.3954 85.3422L42.9342 81.7593C43.1149 81.5618 43.21 81.3008 43.1987 81.0333V64.2052C43.1987 63.6487 42.8089 63.1562 42.2522 63.1562H23.5272C23.2575 63.164 23.0015 63.2774 22.8146 63.472L19.2758 67.0518C19.1863 67.1491 19.1168 67.2631 19.0714 67.3872C19.026 67.5114 19.0056 67.6433 19.0112 67.7754V84.6028C19.0112 85.1602 19.4011 85.6641 19.9577 85.6641ZM21.0269 68.6992H25.562V71.0693C25.562 71.6257 26.093 72.0586 26.6496 72.0586H32.012C32.1399 72.0593 32.2666 72.0339 32.3843 71.9838C32.502 71.9337 32.6082 71.8601 32.6963 71.7674C32.7844 71.6747 32.8526 71.5649 32.8967 71.4448C32.9408 71.3248 32.9598 71.197 32.9526 71.0693V68.6992H37.6558V83.6484H32.7847V80.6045C32.7905 80.4154 32.7416 80.2285 32.6438 80.0665C32.5459 79.9046 32.4034 79.7743 32.2332 79.6914L27.2377 77.3496C27.0924 77.2778 26.9307 77.2458 26.769 77.2568C26.6074 77.2679 26.4515 77.3216 26.3174 77.4124C26.1802 77.5061 26.0695 77.6335 25.9959 77.7824C25.9224 77.9313 25.8885 78.0967 25.8974 78.2625V83.6484H21.0269V68.6992ZM38.2653 66.6836H31.7533L33.3072 65.1719H39.8192L38.2653 66.6836ZM30.937 68.6992V70.043H27.5776V68.6992H30.937ZM30.769 83.6484H27.9136V79.8465L30.769 81.246V83.6484ZM39.6714 82.1703V68.1921L41.1831 66.6382V80.6159L39.6714 82.1703ZM23.9446 65.1719H30.4566L28.9027 66.6836H22.3908L23.9446 65.1719Z" fill="#087BA8"/>
<path d="M1.29829 68.6904H20.0233C20.2938 68.6804 20.5496 68.5649 20.736 68.3686L24.2747 64.7857C24.4554 64.5882 24.5506 64.3271 24.5393 64.0597V47.2316C24.5393 46.6751 24.1494 46.1826 23.5928 46.1826H4.86779C4.59801 46.1903 4.34206 46.3037 4.1551 46.4984L0.616332 50.0781C0.526814 50.1754 0.457368 50.2894 0.411972 50.4136C0.366576 50.5378 0.346122 50.6697 0.351782 50.8018V67.6292C0.351782 68.1865 0.741637 68.6904 1.29829 68.6904ZM2.36741 51.7256H6.90256V54.0956C6.90256 54.6521 7.43351 55.085 7.99016 55.085H13.3526C13.4805 55.0857 13.6072 55.0603 13.7249 55.0102C13.8425 54.9601 13.9487 54.8864 14.0369 54.7937C14.125 54.701 14.1932 54.5913 14.2373 54.4712C14.2814 54.3511 14.3004 54.2233 14.2932 54.0956V51.7256H18.9963V66.6748H14.1252V63.6309C14.1311 63.4417 14.0821 63.2549 13.9843 63.0929C13.8865 62.9309 13.7439 62.8007 13.5738 62.7178L8.57822 60.376C8.43295 60.3042 8.27126 60.2722 8.10959 60.2832C7.94793 60.2942 7.79208 60.3479 7.65792 60.4388C7.52075 60.5324 7.41004 60.6599 7.33648 60.8088C7.26293 60.9577 7.22901 61.123 7.238 61.2889V66.6748H2.36741V51.7256ZM19.6059 49.71H13.0939L14.6478 48.1982H21.1598L19.6059 49.71ZM12.2776 51.7256V53.0693H8.91819V51.7256H12.2776ZM12.1096 66.6748H9.25413V62.8728L12.1096 64.2723V66.6748ZM21.0119 65.1967V51.2185L22.5237 49.6646V63.6423L21.0119 65.1967ZM5.28519 48.1982H11.7972L10.2433 49.71H3.73131L5.28519 48.1982Z" fill="#087BA8"/>
<rect x="45.2632" y="52.0527" width="22.6316" height="21.5" fill="#F5F6F6"/>
<path d="M45.1394 52.6327V73.6238H48.0688C48.0683 72.948 48.2289 72.2819 48.5374 71.6806C48.8459 71.0794 49.2933 70.5604 49.8425 70.1667V52.6327C49.8424 52.4463 49.9163 52.2675 50.0479 52.1355C50.1796 52.0036 50.3582 51.9293 50.5446 51.929H45.8415C45.6551 51.9293 45.4764 52.0036 45.3448 52.1355C45.2131 52.2675 45.1393 52.4463 45.1394 52.6327Z" fill="#D4E1F4"/>
<path d="M76.3623 57.1977C76.2771 57.0343 76.1488 56.8973 75.9912 56.8017C75.8336 56.7061 75.6528 56.6555 75.4685 56.6555H71.4886C71.2214 56.6555 70.965 56.7617 70.776 56.9507C70.587 57.1397 70.4808 57.396 70.4808 57.6633V62.7765C70.4808 63.0438 70.587 63.3001 70.776 63.4891C70.965 63.6781 71.2214 63.7843 71.4886 63.7843H78.1323C78.3055 63.7843 78.4758 63.7396 78.6268 63.6547C78.7777 63.5697 78.9042 63.4472 78.9941 63.2991C79.0839 63.151 79.134 62.9822 79.1396 62.8091C79.1452 62.636 79.1061 62.4643 79.0261 62.3107L76.3623 57.1977ZM72.4965 61.7687V58.6711H74.8573L76.4708 61.7687H72.4965Z" fill="#00415D"/>
<path d="M72.9903 64.9004H71.5273C71.26 64.9004 71.0037 65.0066 70.8147 65.1956C70.6256 65.3846 70.5195 65.6409 70.5195 65.9082C70.5195 66.1755 70.6256 66.4318 70.8147 66.6208C71.0037 66.8098 71.26 66.916 71.5273 66.916H72.9896C73.2569 66.916 73.5132 66.8098 73.7022 66.6208C73.8913 66.4318 73.9974 66.1755 73.9974 65.9082C73.9974 65.6409 73.8913 65.3846 73.7022 65.1956C73.5132 65.0066 73.2569 64.9004 72.9896 64.9004H72.9903Z" fill="#00415D"/>
<path d="M52.3241 71.1169C51.8284 71.1171 51.3439 71.2642 50.9318 71.5397C50.5197 71.8152 50.1985 72.2067 50.0089 72.6647C49.8193 73.1227 49.7698 73.6266 49.8666 74.1128C49.9634 74.5989 50.2021 75.0455 50.5527 75.3959C50.9032 75.7464 51.3498 75.985 51.836 76.0817C52.3222 76.1783 52.8261 76.1287 53.2841 75.939C53.742 75.7492 54.1334 75.428 54.4088 75.0158C54.6842 74.6036 54.8312 74.1191 54.8312 73.6234C54.8305 72.9587 54.5661 72.3215 54.096 71.8516C53.626 71.3817 52.9887 71.1175 52.3241 71.1169ZM52.3241 74.1142C52.227 74.1142 52.1321 74.0854 52.0514 74.0315C51.9707 73.9775 51.9078 73.9009 51.8706 73.8112C51.8335 73.7215 51.8238 73.6228 51.8427 73.5276C51.8617 73.4324 51.9084 73.345 51.977 73.2763C52.0457 73.2077 52.1331 73.1609 52.2283 73.142C52.3235 73.1231 52.4222 73.1328 52.5119 73.1699C52.6016 73.2071 52.6782 73.27 52.7322 73.3507C52.7861 73.4314 52.8149 73.5263 52.8149 73.6234C52.8148 73.7535 52.763 73.8783 52.671 73.9703C52.579 74.0623 52.4542 74.114 52.3241 74.1142Z" fill="#00415D"/>
<path d="M76.2764 71.1169C75.7808 71.1171 75.2962 71.2642 74.8841 71.5397C74.472 71.8152 74.1509 72.2067 73.9613 72.6647C73.7717 73.1227 73.7221 73.6266 73.8189 74.1128C73.9157 74.5989 74.1545 75.0455 74.505 75.3959C74.8556 75.7464 75.3022 75.985 75.7884 76.0817C76.2746 76.1783 76.7785 76.1287 77.2364 75.939C77.6944 75.7492 78.0858 75.428 78.3612 75.0158C78.6366 74.6036 78.7836 74.1191 78.7836 73.6234C78.7828 72.9587 78.5184 72.3216 78.0484 71.8517C77.5783 71.3818 76.9411 71.1175 76.2764 71.1169ZM76.2764 74.1142C76.1794 74.1142 76.0845 74.0855 76.0037 74.0315C75.923 73.9776 75.8601 73.901 75.8229 73.8113C75.7857 73.7216 75.776 73.6229 75.7949 73.5277C75.8138 73.4325 75.8605 73.345 75.9292 73.2764C75.9978 73.2077 76.0853 73.161 76.1805 73.142C76.2757 73.1231 76.3744 73.1328 76.4641 73.1699C76.5538 73.2071 76.6304 73.27 76.6844 73.3507C76.7383 73.4314 76.7671 73.5263 76.7671 73.6234C76.767 73.7535 76.7152 73.8782 76.6232 73.9702C76.5313 74.0622 76.4065 74.114 76.2764 74.1142Z" fill="#00415D"/>
<path d="M52.6111 56.5068H61.7276C61.9949 56.5068 62.2513 56.4007 62.4403 56.2117C62.6293 56.0227 62.7355 55.7663 62.7355 55.499C62.7355 55.2317 62.6293 54.9754 62.4403 54.7864C62.2513 54.5974 61.9949 54.4912 61.7276 54.4912H52.6111C52.3439 54.4912 52.0875 54.5974 51.8985 54.7864C51.7095 54.9754 51.6033 55.2317 51.6033 55.499C51.6033 55.7663 51.7095 56.0227 51.8985 56.2117C52.0875 56.4007 52.3439 56.5068 52.6111 56.5068Z" fill="#00415D"/>
<path d="M48.0733 56.5068H48.9971C49.2644 56.5068 49.5208 56.4007 49.7098 56.2117C49.8988 56.0227 50.0049 55.7663 50.0049 55.499C50.0049 55.2317 49.8988 54.9754 49.7098 54.7864C49.5208 54.5974 49.2644 54.4912 48.9971 54.4912H48.0733C47.806 54.4912 47.5497 54.5974 47.3607 54.7864C47.1717 54.9754 47.0655 55.2317 47.0655 55.499C47.0655 55.7663 47.1717 56.0227 47.3607 56.2117C47.5497 56.4007 47.806 56.5068 48.0733 56.5068Z" fill="#00415D"/>
<path d="M83.3039 61.9903C83.1946 61.9907 83.0875 61.9603 82.9946 61.9028C82.9017 61.8452 82.8269 61.7626 82.7787 61.6646L79.2972 54.6527C79.1138 54.294 78.8347 53.9931 78.4908 53.7832C78.1469 53.5732 77.7516 53.4626 77.3488 53.4633H68.9898V52.6319C68.9894 52.1784 68.8091 51.7435 68.4884 51.4228C68.1677 51.102 67.7329 50.9216 67.2794 50.9211H45.842C45.3885 50.9216 44.9537 51.102 44.633 51.4228C44.3123 51.7435 44.132 52.1784 44.1316 52.6319V73.6235C44.1316 73.8907 44.2378 74.1471 44.4268 74.3361C44.6158 74.5251 44.8721 74.6313 45.1394 74.6313H47.1582C47.392 75.8298 48.0351 76.9097 48.9776 77.6861C49.92 78.4625 51.1031 78.887 52.3242 78.887C53.5452 78.887 54.7283 78.4625 55.6708 77.6861C56.6132 76.9097 57.2564 75.8298 57.4901 74.6313H71.1104C71.3441 75.8298 71.9873 76.9097 72.9298 77.6861C73.8722 78.4625 75.0553 78.887 76.2764 78.887C77.4974 78.887 78.6805 78.4625 79.6229 77.6861C80.5654 76.9097 81.2086 75.8298 81.4423 74.6313H83.3761C84.0468 74.6303 84.6897 74.3634 85.1639 73.889C85.638 73.4147 85.9047 72.7717 85.9054 72.101V64.5928C85.9048 63.9029 85.6305 63.2415 85.1428 62.7536C84.6551 62.2657 83.9938 61.9912 83.3039 61.9903ZM52.3241 76.8723C51.6816 76.8723 51.0536 76.6818 50.5194 76.3249C49.9852 75.9679 49.5689 75.4606 49.323 74.867C49.0771 74.2735 49.0128 73.6203 49.1382 72.9902C49.2635 72.3601 49.5729 71.7813 50.0272 71.327C50.4815 70.8727 51.0604 70.5633 51.6905 70.438C52.3206 70.3127 52.9738 70.377 53.5673 70.6229C54.1609 70.8688 54.6682 71.2852 55.0251 71.8194C55.382 72.3536 55.5725 72.9817 55.5724 73.6241C55.5715 74.4853 55.2289 75.311 54.6199 75.9199C54.011 76.5289 53.1853 76.8714 52.3241 76.8723ZM66.9742 65.6621H64.5601C64.2928 65.6621 64.0365 65.7683 63.8475 65.9573C63.6585 66.1463 63.5523 66.4026 63.5523 66.6699C63.5523 66.9372 63.6585 67.1935 63.8475 67.3825C64.0365 67.5715 64.2928 67.6777 64.5601 67.6777H66.9742V72.616H57.4901C57.2566 71.4174 56.6135 70.3373 55.671 69.5607C54.7285 68.7842 53.5454 68.3595 52.3242 68.3595C51.103 68.3595 49.9198 68.7842 48.9774 69.5607C48.0349 70.3373 47.3918 71.4174 47.1582 72.616H46.1472V67.6777H56.1617C56.429 67.6777 56.6853 67.5715 56.8743 67.3825C57.0633 67.1935 57.1695 66.9372 57.1695 66.6699C57.1695 66.4026 57.0633 66.1463 56.8743 65.9573C56.6853 65.7683 56.429 65.6621 56.1617 65.6621H46.1472V52.9368H66.9742V65.6621ZM76.2764 76.8723C75.634 76.8723 75.0059 76.6819 74.4717 76.3249C73.9375 75.968 73.5211 75.4607 73.2752 74.8671C73.0293 74.2736 72.965 73.6204 73.0903 72.9903C73.2157 72.3602 73.525 71.7813 73.9793 71.327C74.4336 70.8727 75.0125 70.5634 75.6426 70.438C76.2727 70.3127 76.9259 70.377 77.5194 70.6229C78.113 70.8688 78.6203 71.2852 78.9772 71.8194C79.3342 72.3536 79.5247 72.9817 79.5246 73.6241C79.5236 74.4853 79.1811 75.3109 78.5722 75.9199C77.9632 76.5288 77.1376 76.8713 76.2764 76.8723ZM83.8905 72.102C83.8904 72.2384 83.8362 72.3692 83.7397 72.4657C83.6433 72.5622 83.5126 72.6165 83.3761 72.6167H81.4423C81.2087 71.418 80.5656 70.3379 79.6232 69.5614C78.6807 68.7848 77.4975 68.3602 76.2764 68.3602C75.0552 68.3602 73.872 68.7848 72.9295 69.5614C71.9871 70.3379 71.344 71.418 71.1104 72.6167H68.9898V55.479H77.3483C77.3784 55.4784 77.4081 55.4858 77.4344 55.5004C77.4608 55.5149 77.4828 55.5362 77.4984 55.562L80.9732 62.5614C81.1873 62.9964 81.5193 63.3625 81.9314 63.6179C82.3435 63.8733 82.8191 64.0078 83.3039 64.0059C83.4594 64.0063 83.6084 64.0682 83.7183 64.1781C83.8282 64.288 83.8901 64.437 83.8905 64.5925V72.102Z" fill="#00415D"/>
</g>
<defs>
<clipPath id="clip0_718_6213">
<rect width="86" height="86" fill="white"/>
</clipPath>
</defs>
</svg>
