<svg width="86" height="86" viewBox="0 0 86 86" fill="none" xmlns="http://www.w3.org/2000/svg">
<path d="M29.1345 51.7131C29.1345 55.3906 30.5954 58.9174 33.1957 61.5178C35.7961 64.1181 39.3229 65.579 43.0003 65.579C46.6778 65.579 50.2046 64.1181 52.8049 61.5178C55.4053 58.9174 56.8661 55.3906 56.8661 51.7131L54.8505 51.7131C54.8505 54.856 53.602 57.8701 51.3797 60.0925C49.1573 62.3148 46.1432 63.5633 43.0003 63.5633C39.8575 63.5633 36.8433 62.3148 34.621 60.0925C32.3986 57.8701 31.1501 54.856 31.1501 51.7131L29.1345 51.7131Z" fill="#087BA8"/>
<path d="M38.1937 51.7131L36.1781 51.7131C36.1781 53.5224 36.8968 55.2576 38.1762 56.5369C39.4555 57.8163 41.1907 58.535 43 58.535C44.8093 58.535 46.5444 57.8163 47.8238 56.5369C49.1031 55.2576 49.8219 53.5224 49.8219 51.7131L47.8062 51.7131C47.8062 52.9878 47.2999 54.2103 46.3985 55.1117C45.4972 56.013 44.2747 56.5194 43 56.5194C41.7253 56.5194 40.5028 56.013 39.6014 55.1117C38.7001 54.2103 38.1937 52.9878 38.1937 51.7131Z" fill="#087BA8"/>
<path d="M48.2873 85.1413L49.5044 77.4846C51.9927 76.8587 54.3759 75.8718 56.5783 74.5554L62.8593 79.1162C63.0533 79.2573 63.2914 79.3244 63.5305 79.3057C63.7697 79.2869 63.9943 79.1835 64.1641 79.0139L70.2338 72.9444C70.4034 72.7748 70.5069 72.5502 70.5257 72.3111C70.5446 72.072 70.4776 71.8341 70.3367 71.6399L65.7766 65.3593C67.0939 63.157 68.0818 60.7738 68.7088 58.2854L76.3934 57.0683C76.6328 57.0318 76.8516 56.912 77.0112 56.7298C77.1708 56.5477 77.2609 56.315 77.2656 56.0729L77.2656 51.7131L75.25 51.7131L75.25 55.2126L67.7492 56.4005C67.5486 56.4318 67.362 56.5222 67.213 56.6602C67.0641 56.7982 66.9597 56.9774 66.9132 57.175C66.299 59.9035 65.2186 62.5055 63.7196 64.8666C63.6114 65.0368 63.5567 65.2357 63.5627 65.4373C63.5687 65.639 63.635 65.8342 63.7532 65.9977L68.2017 72.1286L63.3474 76.9817L57.2165 72.5317C57.0532 72.4131 56.8581 72.3463 56.6564 72.3399C56.4547 72.3335 56.2558 72.3878 56.0853 72.4957C53.7238 73.9931 51.1217 75.0716 48.3935 75.684C48.1975 75.7255 48.0186 75.8254 47.8804 75.9704C47.7422 76.1155 47.651 76.299 47.619 76.4968L46.4316 83.9631L39.5684 83.9631L38.3809 76.4962C38.349 76.2977 38.2581 76.1134 38.1199 75.9673C37.9818 75.8212 37.8028 75.7201 37.6064 75.6772C34.8783 75.066 32.2763 73.9885 29.9147 72.4922C29.7441 72.3845 29.5451 72.3305 29.3434 72.3372C29.1418 72.3439 28.9468 72.4109 28.7836 72.5297L22.6528 76.9808L17.7998 72.1282L22.2496 65.9974C22.3682 65.8341 22.435 65.639 22.4414 65.4373C22.4478 65.2357 22.3935 65.0367 22.2856 64.8663C20.7883 62.5049 19.7097 59.9028 19.0975 57.1746C19.0486 56.9764 18.9421 56.797 18.7914 56.6592C18.6407 56.5214 18.4525 56.4313 18.2506 56.4003L10.75 55.2126L10.75 51.7131L8.73438 51.7131L8.73437 56.0729C8.73907 56.3149 8.82906 56.5475 8.98849 56.7296C9.14793 56.9117 9.36655 57.0317 9.6058 57.0683L17.2796 58.2854C17.9084 60.7741 18.8981 63.1573 20.2172 65.3593L15.6606 71.6403C15.5198 71.8346 15.453 72.0727 15.4721 72.3118C15.4913 72.551 15.5951 72.7754 15.7649 72.9449L21.8359 79.0148C22.0056 79.1845 22.2303 79.2882 22.4695 79.307C22.7088 79.3259 22.9469 79.2588 23.1411 79.1177L29.4222 74.5584C31.6245 75.8759 34.0078 76.8638 36.4962 77.4906L37.7134 85.1413C37.7516 85.3768 37.8729 85.5908 38.0554 85.7444C38.2379 85.8981 38.4695 85.9812 38.7081 85.9788L47.2913 85.9788C47.5301 85.9816 47.7619 85.8986 47.9447 85.7449C48.1275 85.5912 48.2491 85.377 48.2873 85.1413Z" fill="#087BA8"/>
<path d="M43 71.2172C47.1156 71.2309 51.1287 69.9337 54.4575 67.5134C54.6743 67.3571 54.8201 67.121 54.8629 66.8572C54.9057 66.5933 54.8419 66.3233 54.6855 66.1065C54.5292 65.8896 54.2931 65.7438 54.0292 65.7011C53.7654 65.6583 53.4953 65.7221 53.2785 65.8784C50.6689 67.7685 47.5877 68.9005 44.3751 69.1493C41.1625 69.3982 37.9437 68.7542 35.0742 67.2885C32.2046 65.8228 29.7961 63.5925 28.1145 60.8439C26.433 58.0952 25.5439 54.9353 25.5455 51.7131L23.5299 51.7131C23.5299 62.4631 32.2641 71.2172 43 71.2172Z" fill="#087BA8"/>
<path d="M57.9517 62.1914L57.9593 62.1993C58.066 62.3074 58.1957 62.39 58.3387 62.4409C58.4818 62.4918 58.6345 62.5098 58.7855 62.4934C58.9364 62.477 59.0817 62.4268 59.2106 62.3463C59.3394 62.2659 59.4483 62.1574 59.5293 62.0289C61.4745 58.9417 62.495 55.362 62.4701 51.7131L60.4545 51.7131C60.4623 54.9763 59.5488 58.1754 57.8191 60.9423C57.6971 61.135 57.6439 61.3632 57.668 61.59C57.692 61.8167 57.792 62.0286 57.9517 62.1914Z" fill="#087BA8"/>
<path d="M22.1806 33.4042H30.8489C31.3076 33.4042 31.7615 33.3096 32.182 33.1262C32.6025 32.9428 32.9807 32.6746 33.2928 32.3384C33.605 32.0022 33.8444 31.6053 33.9961 31.1723C34.1479 30.7394 34.2086 30.2798 34.1746 29.8223L27.7847 17.1984C27.7659 16.9448 27.6518 16.7077 27.4654 16.5346C27.279 16.3616 27.0341 16.2654 26.7798 16.2654H19.7847C19.5174 16.2654 19.261 16.3716 19.072 16.5606C18.883 16.7496 18.7769 17.0059 18.7769 17.2732V30.0008C18.7769 30.4478 18.8649 30.8904 19.036 31.3033C19.207 31.7162 19.4577 32.0914 19.7738 32.4075C20.0899 32.7235 20.4651 32.9742 20.8781 33.1452C21.291 33.3162 21.7336 33.4042 22.1806 33.4042ZM20.7925 18.281H25.8443L32.1642 29.9707C32.1777 30.1517 32.1536 30.3335 32.0936 30.5047C32.0336 30.6759 31.9389 30.8329 31.8154 30.9659C31.692 31.0989 31.5424 31.205 31.3761 31.2775C31.2098 31.3501 31.0303 31.3875 30.8489 31.3876H22.1804C21.9981 31.3876 21.8177 31.3517 21.6493 31.282C21.4809 31.2123 21.3278 31.1101 21.199 30.9812C21.0701 30.8523 20.9678 30.6993 20.8981 30.5309C20.8283 30.3625 20.7925 30.1821 20.7925 29.9998V18.281Z" fill="#00415D"/>
<path d="M38.2074 31.8005C37.9292 28.0542 38.5875 24.0741 36.7028 21.0306C34.727 17.8399 31.1749 14.7243 29.2571 11.3505C28.6916 10.3558 28.3948 9.23107 28.3957 8.08688L28.3988 6.73501C28.4011 6.59413 28.3752 6.45421 28.3227 6.32349C28.246 6.13956 28.1166 5.98241 27.9508 5.87183C27.785 5.76124 27.5902 5.70216 27.391 5.702H26.3942V4.1899C26.3942 3.34874 26.0601 2.54203 25.4653 1.94725C24.8705 1.35246 24.0638 1.01831 23.2226 1.01831H18.71C17.8688 1.01831 17.0621 1.35246 16.4673 1.94725C15.8726 2.54203 15.5384 3.34874 15.5384 4.1899V5.70217H14.4802C14.2129 5.70217 13.9566 5.80835 13.7676 5.99735C13.5786 6.18636 13.4724 6.4427 13.4724 6.70999V27.0464C13.4724 27.3137 13.5786 27.5701 13.7676 27.7591C13.9566 27.9481 14.2129 28.0542 14.4802 28.0542C14.7475 28.0542 15.0038 27.9481 15.1928 27.7591C15.3818 27.5701 15.488 27.3137 15.488 27.0464V7.7178H26.3818L26.3796 8.08503C26.3821 9.57834 26.7714 11.0455 27.5095 12.3437C29.4194 15.7027 33.0161 18.9047 34.9893 22.091C36.7109 24.8712 35.9816 29.0444 36.1973 31.949C36.2384 32.502 36.165 33.0575 35.9816 33.5809C35.7982 34.1042 35.5088 34.5841 35.1315 34.9904C34.7542 35.3968 34.2971 35.721 33.7888 35.9427C33.2805 36.1644 32.7319 36.2788 32.1773 36.2789L19.5196 36.2805C18.9656 36.282 18.4174 36.1686 17.9094 35.9474C17.4015 35.7263 16.9449 35.4022 16.5686 34.9957C15.8637 34.2225 15.4777 33.2112 15.4882 32.165V25.2606C15.4882 24.9934 15.382 24.737 15.193 24.548C15.004 24.359 14.7477 24.2528 14.4804 24.2528C14.2131 24.2528 13.9567 24.359 13.7677 24.548C13.5787 24.737 13.4726 24.9934 13.4726 25.2606V32.1332C13.4584 33.739 14.0679 35.2876 15.1729 36.4529C15.7355 37.0377 16.4106 37.5025 17.1577 37.8193C17.9048 38.1361 18.7083 38.2983 19.5198 38.2962L32.1773 38.2952C33.0092 38.2951 33.832 38.1235 34.5945 37.791C35.3569 37.4585 36.0425 36.9722 36.6085 36.3626C37.1745 35.7531 37.6086 35.0333 37.8837 34.2483C38.1588 33.4633 38.269 32.63 38.2074 31.8005ZM24.3781 5.70167H17.554V4.1899C17.5543 3.88341 17.6762 3.58957 17.893 3.37285C18.1097 3.15614 18.4035 3.03425 18.71 3.03394H23.2221C23.5286 3.03425 23.8225 3.15614 24.0392 3.37285C24.2559 3.58957 24.3778 3.88341 24.3781 4.1899V5.70167Z" fill="#00415D"/>
<path d="M58.3911 33.4042H67.0594C67.5182 33.4042 67.972 33.3096 68.3925 33.1262C68.813 32.9428 69.1912 32.6746 69.5034 32.3384C69.8155 32.0022 70.0549 31.6053 70.2067 31.1723C70.3584 30.7394 70.4192 30.2798 70.3852 29.8223L63.9953 17.1984C63.9764 16.9448 63.8623 16.7077 63.6759 16.5346C63.4896 16.3616 63.2446 16.2654 62.9903 16.2654H55.9952C55.7279 16.2654 55.4716 16.3716 55.2826 16.5606C55.0936 16.7496 54.9874 17.0059 54.9874 17.2732V30.0008C54.9874 30.4478 55.0754 30.8904 55.2465 31.3033C55.4176 31.7162 55.6683 32.0914 55.9843 32.4075C56.3004 32.7235 56.6756 32.9742 57.0886 33.1452C57.5015 33.3162 57.9441 33.4042 58.3911 33.4042ZM57.003 18.281H62.0549L68.3748 29.9707C68.3882 30.1517 68.3641 30.3335 68.3041 30.5047C68.2441 30.6759 68.1494 30.8329 68.026 30.9659C67.9025 31.0989 67.753 31.205 67.5866 31.2775C67.4203 31.3501 67.2409 31.3875 67.0594 31.3876H58.3909C58.2087 31.3876 58.0282 31.3517 57.8598 31.282C57.6914 31.2123 57.5384 31.1101 57.4095 30.9812C57.2806 30.8523 57.1784 30.6993 57.1086 30.5309C57.0389 30.3625 57.003 30.1821 57.003 29.9998V18.281Z" fill="#00415D"/>
<path d="M74.418 31.8005C74.1398 28.0542 74.798 24.0741 72.9133 21.0306C70.9375 17.8399 67.3854 14.7243 65.4676 11.3505C64.9022 10.3558 64.6053 9.23107 64.6063 8.08688L64.6093 6.73501C64.6117 6.59413 64.5858 6.45421 64.5332 6.32349C64.4565 6.13956 64.3271 5.98241 64.1613 5.87183C63.9956 5.76124 63.8008 5.70216 63.6015 5.702H62.6048V4.1899C62.6048 3.34874 62.2706 2.54203 61.6758 1.94725C61.081 1.35246 60.2743 1.01831 59.4332 1.01831H54.9205C54.0794 1.01831 53.2727 1.35246 52.6779 1.94725C52.0831 2.54203 51.749 3.34874 51.749 4.1899V5.70217H50.6908C50.4235 5.70217 50.1671 5.80835 49.9781 5.99735C49.7891 6.18636 49.6829 6.4427 49.6829 6.70999V27.0464C49.6829 27.3137 49.7891 27.5701 49.9781 27.7591C50.1671 27.9481 50.4235 28.0542 50.6908 28.0542C50.958 28.0542 51.2144 27.9481 51.4034 27.7591C51.5924 27.5701 51.6986 27.3137 51.6986 27.0464V7.7178H62.5923L62.5902 8.08503C62.5927 9.57834 62.9819 11.0455 63.7201 12.3437C65.63 15.7027 69.2267 18.9047 71.1998 22.091C72.9215 24.8712 72.1921 29.0444 72.4079 31.949C72.449 32.502 72.3755 33.0575 72.1921 33.5809C72.0087 34.1042 71.7193 34.5841 71.342 34.9904C70.9647 35.3968 70.5076 35.721 69.9993 35.9427C69.491 36.1644 68.9424 36.2788 68.3879 36.2789L55.7301 36.2805C55.1762 36.282 54.6279 36.1686 54.12 35.9474C53.612 35.7263 53.1555 35.4022 52.7791 34.9957C52.0743 34.2225 51.6883 33.2112 51.6987 32.165V25.2606C51.6987 24.9934 51.5925 24.737 51.4035 24.548C51.2145 24.359 50.9582 24.2528 50.6909 24.2528C50.4236 24.2528 50.1673 24.359 49.9783 24.548C49.7893 24.737 49.6831 24.9934 49.6831 25.2606V32.1332C49.6689 33.739 50.2785 35.2876 51.3835 36.4529C51.946 37.0377 52.6212 37.5025 53.3683 37.8193C54.1153 38.1361 54.9188 38.2983 55.7303 38.2962L68.3879 38.2952C69.2197 38.2951 70.0425 38.1235 70.805 37.791C71.5674 37.4585 72.2531 36.9722 72.819 36.3626C73.385 35.7531 73.8191 35.0333 74.0942 34.2483C74.3694 33.4633 74.4796 32.63 74.418 31.8005ZM60.5886 5.70167H53.7646V4.1899C53.7649 3.88341 53.8868 3.58957 54.1035 3.37285C54.3202 3.15614 54.6141 3.03425 54.9205 3.03394H59.4327C59.7392 3.03425 60.033 3.15614 60.2497 3.37285C60.4664 3.58957 60.5883 3.88341 60.5886 4.1899V5.70167Z" fill="#00415D"/>
<path d="M75.5334 36.2734H10.4663C8.14257 36.2836 5.91744 37.2138 4.27787 38.8606C2.6383 40.5073 1.7178 42.7365 1.7178 45.0603C1.7178 47.3841 2.6383 49.6133 4.27787 51.26C5.91744 52.9068 8.14257 53.837 10.4663 53.8472H75.5334C77.8572 53.837 80.0823 52.9068 81.7219 51.26C83.3614 49.6133 84.2819 47.3841 84.2819 45.0603C84.2819 42.7365 83.3614 40.5073 81.7219 38.8606C80.0823 37.2138 77.8572 36.2836 75.5334 36.2734ZM10.4663 38.2891H75.5334C77.154 38.2912 78.7203 38.8736 79.9486 39.9309C81.1768 40.9881 81.9859 42.4503 82.2291 44.0526H80.4905C80.2553 42.8213 79.5982 41.7106 78.6323 40.9117C77.6663 40.1128 76.4521 39.6757 75.1985 39.6757C73.945 39.6757 72.7308 40.1128 71.7648 40.9117C70.7989 41.7106 70.1418 42.8213 69.9066 44.0526H67.611C67.3759 42.8212 66.7188 41.7104 65.7528 40.9114C64.7869 40.1124 63.5725 39.6753 62.319 39.6753C61.0654 39.6753 59.851 40.1124 58.8851 40.9114C57.9191 41.7104 57.262 42.8212 57.0269 44.0526H54.7315C54.4963 42.8213 53.8392 41.7106 52.8732 40.9117C51.9073 40.1128 50.693 39.6757 49.4395 39.6757C48.186 39.6757 46.9718 40.1128 46.0058 40.9117C45.0399 41.7106 44.3828 42.8213 44.1476 44.0526H41.8521C41.617 42.8213 40.9598 41.7106 39.9939 40.9117C39.028 40.1128 37.8137 39.6757 36.5602 39.6757C35.3067 39.6757 34.0924 40.1128 33.1265 40.9117C32.1606 41.7106 31.5034 42.8213 31.2683 44.0526H28.9728C28.7377 42.8212 28.0806 41.7104 27.1147 40.9114C26.1487 40.1124 24.9344 39.6753 23.6808 39.6753C22.4272 39.6753 21.2128 40.1124 20.2469 40.9114C19.2809 41.7104 18.6238 42.8212 18.3887 44.0526H16.0933C15.8581 42.8213 15.201 41.7106 14.2351 40.9117C13.2691 40.1128 12.0549 39.6757 10.8013 39.6757C9.54784 39.6757 8.33357 40.1128 7.36764 40.9117C6.4017 41.7106 5.74457 42.8213 5.50941 44.0526H3.7706C4.01385 42.4503 4.82288 40.9881 6.05115 39.9309C7.27942 38.8736 8.84571 38.2912 10.4663 38.2891ZM78.5708 45.0604C78.5714 45.7275 78.3742 46.3799 78.004 46.9349C77.6338 47.4899 77.1073 47.9227 76.4911 48.1784C75.8749 48.4342 75.1967 48.5014 74.5423 48.3716C73.8879 48.2419 73.2867 47.9209 72.8147 47.4494C72.3428 46.9779 72.0212 46.377 71.8909 45.7227C71.7605 45.0684 71.8271 44.3901 72.0822 43.7737C72.3374 43.1573 72.7697 42.6304 73.3243 42.2597C73.879 41.889 74.5312 41.6911 75.1983 41.6911C76.092 41.6917 76.949 42.0467 77.5812 42.6784C78.2135 43.31 78.5694 44.1667 78.5708 45.0604ZM65.6914 45.0604C65.6921 45.7275 65.4948 46.3799 65.1246 46.9349C64.7544 47.4899 64.228 47.9227 63.6118 48.1784C62.9956 48.4342 62.3174 48.5014 61.663 48.3716C61.0086 48.2419 60.4074 47.9209 59.9354 47.4494C59.4634 46.9779 59.1419 46.377 59.0115 45.7227C58.8811 45.0684 58.9477 44.3901 59.2029 43.7737C59.4581 43.1573 59.8903 42.6304 60.445 42.2597C60.9996 41.889 61.6518 41.6911 62.319 41.6911C63.2127 41.6917 64.0697 42.0467 64.7019 42.6784C65.3341 43.31 65.69 44.1667 65.6914 45.0604ZM52.8119 45.0604C52.8126 45.7275 52.6153 46.3799 52.2451 46.9349C51.8749 47.4899 51.3484 47.9227 50.7322 48.1784C50.116 48.4342 49.4378 48.5014 48.7834 48.3716C48.129 48.2419 47.5278 47.9209 47.0558 47.4493C46.5839 46.9778 46.2624 46.3769 46.132 45.7226C46.0016 45.0683 46.0682 44.39 46.3234 43.7736C46.5786 43.1572 47.0109 42.6303 47.5656 42.2596C48.1203 41.8889 48.7725 41.6911 49.4396 41.6911C50.3333 41.6917 51.1902 42.0468 51.8224 42.6784C52.4547 43.3101 52.8105 44.1667 52.8119 45.0604ZM39.9326 45.0604C39.9332 45.7275 39.736 46.3799 39.3658 46.9349C38.9956 47.4899 38.4691 47.9227 37.8529 48.1784C37.2367 48.4342 36.5585 48.5014 35.9041 48.3716C35.2497 48.2419 34.6485 47.9209 34.1765 47.4494C33.7046 46.9779 33.3831 46.377 33.2527 45.7227C33.1223 45.0684 33.1889 44.3901 33.444 43.7737C33.6992 43.1573 34.1315 42.6304 34.6861 42.2597C35.2408 41.889 35.893 41.6911 36.5601 41.6911C37.4538 41.6917 38.3108 42.0467 38.943 42.6784C39.5753 43.31 39.9312 44.1667 39.9326 45.0604ZM27.0532 45.0604C27.0539 45.7275 26.8566 46.3799 26.4864 46.9349C26.1162 47.4899 25.5898 47.9227 24.9736 48.1784C24.3574 48.4342 23.6792 48.5014 23.0248 48.3716C22.3704 48.2419 21.7692 47.9209 21.2972 47.4494C20.8252 46.9779 20.5037 46.377 20.3733 45.7227C20.2429 45.0684 20.3095 44.3901 20.5647 43.7737C20.8199 43.1573 21.2521 42.6304 21.8068 42.2597C22.3615 41.889 23.0136 41.6911 23.6808 41.6911C24.5745 41.6917 25.4315 42.0467 26.0637 42.6784C26.696 43.31 27.0518 44.1667 27.0532 45.0604ZM14.1737 45.0604C14.1744 45.7275 13.9771 46.3799 13.6069 46.9349C13.2367 47.4899 12.7102 47.9227 12.094 48.1784C11.4778 48.4342 10.7996 48.5014 10.1452 48.3716C9.49081 48.2419 8.8896 47.9209 8.41763 47.4493C7.94567 46.9778 7.62417 46.3769 7.4938 45.7226C7.36344 45.0683 7.43006 44.39 7.68525 43.7736C7.94043 43.1572 8.37272 42.6303 8.92741 42.2596C9.4821 41.8889 10.1343 41.6911 10.8014 41.6911C11.6951 41.6917 12.5521 42.0468 13.1843 42.6784C13.8165 43.3101 14.1723 44.1667 14.1737 45.0604ZM75.5334 51.8315H10.4663C8.84573 51.8294 7.27946 51.247 6.0512 50.1898C4.82293 49.1326 4.01389 47.6704 3.7706 46.0682H5.50924C5.7444 47.2994 6.40154 48.4102 7.36747 49.2091C8.3334 50.008 9.54767 50.4451 10.8012 50.4451C12.0547 50.4451 13.269 50.008 14.2349 49.2091C15.2008 48.4102 15.858 47.2994 16.0931 46.0682H18.3886C18.6238 47.2994 19.281 48.41 20.247 49.2089C21.2129 50.0077 22.4271 50.4448 23.6806 50.4448C24.9341 50.4448 26.1483 50.0077 27.1143 49.2089C28.0802 48.41 28.7374 47.2994 28.9726 46.0682H31.2681C31.5033 47.2994 32.1604 48.4102 33.1263 49.2091C34.0922 50.008 35.3065 50.4451 36.56 50.4451C37.8135 50.4451 39.0278 50.008 39.9937 49.2091C40.9597 48.4102 41.6168 47.2994 41.852 46.0682H44.1474C44.3826 47.2994 45.0397 48.4102 46.0057 49.2091C46.9716 50.008 48.1859 50.4451 49.4394 50.4451C50.6929 50.4451 51.9071 50.008 52.8731 49.2091C53.839 48.4102 54.4961 47.2994 54.7313 46.0682H57.0269C57.2622 47.2994 57.9194 48.41 58.8853 49.2089C59.8512 50.0077 61.0655 50.4448 62.319 50.4448C63.5724 50.4448 64.7867 50.0077 65.7526 49.2089C66.7186 48.41 67.3757 47.2994 67.611 46.0682H69.9064C70.1416 47.2994 70.7987 48.4102 71.7647 49.2091C72.7306 50.008 73.9449 50.4451 75.1984 50.4451C76.4519 50.4451 77.6662 50.008 78.6321 49.2091C79.598 48.4102 80.2552 47.2994 80.4903 46.0682H82.2291C81.9858 47.6704 81.1768 49.1326 79.9485 50.1898C78.7203 51.247 77.154 51.8294 75.5334 51.8315Z" fill="#00415D"/>
</svg>
