<svg width="65" height="64" viewBox="0 0 65 64" fill="none" xmlns="http://www.w3.org/2000/svg">
<g clip-path="url(#clip0_724_6628)">
<path d="M10.7253 56.4938C10.7253 54.7209 9.27935 53.2749 7.50646 53.2749C5.73357 53.2749 4.2876 54.7209 4.2876 56.4938C4.2876 58.2666 5.73357 59.7126 7.50646 59.7126C9.27935 59.7126 10.7253 58.2666 10.7253 56.4938ZM6.4377 56.4938C6.4377 55.9028 6.9155 55.425 7.50646 55.425C8.09742 55.425 8.57522 55.9028 8.57522 56.4938C8.57522 57.0847 8.09742 57.5625 7.50646 57.5625C6.9155 57.5625 6.4377 57.0847 6.4377 56.4938Z" fill="white"/>
<path d="M32.1886 53.2749C30.4157 53.2749 28.9697 54.7209 28.9697 56.4938C28.9697 58.2666 30.4157 59.7126 32.1886 59.7126C33.9615 59.7126 35.4074 58.2666 35.4074 56.4938C35.4074 54.7209 33.9615 53.2749 32.1886 53.2749ZM32.1886 57.5625C31.5976 57.5625 31.1198 57.0847 31.1198 56.4938C31.1198 55.9028 31.5976 55.425 32.1886 55.425C32.7796 55.425 33.2574 55.9028 33.2574 56.4938C33.2574 57.0847 32.7796 57.5625 32.1886 57.5625Z" fill="white"/>
<path d="M56.8707 48.9746V45.7558C56.8707 45.1648 56.3929 44.687 55.802 44.687H54.7332V37.1805C54.7332 36.5895 54.2554 36.1117 53.6644 36.1117H45.0766C44.4857 36.1117 44.0079 36.5895 44.0079 37.1805V44.687H42.9391C42.3481 44.687 41.8703 45.1648 41.8703 45.7558V48.9746H36.5014V45.7558C36.5014 45.1648 36.0236 44.687 35.4326 44.687H31.145V28.5927C31.145 28.0017 30.6672 27.5239 30.0762 27.5239H12.8754C12.2845 27.5239 11.8067 28.0017 11.8067 28.5927V44.687H9.65658C9.06562 44.687 8.58782 45.1648 8.58782 45.7558V48.9746H7.51906C3.36974 48.9746 0.0125732 52.3318 0.0125732 56.4811C0.0125732 60.6304 3.35717 64.0002 7.50648 64.0002H56.8582C61.0075 64.0002 64.3646 60.643 64.3646 56.4937C64.3646 52.3444 61.02 48.9746 56.8707 48.9746ZM15.0255 46.8371H17.1756V48.9872H15.0255V46.8371ZM21.4633 46.8371V48.9872H19.3132V46.8371H21.4633ZM30.0385 46.8371V48.9872H27.8884V46.8371H30.0385ZM25.7509 48.9746H23.6008V46.8245H25.7509V48.9746ZM26.9454 51.1247C26.3167 51.7408 25.7886 52.4701 25.424 53.2748H14.2837C13.9065 52.4701 13.391 51.7408 12.7623 51.1247H26.9454ZM14.9375 55.4123H24.7701C24.657 56.129 24.657 56.8457 24.7701 57.5624H14.9375C15.0507 56.8457 15.0507 56.129 14.9375 55.4123ZM26.8196 56.4937C26.8196 53.5263 29.2212 51.1247 32.1886 51.1247C35.156 51.1247 37.5576 53.5263 37.5576 56.4937C37.5576 59.4611 35.156 61.8626 32.1886 61.8626C29.2212 61.8626 26.8196 59.4485 26.8196 56.4937ZM39.6196 55.4123H49.4523C49.3391 56.129 49.3391 56.8457 49.4523 57.5624H39.6196C39.7328 56.8457 39.7328 56.129 39.6196 55.4123ZM50.0935 53.2748H38.9532C38.576 52.4701 38.0605 51.7408 37.4318 51.1247H51.6149C50.9862 51.7408 50.4707 52.4701 50.0935 53.2748ZM50.433 46.8371V48.9872H48.2829V46.8371H50.433ZM52.5705 48.9746V46.8245H54.7206V48.9746H52.5705ZM46.1328 38.2493H48.2829V40.3994C48.2829 40.9903 48.7607 41.4681 49.3517 41.4681C49.9426 41.4681 50.4204 40.9903 50.4204 40.3994V38.2493H52.5705V44.687H46.1328V38.2493ZM43.9953 46.8371H46.1454V48.9872H43.9953V46.8371ZM34.3387 46.8371V48.9872H32.1886V46.8371H34.3387ZM23.6008 29.6615V33.9491H19.3132V29.6615H23.6008ZM13.9442 29.6615H17.1631V35.0304C17.1631 35.6214 17.6409 36.0992 18.2318 36.0992H24.6695C25.2605 36.0992 25.7383 35.6214 25.7383 35.0304V29.6615H28.9572V44.687H13.9442V29.6615ZM10.7253 46.8371H12.8754V48.9872H10.7253V46.8371ZM2.1501 56.4937C2.1501 53.5263 4.55167 51.1247 7.51906 51.1247C10.4864 51.1247 12.888 53.5263 12.888 56.4937C12.888 59.4611 10.4864 61.8626 7.51906 61.8626C4.55167 61.8626 2.1501 59.4485 2.1501 56.4937ZM12.7623 61.8501C13.391 61.2339 13.9191 60.5047 14.2837 59.7H25.424C25.8012 60.5047 26.3167 61.2339 26.9454 61.8501H12.7623ZM37.4318 61.8501C38.0605 61.2339 38.5886 60.5047 38.9532 59.7H50.0935C50.4707 60.5047 50.9862 61.2339 51.6149 61.8501H37.4318ZM56.8707 61.8501C53.9033 61.8501 51.5018 59.4485 51.5018 56.4811C51.5018 53.5137 53.9033 51.1121 56.8707 51.1121C59.8381 51.1121 62.2397 53.5137 62.2397 56.4811C62.2397 59.4485 59.8255 61.8501 56.8707 61.8501Z" fill="white"/>
<path d="M56.8707 53.2749C55.0978 53.2749 53.6519 54.7209 53.6519 56.4938C53.6519 58.2666 55.0978 59.7126 56.8707 59.7126C58.6436 59.7126 60.0896 58.2666 60.0896 56.4938C60.0896 54.7209 58.6436 53.2749 56.8707 53.2749ZM56.8707 57.5625C56.2798 57.5625 55.802 57.0847 55.802 56.4938C55.802 55.9028 56.2798 55.425 56.8707 55.425C57.4617 55.425 57.9395 55.9028 57.9395 56.4938C57.9395 57.0847 57.4617 57.5625 56.8707 57.5625Z" fill="white"/>
<path d="M24.6821 41.4681C25.2731 41.4681 25.7509 40.9903 25.7509 40.3993C25.7509 39.8084 25.2731 39.3306 24.6821 39.3306H18.2444C17.6535 39.3306 17.1757 39.8084 17.1757 40.3993C17.1757 40.9903 17.6535 41.4681 18.2444 41.4681H24.6821Z" fill="white"/>
<path d="M17.3014 7.36816C26.3544 1.25735 38.2491 1.42081 47.1387 7.77051C47.5788 8.09743 48.22 8.00941 48.5469 7.55676C48.8739 7.11668 48.7858 6.47543 48.3332 6.14851C48.3206 6.13594 48.308 6.13594 48.308 6.12336C38.7395 -0.716717 25.9269 -0.892748 16.1697 5.68328C15.7045 5.99763 15.5913 6.62631 15.9057 7.07896C16.22 7.55676 16.8487 7.66992 17.3014 7.36816Z" fill="white"/>
<path d="M3.14341 22.1297C3.69665 22.1297 4.1493 21.677 4.1493 21.1238V15.0884C4.1493 13.8059 4.96659 12.6743 6.17366 12.2468C6.21138 12.9509 6.50058 13.6047 6.97838 14.1202L6.17366 18.9485C6.12337 19.2629 6.22396 19.5898 6.45028 19.8287L8.46207 21.8405C8.85185 22.2303 9.49311 22.2303 9.8829 21.8405L11.8947 19.8287C12.121 19.6024 12.2342 19.2754 12.1713 18.9485L11.3666 14.1202C11.8444 13.6047 12.1336 12.9509 12.1713 12.2468C13.3784 12.6617 14.1957 13.8059 14.1957 15.0884V21.1238C14.1957 21.677 14.6483 22.1297 15.2016 22.1297C15.7548 22.1297 16.2075 21.677 16.2075 21.1238V15.0884C16.1949 12.8377 14.6986 10.8637 12.5234 10.2601C12.9634 9.60629 13.1898 8.83929 13.1898 8.04715V4.02358C13.1898 1.79804 11.3917 0 9.1662 0C6.94066 0 5.15519 1.79804 5.15519 4.02358V8.04715C5.15519 8.83929 5.39409 9.60629 5.8216 10.2601C3.64635 10.8637 2.15009 12.8377 2.13751 15.0884V21.1238C2.13751 21.677 2.59016 22.1297 3.14341 22.1297ZM7.16698 8.04715V6.03536H11.1906V8.04715C11.1906 9.15364 10.2853 10.0589 9.17877 10.0589C8.07229 10.0589 7.16698 9.15364 7.16698 8.04715ZM10.1847 12.0707C10.1847 12.624 9.73201 13.0766 9.17877 13.0766C8.62553 13.0766 8.17288 12.624 8.17288 12.0707H10.1847ZM9.17877 19.7029L8.24832 18.7725L8.86443 15.0633C8.96502 15.0758 9.07818 15.0884 9.17877 15.101C9.27936 15.101 9.39252 15.0884 9.49311 15.0633L10.1092 18.7725L9.17877 19.7029ZM9.17877 2.01179C10.2853 2.01179 11.1906 2.91709 11.1906 4.02358H7.16698C7.16698 2.91709 8.07229 2.01179 9.17877 2.01179Z" fill="white"/>
<path d="M58.8071 10.2601C59.2472 9.60629 59.4735 8.83929 59.4735 8.04715V4.02358C59.4735 1.79804 57.6755 0 55.4499 0C53.2244 0 51.4264 1.79804 51.4264 4.02358V8.04715C51.4264 8.83929 51.6653 9.60629 52.0928 10.2601C49.9175 10.8637 48.4213 12.8377 48.4087 15.0884V21.1238C48.4087 21.677 48.8613 22.1297 49.4146 22.1297C49.9678 22.1297 50.4205 21.677 50.4205 21.1238V15.0884C50.4205 13.8059 51.2378 12.6743 52.4448 12.2468C52.4826 12.9509 52.7718 13.6047 53.2496 14.1202L52.4448 18.9485C52.3945 19.2629 52.4951 19.5898 52.7215 19.8287L54.7332 21.8405C55.123 22.2303 55.7643 22.2303 56.1541 21.8405L58.1659 19.8287C58.3922 19.6024 58.5054 19.2754 58.4425 18.9485L57.6378 14.1202C58.1156 13.6047 58.4048 12.9509 58.4425 12.2468C59.6496 12.6617 60.4668 13.8059 60.4668 15.0884V21.1238C60.4668 21.677 60.9195 22.1297 61.4727 22.1297C62.026 22.1297 62.4786 21.677 62.4786 21.1238V15.0884C62.4786 12.8377 60.9824 10.8637 58.8071 10.2601ZM56.4558 12.0707C56.4558 12.624 56.0032 13.0766 55.4499 13.0766C54.8967 13.0766 54.4441 12.624 54.4441 12.0707H56.4558ZM53.4382 8.04715V6.03536H57.4617V8.04715C57.4617 9.15364 56.5564 10.0589 55.4499 10.0589C54.3435 10.0589 53.4382 9.15364 53.4382 8.04715ZM55.4499 2.01179C56.5564 2.01179 57.4617 2.91709 57.4617 4.02358H53.4382C53.4382 2.91709 54.3435 2.01179 55.4499 2.01179ZM55.4499 19.7029L54.5195 18.7725L55.1356 15.0633C55.3494 15.101 55.5631 15.101 55.7643 15.0633L56.3804 18.7725L55.4499 19.7029Z" fill="white"/>
<path d="M23.0476 17.2385C22.9847 17.49 23.0098 17.7666 23.1482 18.0055L25.1599 21.4884C25.2982 21.7148 25.512 21.8908 25.776 21.9537C26.0401 22.0165 26.3041 21.9788 26.543 21.8531L28.0016 21.0106C28.3159 21.2244 28.6428 21.413 28.9823 21.5765V23.2613C28.9823 23.8146 29.435 24.2672 29.9882 24.2672H34.0118C34.565 24.2672 35.0177 23.8146 35.0177 23.2613V21.5765C35.3572 21.413 35.6841 21.2244 35.9984 21.0106L37.457 21.8531C37.6833 21.9788 37.9599 22.0165 38.224 21.9537C38.488 21.8908 38.7018 21.7148 38.8401 21.4884L40.8519 18.0055C41.1285 17.5277 40.965 16.9116 40.4872 16.635L39.0287 15.7926C39.0413 15.604 39.0538 15.4154 39.0538 15.2268C39.0538 15.0381 39.0413 14.8495 39.0287 14.6609L40.4872 13.8185C40.965 13.5419 41.1285 12.9258 40.8519 12.448L38.8401 8.96506C38.7018 8.73874 38.488 8.5627 38.224 8.49984C37.9599 8.43697 37.6959 8.46212 37.457 8.60043L35.9984 9.44286C35.6841 9.22911 35.3572 9.0405 35.0177 8.87705V7.16703C35.0177 6.61379 34.565 6.16113 34.0118 6.16113H29.9882C29.435 6.16113 28.9823 6.61379 28.9823 7.16703V8.8519C28.6428 9.01536 28.3159 9.20396 28.0016 9.41771L26.5305 8.57528C26.3041 8.43697 26.0275 8.41182 25.7635 8.47469C25.512 8.53756 25.2857 8.71359 25.1474 8.93991L23.1356 12.4228C22.859 12.9006 23.0224 13.5167 23.5002 13.7934L24.9588 14.6358C24.9462 14.8244 24.9336 15.013 24.9336 15.2016C24.9336 15.3902 24.9462 15.5788 24.9588 15.7674L23.5002 16.6099C23.2865 16.7607 23.1104 16.9745 23.0476 17.2385ZM27.046 16.1321C26.9328 15.5285 26.9328 14.8998 27.046 14.2963C27.1214 13.8814 26.9328 13.4539 26.5556 13.2401L25.3863 12.5611L26.3922 10.8134L27.5615 11.4924C27.9261 11.7061 28.3914 11.6558 28.7183 11.3792C29.1835 10.9769 29.7242 10.6625 30.3026 10.4613C30.7049 10.323 30.969 9.94581 30.969 9.5183V8.17292H32.9808V9.53088C32.9808 9.95838 33.2448 10.3356 33.6472 10.4739C34.2256 10.6751 34.7662 10.9894 35.2315 11.3918C35.5584 11.6684 36.0236 11.7061 36.3882 11.5049L37.5576 10.826L38.5635 12.5737L37.3941 13.2527C37.0295 13.4664 36.8283 13.8939 36.9037 14.3089C37.0169 14.9124 37.0169 15.5411 36.9037 16.1446C36.8283 16.5596 37.0169 16.9871 37.3941 17.2008L38.5635 17.8798L37.5576 19.6275L36.3882 18.9486C36.0236 18.7348 35.5584 18.7725 35.2315 19.0617C34.7662 19.4641 34.2256 19.7784 33.6472 19.9796C33.2448 20.1179 32.9808 20.4951 32.9808 20.9226V22.2554H30.969V20.8975C30.969 20.47 30.7049 20.0928 30.3026 19.9545C29.7242 19.7533 29.1835 19.4389 28.7183 19.0366C28.3914 18.76 27.9261 18.7097 27.5615 18.9234L26.3922 19.6024L25.3863 17.8546L26.5556 17.1757C26.9328 16.9745 27.1214 16.547 27.046 16.1321Z" fill="white"/>
<path d="M31.9874 18.2317C33.6597 18.2317 35.0051 16.8863 35.0051 15.214C35.0051 13.5417 33.6597 12.1963 31.9874 12.1963C30.3151 12.1963 28.9697 13.5417 28.9697 15.214C28.9697 16.8863 30.3277 18.2317 31.9874 18.2317ZM31.9874 14.2081C32.5407 14.2081 32.9933 14.6607 32.9933 15.214C32.9933 15.7672 32.5407 16.2199 31.9874 16.2199C31.4342 16.2199 30.9815 15.7672 30.9815 15.214C30.9815 14.6607 31.4342 14.2081 31.9874 14.2081Z" fill="white"/>
</g>
<defs>
<clipPath id="clip0_724_6628">
<rect width="64.3772" height="64" fill="white"/>
</clipPath>
</defs>
</svg>
