<?xml version="1.0" encoding="utf-8"?><svg viewBox="0 0 54 54" xmlns="http://www.w3.org/2000/svg" xmlns:xlink="http://www.w3.org/1999/xlink"><style>:root>svg{display:none}:root>svg:target{display:block}</style><svg fill="none" viewBox="0 0 10 7" id="arrow-drop" xmlns="http://www.w3.org/2000/svg"><path d="M8.626.996L5 4.409 1.374.996 0 2.289l5 4.707 5-4.707L8.626.996z" fill="#fff"/></svg><svg fill="none" viewBox="0 0 32 32" id="fb" xmlns="http://www.w3.org/2000/svg"><g clip-path="url(#abclip0_1018_3615)"><rect width="32" height="32" rx="4" fill="#1976D2"/><path d="M27 16h-5v-4c0-1.104.896-1 2-1h2V6h-4a6 6 0 00-6 6v4h-4v5h4v11h6V21h3l2-5z" fill="#fff"/></g><defs><clipPath id="abclip0_1018_3615"><path fill="#fff" d="M0 0h32v32H0z"/></clipPath></defs></svg><svg fill="none" viewBox="0 0 12 10" id="ic-more" xmlns="http://www.w3.org/2000/svg"><path d="M11.823 5.482L8.342 9.3a.578.578 0 01-.874 0 .723.723 0 010-.958l2.425-2.66H.621C.278 5.682 0 5.377 0 5c0-.377.278-.682.621-.682h9.267l-2.425-2.66a.723.723 0 010-.958.578.578 0 01.874 0l3.481 3.818A.71.71 0 0112 5c0 .177-.056.35-.177.482z" fill="#087BA8"/></svg><svg fill="none" viewBox="0 0 8 5" id="ic_arrow-down" xmlns="http://www.w3.org/2000/svg"><path d="M6.901 0L4 2.845 1.099 0 0 1.078 4 5l4-3.922L6.901 0z" fill="#fff"/></svg><svg fill="none" viewBox="0 0 8 5" id="ic_arrow-down-gray" xmlns="http://www.w3.org/2000/svg"><path d="M6.901 0L4 2.845 1.099 0 0 1.078 4 5l4-3.922L6.901 0z" fill="#087BA8"/></svg><svg fill="none" viewBox="0 0 9 12" id="ic_arrow-expand" xmlns="http://www.w3.org/2000/svg"><path d="M4.018 11.823L.2 8.342a.578.578 0 010-.874.723.723 0 01.958 0l2.66 2.425V.621C3.818.278 4.123 0 4.5 0c.377 0 .682.278.682.621v9.267l2.66-2.425a.723.723 0 01.958 0 .578.578 0 010 .874l-3.818 3.481A.71.71 0 014.5 12a.705.705 0 01-.482-.177z" fill="#087BA8"/></svg><svg fill="none" viewBox="0 0 21 14" id="ic_arrow-left" xmlns="http://www.w3.org/2000/svg"><path d="M.376 6.37L6.178.57a1.027 1.027 0 011.457 0 1.027 1.027 0 010 1.456L3.593 6.068h15.453a1.035 1.035 0 110 2.071H3.602l4.042 4.042a1.027 1.027 0 010 1.457 1.027 1.027 0 01-1.457 0L.385 7.836a1.026 1.026 0 01-.303-.733c0-.27.092-.53.294-.732z" fill="#fff"/></svg><svg fill="none" viewBox="0 0 21 14" id="ic_arrow-right" xmlns="http://www.w3.org/2000/svg"><path d="M20.624 6.37L14.822.57a1.027 1.027 0 00-1.457 0 1.027 1.027 0 000 1.456l4.042 4.043H1.954a1.035 1.035 0 100 2.071h15.444l-4.042 4.042a1.026 1.026 0 000 1.457 1.027 1.027 0 001.457 0l5.802-5.802c.202-.202.304-.463.304-.733 0-.27-.093-.53-.295-.732z" fill="#fff"/></svg><svg fill="none" viewBox="0 0 21 14" id="ic_arrow-right-gray" xmlns="http://www.w3.org/2000/svg"><path d="M20.624 6.37L14.822.57a1.027 1.027 0 00-1.457 0 1.027 1.027 0 000 1.456l4.042 4.043H1.954a1.035 1.035 0 100 2.071h15.444l-4.042 4.042a1.026 1.026 0 000 1.457 1.027 1.027 0 001.457 0l5.802-5.802c.202-.202.304-.463.304-.733 0-.27-.093-.53-.295-.732z" fill="#087BA8"/></svg><svg fill="none" viewBox="0 0 28 28" id="ic_chevron-down" xmlns="http://www.w3.org/2000/svg"><path d="M8 11l6 6 6-6" stroke="#fff" stroke-width="2" stroke-linecap="round" stroke-linejoin="round"/></svg><svg viewBox="0 0 24 24" id="ic_close" xmlns="http://www.w3.org/2000/svg"><path d="M0 0h24v24H0V0z" fill="none"/><path d="M19 6.41L17.59 5 12 10.59 6.41 5 5 6.41 10.59 12 5 17.59 6.41 19 12 13.41 17.59 19 19 17.59 13.41 12 19 6.41z"/></svg><svg fill="none" viewBox="0 0 48 48" id="ic_docs" xmlns="http://www.w3.org/2000/svg"><path d="M15.813 23.15a.944.944 0 00-.663-.275c-.246 0-.488.1-.662.275a.945.945 0 00-.275.663c0 .246.1.488.275.662a.944.944 0 00.662.275c.247 0 .489-.1.663-.275a.944.944 0 00.275-.663c0-.246-.1-.488-.275-.662zM15.813 29.9a.944.944 0 00-.663-.275c-.246 0-.488.1-.662.275a.943.943 0 00-.275.663c0 .246.1.488.275.662a.944.944 0 00.662.275c.247 0 .489-.1.663-.275a.944.944 0 00.275-.663c0-.246-.1-.488-.275-.662zM15.813 36.65a.944.944 0 00-.663-.275c-.246 0-.488.1-.662.275a.945.945 0 00-.275.663c0 .246.1.488.275.662a.944.944 0 00.662.275c.247 0 .489-.1.663-.275a.944.944 0 00.275-.663c0-.246-.1-.488-.275-.662zM33.786 22.875h-14.56a.938.938 0 000 1.875h14.56a.938.938 0 000-1.875zM33.786 29.625h-14.56a.938.938 0 000 1.875h14.56a.938.938 0 000-1.875zM33.786 36.375h-14.56a.938.938 0 000 1.875h14.56a.938.938 0 000-1.875z" fill="#087BA8"/><path d="M41.99 18.892v-.01a.935.935 0 00-.272-.607l-9.75-9.75a.937.937 0 00-.663-.275h-6.36V6.562A6.57 6.57 0 0018.383 0a6.57 6.57 0 00-6.563 6.563V8.25H9.758A3.754 3.754 0 006.008 12v32.25A3.754 3.754 0 009.758 48h28.484a3.754 3.754 0 003.75-3.75V18.937l-.001-.045zm-9.748-7.441L38.792 18h-4.44a2.112 2.112 0 01-2.11-2.11v-4.44zm-13.86-9.576a4.693 4.693 0 014.688 4.688v8.583A2.857 2.857 0 0120.216 18a2.857 2.857 0 01-2.854-2.854V6.493a1.001 1.001 0 012 0v8.538a.938.938 0 001.875 0V6.493a2.878 2.878 0 00-2.875-2.875 2.878 2.878 0 00-2.875 2.875V8.25h-1.792V6.562a4.693 4.693 0 014.688-4.687zM40.118 44.25a1.877 1.877 0 01-1.875 1.875H9.758a1.877 1.877 0 01-1.875-1.875V12c0-1.034.84-1.875 1.875-1.875h5.729v5.02a4.734 4.734 0 004.729 4.73 4.734 4.734 0 004.73-4.73v-5.02h5.421v5.766a3.989 3.989 0 003.984 3.984h5.766V44.25z" fill="#087BA8"/></svg><svg fill="none" viewBox="0 0 54 54" id="ic_dots" xmlns="http://www.w3.org/2000/svg"><g clip-path="url(#amclip0_1006_5462)"><path d="M27 3.375C12.113 3.375 0 13.973 0 27c0 5.34 2.039 10.462 5.782 14.58L.409 47.837c-.432.5-.53 1.205-.254 1.802.274.601.875.986 1.533.986H27c14.887 0 27-10.598 27-23.625S41.887 3.375 27 3.375z" fill="#087BA8"/><path d="M27 30a3 3 0 100-6 3 3 0 000 6zM15 30a3 3 0 100-6 3 3 0 000 6zM39 30a3 3 0 100-6 3 3 0 000 6z" fill="#fff"/></g><defs><clipPath id="amclip0_1006_5462"><path fill="#fff" d="M0 0h54v54H0z"/></clipPath></defs></svg><svg viewBox="0 0 24 24" id="ic_expand" xmlns="http://www.w3.org/2000/svg"><path d="M24 24H0V0h24v24z" fill="none" opacity=".87"/><path d="M16.59 8.59L12 13.17 7.41 8.59 6 10l6 6 6-6-1.41-1.41z"/></svg><svg fill="none" viewBox="0 0 48 48" id="ic_file" xmlns="http://www.w3.org/2000/svg"><path d="M15.813 23.15a.944.944 0 00-.663-.275c-.246 0-.488.1-.662.275a.945.945 0 00-.275.663c0 .246.1.488.275.662a.944.944 0 00.662.275c.247 0 .489-.1.663-.275a.944.944 0 00.275-.663c0-.246-.1-.488-.275-.662zM15.813 29.9a.944.944 0 00-.663-.275c-.246 0-.488.1-.662.275a.943.943 0 00-.275.663c0 .246.1.488.275.662a.944.944 0 00.662.275c.247 0 .489-.1.663-.275a.944.944 0 00.275-.663c0-.246-.1-.488-.275-.662zM15.813 36.65a.944.944 0 00-.663-.275c-.246 0-.488.1-.662.275a.945.945 0 00-.275.663c0 .246.1.488.275.662a.944.944 0 00.662.275c.247 0 .489-.1.663-.275a.944.944 0 00.275-.663c0-.246-.1-.488-.275-.662zM33.786 22.875h-14.56a.938.938 0 000 1.875h14.56a.938.938 0 000-1.875zM33.786 29.625h-14.56a.938.938 0 000 1.875h14.56a.938.938 0 000-1.875zM33.786 36.375h-14.56a.938.938 0 000 1.875h14.56a.938.938 0 000-1.875z" fill="#087BA8"/><path d="M41.99 18.892v-.01a.935.935 0 00-.272-.607l-9.75-9.75a.937.937 0 00-.663-.275h-6.36V6.562A6.57 6.57 0 0018.383 0a6.57 6.57 0 00-6.563 6.563V8.25H9.758A3.754 3.754 0 006.008 12v32.25A3.754 3.754 0 009.758 48h28.484a3.754 3.754 0 003.75-3.75V18.937l-.001-.045zm-9.748-7.441L38.792 18h-4.44a2.112 2.112 0 01-2.11-2.11v-4.44zm-13.86-9.576a4.693 4.693 0 014.688 4.688v8.583A2.857 2.857 0 0120.216 18a2.857 2.857 0 01-2.854-2.854V6.493a1.001 1.001 0 012 0v8.538a.938.938 0 001.875 0V6.493a2.878 2.878 0 00-2.875-2.875 2.878 2.878 0 00-2.875 2.875V8.25h-1.792V6.562a4.693 4.693 0 014.688-4.687zM40.118 44.25a1.877 1.877 0 01-1.875 1.875H9.758a1.877 1.877 0 01-1.875-1.875V12c0-1.034.84-1.875 1.875-1.875h5.729v5.02a4.734 4.734 0 004.729 4.73 4.734 4.734 0 004.73-4.73v-5.02h5.421v5.766a3.989 3.989 0 003.984 3.984h5.766V44.25z" fill="#087BA8"/></svg><svg fill="none" viewBox="0 0 20 20" id="ic_language" xmlns="http://www.w3.org/2000/svg"><g clip-path="url(#apclip0_500_975)"><path d="M10 0C4.473 0 0 4.473 0 10s4.473 10 10 10 10-4.473 10-10S15.527 0 10 0zM6.13 2.06a22.813 22.813 0 00-.761 2.512c-.6-.182-1.189-.4-1.767-.655A8.852 8.852 0 016.13 2.061zM2.827 4.854c.749.347 1.515.637 2.297.87a23.125 23.125 0 00-.388 3.691H1.191a8.744 8.744 0 011.635-4.56zm0 10.294a8.745 8.745 0 01-1.635-4.561h3.544c.031 1.249.16 2.481.388 3.692-.782.232-1.548.522-2.297.869zm.776.936a15.78 15.78 0 011.767-.655c.205.85.46 1.687.762 2.511a8.853 8.853 0 01-2.53-1.856zm5.812 2.726a8.835 8.835 0 01-1.802-.306 21.714 21.714 0 01-1.11-3.374c.95-.212 1.922-.336 2.912-.371v4.05zm0-5.224a17.091 17.091 0 00-3.154.397 21.961 21.961 0 01-.352-3.396h3.506v2.999zm0-4.17H5.908c.03-1.15.147-2.283.352-3.397 1.029.229 2.082.362 3.154.397v3zm0-4.173a15.91 15.91 0 01-2.911-.371 21.713 21.713 0 011.109-3.374 8.831 8.831 0 011.802-.306v4.051zm7.76-.389a8.744 8.744 0 011.634 4.561h-3.543a23.127 23.127 0 00-.388-3.692 16.994 16.994 0 002.297-.869zm-.776-.936c-.578.255-1.168.473-1.767.655-.205-.85-.46-1.687-.762-2.511a8.852 8.852 0 012.53 1.856zm-5.812-2.726c.615.04 1.219.143 1.802.306a21.71 21.71 0 011.11 3.374 15.91 15.91 0 01-2.912.371v-4.05zm0 5.224a17.084 17.084 0 003.154-.397 21.97 21.97 0 01.352 3.396h-3.506V6.415zm1.802 12.088a8.826 8.826 0 01-1.802.305v-4.05c.99.035 1.961.159 2.911.371a21.707 21.707 0 01-1.109 3.374zm-1.802-4.918v-3h3.506a21.969 21.969 0 01-.352 3.397 17.092 17.092 0 00-3.154-.397zm3.283 4.354c.303-.824.557-1.662.762-2.511.6.182 1.189.4 1.767.655a8.853 8.853 0 01-2.529 1.856zm3.305-2.792a17.001 17.001 0 00-2.297-.87c.227-1.21.357-2.442.388-3.691h3.543a8.744 8.744 0 01-1.634 4.56z" fill="#fff"/></g><defs><clipPath id="apclip0_500_975"><path fill="#fff" d="M0 0h20v20H0z"/></clipPath></defs></svg><svg fill="none" viewBox="0 0 20 20" id="ic_mail" xmlns="http://www.w3.org/2000/svg"><path d="M18.333 1.719H1.667C.75 1.719 0 2.469 0 3.387v13.187c0 .917.75 1.668 1.667 1.668h16.666c.917 0 1.667-.75 1.667-1.668V3.387c0-.918-.75-1.668-1.667-1.668zm-1.176 1.668L10 10.547l-7.156-7.16h14.312zm1.176 13.187H1.667V4.566l7.154 7.16a1.665 1.665 0 002.357 0l7.155-7.16V16.574z" fill="#B7D9E6"/></svg><svg fill="none" viewBox="0 0 20 20" id="ic_menu" xmlns="http://www.w3.org/2000/svg"><path d="M1 10h18M1 4h18M1 16h18" stroke="#fff" stroke-width="2" stroke-linecap="round" stroke-linejoin="round"/></svg><svg fill="none" viewBox="0 0 21 14" id="ic_next" xmlns="http://www.w3.org/2000/svg"><path d="M19.787 6.37L13.985.57a1.027 1.027 0 00-1.457 0 1.027 1.027 0 000 1.456l4.042 4.043H1.118a1.035 1.035 0 100 2.071h15.444l-4.042 4.042a1.027 1.027 0 000 1.457 1.027 1.027 0 001.457 0l5.802-5.802c.202-.202.303-.463.303-.733 0-.27-.093-.53-.295-.732z" fill="#087BA8"/></svg><svg viewBox="0 0 24 24" id="ic_person" xmlns="http://www.w3.org/2000/svg"><path d="M0 0h24v24H0V0z" fill="none"/><path d="M12 2C6.48 2 2 6.48 2 12s4.48 10 10 10 10-4.48 10-10S17.52 2 12 2zM7.07 18.28c.43-.9 3.05-1.78 4.93-1.78s4.51.88 4.93 1.78C15.57 19.36 13.86 20 12 20s-3.57-.64-4.93-1.72zm11.29-1.45c-1.43-1.74-4.9-2.33-6.36-2.33s-4.93.59-6.36 2.33A7.95 7.95 0 014 12c0-4.41 3.59-8 8-8s8 3.59 8 8c0 1.82-.62 3.49-1.64 4.83zM12 6c-1.94 0-3.5 1.56-3.5 3.5S10.06 13 12 13s3.5-1.56 3.5-3.5S13.94 6 12 6zm0 5c-.83 0-1.5-.67-1.5-1.5S11.17 8 12 8s1.5.67 1.5 1.5S12.83 11 12 11z"/></svg><svg fill="none" viewBox="0 0 20 20" id="ic_phone" xmlns="http://www.w3.org/2000/svg"><path d="M14.576 20c-.778 0-1.55-.221-2.214-.64-1.701-1.072-4.219-2.839-6.55-5.171-2.333-2.332-4.1-4.85-5.173-6.55a4.116 4.116 0 01.562-5.112L3.487.24a.822.822 0 011.162 0l3.487 3.487a2.45 2.45 0 01.722 1.743 2.45 2.45 0 01-.722 1.744L7.108 8.242a29.726 29.726 0 002.19 2.46 29.688 29.688 0 002.46 2.19l1.027-1.028a2.468 2.468 0 013.487 0l3.487 3.487a.822.822 0 010 1.162L17.474 18.8A4.11 4.11 0 0114.576 20zM4.068 1.984L2.364 3.688a2.464 2.464 0 00-.334 3.074c1.027 1.63 2.719 4.04 4.944 6.265 2.224 2.224 4.634 3.916 6.264 4.943.99.623 2.254.486 3.074-.334l1.704-1.704-2.906-2.905a.823.823 0 00-1.162 0l-1.542 1.54a.822.822 0 01-1.08.073 32.072 32.072 0 01-3.19-2.776 32.105 32.105 0 01-2.776-3.19.822.822 0 01.072-1.08l1.542-1.542a.817.817 0 00.24-.58.817.817 0 00-.24-.582L4.068 1.984z" fill="#fff"/></svg><svg fill="none" viewBox="0 0 20 20" id="ic_place" xmlns="http://www.w3.org/2000/svg"><path d="M10 0a8.333 8.333 0 00-5.892 14.225L10 20l5.893-5.776a8.293 8.293 0 002.44-5.892A8.334 8.334 0 0010 0zm4.716 13.044L10 17.666l-4.725-4.632a6.607 6.607 0 01-1.942-4.7A6.674 6.674 0 0110 1.666c1.78 0 3.455.694 4.714 1.953a6.623 6.623 0 011.953 4.712 6.609 6.609 0 01-1.951 4.712z" fill="#B7D9E6"/><path d="M10 4.167a4.166 4.166 0 100 8.333 4.166 4.166 0 000-8.333zm0 6.667a2.5 2.5 0 110-5 2.5 2.5 0 010 5z" fill="#B7D9E6"/></svg><svg fill="none" viewBox="0 0 38 38" id="ic_play" xmlns="http://www.w3.org/2000/svg"><g clip-path="url(#awclip0_1006_5408)" fill="#087BA8"><path d="M32.092 5.908A18.394 18.394 0 0019 .486 18.394 18.394 0 005.908 5.908 18.394 18.394 0 00.486 19c0 4.945 1.925 9.595 5.422 13.092A18.394 18.394 0 0019 37.514c3.386 0 6.698-.922 9.58-2.668a1.447 1.447 0 00-1.5-2.474 15.593 15.593 0 01-8.08 2.25c-8.614 0-15.622-7.008-15.622-15.622S10.386 3.379 19 3.379 34.62 10.386 34.62 19c0 3.08-.916 6.078-2.649 8.67a1.446 1.446 0 102.405 1.608A18.441 18.441 0 0037.514 19c0-4.945-1.926-9.595-5.422-13.092z"/><path d="M17.457 11.437a3.22 3.22 0 00-3.257-.005 3.234 3.234 0 00-1.635 2.832v9.472c0 1.184.61 2.243 1.635 2.833.509.293 1.066.439 1.624.439.561 0 1.122-.148 1.633-.445l8.161-4.736A3.236 3.236 0 0027.245 19c0-1.18-.608-2.236-1.627-2.827l-8.161-4.736zm6.71 7.888l-8.162 4.736a.344.344 0 01-.361 0 .358.358 0 01-.187-.325v-9.472c0-.18.102-.277.187-.326a.363.363 0 01.18-.05c.056 0 .116.014.181.051l8.161 4.736a.358.358 0 01.186.325c0 .1-.032.236-.186.325z"/></g><defs><clipPath id="awclip0_1006_5408"><path fill="#fff" transform="translate(.486 .486)" d="M0 0h37.029v37.029H0z"/></clipPath></defs></svg><svg fill="none" viewBox="0 0 20 21" id="ic_popup-close" xmlns="http://www.w3.org/2000/svg"><path d="M11.832 10.004l7.788-7.787A1.294 1.294 0 1017.788.385L10 8.171 2.212.384A1.294 1.294 0 10.38 2.217l7.788 7.787L.38 17.792a1.294 1.294 0 00.916 2.212c.332 0 .664-.127.916-.38L10 11.837l7.788 7.787a1.292 1.292 0 001.832 0 1.294 1.294 0 000-1.832l-7.788-7.788z" fill="#087BA8"/></svg><svg fill="none" viewBox="0 0 21 14" id="ic_prev" xmlns="http://www.w3.org/2000/svg"><path d="M.377 6.37L6.179.57a1.027 1.027 0 011.457 0 1.027 1.027 0 010 1.456L3.594 6.068h15.452a1.035 1.035 0 110 2.071H3.602l4.042 4.042a1.027 1.027 0 010 1.457 1.027 1.027 0 01-1.457 0L.385 7.836a1.026 1.026 0 01-.303-.733c0-.27.093-.53.295-.732z" fill="#087BA8"/></svg><svg fill="none" viewBox="0 0 54 54" id="ic_product" xmlns="http://www.w3.org/2000/svg"><circle cx="27" cy="27" r="27" fill="#087BA8"/><path d="M40.348 24.5l-5.702-5.587a2.264 2.264 0 00-1.575-.64H30.98v-1.636c0-.902-.749-1.636-1.67-1.636L26.897 15c-.921 0-1.67.734-1.67 1.636v1.637c-1.228 0-2.227.978-2.227 2.181v16.363C23 38.021 24 39 25.227 39L38.773 39C40.001 39 41 38.022 41 36.818V26.042c0-.575-.238-1.137-.652-1.543zM29.309 34.636c-1.535 0-2.783-1.224-2.783-2.727 0-1.37 2-3.297 2.4-3.669.216-.2.55-.2.766 0 .401.372 2.4 2.299 2.4 3.669 0 1.503-1.247 2.727-2.783 2.727zm8.418-6.48c-.315.31-.735.48-1.18.48-.446 0-.866-.17-1.181-.48l-4.454-4.363a1.614 1.614 0 010-2.314 1.696 1.696 0 012.362 0l4.453 4.363a1.614 1.614 0 010 2.314zM13.802 21.225a1.055 1.055 0 00-1.493 1.492l1.987 1.987c.412.412 1.08.412 1.493 0l3.902-3.902a1.055 1.055 0 00-1.493-1.493l-3.156 3.156-1.24-1.24zM14.326 29.31a1.055 1.055 0 00-1.492 1.492l4.84 4.84a1.055 1.055 0 001.492-1.492l-4.84-4.84z" fill="#fff"/><path d="M19.166 30.802a1.055 1.055 0 00-1.492-1.493l-4.84 4.84a1.055 1.055 0 001.492 1.493l4.84-4.84z" fill="#fff"/></svg><svg fill="none" viewBox="0 0 54 54" id="ic_quote" xmlns="http://www.w3.org/2000/svg"><path d="M11.137 32.467c-1.113 2.802-2.868 5.57-5.214 8.235a2.49 2.49 0 00-.236 3.004 2.444 2.444 0 002.092 1.148c.237 0 .473-.017.71-.102 4.96-1.45 16.554-6.598 16.874-23.102.118-6.361-4.54-11.829-10.597-12.453-3.358-.338-6.7.76-9.18 2.987a11.876 11.876 0 00-3.899 8.792c0 5.568 3.95 10.445 9.45 11.491zM41.698 9.197a11.951 11.951 0 00-9.163 2.987 11.876 11.876 0 00-3.898 8.792c0 5.568 3.949 10.445 9.45 11.491-1.114 2.802-2.869 5.57-5.215 8.235a2.489 2.489 0 00-.236 3.004 2.444 2.444 0 002.093 1.148c.236 0 .472-.017.708-.102 4.962-1.45 16.555-6.598 16.875-23.102v-.236c0-6.26-4.606-11.593-10.614-12.217z" fill="#087BA8"/></svg><svg fill="none" viewBox="0 0 20 20" id="ic_search" xmlns="http://www.w3.org/2000/svg"><g clip-path="url(#bbclip0_1006_5378)"><path d="M8.974 0C4.028 0 0 4.028 0 8.974c0 4.945 4.028 8.981 8.974 8.981a8.92 8.92 0 005.59-1.969l3.738 3.736a1 1 0 001.414-1.412l-3.738-3.738a8.937 8.937 0 001.972-5.598C17.95 4.028 13.92 0 8.973 0zm0 1.995a6.963 6.963 0 016.979 6.979 6.97 6.97 0 01-6.98 6.987 6.97 6.97 0 01-6.978-6.987 6.963 6.963 0 016.979-6.98z" fill="#fff"/></g><defs><clipPath id="bbclip0_1006_5378"><path fill="#fff" d="M0 0h20v20H0z"/></clipPath></defs></svg><svg fill="none" viewBox="0 0 20 20" id="ic_search-gray" xmlns="http://www.w3.org/2000/svg"><g clip-path="url(#bcclip0_486_12442)"><path d="M8.974 0C4.028 0 0 4.028 0 8.974c0 4.945 4.028 8.981 8.974 8.981a8.92 8.92 0 005.59-1.969l3.738 3.736a1 1 0 001.414-1.412l-3.738-3.738a8.937 8.937 0 001.972-5.598C17.95 4.028 13.92 0 8.973 0zm0 1.995a6.963 6.963 0 016.979 6.979 6.97 6.97 0 01-6.98 6.987 6.97 6.97 0 01-6.978-6.987 6.963 6.963 0 016.979-6.98z" fill="#087BA8"/></g><defs><clipPath id="bcclip0_486_12442"><path fill="#fff" d="M0 0h20v20H0z"/></clipPath></defs></svg><svg fill="none" viewBox="0 0 40 40" id="ic_show" xmlns="http://www.w3.org/2000/svg"><path d="M38.354 3.314v8.344a1.668 1.668 0 11-3.337 0V7.346l-9.693 9.701a1.663 1.663 0 01-1.181.49 1.668 1.668 0 01-1.18-2.847l9.696-9.707h-4.311a1.669 1.669 0 010-3.337h8.337a1.667 1.667 0 011.669 1.668zm-1.669 23.358c-.922 0-1.668.748-1.668 1.67v4.312l-9.53-9.45a1.724 1.724 0 00-2.405 0c-.652.65-.675 1.707-.024 2.358l9.435 9.455H28.173a1.67 1.67 0 00-.002 3.336l8.336.001c.443 0 .957-.176 1.269-.489.313-.312.578-.737.578-1.179v-8.345a1.67 1.67 0 00-1.669-1.669zm-22.172-3.541l-9.53 9.524V28.34c0-.921-.732-1.667-1.653-1.667h.007c-.922 0-1.665.747-1.665 1.667v8.344a1.67 1.67 0 001.67 1.669h8.338a1.669 1.669 0 000-3.338H7.37l9.518-9.527a1.668 1.668 0 00-.008-2.36 1.678 1.678 0 00-2.367.002zM7.34 5.133h4.311a1.667 1.667 0 100-3.336H3.315a1.669 1.669 0 00-1.669 1.667v8.345a1.67 1.67 0 003.337 0V7.496l9.618 9.625c.326.326.753.49 1.18.49a1.669 1.669 0 001.18-2.849l-9.62-9.629z" fill="#087BA8"/></svg><svg fill="none" viewBox="0 0 24 24" id="ic_subs" xmlns="http://www.w3.org/2000/svg"><g clip-path="url(#beclip0_1018_3640)"><path d="M23.974.73c-.122-.514-.686-.863-1.198-.681 0 0-22.163 7.82-22.167 7.823a.938.938 0 00-.608.822.955.955 0 00.529.88l8.585 4.006 4.19-4.189c.83-.83 2.154.454 1.303 1.303l-4.19 4.19s4.002 8.573 4.01 8.587a.987.987 0 00.832.528c.38.018.733-.273.87-.614l7.822-22.16a.863.863 0 00.022-.495z" fill="#fff"/></g><defs><clipPath id="beclip0_1018_3640"><path fill="#fff" d="M0 0h24v24H0z"/></clipPath></defs></svg><svg fill="none" viewBox="0 0 20 20" id="ic_tel" xmlns="http://www.w3.org/2000/svg"><g clip-path="url(#bfclip0_1018_3600)"><path d="M14.576 20c-.778 0-1.55-.221-2.214-.64-1.701-1.072-4.218-2.839-6.55-5.171-2.333-2.332-4.1-4.85-5.172-6.55a4.116 4.116 0 01.562-5.112L3.487.24a.822.822 0 011.162 0l3.487 3.487a2.45 2.45 0 01.722 1.743 2.45 2.45 0 01-.722 1.744L7.109 8.242a29.728 29.728 0 002.19 2.46 29.67 29.67 0 002.46 2.19l1.026-1.028a2.468 2.468 0 013.487 0l3.487 3.487a.822.822 0 010 1.162L17.474 18.8A4.11 4.11 0 0114.576 20zM4.069 1.984L2.364 3.688a2.464 2.464 0 00-.334 3.074c1.028 1.63 2.72 4.04 4.944 6.265 2.224 2.224 4.634 3.916 6.264 4.943.99.623 2.254.486 3.074-.334l1.704-1.704-2.906-2.905a.823.823 0 00-1.162 0l-1.542 1.54a.822.822 0 01-1.08.073 32.07 32.07 0 01-3.19-2.776 32.104 32.104 0 01-2.776-3.19.822.822 0 01.072-1.08l1.542-1.542a.817.817 0 00.24-.58.817.817 0 00-.24-.582L4.068 1.984z" fill="#B7D9E6"/></g><defs><clipPath id="bfclip0_1018_3600"><path fill="#fff" d="M0 0h20v20H0z"/></clipPath></defs></svg><svg viewBox="0 0 24 24" id="ic_up" xmlns="http://www.w3.org/2000/svg"><path d="M0 0h24v24H0V0z" fill="none"/><path d="M4 12l1.41 1.41L11 7.83V20h2V7.83l5.58 5.59L20 12l-8-8-8 8z"/></svg><svg fill="none" viewBox="0 0 20 20" id="ic_user" xmlns="http://www.w3.org/2000/svg"><g clip-path="url(#bhclip0_500_980)"><path d="M9.84 0C6.677 0 4.088 2.59 4.088 5.752a5.74 5.74 0 002.447 4.69C3.1 11.817.665 15.175.665 19.092a.906.906 0 001.81 0 7.497 7.497 0 017.512-7.509c4.158 0 7.509 3.351 7.509 7.51a.907.907 0 101.814 0c0-3.993-2.532-7.4-6.07-8.726a5.736 5.736 0 002.343-4.616C15.583 2.59 13.003 0 9.84 0zm0 1.814a3.922 3.922 0 013.931 3.938A3.915 3.915 0 019.84 9.684a3.921 3.921 0 01-3.939-3.932A3.928 3.928 0 019.84 1.814z" fill="#fff"/></g><defs><clipPath id="bhclip0_500_980"><path fill="#fff" d="M0 0h20v20H0z"/></clipPath></defs></svg><svg fill="none" viewBox="0 0 32 32" id="inst" xmlns="http://www.w3.org/2000/svg"><g clip-path="url(#biclip0_1031_3623)"><rect width="32" height="32" rx="4" fill="url(#bipaint0_linear_1031_3623)"/><path d="M15.997 4.185c-4.841 0-9.438-.43-11.194 4.076-.726 1.862-.62 4.279-.62 7.74 0 3.038-.098 5.892.62 7.739 1.752 4.51 6.386 4.077 11.192 4.077 4.636 0 9.416.483 11.193-4.077.727-1.88.62-4.261.62-7.739 0-4.616.255-7.596-1.984-9.833-2.267-2.267-5.332-1.983-9.832-1.983h.005zm-1.058 2.13c10.098-.016 11.384-1.14 10.674 14.457-.252 5.516-4.452 4.91-9.614 4.91-9.414 0-9.684-.269-9.684-9.686 0-9.527.746-9.676 8.624-9.684v.003zm7.365 1.96a1.417 1.417 0 100 2.836 1.417 1.417 0 000-2.835zm-6.307 1.658a6.068 6.068 0 000 12.135A6.065 6.065 0 0022.063 16a6.067 6.067 0 00-6.066-6.068zm0 2.13c5.207 0 5.214 7.877 0 7.877-5.205 0-5.213-7.877 0-7.877z" fill="#fff"/></g><defs><linearGradient id="bipaint0_linear_1031_3623" x1="2.148" y1="29.915" x2="31.799" y2="4.248" gradientUnits="userSpaceOnUse"><stop stop-color="#FD5"/><stop offset=".5" stop-color="#FF543E"/><stop offset="1" stop-color="#C837AB"/></linearGradient><clipPath id="biclip0_1031_3623"><path fill="#fff" d="M0 0h32v32H0z"/></clipPath></defs></svg><svg fill="none" viewBox="0 0 32 32" id="insta" xmlns="http://www.w3.org/2000/svg"><g clip-path="url(#bjclip0_1031_3623)"><rect width="32" height="32" rx="4" fill="url(#bjpaint0_linear_1031_3623)"/><path d="M15.997 4.185c-4.841 0-9.438-.43-11.194 4.076-.726 1.862-.62 4.279-.62 7.74 0 3.038-.098 5.892.62 7.739 1.752 4.51 6.386 4.077 11.192 4.077 4.636 0 9.416.483 11.193-4.077.727-1.88.62-4.261.62-7.739 0-4.616.255-7.596-1.984-9.833-2.267-2.267-5.332-1.983-9.832-1.983h.005zm-1.058 2.13c10.098-.016 11.384-1.14 10.674 14.457-.252 5.516-4.452 4.91-9.614 4.91-9.414 0-9.684-.269-9.684-9.686 0-9.527.746-9.676 8.624-9.684v.003zm7.365 1.96a1.417 1.417 0 100 2.836 1.417 1.417 0 000-2.835zm-6.307 1.658a6.068 6.068 0 000 12.135A6.065 6.065 0 0022.063 16a6.067 6.067 0 00-6.066-6.068zm0 2.13c5.207 0 5.214 7.877 0 7.877-5.205 0-5.213-7.877 0-7.877z" fill="#fff"/></g><defs><linearGradient id="bjpaint0_linear_1031_3623" x1="2.148" y1="29.915" x2="31.799" y2="4.248" gradientUnits="userSpaceOnUse"><stop stop-color="#FD5"/><stop offset=".5" stop-color="#FF543E"/><stop offset="1" stop-color="#C837AB"/></linearGradient><clipPath id="bjclip0_1031_3623"><path fill="#fff" d="M0 0h32v32H0z"/></clipPath></defs></svg><svg fill="none" viewBox="0 0 32 32" id="ok" xmlns="http://www.w3.org/2000/svg"><g clip-path="url(#bkclip0_1018_3627)"><rect width="32" height="32" rx="4" fill="#F96600"/><path d="M15.017 20.087c-1.551-.162-2.95-.545-4.146-1.48-.149-.116-.302-.229-.438-.363-.524-.504-.576-1.08-.162-1.673.355-.51.95-.646 1.57-.353.118.06.232.13.341.207a6.793 6.793 0 007.533.07c.214-.174.462-.303.727-.379a1.147 1.147 0 011.318.526c.327.534.324 1.054-.08 1.469a6.054 6.054 0 01-2.19 1.416c-.803.288-1.639.476-2.488.558.127.14.182.208.27.288 1.15 1.158 2.306 2.31 3.454 3.47a1.142 1.142 0 01.258 1.346 1.36 1.36 0 01-1.273.798 1.24 1.24 0 01-.809-.414c-.87-.875-1.755-1.733-2.605-2.624-.248-.258-.364-.21-.586.014-.874.91-1.764 1.788-2.656 2.668a1.116 1.116 0 01-1.346.242 1.362 1.362 0 01-.785-1.253c.026-.324.177-.626.422-.84 1.142-1.138 2.28-2.277 3.414-3.417.077-.078.15-.16.257-.276z" fill="#fff"/><path d="M15.96 16.124a5.062 5.062 0 11.06-10.125 5.062 5.062 0 01-.06 10.125zm2.515-5.068a2.476 2.476 0 10-2.462 2.484 2.468 2.468 0 002.462-2.484z" fill="#fff"/></g><defs><clipPath id="bkclip0_1018_3627"><path fill="#fff" d="M0 0h32v32H0z"/></clipPath></defs></svg><svg fill="none" viewBox="0 0 32 32" id="ozon" xmlns="http://www.w3.org/2000/svg"><g clip-path="url(#blclip0_1018_3633)"><rect width="32" height="32" rx="4" fill="#005BFF"/><path fill-rule="evenodd" clip-rule="evenodd" d="M29.618 9.422c-.09-.889 1.244-1.35 1.689-.55.32.728.444 1.528.693 2.293v4.124c-1.671-.764-3.36-1.476-5.031-2.222.284 1.03.622 2.062.8 3.129.142.71-.836 1.315-1.387.835-.48-.355-.515-.995-.675-1.529-.445-1.813-1.032-3.59-1.387-5.44.569-.035 1.049.267 1.547.48 1.546.676 3.075 1.351 4.622 2.027-.356-1.031-.622-2.098-.871-3.147zm-14.667 3.77c1.618-1.44 3.911-2.063 6.027-1.619 1.297.303 2.649 1.103 3.004 2.454.231.693.107 1.422-.107 2.098-.497 1.12-1.422 1.99-2.488 2.577-1.938 1.031-4.445 1.262-6.383.09-.87-.57-1.582-1.53-1.493-2.614-.107-1.174.605-2.222 1.44-2.987zm.284 2.986c.143.427.356.853.783 1.066 1.333.747 3.004.534 4.337-.106.872-.427 1.743-1.138 1.92-2.134.09-.515-.266-.96-.693-1.208-.853-.551-1.938-.48-2.898-.391-1.493.284-3.093 1.19-3.449 2.773zm-8.8-1.245c-.408.125-.568.534-.71.89.124.55.604 1.12 1.226.924.818-.231 1.618-.427 2.436-.676-.818 1.956-1.583 3.911-2.365 5.885-.106.213-.106.657.231.55 2.027-.533 4.071-1.066 6.08-1.635.587-.178.64-.924.427-1.404-.249-.356-.711-.48-1.138-.356-.924.285-1.867.498-2.809.765.605-1.494 1.21-2.987 1.796-4.48.231-.623.551-1.21.658-1.867-.303 0-.605 0-.89.071-1.635.462-3.288.889-4.941 1.333zM0 16.623c1.084-.498 2.364-.534 3.413.053 1.494.746 2.383 2.47 2.116 4.124-.16 1.6-1.476 3.022-3.076 3.271-.835.231-1.67-.053-2.47-.32v-2.453c.533.764 1.564 1.244 2.453.853 1.048-.355 1.6-1.689 1.137-2.684-.355-.996-1.6-1.636-2.595-1.191-.41.16-.73.462-.996.817v-2.47H0z" fill="#fff"/><path fill-rule="evenodd" clip-rule="evenodd" d="M15.236 16.178c.355-1.582 1.955-2.489 3.448-2.773.978-.09 2.045-.16 2.898.39.41.25.782.694.694 1.21-.196.995-1.067 1.706-1.92 2.133-1.334.64-3.005.853-4.338.107-.427-.214-.64-.64-.782-1.067zm6.15 2.542c-1.937 1.031-4.444 1.262-6.381.09L13.565 32h14.488c1.014.018 2.098-.213 2.845-.96.853-.746 1.155-1.902 1.12-3.004v-3.147c-2.685-2.933-5.422-5.831-8.125-8.747-.515 1.103-1.44 1.992-2.506 2.578z" fill="#F91155"/></g><defs><clipPath id="blclip0_1018_3633"><path fill="#fff" d="M0 0h32v32H0z"/></clipPath></defs></svg><svg fill="none" viewBox="0 0 26 32" id="pin" xmlns="http://www.w3.org/2000/svg"><path d="M13 0C6.245 0 .75 5.495.75 12.25a12.245 12.245 0 002.49 7.403L12.467 32h1.064l9.229-12.347a12.246 12.246 0 002.49-7.403C25.249 5.495 19.754 0 12.999 0zm0 16.313a4.067 4.067 0 01-4.063-4.063A4.067 4.067 0 0113 8.187a4.067 4.067 0 014.063 4.063A4.067 4.067 0 0113 16.313z" fill="#00415D"/></svg><svg fill="none" viewBox="0 0 32 32" id="vk" xmlns="http://www.w3.org/2000/svg"><g clip-path="url(#bnclip0_1018_3612)"><rect width="32" height="32" rx="4" fill="#2787F5"/><path fill-rule="evenodd" clip-rule="evenodd" d="M26.391 10.895c.144-.504 0-.863-.719-.863h-2.409c-.611 0-.899.323-1.043.683 0 0-1.222 2.984-2.948 4.89-.54.539-.827.755-1.115.755-.143 0-.36-.18-.36-.683v-4.782c0-.612-.179-.863-.682-.863h-3.776c-.395 0-.61.287-.61.539 0 .575.862.719.97 2.337v3.524c0 .755-.144.898-.431.898-.828 0-2.77-2.984-3.956-6.4-.215-.683-.467-.934-1.078-.934h-2.41c-.682 0-.826.323-.826.683 0 .647.827 3.775 3.775 7.946 1.978 2.84 4.782 4.386 7.299 4.386 1.51 0 1.726-.36 1.726-.934v-2.158c0-.683.144-.827.611-.827.36 0 .97.18 2.373 1.546 1.618 1.618 1.906 2.337 2.805 2.337h2.409c.683 0 1.042-.36.827-1.006-.216-.684-1.007-1.654-2.014-2.805-.575-.647-1.402-1.366-1.654-1.726-.36-.467-.252-.647 0-1.078 0 .036 2.912-4.1 3.236-5.465z" fill="#fff"/></g><defs><clipPath id="bnclip0_1018_3612"><path fill="#fff" d="M0 0h32v32H0z"/></clipPath></defs></svg><svg fill="none" viewBox="0 0 32 32" id="yout" xmlns="http://www.w3.org/2000/svg"><g clip-path="url(#boclip0_1018_3619)"><rect width="32" height="32" rx="4" fill="#E60000"/><path d="M25.533 11.19c-.4-1.232-1.724-1.977-2.942-2.148a62.393 62.393 0 00-13.182 0c-1.218.17-2.545.91-2.942 2.147a24.986 24.986 0 000 9.624c.4 1.229 1.724 1.976 2.942 2.147 4.382.466 8.8.466 13.182 0 1.218-.17 2.545-.909 2.942-2.147a24.987 24.987 0 000-9.624zm-11.926 8.643v-7.666L19.847 16c-2.103 1.293-4.145 2.546-6.24 3.833z" fill="#fff"/></g><defs><clipPath id="boclip0_1018_3619"><path fill="#fff" d="M0 0h32v32H0z"/></clipPath></defs></svg></svg>